<svg xmlns="http://www.w3.org/2000/svg" viewBox="0 0 60 60"><defs><style>.cls-1{fill:#203b72;}.cls-2{fill:#1ea7d3;}.cls-3{fill:#fff;}</style></defs><g id="Слой_2" data-name="Слой 2"><g id="Layer_1" data-name="Layer 1"><path class="cls-1" d="M57,50H3a3,3,0,0,1-3-3V12H60V47A3,3,0,0,1,57,50Z"/><path class="cls-2" d="M3,0H57a3,3,0,0,1,3,3v7a0,0,0,0,1,0,0H0a0,0,0,0,1,0,0V3A3,3,0,0,1,3,0Z"/><circle class="cls-3" cx="5" cy="5" r="1.25"/><circle class="cls-3" cx="11" cy="5" r="1.25"/><circle class="cls-3" cx="17" cy="5" r="1.25"/><path class="cls-2" d="M34,58.39H31a1.39,1.39,0,0,1,0-2.78h3A10.62,10.62,0,0,0,44.61,45V31A10.62,10.62,0,0,0,34,20.39H28A10.62,10.62,0,0,0,17.39,31v7a1.39,1.39,0,0,1-2.78,0V31A13.41,13.41,0,0,1,28,17.61h6A13.41,13.41,0,0,1,47.39,31V45A13.41,13.41,0,0,1,34,58.39Z"/><path class="cls-2" d="M16.55,31h1.52a.93.93,0,0,1,.93.93V42.07a.93.93,0,0,1-.93.93H16.55A5.55,5.55,0,0,1,11,37.45v-.89A5.55,5.55,0,0,1,16.55,31Z"/><path class="cls-2" d="M43.93,31h1.52A5.55,5.55,0,0,1,51,36.55v.89A5.55,5.55,0,0,1,45.45,43H43.93a.93.93,0,0,1-.93-.93V31.93a.93.93,0,0,1,.93-.93Z"/><rect class="cls-2" x="25" y="54" width="12" height="6" rx="2.78"/></g></g></svg>