<?xml version="1.0" encoding="UTF-8"?><svg id="uuid-c7292f81-599a-4d36-b9f3-bbc2bf66bf13" xmlns="http://www.w3.org/2000/svg" xmlns:xlink="http://www.w3.org/1999/xlink" viewBox="0 0 60 60"><defs><linearGradient id="uuid-e36b36ae-6c28-4606-a9e2-32ad6815dd53" x1="12.9393" y1="22.9393" x2="47.0607" y2="-11.182" gradientUnits="userSpaceOnUse"><stop offset="0" stop-color="#a62b9f"/><stop offset="1" stop-color="#59c8fa"/></linearGradient><linearGradient id="uuid-c9e7919a-07b5-4626-83d2-3e1ffc8b8100" x1="20.5204" y1="48.4796" x2="45.4606" y2="23.5394" xlink:href="#uuid-e36b36ae-6c28-4606-a9e2-32ad6815dd53"/><linearGradient id="uuid-f7a07693-7d5c-4097-9daf-26c8c0083c94" x1="12.3049" y1="41.051" x2="20.4068" y2="32.949" xlink:href="#uuid-e36b36ae-6c28-4606-a9e2-32ad6815dd53"/><linearGradient id="uuid-ecb376f4-7700-4a2e-bda2-489b1df55efd" x1="41.5932" y1="41.051" x2="49.6951" y2="32.949" xlink:href="#uuid-e36b36ae-6c28-4606-a9e2-32ad6815dd53"/><linearGradient id="uuid-14dc309d-231f-4167-b30b-7528aa6ff31e" x1="27.3135" y1="60.6865" x2="34.6865" y2="53.3135" xlink:href="#uuid-e36b36ae-6c28-4606-a9e2-32ad6815dd53"/></defs><g id="uuid-f33d1933-6164-4a80-81dc-359a77773009"><path d="M57,50H3c-1.6567,0-3-1.3428-3-3V12h60v35c0,1.6572-1.3433,3-3,3Z" fill="#092b49"/><path d="M3,0h54c1.6557,0,3,1.3443,3,3v7H0V3C0,1.3443,1.3443,0,3,0Z" fill="url(#uuid-e36b36ae-6c28-4606-a9e2-32ad6815dd53)"/><circle cx="5" cy="5" r="1.25" fill="#fff"/><circle cx="11" cy="5" r="1.25" fill="#fff"/><circle cx="17" cy="5" r="1.25" fill="#fff"/><path d="M34,58.3857h-3c-.7651,0-1.3853-.6211-1.3853-1.3857s.6202-1.3857,1.3853-1.3857h3c5.853,0,10.6147-4.7618,10.6147-10.6143v-14c0-5.8525-4.7617-10.6143-10.6147-10.6143h-6c-5.853,0-10.6147,4.7618-10.6147,10.6143v7c0,.7646-.6202,1.3857-1.3853,1.3857s-1.3853-.6211-1.3853-1.3857v-7c0-7.3809,6.0044-13.3857,13.3853-13.3857h6c7.3809,0,13.3853,6.0048,13.3853,13.3857v14c0,7.3809-6.0044,13.3857-13.3853,13.3857Z" fill="url(#uuid-c9e7919a-07b5-4626-83d2-3e1ffc8b8100)"/><path d="M16.5547,31h1.5195c.511,0,.9258.4148.9258.9258v10.1484c0,.511-.4148.9258-.9258.9258h-1.5195c-3.0657,0-5.5547-2.489-5.5547-5.5547v-.8906c0-3.0657,2.489-5.5547,5.5547-5.5547Z" fill="url(#uuid-f7a07693-7d5c-4097-9daf-26c8c0083c94)"/><path d="M43.9258,31h1.5195c3.0657,0,5.5547,2.489,5.5547,5.5547v.8906c0,3.0657-2.489,5.5547-5.5547,5.5547h-1.5195c-.511,0-.9258-.4148-.9258-.9258v-10.1484c0-.511.4148-.9258.9258-.9258Z" fill="url(#uuid-ecb376f4-7700-4a2e-bda2-489b1df55efd)"/><rect x="25" y="54" width="12" height="6" rx="2.7773" ry="2.7773" fill="url(#uuid-14dc309d-231f-4167-b30b-7528aa6ff31e)"/></g></svg>