<svg xmlns="http://www.w3.org/2000/svg" viewBox="0 0 60 55"><defs><style>.cls-1{fill:#203b72;}.cls-2{fill:#1ea7d3;}.cls-3{fill:#fff;}</style></defs><g id="Слой_2" data-name="Слой 2"><g id="Layer_1" data-name="Layer 1"><path class="cls-1" d="M30,42C13.18,42,0,35.85,0,28S13.18,14,30,14s30,6.15,30,14S46.82,42,30,42Zm0-26C14.82,16,2,21.5,2,28S14.82,40,30,40s28-5.5,28-12S45.18,16,30,16Z"/><path class="cls-1" d="M18.71,55a7.51,7.51,0,0,1-3.82-1,8.52,8.52,0,0,1-3.84-5.48C9.27,41.92,11.92,31.1,17.79,21,26.26,6.39,38.26-2,45.11,2h0A8.52,8.52,0,0,1,49,7.45c1.78,6.63-.87,17.45-6.74,27.56C35.15,47.17,25.64,55,18.71,55ZM41.29,3c-6.08,0-15.24,7.75-21.77,19C13.9,31.66,11.34,41.89,13,48a6.61,6.61,0,0,0,2.9,4.26C21.56,55.56,32.83,47.18,40.48,34,46.1,24.34,48.66,14.11,47,8a6.61,6.61,0,0,0-2.9-4.26h0A5.65,5.65,0,0,0,41.29,3Z"/><path class="cls-1" d="M41.29,55c-6.93,0-16.44-7.83-23.5-20C11.92,24.9,9.27,14.08,11.05,7.45A8.52,8.52,0,0,1,14.89,2C21.74-2,33.74,6.39,42.21,21,48.08,31.1,50.73,41.92,49,48.55A8.52,8.52,0,0,1,45.11,54,7.51,7.51,0,0,1,41.29,55ZM18.71,3a5.54,5.54,0,0,0-2.82.7A6.61,6.61,0,0,0,13,8c-1.65,6.15.91,16.38,6.53,26.05C27.17,47.19,38.43,55.56,44.11,52.3h0A6.61,6.61,0,0,0,47,48c1.65-6.15-.91-16.38-6.53-26C34,10.75,24.79,3,18.71,3Z"/><circle class="cls-2" cx="47.62" cy="48" r="3"/><circle class="cls-2" cx="5.42" cy="35.16" r="3"/><circle class="cls-2" cx="37" cy="3" r="3"/><path class="cls-2" d="M39,24.5H37a1,1,0,0,1,0-2h2a1,1,0,0,1,0,2Z"/><path class="cls-2" d="M39,29H37a1,1,0,0,1,0-2h2a1,1,0,0,1,0,2Z"/><path class="cls-2" d="M39,33.5H37a1,1,0,0,1,0-2h2a1,1,0,0,1,0,2Z"/><path class="cls-2" d="M23,24.5H21a1,1,0,0,1,0-2h2a1,1,0,0,1,0,2Z"/><path class="cls-2" d="M23,29H21a1,1,0,0,1,0-2h2a1,1,0,0,1,0,2Z"/><path class="cls-2" d="M23,33.5H21a1,1,0,0,1,0-2h2a1,1,0,0,1,0,2Z"/><path class="cls-2" d="M34.5,38a1,1,0,0,1-1-1V35a1,1,0,0,1,2,0v2A1,1,0,0,1,34.5,38Z"/><path class="cls-2" d="M30,38a1,1,0,0,1-1-1V35a1,1,0,0,1,2,0v2A1,1,0,0,1,30,38Z"/><path class="cls-2" d="M25.5,38a1,1,0,0,1-1-1V35a1,1,0,0,1,2,0v2A1,1,0,0,1,25.5,38Z"/><path class="cls-2" d="M34.5,22a1,1,0,0,1-1-1V19a1,1,0,0,1,2,0v2A1,1,0,0,1,34.5,22Z"/><path class="cls-2" d="M30,22a1,1,0,0,1-1-1V19a1,1,0,0,1,2,0v2A1,1,0,0,1,30,22Z"/><path class="cls-2" d="M25.5,22a1,1,0,0,1-1-1V19a1,1,0,0,1,2,0v2A1,1,0,0,1,25.5,22Z"/><rect class="cls-1" x="23" y="21" width="14" height="14" rx="1"/><path class="cls-3" d="M31.5,32h-5a.5.5,0,0,1-.5-.5v-7a.5.5,0,0,1,.5-.5h7a.5.5,0,0,1,.5.5v5Z"/></g></g></svg>