<?xml version="1.0" encoding="UTF-8"?><svg id="uuid-77d92c5a-5abd-4484-ab77-fe9c4a275fd6" xmlns="http://www.w3.org/2000/svg" xmlns:xlink="http://www.w3.org/1999/xlink" viewBox="0 0 60 55.001"><defs><linearGradient id="uuid-01c94d59-2c45-4095-b661-31d0adb39ee8" x1="45.4959" y1="50.1214" x2="49.7387" y2="45.8786" gradientUnits="userSpaceOnUse"><stop offset="0" stop-color="#a62b9f"/><stop offset="1" stop-color="#59c8fa"/></linearGradient><linearGradient id="uuid-73aa5ada-4898-4530-b5b1-67e23cee3e0f" x1="3.2941" y1="37.2797" x2="7.5367" y2="33.0371" xlink:href="#uuid-01c94d59-2c45-4095-b661-31d0adb39ee8"/><linearGradient id="uuid-a904c168-428c-4659-a430-d0b434392e5e" x1="34.8786" y1="5.1214" x2="39.1214" y2=".8786" xlink:href="#uuid-01c94d59-2c45-4095-b661-31d0adb39ee8"/><linearGradient id="uuid-20c527b9-999a-49f5-9780-73d15563d195" x1="36.7928" y1="24.7072" x2="39.2072" y2="22.2928" xlink:href="#uuid-01c94d59-2c45-4095-b661-31d0adb39ee8"/><linearGradient id="uuid-22cc1df4-2a59-405f-a040-05c9cc084298" x1="36.7928" y1="29.2072" x2="39.2072" y2="26.7928" xlink:href="#uuid-01c94d59-2c45-4095-b661-31d0adb39ee8"/><linearGradient id="uuid-b0306dc8-75c4-444f-8be8-4305f11531f8" x1="36.7928" y1="33.7072" x2="39.2072" y2="31.2928" xlink:href="#uuid-01c94d59-2c45-4095-b661-31d0adb39ee8"/><linearGradient id="uuid-a0d22360-a9e3-4105-8ff5-a64cd7ce66ab" x1="20.7928" y1="24.7072" x2="23.2072" y2="22.2928" xlink:href="#uuid-01c94d59-2c45-4095-b661-31d0adb39ee8"/><linearGradient id="uuid-09f95ca7-9700-4f0b-9e6f-2d6876d84be3" x1="20.7928" y1="29.2072" x2="23.2072" y2="26.7928" xlink:href="#uuid-01c94d59-2c45-4095-b661-31d0adb39ee8"/><linearGradient id="uuid-bb2a5a0c-7b2b-4862-8519-86f9f669ee4f" x1="20.7928" y1="33.7072" x2="23.2072" y2="31.2928" xlink:href="#uuid-01c94d59-2c45-4095-b661-31d0adb39ee8"/><linearGradient id="uuid-74b9955d-db77-4f2c-bb7f-4fb7e322299b" x1="33.2928" y1="37.2072" x2="35.7072" y2="34.7928" xlink:href="#uuid-01c94d59-2c45-4095-b661-31d0adb39ee8"/><linearGradient id="uuid-d7ad4be2-3faf-4971-a82e-800ba3057471" x1="28.7928" y1="37.2072" x2="31.2072" y2="34.7928" xlink:href="#uuid-01c94d59-2c45-4095-b661-31d0adb39ee8"/><linearGradient id="uuid-82acfa3a-1c8e-41e1-ba67-b22b5b33f513" x1="24.2928" y1="37.2072" x2="26.7072" y2="34.7928" xlink:href="#uuid-01c94d59-2c45-4095-b661-31d0adb39ee8"/><linearGradient id="uuid-3f63f5b2-947c-4a78-83d5-9f19f2e56a52" x1="33.2928" y1="21.2072" x2="35.7072" y2="18.7928" xlink:href="#uuid-01c94d59-2c45-4095-b661-31d0adb39ee8"/><linearGradient id="uuid-34bc3234-ceaf-42ea-8167-e5e785b4215f" x1="28.7928" y1="21.2072" x2="31.2072" y2="18.7928" xlink:href="#uuid-01c94d59-2c45-4095-b661-31d0adb39ee8"/><linearGradient id="uuid-fd7d1278-167e-425a-94ef-43787634351b" x1="24.2928" y1="21.2072" x2="26.7072" y2="18.7928" xlink:href="#uuid-01c94d59-2c45-4095-b661-31d0adb39ee8"/></defs><g id="uuid-f9f1835c-9fd3-4aa4-b717-c85b290f8c99"><path d="M30,42C13.1777,42,0,35.8506,0,28s13.1777-14,30-14,30,6.1494,30,14-13.1777,14-30,14ZM30,16c-15.1777,0-28,5.4951-28,12s12.8223,12,28,12,28-5.4951,28-12-12.8223-12-28-12Z" fill="#092b49"/><path d="M18.707,55.001c-1.3891,0-2.6743-.3135-3.8169-.9697-1.8579-1.0665-3.1489-2.9092-3.8369-5.4766-1.7783-6.6377.8657-17.459,6.7368-27.5693C26.2632,6.3916,38.2627-1.9609,45.1099,1.9688h0c1.8579,1.0664,3.1489,2.9091,3.8369,5.4765,1.7783,6.6377-.8657,17.459-6.7368,27.5693-7.0596,12.1592-16.5679,19.9854-23.503,19.9864ZM41.2866,2.9971c-6.0766,0-15.2378,7.748-21.7671,18.9922-5.6172,9.6738-8.1821,19.8984-6.5341,26.0478.5449,2.0342,1.5209,3.4678,2.9008,4.2598,5.6787,3.2597,16.9444-5.1123,24.5943-18.2862,5.6172-9.6738,8.1821-19.8984,6.5341-26.0478-.5449-2.0342-1.5209-3.4678-2.9008-4.2598h0c-.8321-.4775-1.7842-.706-2.8272-.706Z" fill="#092b49"/><path d="M41.293,55.001c-6.9351,0-16.4429-7.8262-23.503-19.9864-5.8711-10.1103-8.5151-20.9316-6.7368-27.5693.688-2.5674,1.979-4.4101,3.8369-5.4765,6.8462-3.9278,18.8462,4.4218,27.3199,19.0166,5.8711,10.1103,8.5151,20.9316,6.7368,27.5693-.688,2.5674-1.979,4.4101-3.8369,5.4766-1.1421.6552-2.4283.9697-3.8169.9697ZM18.7134,2.9971c-1.0435,0-1.9946.2275-2.8272.706-1.3799.792-2.3559,2.2256-2.9008,4.2598-1.648,6.1494.9169,16.374,6.5341,26.0478,7.6504,13.1758,18.9146,21.5518,24.5943,18.2862h0c1.3799-.792,2.3559-2.2256,2.9008-4.2598,1.648-6.1494-.9169-16.374-6.5341-26.0478C33.9517,10.7451,24.79,2.9971,18.7134,2.9971Z" fill="#092b49"/><circle cx="47.6172" cy="48" r="3" fill="url(#uuid-01c94d59-2c45-4095-b661-31d0adb39ee8)"/><circle cx="5.4155" cy="35.1582" r="3" fill="url(#uuid-73aa5ada-4898-4530-b5b1-67e23cee3e0f)"/><circle cx="37" cy="3" r="3" fill="url(#uuid-a904c168-428c-4659-a430-d0b434392e5e)"/><path d="M39,24.5h-2c-.5522,0-1-.4473-1-1s.4478-1,1-1h2c.5522,0,1,.4473,1,1s-.4478,1-1,1Z" fill="url(#uuid-20c527b9-999a-49f5-9780-73d15563d195)"/><path d="M39,29h-2c-.5522,0-1-.4473-1-1s.4478-1,1-1h2c.5522,0,1,.4473,1,1s-.4478,1-1,1Z" fill="url(#uuid-22cc1df4-2a59-405f-a040-05c9cc084298)"/><path d="M39,33.5h-2c-.5522,0-1-.4473-1-1s.4478-1,1-1h2c.5522,0,1,.4473,1,1s-.4478,1-1,1Z" fill="url(#uuid-b0306dc8-75c4-444f-8be8-4305f11531f8)"/><path d="M23,24.5h-2c-.5522,0-1-.4473-1-1s.4478-1,1-1h2c.5522,0,1,.4473,1,1s-.4478,1-1,1Z" fill="url(#uuid-a0d22360-a9e3-4105-8ff5-a64cd7ce66ab)"/><path d="M23,29h-2c-.5522,0-1-.4473-1-1s.4478-1,1-1h2c.5522,0,1,.4473,1,1s-.4478,1-1,1Z" fill="url(#uuid-09f95ca7-9700-4f0b-9e6f-2d6876d84be3)"/><path d="M23,33.5h-2c-.5522,0-1-.4473-1-1s.4478-1,1-1h2c.5522,0,1,.4473,1,1s-.4478,1-1,1Z" fill="url(#uuid-bb2a5a0c-7b2b-4862-8519-86f9f669ee4f)"/><path d="M34.5,38c-.5522,0-1-.4473-1-1v-2c0-.5527.4478-1,1-1s1,.4473,1,1v2c0,.5527-.4478,1-1,1Z" fill="url(#uuid-74b9955d-db77-4f2c-bb7f-4fb7e322299b)"/><path d="M30,38c-.5522,0-1-.4473-1-1v-2c0-.5527.4478-1,1-1s1,.4473,1,1v2c0,.5527-.4478,1-1,1Z" fill="url(#uuid-d7ad4be2-3faf-4971-a82e-800ba3057471)"/><path d="M25.5,38c-.5522,0-1-.4473-1-1v-2c0-.5527.4478-1,1-1s1,.4473,1,1v2c0,.5527-.4478,1-1,1Z" fill="url(#uuid-82acfa3a-1c8e-41e1-ba67-b22b5b33f513)"/><path d="M34.5,22c-.5522,0-1-.4473-1-1v-2c0-.5527.4478-1,1-1s1,.4473,1,1v2c0,.5527-.4478,1-1,1Z" fill="url(#uuid-3f63f5b2-947c-4a78-83d5-9f19f2e56a52)"/><path d="M30,22c-.5522,0-1-.4473-1-1v-2c0-.5527.4478-1,1-1s1,.4473,1,1v2c0,.5527-.4478,1-1,1Z" fill="url(#uuid-34bc3234-ceaf-42ea-8167-e5e785b4215f)"/><path d="M25.5,22c-.5522,0-1-.4473-1-1v-2c0-.5527.4478-1,1-1s1,.4473,1,1v2c0,.5527-.4478,1-1,1Z" fill="url(#uuid-fd7d1278-167e-425a-94ef-43787634351b)"/><rect x="23" y="21" width="14" height="14" rx="1" ry="1" fill="#092b49"/><path d="M31.5,32h-5c-.2759,0-.5-.2236-.5-.5v-7c0-.2764.2241-.5.5-.5h7c.2759,0,.5.2236.5.5v5c-.9761.9766-1.5239,1.5234-2.5,2.5Z" fill="#fff"/></g></svg>