<svg xmlns="http://www.w3.org/2000/svg" viewBox="0 0 54.58 60"><defs><style>.cls-1{fill:#203b72;}.cls-2{fill:#fff;}.cls-3{fill:#1ea7d3;}</style></defs><g id="Слой_2" data-name="Слой 2"><g id="Layer_1" data-name="Layer 1"><path class="cls-1" d="M48.73,7.83A23.24,23.24,0,0,0,35.89.49,23.6,23.6,0,0,0,7.57,21.07,13.19,13.19,0,0,1,6.1,26l-6,11a1,1,0,0,0,.51,1.4l4.68,1.88a1.31,1.31,0,0,1,.82,1.21v7.09a2.5,2.5,0,0,0,2.5,2.5h6.79a2.5,2.5,0,0,1,2.5,2.5V57.5a2.5,2.5,0,0,0,2.5,2.5H45.54A2.5,2.5,0,0,0,48,57.5V52.75A39.3,39.3,0,0,1,52,35a25,25,0,0,0,2.56-11.4A23.32,23.32,0,0,0,48.73,7.83Z"/><path class="cls-2" d="M45.08,22.5h-3a1,1,0,0,1,0-2h3a1,1,0,0,1,0,2Z"/><path class="cls-2" d="M45.08,27.5h-3a1,1,0,0,1,0-2h3a1,1,0,0,1,0,2Z"/><path class="cls-2" d="M45.08,32.5h-3a1,1,0,0,1,0-2h3a1,1,0,0,1,0,2Z"/><path class="cls-2" d="M45.08,17.5h-3a1,1,0,0,1,0-2h3a1,1,0,0,1,0,2Z"/><path class="cls-2" d="M20.08,22.5h-3a1,1,0,0,1,0-2h3a1,1,0,0,1,0,2Z"/><path class="cls-2" d="M20.08,27.5h-3a1,1,0,0,1,0-2h3a1,1,0,0,1,0,2Z"/><path class="cls-2" d="M20.08,32.5h-3a1,1,0,0,1,0-2h3a1,1,0,0,1,0,2Z"/><path class="cls-2" d="M20.08,17.5h-3a1,1,0,0,1,0-2h3a1,1,0,0,1,0,2Z"/><path class="cls-2" d="M28.58,14a1,1,0,0,1-1-1V10a1,1,0,0,1,2,0v3A1,1,0,0,1,28.58,14Z"/><path class="cls-2" d="M33.58,14a1,1,0,0,1-1-1V10a1,1,0,0,1,2,0v3A1,1,0,0,1,33.58,14Z"/><path class="cls-2" d="M38.58,14a1,1,0,0,1-1-1V10a1,1,0,0,1,2,0v3A1,1,0,0,1,38.58,14Z"/><path class="cls-2" d="M23.58,14a1,1,0,0,1-1-1V10a1,1,0,0,1,2,0v3A1,1,0,0,1,23.58,14Z"/><path class="cls-2" d="M28.58,39a1,1,0,0,1-1-1V35a1,1,0,0,1,2,0v3A1,1,0,0,1,28.58,39Z"/><path class="cls-2" d="M33.58,39a1,1,0,0,1-1-1V35a1,1,0,0,1,2,0v3A1,1,0,0,1,33.58,39Z"/><path class="cls-2" d="M38.58,39a1,1,0,0,1-1-1V35a1,1,0,0,1,2,0v3A1,1,0,0,1,38.58,39Z"/><path class="cls-2" d="M23.58,39a1,1,0,0,1-1-1V35a1,1,0,0,1,2,0v3A1,1,0,0,1,23.58,39Z"/><rect class="cls-3" x="20.08" y="13" width="22" height="22" rx="2"/><path class="cls-2" d="M34.08,31h-9a1,1,0,0,1-1-1V18a1,1,0,0,1,1-1h12a1,1,0,0,1,1,1v9Z"/></g></g></svg>