<?xml version="1.0" encoding="UTF-8"?><svg id="uuid-11328b24-8516-42a0-b70c-c847f38e9a31" xmlns="http://www.w3.org/2000/svg" xmlns:xlink="http://www.w3.org/1999/xlink" viewBox="0 0 54.583 59.9999"><defs><linearGradient id="uuid-62055d94-42c0-44b8-987c-00b95f5cf354" x1="20.6687" y1="34.4141" x2="41.4971" y2="13.5858" gradientUnits="userSpaceOnUse"><stop offset="0" stop-color="#a62b9f"/><stop offset="1" stop-color="#59c8fa"/></linearGradient></defs><g id="uuid-0d30cc83-b9bf-433b-b5a6-199a985ef0ae"><path d="M48.7279,7.8266c-3.3569-3.7881-7.8711-6.3413-12.8335-7.3365C21.6132-2.3736,8.9813,7.6781,7.5717,21.0741c-.1826,1.7334-.6392,3.4268-1.4741,4.9571L.1225,36.9867c-.2872.5264-.0498,1.1851.5063,1.4077l4.6782,1.8706c.4976.1988.8233.6807.8233,1.2163v7.0899c0,1.3808,1.1196,2.5,2.5,2.5h6.7861c1.3804,0,2.5,1.1196,2.5,2.5v3.9287c0,1.3809,1.1191,2.5,2.5,2.5h25.1187c1.3808,0,2.5-1.1191,2.5-2.5v-4.7456c0-6.1489,1.2036-12.2974,3.9877-17.7813,1.7403-3.4243,2.5679-7.3662,2.5601-11.4018-.0102-5.4175-1.6548-11.0044-5.855-15.7446Z" fill="#092b49"/><path d="M45.0829,22.4999h-3c-.5522,0-1-.4478-1-1s.4478-1,1-1h3c.5523,0,1,.4478,1,1s-.4477,1-1,1Z" fill="#fff"/><path d="M45.0829,27.4999h-3c-.5522,0-1-.4478-1-1s.4478-1,1-1h3c.5523,0,1,.4478,1,1s-.4477,1-1,1Z" fill="#fff"/><path d="M45.0829,32.4999h-3c-.5522,0-1-.4478-1-1s.4478-1,1-1h3c.5523,0,1,.4478,1,1s-.4477,1-1,1Z" fill="#fff"/><path d="M45.0829,17.4999h-3c-.5522,0-1-.4478-1-1s.4478-1,1-1h3c.5523,0,1,.4478,1,1s-.4477,1-1,1Z" fill="#fff"/><path d="M20.0829,22.4999h-3c-.5522,0-1-.4478-1-1s.4478-1,1-1h3c.5523,0,1,.4478,1,1s-.4477,1-1,1Z" fill="#fff"/><path d="M20.0829,27.4999h-3c-.5522,0-1-.4478-1-1s.4478-1,1-1h3c.5523,0,1,.4478,1,1s-.4477,1-1,1Z" fill="#fff"/><path d="M20.0829,32.4999h-3c-.5522,0-1-.4478-1-1s.4478-1,1-1h3c.5523,0,1,.4478,1,1s-.4477,1-1,1Z" fill="#fff"/><path d="M20.0829,17.4999h-3c-.5522,0-1-.4478-1-1s.4478-1,1-1h3c.5523,0,1,.4478,1,1s-.4477,1-1,1Z" fill="#fff"/><path d="M28.5829,13.9999c-.5522,0-1-.4478-1-1v-3c0-.5522.4478-1,1-1s1,.4478,1,1v3c0,.5522-.4477,1-1,1Z" fill="#fff"/><path d="M33.5829,13.9999c-.5522,0-1-.4478-1-1v-3c0-.5522.4478-1,1-1s1,.4478,1,1v3c0,.5522-.4477,1-1,1Z" fill="#fff"/><path d="M38.5829,13.9999c-.5522,0-1-.4478-1-1v-3c0-.5522.4478-1,1-1s1,.4478,1,1v3c0,.5522-.4477,1-1,1Z" fill="#fff"/><path d="M23.5829,13.9999c-.5522,0-1-.4478-1-1v-3c0-.5522.4478-1,1-1s1,.4478,1,1v3c0,.5522-.4477,1-1,1Z" fill="#fff"/><path d="M28.5829,38.9999c-.5522,0-1-.4478-1-1v-3c0-.5522.4478-1,1-1s1,.4478,1,1v3c0,.5522-.4477,1-1,1Z" fill="#fff"/><path d="M33.5829,38.9999c-.5522,0-1-.4478-1-1v-3c0-.5522.4478-1,1-1s1,.4478,1,1v3c0,.5522-.4477,1-1,1Z" fill="#fff"/><path d="M38.5829,38.9999c-.5522,0-1-.4478-1-1v-3c0-.5522.4478-1,1-1s1,.4478,1,1v3c0,.5522-.4477,1-1,1Z" fill="#fff"/><path d="M23.5829,38.9999c-.5522,0-1-.4478-1-1v-3c0-.5522.4478-1,1-1s1,.4478,1,1v3c0,.5522-.4477,1-1,1Z" fill="#fff"/><rect x="20.0829" y="12.9999" width="22" height="22" rx="2" ry="2" fill="url(#uuid-62055d94-42c0-44b8-987c-00b95f5cf354)"/><path d="M34.0829,30.9999h-9c-.5522,0-1-.4478-1-1v-12c0-.5522.4478-1,1-1h12c.5523,0,1,.4478,1,1v9l-4,4Z" fill="#fff"/></g></svg>