<?xml version="1.0" encoding="UTF-8"?><svg id="uuid-e2b63589-ce50-48b4-86eb-2a0632950bd6" xmlns="http://www.w3.org/2000/svg" xmlns:xlink="http://www.w3.org/1999/xlink" viewBox="0 0 60 60"><defs><linearGradient id="uuid-0f4e497a-2d99-4096-96b9-a1086c7b9ac3" x1=".6087" y1="43.0331" x2="37.2351" y2="6.4067" gradientUnits="userSpaceOnUse"><stop offset="0" stop-color="#a62b9f"/><stop offset="1" stop-color="#59c8fa"/></linearGradient><linearGradient id="uuid-d0fe411b-9449-4518-9a7b-b6c4917302a4" x1="11.7298" y1="58.91" x2="19.5091" y2="51.1307" xlink:href="#uuid-0f4e497a-2d99-4096-96b9-a1086c7b9ac3"/><linearGradient id="uuid-3d5c2d63-7ef2-4d18-b49b-46166744832a" x1="22.7648" y1="53.5932" x2="59.3912" y2="16.9669" xlink:href="#uuid-0f4e497a-2d99-4096-96b9-a1086c7b9ac3"/><linearGradient id="uuid-837170b6-68dd-4121-939f-087c6fb20055" x1="40.4908" y1="8.8693" x2="48.2701" y2="1.09" xlink:href="#uuid-0f4e497a-2d99-4096-96b9-a1086c7b9ac3"/><linearGradient id="uuid-2ac4451f-5bd3-4e51-a8a9-4a34ad38f121" x1="17.8786" y1="42.1214" x2="42.1213" y2="17.8786" xlink:href="#uuid-0f4e497a-2d99-4096-96b9-a1086c7b9ac3"/></defs><g id="uuid-fe11a1dd-aca9-4dcf-a245-f8d065850b3b"><path d="M13.9277,54.9316c-.3964,0-.7978-.1176-1.1474-.3632C4.7773,48.9507,0,39.7661,0,30,0,13.458,13.458,0,30,0c1.1045,0,2,.8955,2,2s-.8955,2-2,2C15.6631,4,4,15.6636,4,30c0,8.4639,4.1416,16.4248,11.0791,21.2949.9033.6343,1.1221,1.8819.4873,2.7857-.3887.5547-1.0088.851-1.6387.851Z" fill="url(#uuid-0f4e497a-2d99-4096-96b9-a1086c7b9ac3)"/><polygon points="15.8008 47.4224 20.5068 57.5498 9.3828 56.563 15.8008 47.4224" fill="url(#uuid-d0fe411b-9449-4518-9a7b-b6c4917302a4)"/><path d="M30,60c-1.1045,0-2-.8955-2-2s.8955-2,2-2c14.3369,0,26-11.6636,26-26,0-8.4639-4.1416-16.4248-11.0791-21.2949-.9033-.6343-1.1221-1.8819-.4873-2.7857.6328-.9043,1.8809-1.123,2.7861-.4878,8.003,5.6177,12.7803,14.8023,12.7803,24.5684,0,16.542-13.458,30-30,30Z" fill="url(#uuid-3d5c2d63-7ef2-4d18-b49b-46166744832a)"/><polygon points="44.1992 12.5776 39.4932 2.4502 50.6172 3.437 44.1992 12.5776" fill="url(#uuid-837170b6-68dd-4121-939f-087c6fb20055)"/><path d="M47,28.5h-4c-.5527,0-1-.4478-1-1s.4473-1,1-1h4c.5527,0,1,.4478,1,1s-.4473,1-1,1Z" fill="#092b49"/><path d="M47,33.5h-4c-.5527,0-1-.4478-1-1s.4473-1,1-1h4c.5527,0,1,.4478,1,1s-.4473,1-1,1Z" fill="#092b49"/><path d="M47,38.5h-4c-.5527,0-1-.4478-1-1s.4473-1,1-1h4c.5527,0,1,.4478,1,1s-.4473,1-1,1Z" fill="#092b49"/><path d="M47,23.5h-4c-.5527,0-1-.4478-1-1s.4473-1,1-1h4c.5527,0,1,.4478,1,1s-.4473,1-1,1Z" fill="#092b49"/><path d="M17,28.5h-4c-.5527,0-1-.4478-1-1s.4473-1,1-1h4c.5527,0,1,.4478,1,1s-.4473,1-1,1Z" fill="#092b49"/><path d="M17,33.5h-4c-.5527,0-1-.4478-1-1s.4473-1,1-1h4c.5527,0,1,.4478,1,1s-.4473,1-1,1Z" fill="#092b49"/><path d="M17,38.5h-4c-.5527,0-1-.4478-1-1s.4473-1,1-1h4c.5527,0,1,.4478,1,1s-.4473,1-1,1Z" fill="#092b49"/><path d="M17,23.5h-4c-.5527,0-1-.4478-1-1s.4473-1,1-1h4c.5527,0,1,.4478,1,1s-.4473,1-1,1Z" fill="#092b49"/><path d="M27.5,18c-.5527,0-1-.4478-1-1v-4c0-.5522.4473-1,1-1s1,.4478,1,1v4c0,.5522-.4473,1-1,1Z" fill="#092b49"/><path d="M32.5,18c-.5527,0-1-.4478-1-1v-4c0-.5522.4473-1,1-1s1,.4478,1,1v4c0,.5522-.4473,1-1,1Z" fill="#092b49"/><path d="M37.5,18c-.5527,0-1-.4478-1-1v-4c0-.5522.4473-1,1-1s1,.4478,1,1v4c0,.5522-.4473,1-1,1Z" fill="#092b49"/><path d="M22.5,18c-.5527,0-1-.4478-1-1v-4c0-.5522.4473-1,1-1s1,.4478,1,1v4c0,.5522-.4473,1-1,1Z" fill="#092b49"/><path d="M27.5,48c-.5527,0-1-.4478-1-1v-4c0-.5522.4473-1,1-1s1,.4478,1,1v4c0,.5522-.4473,1-1,1Z" fill="#092b49"/><path d="M32.5,48c-.5527,0-1-.4478-1-1v-4c0-.5522.4473-1,1-1s1,.4478,1,1v4c0,.5522-.4473,1-1,1Z" fill="#092b49"/><path d="M37.5,48c-.5527,0-1-.4478-1-1v-4c0-.5522.4473-1,1-1s1,.4478,1,1v4c0,.5522-.4473,1-1,1Z" fill="#092b49"/><path d="M22.5,48c-.5527,0-1-.4478-1-1v-4c0-.5522.4473-1,1-1s1,.4478,1,1v4c0,.5522-.4473,1-1,1Z" fill="#092b49"/><rect x="17" y="17" width="26" height="26" rx="3" ry="3" fill="url(#uuid-2ac4451f-5bd3-4e51-a8a9-4a34ad38f121)"/><path d="M34,38h-11c-.5527,0-1-.4478-1-1v-14c0-.5522.4473-1,1-1h14c.5527,0,1,.4478,1,1v11c-1.5625,1.562-2.4375,2.438-4,4Z" fill="#fff"/></g></svg>