<svg xmlns="http://www.w3.org/2000/svg" viewBox="0 0 60 60"><defs><style>.cls-1{fill:#1ea7d3;}.cls-2{fill:#203b72;}.cls-3{fill:#fff;}</style></defs><g id="Слой_2" data-name="Слой 2"><g id="Layer_1" data-name="Layer 1"><path class="cls-1" d="M13.93,54.93a2,2,0,0,1-1.15-.36A30,30,0,0,1,30,0a2,2,0,0,1,0,4A26,26,0,0,0,15.08,51.29a2,2,0,0,1,.49,2.79A2,2,0,0,1,13.93,54.93Z"/><polygon class="cls-1" points="15.8 47.42 20.51 57.55 9.38 56.56 15.8 47.42"/><path class="cls-1" d="M30,60a2,2,0,0,1,0-4A26,26,0,0,0,44.92,8.71a2,2,0,0,1,2.3-3.28A30,30,0,0,1,30,60Z"/><polygon class="cls-1" points="44.2 12.58 39.49 2.45 50.62 3.44 44.2 12.58"/><path class="cls-2" d="M47,28.5H43a1,1,0,0,1,0-2h4a1,1,0,0,1,0,2Z"/><path class="cls-2" d="M47,33.5H43a1,1,0,0,1,0-2h4a1,1,0,0,1,0,2Z"/><path class="cls-2" d="M47,38.5H43a1,1,0,0,1,0-2h4a1,1,0,0,1,0,2Z"/><path class="cls-2" d="M47,23.5H43a1,1,0,0,1,0-2h4a1,1,0,0,1,0,2Z"/><path class="cls-2" d="M17,28.5H13a1,1,0,0,1,0-2h4a1,1,0,0,1,0,2Z"/><path class="cls-2" d="M17,33.5H13a1,1,0,0,1,0-2h4a1,1,0,0,1,0,2Z"/><path class="cls-2" d="M17,38.5H13a1,1,0,0,1,0-2h4a1,1,0,0,1,0,2Z"/><path class="cls-2" d="M17,23.5H13a1,1,0,0,1,0-2h4a1,1,0,0,1,0,2Z"/><path class="cls-2" d="M27.5,18a1,1,0,0,1-1-1V13a1,1,0,0,1,2,0v4A1,1,0,0,1,27.5,18Z"/><path class="cls-2" d="M32.5,18a1,1,0,0,1-1-1V13a1,1,0,0,1,2,0v4A1,1,0,0,1,32.5,18Z"/><path class="cls-2" d="M37.5,18a1,1,0,0,1-1-1V13a1,1,0,0,1,2,0v4A1,1,0,0,1,37.5,18Z"/><path class="cls-2" d="M22.5,18a1,1,0,0,1-1-1V13a1,1,0,0,1,2,0v4A1,1,0,0,1,22.5,18Z"/><path class="cls-2" d="M27.5,48a1,1,0,0,1-1-1V43a1,1,0,0,1,2,0v4A1,1,0,0,1,27.5,48Z"/><path class="cls-2" d="M32.5,48a1,1,0,0,1-1-1V43a1,1,0,0,1,2,0v4A1,1,0,0,1,32.5,48Z"/><path class="cls-2" d="M37.5,48a1,1,0,0,1-1-1V43a1,1,0,0,1,2,0v4A1,1,0,0,1,37.5,48Z"/><path class="cls-2" d="M22.5,48a1,1,0,0,1-1-1V43a1,1,0,0,1,2,0v4A1,1,0,0,1,22.5,48Z"/><rect class="cls-1" x="17" y="17" width="26" height="26" rx="3"/><path class="cls-3" d="M34,38H23a1,1,0,0,1-1-1V23a1,1,0,0,1,1-1H37a1,1,0,0,1,1,1V34Z"/></g></g></svg>