<svg xmlns="http://www.w3.org/2000/svg" viewBox="0 0 60 60"><defs><style>.cls-1{fill:#203b72;}.cls-2{fill:#1ea7d3;}.cls-3{fill:#fff;}</style></defs><g id="Слой_2" data-name="Слой 2"><g id="Layer_1" data-name="Layer 1"><path class="cls-1" d="M41.6,26.36l-3.37-1.94a.78.78,0,0,1-.38-.82,17.36,17.36,0,0,0,0-5.19.82.82,0,0,1,.39-.83l3.37-1.94a.8.8,0,0,0,.34-1l-1.64-4a.8.8,0,0,0-.94-.47l-3.76,1a.82.82,0,0,1-.86-.31,16.81,16.81,0,0,0-3.66-3.68.79.79,0,0,1-.31-.85l1-3.75a.81.81,0,0,0-.47-.95L27.36.06a.8.8,0,0,0-1,.34L24.42,3.77a.78.78,0,0,1-.82.38,17,17,0,0,0-5.19,0,.83.83,0,0,1-.83-.38L15.64.4a.8.8,0,0,0-1-.34l-4,1.64a.8.8,0,0,0-.47.94l1,3.76a.82.82,0,0,1-.31.86,16.81,16.81,0,0,0-3.68,3.66.78.78,0,0,1-.85.31l-3.75-1a.81.81,0,0,0-.95.47l-1.64,4a.8.8,0,0,0,.34,1l3.37,1.94a.78.78,0,0,1,.38.82,17.36,17.36,0,0,0,0,5.19.82.82,0,0,1-.39.83L.4,26.36a.8.8,0,0,0-.34,1L1.7,31.31a.81.81,0,0,0,1,.47l3.75-1a.82.82,0,0,1,.86.31,17,17,0,0,0,3.66,3.68.78.78,0,0,1,.31.85l-1,3.75a.81.81,0,0,0,.47.95l4,1.64a.8.8,0,0,0,1-.34l1.94-3.37a.78.78,0,0,1,.82-.38,17,17,0,0,0,5.19,0,.83.83,0,0,1,.83.38l1.94,3.38a.8.8,0,0,0,1,.34l3.95-1.64a.81.81,0,0,0,.47-.95l-1-3.75a.82.82,0,0,1,.31-.86,16.81,16.81,0,0,0,3.68-3.66.78.78,0,0,1,.85-.31l3.75,1a.81.81,0,0,0,.95-.47l1.64-3.95A.8.8,0,0,0,41.6,26.36Z"/><path class="cls-2" d="M60,43.53a.56.56,0,0,0-.48-.55l-2.65-.35a.55.55,0,0,1-.47-.42A11.29,11.29,0,0,0,55,38.91a.54.54,0,0,1,0-.62l1.63-2.13a.56.56,0,0,0,0-.73l-2.08-2.08a.56.56,0,0,0-.73,0l-2.13,1.63a.54.54,0,0,1-.62,0,11.29,11.29,0,0,0-3.3-1.37.55.55,0,0,1-.42-.47L47,30.48a.56.56,0,0,0-.55-.48H43.53a.56.56,0,0,0-.55.48l-.35,2.65a.54.54,0,0,1-.42.47A11.29,11.29,0,0,0,38.91,35a.54.54,0,0,1-.62,0l-2.13-1.63a.56.56,0,0,0-.73,0l-2.08,2.08a.56.56,0,0,0,0,.73l1.63,2.13a.54.54,0,0,1,0,.62,11.29,11.29,0,0,0-1.37,3.3.55.55,0,0,1-.47.42L30.48,43a.56.56,0,0,0-.48.55v2.94a.56.56,0,0,0,.48.55l2.65.35a.54.54,0,0,1,.47.42A11.29,11.29,0,0,0,35,51.09a.54.54,0,0,1,0,.62l-1.63,2.13a.56.56,0,0,0,0,.73l2.08,2.08a.56.56,0,0,0,.73,0l2.13-1.63a.54.54,0,0,1,.62,0,11.29,11.29,0,0,0,3.3,1.37.54.54,0,0,1,.42.47L43,59.52a.56.56,0,0,0,.55.48h2.94a.56.56,0,0,0,.55-.48l.35-2.65a.55.55,0,0,1,.42-.47A11.29,11.29,0,0,0,51.09,55a.54.54,0,0,1,.62,0l2.13,1.63a.56.56,0,0,0,.73,0l2.08-2.08a.56.56,0,0,0,0-.73l-1.63-2.13a.54.54,0,0,1,0-.62,11.29,11.29,0,0,0,1.37-3.3.54.54,0,0,1,.47-.42L59.52,47a.56.56,0,0,0,.48-.55ZM47.1,50.08a5.5,5.5,0,1,1,3-7.18A5.5,5.5,0,0,1,47.1,50.08Z"/><path class="cls-3" d="M31,17H29a1,1,0,0,1,0-2h2a1,1,0,0,1,0,2Z"/><path class="cls-3" d="M31,22H29a1,1,0,0,1,0-2h2a1,1,0,0,1,0,2Z"/><path class="cls-3" d="M31,27H29a1,1,0,0,1,0-2h2a1,1,0,0,1,0,2Z"/><path class="cls-3" d="M13,17H11a1,1,0,0,1,0-2h2a1,1,0,0,1,0,2Z"/><path class="cls-3" d="M13,22H11a1,1,0,0,1,0-2h2a1,1,0,0,1,0,2Z"/><path class="cls-3" d="M13,27H11a1,1,0,0,1,0-2h2a1,1,0,0,1,0,2Z"/><path class="cls-3" d="M26,32a1,1,0,0,1-1-1V29a1,1,0,0,1,2,0v2A1,1,0,0,1,26,32Z"/><path class="cls-3" d="M21,32a1,1,0,0,1-1-1V29a1,1,0,0,1,2,0v2A1,1,0,0,1,21,32Z"/><path class="cls-3" d="M16,32a1,1,0,0,1-1-1V29a1,1,0,0,1,2,0v2A1,1,0,0,1,16,32Z"/><path class="cls-3" d="M26,14a1,1,0,0,1-1-1V11a1,1,0,0,1,2,0v2A1,1,0,0,1,26,14Z"/><path class="cls-3" d="M21,14a1,1,0,0,1-1-1V11a1,1,0,0,1,2,0v2A1,1,0,0,1,21,14Z"/><path class="cls-3" d="M16,14a1,1,0,0,1-1-1V11a1,1,0,0,1,2,0v2A1,1,0,0,1,16,14Z"/><rect class="cls-2" x="13" y="13" width="16" height="16" rx="2"/><path class="cls-3" d="M22,25H18a1,1,0,0,1-1-1V18a1,1,0,0,1,1-1h6a1,1,0,0,1,1,1v4Z"/></g></g></svg>