<?xml version="1.0" encoding="UTF-8"?><svg id="uuid-0a7bbd3c-3aae-4d26-9709-6b606ad944ee" xmlns="http://www.w3.org/2000/svg" xmlns:xlink="http://www.w3.org/1999/xlink" viewBox="0 0 60 59.9998"><defs><linearGradient id="uuid-86e07397-cc84-4f06-8870-9a4427e328e2" x1="34.3932" y1="55.6064" x2="55.6068" y2="34.3927" gradientUnits="userSpaceOnUse"><stop offset="0" stop-color="#a62b9f"/><stop offset="1" stop-color="#59c8fa"/></linearGradient><linearGradient id="uuid-cadccb14-15a1-462e-b35e-10339b060f7e" x1="13.5858" y1="28.414" x2="28.4142" y2="13.5856" xlink:href="#uuid-86e07397-cc84-4f06-8870-9a4427e328e2"/></defs><g id="uuid-b5c51c28-5069-45eb-ae38-4630f393abe5"><path d="M41.5986,26.3592l-3.3667-1.9385c-.289-.167-.4375-.4941-.3867-.8242.2695-1.7442.2564-3.4922-.0073-5.1895-.0513-.3301.0976-.6572.3872-.8242l3.3735-1.9424c.3487-.2011.4942-.6289.3404-1.001l-1.6358-3.9482c-.1538-.3721-.5595-.5723-.9482-.4678l-3.7593,1.0127c-.3223.0869-.6592-.04-.8564-.3095-1.0137-1.3868-2.2403-2.6319-3.6641-3.6748-.269-.1973-.3955-.5332-.3091-.8555l1.0098-3.751c.1045-.3887-.0952-.7939-.4668-.9482L27.3599.0613c-.3721-.1543-.8003-.0088-1.001.3399l-1.9385,3.3662c-.1665.289-.4936.4385-.8237.3867-1.7437-.2695-3.4917-.2559-5.1895.0078-.3301.0518-.6572-.0976-.8237-.3867l-1.9429-3.374c-.2007-.3487-.6289-.4942-1.001-.3399l-3.9482,1.6348c-.3721.1543-.5718.5605-.4673.9482l1.0122,3.7598c.0869.3223-.0395.6592-.3091.8564-1.3872,1.0137-2.6323,2.2403-3.6752,3.6641-.1968.2695-.5337.3955-.8555.3086l-3.751-1.0098c-.3887-.1045-.7944.0957-.9482.4678L.0615,14.6404c-.1543.3711-.0088.7998.3399,1l3.3667,1.9385c.289.167.4375.4941.3867.8242-.2695,1.7442-.2564,3.4922.0073,5.1895.0513.3301-.0976.6572-.3872.8242l-3.3735,1.9424c-.3487.2002-.4942.6289-.3404,1.001l1.6358,3.9482c.1538.3721.56.5713.9482.4668l3.7593-1.0117c.3223-.0869.6592.039.8564.3095,1.0137,1.3868,2.2403,2.6319,3.6641,3.6748.269.1963.3955.5333.3091.8555l-1.0098,3.751c-.1045.3887.0952.7939.4668.9482l3.9492,1.6358c.3721.1543.8003.0088,1.001-.3399l1.9385-3.3662c.1665-.289.4941-.4385.8237-.3867,1.7437.2695,3.4917.2559,5.1895-.0078.3296-.0518.6572.0976.8237.3867l1.9429,3.374c.2007.3487.6289.4942,1.0005.3399l3.9492-1.6358c.3716-.1533.5713-.5595.4668-.9482l-1.0122-3.7588c-.0865-.3223.0395-.6592.3091-.8564,1.3872-1.0137,2.6323-2.2403,3.6748-3.6641.1972-.2695.5337-.3955.8559-.3096l3.751,1.0098c.3887.1055.7944-.0947.9482-.4668l1.6358-3.9492c.1543-.3711.0088-.7998-.3399-1Z" fill="#092b49"/><path d="M60,43.5271c0-.2763-.2056-.5107-.4805-.5468l-2.6528-.3457c-.228-.0303-.4087-.1993-.4629-.4219-.2886-1.1816-.7578-2.29-1.373-3.3008-.1197-.1963-.1109-.4443.0293-.626l1.6347-2.1259c.169-.2198.1485-.5303-.0473-.7266l-2.0816-2.0811c-.1958-.1962-.5068-.2168-.7265-.0468l-2.1255,1.6338c-.1822.1406-.4297.1494-.626.0293-1.0108-.6153-2.1196-1.084-3.3003-1.3721-.2231-.0547-.3926-.2354-.4224-.4639l-.3462-2.6523c-.0356-.2744-.27-.4805-.5468-.4805h-2.9444c-.2768,0-.5112.2061-.5468.4805l-.3462,2.6523c-.0298.2285-.1993.4092-.4224.4639-1.1807.2881-2.2895.7568-3.3003,1.3721-.1963.1201-.4438.1113-.626-.0293l-2.1255-1.6338c-.2197-.169-.5307-.1494-.7265.0468l-2.0816,2.0811c-.1958.1963-.2163.5068-.0473.7266l1.6347,2.1259c.1402.1817.149.4297.0293.626-.6157,1.0108-1.0844,2.1192-1.3725,3.3008-.0547.2226-.2354.3916-.4634.4219l-2.6528.3457c-.2749.0361-.4805.2705-.4805.5478v2.9434c0,.2773.2056.5117.4805.5478l2.6528.3457c.228.0293.4087.1993.4629.4219.2886,1.1817.7578,2.29,1.373,3.3008.1197.1963.1109.4443-.0293.626l-1.6347,2.1259c-.169.2188-.1485.5303.0473.7256l2.0816,2.0821c.1958.1963.5068.2158.7265.0468l2.125-1.6347c.1827-.1397.4302-.1485.6265-.0283,1.0108.6152,2.1196,1.0839,3.3003,1.372.2231.0547.3926.2354.4224.4629l.3462,2.6533c.0356.2744.27.4805.5468.4805h2.9444c.2768,0,.5112-.2061.5468-.4805l.3462-2.6533c.0298-.2275.1993-.4082.4224-.4629,1.1807-.2881,2.2895-.7568,3.2998-1.372.1968-.1202.4443-.1114.6265.0283l2.1255,1.6347c.2197.169.5307.1495.7265-.0468l2.0816-2.0821c.1963-.1953.2163-.5068.0473-.7256l-1.6347-2.1259c-.1402-.1817-.149-.4297-.0293-.626.6157-1.0108,1.0844-2.1191,1.3725-3.3008.0547-.2226.2354-.3926.4634-.4219l2.6528-.3457c.2749-.0361.4805-.2705.4805-.5478v-2.9444ZM47.104,50.0799c-2.8052,1.1621-6.022-.1699-7.1841-2.9756-1.1621-2.8057.1704-6.0225,2.9761-7.1846,2.8052-1.1621,6.022.1699,7.1841,2.9756,1.1621,2.8057-.1704,6.0225-2.9761,7.1846Z" fill="url(#uuid-86e07397-cc84-4f06-8870-9a4427e328e2)"/><path d="M31,16.9998h-2c-.5522,0-1-.4473-1-1s.4478-1,1-1h2c.5522,0,1,.4473,1,1s-.4478,1-1,1Z" fill="#fff"/><path d="M31,21.9998h-2c-.5522,0-1-.4473-1-1s.4478-1,1-1h2c.5522,0,1,.4473,1,1s-.4478,1-1,1Z" fill="#fff"/><path d="M31,26.9998h-2c-.5522,0-1-.4473-1-1s.4478-1,1-1h2c.5522,0,1,.4473,1,1s-.4478,1-1,1Z" fill="#fff"/><path d="M13,16.9998h-2c-.5522,0-1-.4473-1-1s.4478-1,1-1h2c.5522,0,1,.4473,1,1s-.4478,1-1,1Z" fill="#fff"/><path d="M13,21.9998h-2c-.5522,0-1-.4473-1-1s.4478-1,1-1h2c.5522,0,1,.4473,1,1s-.4478,1-1,1Z" fill="#fff"/><path d="M13,26.9998h-2c-.5522,0-1-.4473-1-1s.4478-1,1-1h2c.5522,0,1,.4473,1,1s-.4478,1-1,1Z" fill="#fff"/><path d="M26,31.9998c-.5522,0-1-.4473-1-1v-2c0-.5527.4478-1,1-1s1,.4473,1,1v2c0,.5527-.4478,1-1,1Z" fill="#fff"/><path d="M21,31.9998c-.5522,0-1-.4473-1-1v-2c0-.5527.4478-1,1-1s1,.4473,1,1v2c0,.5527-.4478,1-1,1Z" fill="#fff"/><path d="M16,31.9998c-.5522,0-1-.4473-1-1v-2c0-.5527.4478-1,1-1s1,.4473,1,1v2c0,.5527-.4478,1-1,1Z" fill="#fff"/><path d="M26,13.9998c-.5522,0-1-.4473-1-1v-2c0-.5527.4478-1,1-1s1,.4473,1,1v2c0,.5527-.4478,1-1,1Z" fill="#fff"/><path d="M21,13.9998c-.5522,0-1-.4473-1-1v-2c0-.5527.4478-1,1-1s1,.4473,1,1v2c0,.5527-.4478,1-1,1Z" fill="#fff"/><path d="M16,13.9998c-.5522,0-1-.4473-1-1v-2c0-.5527.4478-1,1-1s1,.4473,1,1v2c0,.5527-.4478,1-1,1Z" fill="#fff"/><rect x="13" y="12.9998" width="16" height="16" rx="2" ry="2" fill="url(#uuid-cadccb14-15a1-462e-b35e-10339b060f7e)"/><path d="M22,24.9998h-4c-.5522,0-1-.4473-1-1v-6c0-.5527.4478-1,1-1h6c.5522,0,1,.4473,1,1v4c-1.1714,1.1719-1.8286,1.8281-3,3Z" fill="#fff"/></g></svg>