<svg xmlns="http://www.w3.org/2000/svg" viewBox="0 0 60 48.62"><defs><style>.cls-1{fill:#203b72;}.cls-2{fill:#fff;}.cls-3{fill:#1ea7d3;}</style></defs><g id="Слой_2" data-name="Слой 2"><g id="Layer_1" data-name="Layer 1"><path class="cls-1" d="M30,10.15a71.61,71.61,0,0,0-4.74-5.74A14.43,14.43,0,0,0,15,0,14.7,14.7,0,0,0,4.36,4.41,15.2,15.2,0,0,0,0,15.23,15,15,0,0,0,4.36,25.74c5.14,5.11,16,15.7,21.82,21.32a5.49,5.49,0,0,0,7.64,0c5.8-5.63,16.7-16.22,21.82-21.33A15,15,0,0,0,60,15.23,15.16,15.16,0,0,0,55.64,4.41,14.71,14.71,0,0,0,45,0,14.43,14.43,0,0,0,34.74,4.41,74.05,74.05,0,0,0,30,10.15Z"/><path class="cls-2" d="M30,37.12a1,1,0,0,1-1-1v-19a1,1,0,0,1,2,0v19A1,1,0,0,1,30,37.12Z"/><path class="cls-2" d="M35,37.12a1,1,0,0,1-1-1v-19a1,1,0,0,1,2,0v19A1,1,0,0,1,35,37.12Z"/><path class="cls-2" d="M25,37.12a1,1,0,0,1-1-1v-19a1,1,0,0,1,2,0v19A1,1,0,0,1,25,37.12Z"/><path class="cls-2" d="M39.5,27.62h-19a1,1,0,0,1,0-2h19a1,1,0,0,1,0,2Z"/><path class="cls-2" d="M39.5,22.62h-19a1,1,0,0,1,0-2h19a1,1,0,0,1,0,2Z"/><path class="cls-2" d="M39.5,32.62h-19a1,1,0,1,1,0-2h19a1,1,0,0,1,0,2Z"/><rect class="cls-3" x="23" y="19.62" width="14" height="14" rx="1"/><path class="cls-2" d="M36,18.62H24a2,2,0,0,0-2,2v12a2,2,0,0,0,2,2H36a2,2,0,0,0,2-2v-12A2,2,0,0,0,36,18.62Zm0,14H24v-12H36Z"/></g></g></svg>