<?xml version="1.0" encoding="UTF-8"?><svg id="uuid-9a9764c8-64fe-4837-a545-0b2c2d1aeae4" xmlns="http://www.w3.org/2000/svg" xmlns:xlink="http://www.w3.org/1999/xlink" viewBox="0 0 60 48.6151"><defs><linearGradient id="uuid-1394ed11-49ba-46d2-bba5-32074588de72" x1="23.2928" y1="33.3223" x2="36.7071" y2="19.9079" gradientUnits="userSpaceOnUse"><stop offset="0" stop-color="#a62b9f"/><stop offset="1" stop-color="#59c8fa"/></linearGradient></defs><g id="uuid-925275b1-79f1-4d58-8e6d-8ef2d29d012d"><path d="M29.9999,10.1542s-2.7017-3.6455-4.7397-5.7452C22.4413,1.5008,18.7304.0399,15.0004.0008c-3.8482-.04-7.7114,1.4375-10.6445,4.4082C1.4164,7.3876-.0289,11.3172.0004,15.2313c.0293,3.8203,1.4653,7.6221,4.3555,10.5039,5.1406,5.1153,16.0283,15.7022,21.8252,21.3291,2.1289,2.0674,5.5097,2.0674,7.6391.002,5.8008-5.6289,16.6968-16.2198,21.8242-21.3311,2.8902-2.8857,4.3257-6.6865,4.355-10.5039.0327-3.9141-1.4126-7.8437-4.355-10.8223C52.7147,1.4383,48.8441-.0392,44.9999.0008c-3.7305.0391-7.438,1.5-10.2568,4.4082-2.0381,2.0997-4.7432,5.7452-4.7432,5.7452Z" fill="#092b49"/><path d="M29.9999,37.1151c-.5522,0-1-.4473-1-1v-19c0-.5527.4478-1,1-1s1,.4473,1,1v19c0,.5527-.4478,1-1,1Z" fill="#fff"/><path d="M34.9999,37.1151c-.5522,0-1-.4473-1-1v-19c0-.5527.4478-1,1-1s1,.4473,1,1v19c0,.5527-.4478,1-1,1Z" fill="#fff"/><path d="M24.9999,37.1151c-.5522,0-1-.4473-1-1v-19c0-.5527.4478-1,1-1s1,.4473,1,1v19c0,.5527-.4478,1-1,1Z" fill="#fff"/><path d="M39.4999,27.6151h-19c-.5522,0-1-.4473-1-1s.4478-1,1-1h19c.5522,0,1,.4473,1,1s-.4478,1-1,1Z" fill="#fff"/><path d="M39.4999,22.6151h-19c-.5522,0-1-.4473-1-1s.4478-1,1-1h19c.5522,0,1,.4473,1,1s-.4478,1-1,1Z" fill="#fff"/><path d="M39.4999,32.6151h-19c-.5522,0-1-.4473-1-1s.4478-1,1-1h19c.5522,0,1,.4473,1,1s-.4478,1-1,1Z" fill="#fff"/><rect x="22.9999" y="19.6151" width="14" height="14" rx="1" ry="1" fill="url(#uuid-1394ed11-49ba-46d2-bba5-32074588de72)"/><path d="M35.9999,18.6151h-12c-1.1045,0-2,.8955-2,2v12c0,1.1045.8955,2,2,2h12c1.1045,0,2-.8955,2-2v-12c0-1.1045-.8955-2-2-2ZM35.9999,32.6151h-12v-12h12v12Z" fill="#fff"/></g></svg>