<svg xmlns="http://www.w3.org/2000/svg" viewBox="0 0 54.17 60"><defs><style>.cls-1{fill:#203b72;}.cls-2{fill:#1ea7d3;}.cls-3{fill:#fff;}</style></defs><g id="Слой_2" data-name="Слой 2"><g id="Layer_1" data-name="Layer 1"><path class="cls-1" d="M48.31,7.83A23.25,23.25,0,0,0,35.48.49,23.61,23.61,0,0,0,7.15,21.07a13,13,0,0,1-1.47,5L.24,36a2,2,0,0,0,1,2.81l3.63,1.46a1.29,1.29,0,0,1,.82,1.21v7.09a2.5,2.5,0,0,0,2.5,2.5H15a2.5,2.5,0,0,1,2.5,2.5V57.5A2.5,2.5,0,0,0,20,60H45.12a2.5,2.5,0,0,0,2.5-2.5V52.75a39.17,39.17,0,0,1,4-17.78,25.16,25.16,0,0,0,2.56-11.4A23.33,23.33,0,0,0,48.31,7.83Z"/><path class="cls-2" d="M35.46,21.81l-1.77-1a.42.42,0,0,1-.2-.43,9.18,9.18,0,0,0,0-2.72.42.42,0,0,1,.2-.43l1.77-1a.41.41,0,0,0,.17-.52l-.85-2.07a.42.42,0,0,0-.5-.24l-2,.53a.44.44,0,0,1-.45-.17,8.74,8.74,0,0,0-1.92-1.92.43.43,0,0,1-.16-.45l.53-2a.42.42,0,0,0-.24-.5L28,8a.43.43,0,0,0-.53.18l-1,1.76a.44.44,0,0,1-.43.21,8.86,8.86,0,0,0-2.72,0,.4.4,0,0,1-.43-.2l-1-1.77A.43.43,0,0,0,21.33,8l-2.06.86a.42.42,0,0,0-.25.5l.53,2a.41.41,0,0,1-.16.45,9,9,0,0,0-1.93,1.92.4.4,0,0,1-.44.16l-2-.52a.43.43,0,0,0-.5.24l-.85,2.07a.41.41,0,0,0,.18.52l1.76,1a.42.42,0,0,1,.2.43,8.86,8.86,0,0,0,0,2.72.44.44,0,0,1-.21.43l-1.76,1a.41.41,0,0,0-.18.52l.85,2.07a.43.43,0,0,0,.5.24l2-.53a.42.42,0,0,1,.45.17,9,9,0,0,0,1.92,1.92.41.41,0,0,1,.16.45l-.53,2a.42.42,0,0,0,.25.5l2.06.86a.43.43,0,0,0,.53-.18l1-1.76a.43.43,0,0,1,.44-.21,8.8,8.8,0,0,0,2.71,0,.42.42,0,0,1,.44.2l1,1.77A.43.43,0,0,0,28,30l2.07-.86a.42.42,0,0,0,.24-.5l-.53-2a.43.43,0,0,1,.16-.45,9,9,0,0,0,1.93-1.92.41.41,0,0,1,.45-.16l2,.52a.42.42,0,0,0,.5-.24l.85-2.07A.41.41,0,0,0,35.46,21.81ZM24.67,23.4a4.4,4.4,0,1,1,4.4-4.4A4.4,4.4,0,0,1,24.67,23.4Z"/><path class="cls-3" d="M46.67,32.21a.3.3,0,0,0-.26-.29L45,31.74a.3.3,0,0,1-.24-.23A6.67,6.67,0,0,0,44,29.75a.29.29,0,0,1,0-.33l.87-1.13a.3.3,0,0,0,0-.39l-1.11-1.11a.29.29,0,0,0-.39,0l-1.13.87a.3.3,0,0,1-.34,0,6.07,6.07,0,0,0-1.76-.73.29.29,0,0,1-.22-.25l-.19-1.41a.29.29,0,0,0-.29-.26H37.88a.29.29,0,0,0-.29.26l-.19,1.41a.29.29,0,0,1-.22.25,6.07,6.07,0,0,0-1.76.73.3.3,0,0,1-.34,0L34,26.76a.29.29,0,0,0-.39,0L32.45,27.9a.3.3,0,0,0,0,.39l.87,1.13a.29.29,0,0,1,0,.33,6.38,6.38,0,0,0-.74,1.76.3.3,0,0,1-.24.23l-1.42.18a.3.3,0,0,0-.25.29v1.58a.3.3,0,0,0,.25.29l1.42.18a.3.3,0,0,1,.24.23,6.38,6.38,0,0,0,.74,1.76.31.31,0,0,1,0,.33l-.87,1.13a.3.3,0,0,0,0,.39l1.11,1.11a.29.29,0,0,0,.39,0l1.13-.87a.3.3,0,0,1,.34,0,6.07,6.07,0,0,0,1.76.73.29.29,0,0,1,.22.25l.19,1.41a.29.29,0,0,0,.29.26h1.57a.29.29,0,0,0,.29-.26l.19-1.41a.29.29,0,0,1,.22-.25,6.07,6.07,0,0,0,1.76-.73.3.3,0,0,1,.34,0l1.13.87a.29.29,0,0,0,.39,0l1.11-1.11a.3.3,0,0,0,0-.39L44,36.58a.29.29,0,0,1,0-.33,6.67,6.67,0,0,0,.73-1.76.3.3,0,0,1,.24-.23l1.42-.18a.3.3,0,0,0,.26-.29Zm-6.88,3.5a2.93,2.93,0,1,1,1.58-3.83A2.93,2.93,0,0,1,39.79,35.71Z"/></g></g></svg>