<?xml version="1.0" encoding="UTF-8"?><svg id="uuid-65c16ff4-0c10-49ef-88f1-61aa278602f2" xmlns="http://www.w3.org/2000/svg" xmlns:xlink="http://www.w3.org/1999/xlink" viewBox="0 0 54.1659 59.9999"><defs><linearGradient id="uuid-75c6c844-c44c-4f0c-8b06-ef1a23e6beba" x1="16.8877" y1="26.7781" x2="32.444" y2="11.2217" gradientUnits="userSpaceOnUse"><stop offset="0" stop-color="#a62b9f"/><stop offset="1" stop-color="#59c8fa"/></linearGradient></defs><g id="uuid-4fc2d1c9-d544-43aa-a193-3ef937af80a2"><path d="M48.3114,7.8266c-3.3574-3.7881-7.8721-6.3413-12.834-7.3365C21.1962-2.3736,8.5643,7.6781,7.1542,21.0741c-.1826,1.7334-.6387,3.4268-1.4736,4.9571L.245,35.9979c-.5742,1.0523-.0996,2.3697,1.0127,2.8145l3.6318,1.4526c.4981.1988.8243.6807.8243,1.2163v7.0899c0,1.3808,1.1191,2.5,2.5,2.5h6.7851c1.3809,0,2.5,1.1196,2.5,2.5v3.9287c0,1.3809,1.1192,2.5,2.5,2.5h25.1192c1.3808,0,2.5-1.1191,2.5-2.5v-4.7456c0-6.1489,1.2031-12.2974,3.9873-17.7813,1.7412-3.4243,2.5683-7.3662,2.5605-11.4018-.0107-5.4175-1.6553-11.0044-5.8545-15.7446Z" fill="#092b49"/><path d="M35.4559,21.807l-1.7636-1.0156c-.1514-.0869-.2295-.2588-.2022-.4311.1407-.9136.1338-1.8291-.0049-2.7183-.0263-.1729.0518-.3447.2032-.4317l1.7675-1.0175c.1827-.1055.2588-.3296.1778-.5244l-.8565-2.0684c-.081-.1948-.2929-.2993-.497-.2446l-1.9688.5302c-.1689.0455-.3457-.021-.4492-.1621-.5303-.7265-1.1729-1.3789-1.9189-1.9248-.1407-.1035-.2071-.2798-.1622-.4482l.5293-1.9649c.0547-.2036-.0498-.416-.2451-.4965l-2.0683-.857c-.1944-.0805-.419-.0044-.5245.1782l-1.0146,1.7632c-.0879.1514-.2588.2295-.4316.2027-.9141-.1411-1.8291-.1343-2.7188.0039-.1728.0268-.3437-.0513-.4316-.2027l-1.0176-1.7671c-.1045-.1826-.3291-.2592-.5234-.1782l-2.0684.8565c-.1953.0805-.2998.2934-.2451.497l.5303,1.9688c.0449.1689-.0206.3457-.1622.4487-.7265.5308-1.3789,1.1734-1.9248,1.9195-.1035.1406-.2793.207-.4482.1616l-1.9648-.5288c-.2032-.0547-.4161.0498-.4971.2446l-.8565,2.0688c-.081.1944-.0048.419.1778.524l1.7636,1.0156c.1514.0869.2295.2583.2022.4311-.1406.9136-.1338,1.8292.0049,2.7183.0263.1729-.0518.3447-.2032.4317l-1.7675,1.0175c-.1826.1055-.2588.3296-.1778.5244l.8565,2.0684c.081.1948.2929.2993.4971.2446l1.9687-.5302c.1689-.0455.3457.0205.4482.1621.5313.7265,1.1739,1.3784,1.92,1.9248.1406.103.207.2793.1621.4482l-.5293,1.9649c-.0547.2036.0498.416.2451.4965l2.0684.857c.1943.0805.4189.0044.5244-.1782l1.0146-1.7632c.0879-.1514.2588-.2295.4317-.2027.914.1411,1.8291.1343,2.7187-.0039.1729-.0268.3438.0513.4316.2027l1.0176,1.7671c.1045.1826.3291.2592.5235.1782l2.0683-.8565c.1953-.081.2998-.2934.2451-.497l-.5302-1.9688c-.045-.1689.0205-.3457.1621-.4487.7265-.5308,1.3789-1.1734,1.9248-1.9195.1035-.1406.2793-.207.4482-.1616l1.9649.5288c.2031.0547.416-.0498.497-.2446l.8565-2.0688c.081-.1944.0049-.419-.1778-.524ZM24.6659,23.3998c-2.4297,0-4.4004-1.9697-4.4004-4.3999s1.9707-4.3999,4.4004-4.3999,4.4004,1.9697,4.4004,4.3999-1.9707,4.3999-4.4004,4.3999Z" fill="url(#uuid-75c6c844-c44c-4f0c-8b06-ef1a23e6beba)"/><path d="M46.6659,32.2147c0-.1479-.1094-.2724-.2559-.2919l-1.415-.1846c-.1221-.0156-.2187-.106-.2471-.2251-.1543-.6294-.4043-1.2212-.7324-1.7598-.0635-.105-.0596-.2373.0156-.3345l.8721-1.1333c.0899-.1171.0791-.2832-.0254-.3877l-1.1103-1.1098c-.1045-.1045-.2705-.1152-.3877-.0254l-1.1328.8721c-.0977.0747-.2295.0791-.334.0151-.5391-.3281-1.1309-.5781-1.7608-.7319-.1181-.0288-.2089-.1255-.2246-.2471l-.1845-1.4146c-.0196-.1469-.1446-.2563-.292-.2563h-1.5703c-.1475,0-.2725.1094-.292.2563l-.1846,1.4146c-.0156.1216-.1055.2183-.2246.2471-.6299.1538-1.2217.4038-1.7608.7324-.1045.0635-.2363.0591-.3339-.0156l-1.1338-.8721c-.1162-.0898-.2823-.0791-.3868.0254l-1.1103,1.1098c-.1045.1045-.1152.2706-.0254.3877l.8721,1.1333c.0752.0977.0791.2295.0156.3345-.3281.5386-.5781,1.1304-.7324,1.7598-.0293.1191-.125.2095-.2471.2251l-1.415.1846c-.1465.0195-.2559.144-.2559.2919v1.5704c0,.1479.1094.2724.2559.2915l1.415.185c.1221.0156.2178.106.2471.2251.1533.6294.4043,1.2212.7324,1.7598.0635.105.0586.2368-.0156.3345l-.8721,1.1333c-.0898.1171-.0791.2827.0254.3872l1.1103,1.1103c.1045.1045.2706.1152.3868.0254l1.1338-.8721c.0976-.0747.2294-.0791.3339-.0156.5391.3286,1.1309.5786,1.7608.7324.1181.0288.209.1255.2246.2466l.1846,1.4151c.0195.1464.1445.2563.292.2563h1.5703c.1474,0,.2724-.1094.292-.2563l.1845-1.4146c.0157-.1216.1065-.2183.2246-.2471.6299-.1538,1.2217-.4038,1.7608-.7324.1045-.0635.2363-.0591.334.0156l1.1328.8721c.1172.0898.2832.0791.3877-.0254l1.1103-1.1103c.1045-.1045.1153-.2701.0254-.3872l-.8721-1.1333c-.0752-.0977-.0791-.2295-.0156-.3345.3281-.5386.5781-1.1304.7324-1.7598.0284-.1191.125-.2095.2471-.2251l1.415-.185c.1465-.0191.2559-.1436.2559-.2915v-1.5704ZM39.788,35.7094c-1.4961.6196-3.2119-.0908-3.8311-1.5874-.6201-1.4961.0908-3.2119,1.5869-3.8316,1.4961-.6196,3.212.0908,3.8311,1.5874.6201,1.4961-.0908,3.2115-1.5869,3.8316Z" fill="#fff"/></g></svg>