<svg xmlns="http://www.w3.org/2000/svg" viewBox="0 0 46 60"><defs><style>.cls-1{fill:#203b72;}.cls-2{fill:#1ea7d3;}.cls-3{fill:#fff;}</style></defs><g id="Слой_2" data-name="Слой 2"><g id="Layer_1" data-name="Layer 1"><path class="cls-1" d="M23,57.9C19.54,56.76,2,50.07,2,31.62V10.74L23,2.16l21,8.58V31.62C44,49.9,26.33,56.77,23,57.9Z"/><path class="cls-2" d="M23,0h0L0,9.4V31.62C0,53.45,23,60,23,60s23-6.55,23-28.38V9.4ZM42,31.62c0,16.17-14.77,22.64-19,24.17-4.25-1.53-19-8-19-24.17V12.08L23,4.32l19,7.76Z"/><circle class="cls-3" cx="23" cy="29" r="13"/><path class="cls-2" d="M24.5,36a1,1,0,0,1-.95-.68L20.5,26.16l-3.05,9.16a1,1,0,0,1-1.9-.64l4-12a1,1,0,0,1,1.9,0l4,12A1,1,0,0,1,24.82,36,1.25,1.25,0,0,1,24.5,36Z"/><path class="cls-2" d="M28.5,36a1,1,0,0,1-1-1V23a1,1,0,0,1,2,0V35A1,1,0,0,1,28.5,36Z"/><path class="cls-2" d="M23.5,33h-6a1,1,0,0,1,0-2h6a1,1,0,0,1,0,2Z"/></g></g></svg>