<?xml version="1.0" encoding="UTF-8"?><svg id="uuid-3c7eb0e2-ed3d-40e8-b528-196734bf65af" xmlns="http://www.w3.org/2000/svg" xmlns:xlink="http://www.w3.org/1999/xlink" viewBox="0 0 46 60"><defs><linearGradient id="uuid-5aaf284d-5439-4e23-95ab-7ba379b7c574" x1="3.1126" y1="46.0586" x2="42.8874" y2="6.2839" gradientUnits="userSpaceOnUse"><stop offset="0" stop-color="#a62b9f"/><stop offset="1" stop-color="#59c8fa"/></linearGradient><linearGradient id="uuid-e9343352-28ca-467a-880a-1db961216687" x1="15.7928" y1="35.7072" x2="25.2071" y2="26.2929" xlink:href="#uuid-5aaf284d-5439-4e23-95ab-7ba379b7c574"/><linearGradient id="uuid-5b469bf4-ac2e-4520-a913-82c9bc0d238f" x1="24.7927" y1="32.7073" x2="32.2073" y2="25.2927" xlink:href="#uuid-5aaf284d-5439-4e23-95ab-7ba379b7c574"/><linearGradient id="uuid-005a4108-558c-4136-8b5f-4c531ef9f485" x1="18.2927" y1="34.2073" x2="22.7073" y2="29.7927" xlink:href="#uuid-5aaf284d-5439-4e23-95ab-7ba379b7c574"/></defs><g id="uuid-60c2106e-2ff0-4500-809b-023550f0d131"><path d="M22.9922,57.9023c-3.4551-1.1396-20.9922-7.8359-20.9922-26.2773V10.7402L23,2.1602l21,8.58v20.8848c0,18.2773-17.667,25.1436-21.0078,26.2773Z" fill="#092b49"/><path d="M23,0h0L0,9.3965v22.2285c0,21.8262,23,28.375,23,28.375,0,0,23-6.5488,23-28.375V9.3965L23,0ZM42,31.625c0,16.1631-14.7656,22.6396-18.999,24.1641-4.249-1.5303-19.001-8.0078-19.001-24.1641V12.084l19-7.7627,19,7.7617v19.542Z" fill="url(#uuid-5aaf284d-5439-4e23-95ab-7ba379b7c574)"/><circle cx="23" cy="29" r="13" fill="#fff"/><path d="M24.5,36c-.4189,0-.8086-.2646-.9482-.6836l-3.0518-9.1543-3.0518,9.1543c-.1748.5234-.7353.8076-1.2646.6318-.5234-.1738-.8066-.7402-.6318-1.2646l4-12c.1357-.4082.5175-.6836.9482-.6836s.8125.2754.9482.6836l4,12c.1748.5244-.1084,1.0908-.6318,1.2646-.1055.0352-.2119.0518-.3164.0518Z" fill="url(#uuid-e9343352-28ca-467a-880a-1db961216687)"/><path d="M28.5,36c-.5527,0-1-.4473-1-1v-12c0-.5527.4473-1,1-1s1,.4473,1,1v12c0,.5527-.4473,1-1,1Z" fill="url(#uuid-5b469bf4-ac2e-4520-a913-82c9bc0d238f)"/><path d="M23.5,33h-6c-.5527,0-1-.4473-1-1s.4473-1,1-1h6c.5527,0,1,.4473,1,1s-.4473,1-1,1Z" fill="url(#uuid-005a4108-558c-4136-8b5f-4c531ef9f485)"/></g></svg>