<?xml version="1.0" encoding="UTF-8"?><svg id="uuid-b6ec1eff-e149-419e-a787-0b5b86c11041" xmlns="http://www.w3.org/2000/svg" xmlns:xlink="http://www.w3.org/1999/xlink" viewBox="0 0 60 60"><defs><linearGradient id="uuid-d91abdd9-a2d8-420e-a6ed-26473b9f22f9" x1="11.9534" y1="33.1148" x2="34.5947" y2="10.4734" gradientUnits="userSpaceOnUse"><stop offset="0" stop-color="#a62b9f"/><stop offset="1" stop-color="#59c8fa"/></linearGradient><linearGradient id="uuid-303a56d9-68ca-46d3-bb13-fc0f40f4f382" x1="18.8291" y1="42.7656" x2="23.8298" y2="37.7649" xlink:href="#uuid-d91abdd9-a2d8-420e-a6ed-26473b9f22f9"/><linearGradient id="uuid-08ba8202-0504-4fb9-ae57-24d0e6322b95" x1="25.4054" y1="39.5266" x2="48.0467" y2="16.8853" xlink:href="#uuid-d91abdd9-a2d8-420e-a6ed-26473b9f22f9"/><linearGradient id="uuid-b98b7754-027a-49b8-9002-df177cf7c672" x1="36.1702" y1="12.2351" x2="41.1709" y2="7.2344" xlink:href="#uuid-d91abdd9-a2d8-420e-a6ed-26473b9f22f9"/></defs><g id="uuid-7690661f-68f6-432c-bd84-856982dd6e6a"><rect width="60" height="50" rx="3" ry="3" fill="#092b49"/><rect x="4" y="4" width="52" height="42" rx="1" ry="1" fill="#fff"/><rect x="22" y="50" width="16" height="6" fill="#092b49"/><path d="M46,60H14c-1.1045,0-2-.8955-2-2h0c0-1.1045.8955-2,2-2h32c1.1045,0,2,.8955,2,2h0c0,1.1045-.8955,2-2,2Z" fill="#092b49"/><path d="M20.2412,40.4229c-.2974,0-.5981-.0879-.8603-.2725-4.9346-3.4649-7.8809-9.1279-7.8809-15.1504,0-10.2012,8.2988-18.5,18.5-18.5.8286,0,1.5.6719,1.5,1.5s-.6714,1.5-1.5,1.5c-8.5469,0-15.5,6.9531-15.5,15.5,0,5.0459,2.4692,9.792,6.6045,12.6953.6782.4756.8418,1.4111.3657,2.0899-.292.415-.7568.6377-1.229.6377Z" fill="url(#uuid-d91abdd9-a2d8-420e-a6ed-26473b9f22f9)"/><polygon points="21.4458 35.3809 24.4712 41.8916 17.3203 41.2568 21.4458 35.3809" fill="url(#uuid-303a56d9-68ca-46d3-bb13-fc0f40f4f382)"/><path d="M30,43.5c-.8286,0-1.5-.6719-1.5-1.5s.6714-1.5,1.5-1.5c8.5469,0,15.5-6.9531,15.5-15.5,0-5.0459-2.4692-9.792-6.6045-12.6953-.6782-.4756-.8418-1.4111-.3657-2.0899.4761-.6757,1.4116-.8427,2.0893-.3652,4.9346,3.4649,7.8809,9.1279,7.8809,15.1504,0,10.2012-8.2988,18.5-18.5,18.5Z" fill="url(#uuid-08ba8202-0504-4fb9-ae57-24d0e6322b95)"/><polygon points="38.5542 14.6191 35.5288 8.1084 42.6797 8.7432 38.5542 14.6191" fill="url(#uuid-b98b7754-027a-49b8-9002-df177cf7c672)"/><path d="M40.7896,27.8066l-1.7632-1.0146c-.1514-.0879-.2295-.2588-.2027-.4316.1411-.9131.1343-1.8291-.0039-2.7188-.0268-.1728.0513-.3437.2027-.4316l1.7671-1.0176c.1826-.1045.2592-.3291.1782-.5235l-.8565-2.0693c-.0805-.1943-.2934-.2988-.497-.2441l-1.9688.5302c-.1689.045-.3457-.0205-.4487-.1621-.5308-.7265-1.1734-1.3789-1.9195-1.9248-.1406-.1035-.207-.2793-.1616-.4482l.5288-1.9649c.0547-.2031-.0498-.416-.2446-.497l-2.0688-.8565c-.1944-.081-.419-.0049-.524.1778l-1.0156,1.7636c-.0869.1514-.2588.2295-.4311.2022-.9136-.1406-1.8291-.1338-2.7183.0049-.1729.0263-.3447-.0518-.4317-.2032l-1.0175-1.7675c-.1055-.1827-.3296-.2588-.5244-.1778l-2.0684.8565c-.1948.081-.2993.2929-.2446.497l.5302,1.9688c.0455.1689-.0205.3457-.1621.4482-.7265.5313-1.3784,1.1739-1.9248,1.92-.1035.1406-.2798.207-.4482.1621l-1.9649-.5293c-.2036-.0547-.416.0498-.497.2441l-.8565,2.0693c-.081.1944-.0044.419.1782.5245l1.7632,1.0146c.1514.0869.229.2588.2027.4316-.1411.9131-.1343,1.8292.0039,2.7188.0268.1729-.0513.3437-.2027.4316l-1.7671,1.0176c-.1831.1045-.2592.3291-.1782.5235l.8565,2.0683c.0805.1953.2934.2998.497.2451l1.9688-.5302c.1689-.045.3452.0205.4487.1621.5308.7265,1.1734,1.3789,1.9195,1.9248.1406.1035.207.2793.1616.4482l-.5288,1.9649c-.0547.2031.0498.416.2446.497l2.0688.8565c.1944.081.419.0049.524-.1778l1.0156-1.7636c.0869-.1514.2588-.2295.4311-.2022.9136.1406,1.8292.1338,2.7183-.0049.1729-.0263.3442.0518.4317.2032l1.0175,1.7675c.1055.1827.3296.2588.5244.1778l2.0684-.8565c.1948-.081.2993-.2929.2446-.497l-.5302-1.9688c-.0455-.1689.0205-.3457.1621-.4482.7265-.5313,1.3789-1.1739,1.9248-1.92.103-.1406.2798-.207.4482-.1621l1.9649.5293c.2036.0547.416-.0498.4965-.2451l.857-2.0683c.0805-.1944.0044-.419-.1782-.5245ZM30,29c-2.209,0-4-1.791-4-4s1.791-4,4-4,4,1.791,4,4-1.791,4-4,4Z" fill="#092b49"/></g></svg>