<svg xmlns="http://www.w3.org/2000/svg" viewBox="0 0 60 60"><defs><style>.cls-1{fill:#203b72;}.cls-2{fill:#fff;}.cls-3{fill:#1ea7d3;}</style></defs><g id="Слой_2" data-name="Слой 2"><g id="Layer_1" data-name="Layer 1"><rect class="cls-1" width="60" height="50" rx="3"/><rect class="cls-2" x="4" y="4" width="52" height="42" rx="1"/><rect class="cls-1" x="22" y="50" width="16" height="6"/><path class="cls-1" d="M46,60H14a2,2,0,0,1-2-2h0a2,2,0,0,1,2-2H46a2,2,0,0,1,2,2h0A2,2,0,0,1,46,60Z"/><path class="cls-3" d="M20.24,40.42a1.51,1.51,0,0,1-.86-.27A18.5,18.5,0,0,1,30,6.5a1.5,1.5,0,0,1,0,3,15.51,15.51,0,0,0-8.9,28.2,1.49,1.49,0,0,1-.86,2.72Z"/><polygon class="cls-3" points="21.45 35.38 24.47 41.89 17.32 41.26 21.45 35.38"/><path class="cls-3" d="M30,43.5a1.5,1.5,0,0,1,0-3,15.51,15.51,0,0,0,8.9-28.2,1.5,1.5,0,1,1,1.72-2.45A18.5,18.5,0,0,1,30,43.5Z"/><polygon class="cls-3" points="38.55 14.62 35.53 8.11 42.68 8.74 38.55 14.62"/><path class="cls-1" d="M40.79,27.81l-1.76-1a.44.44,0,0,1-.21-.43,8.86,8.86,0,0,0,0-2.72.42.42,0,0,1,.2-.43l1.77-1a.42.42,0,0,0,.18-.52l-.86-2.07a.42.42,0,0,0-.5-.24l-2,.53a.42.42,0,0,1-.45-.17,9,9,0,0,0-1.92-1.92.41.41,0,0,1-.16-.45l.52-2a.42.42,0,0,0-.24-.5L33.33,14a.42.42,0,0,0-.52.18l-1,1.76a.44.44,0,0,1-.43.21,8.86,8.86,0,0,0-2.72,0,.42.42,0,0,1-.43-.2l-1-1.77a.42.42,0,0,0-.52-.18l-2.07.86a.42.42,0,0,0-.24.5l.53,2a.42.42,0,0,1-.17.45,9.2,9.2,0,0,0-1.92,1.92.41.41,0,0,1-.45.16l-2-.52a.42.42,0,0,0-.5.24L19,21.67a.42.42,0,0,0,.18.52l1.76,1a.43.43,0,0,1,.21.43,8.86,8.86,0,0,0,0,2.72.42.42,0,0,1-.2.43l-1.77,1a.42.42,0,0,0-.18.52l.86,2.07a.42.42,0,0,0,.5.24l2-.53a.42.42,0,0,1,.45.17,9,9,0,0,0,1.92,1.92.41.41,0,0,1,.16.45l-.52,2a.42.42,0,0,0,.24.5l2.07.86a.42.42,0,0,0,.52-.18l1-1.76a.44.44,0,0,1,.43-.21,8.86,8.86,0,0,0,2.72,0,.42.42,0,0,1,.43.2l1,1.77a.42.42,0,0,0,.52.18l2.07-.86a.42.42,0,0,0,.24-.5l-.53-2a.42.42,0,0,1,.17-.45,9,9,0,0,0,1.92-1.92.41.41,0,0,1,.45-.16l2,.52a.42.42,0,0,0,.5-.24L41,28.33A.42.42,0,0,0,40.79,27.81ZM30,29a4,4,0,1,1,4-4A4,4,0,0,1,30,29Z"/></g></g></svg>