<svg xmlns="http://www.w3.org/2000/svg" viewBox="0 0 60 60"><defs><style>.cls-1{fill:#203b72;}.cls-2{fill:#1ea7d3;}.cls-3{fill:#fff;}</style></defs><g id="Слой_2" data-name="Слой 2"><g id="Layer_1" data-name="Layer 1"><path class="cls-1" d="M45,0H3A3,3,0,0,0,0,3V46L14,60H45a3,3,0,0,0,3-3V3A3,3,0,0,0,45,0Z"/><path class="cls-2" d="M11,46H0L14,60h0V49A3,3,0,0,0,11,46Z"/><circle class="cls-2" cx="12" cy="12" r="7"/><circle class="cls-2" cx="12" cy="32" r="7"/><path class="cls-3" d="M41,10H23a1,1,0,0,1,0-2H41a1,1,0,0,1,0,2Z"/><path class="cls-3" d="M34,16H23a1,1,0,0,1,0-2H34a1,1,0,0,1,0,2Z"/><path class="cls-3" d="M41,30H23a1,1,0,0,1,0-2H41a1,1,0,0,1,0,2Z"/><path class="cls-3" d="M29,36H23a1,1,0,0,1,0-2h6a1,1,0,0,1,0,2Z"/><path class="cls-3" d="M11.5,16a1,1,0,0,1-.71-.29l-3-3a1,1,0,1,1,1.42-1.42l2.29,2.3,6.29-6.3a1,1,0,1,1,1.42,1.42l-7,7A1,1,0,0,1,11.5,16Z"/><path class="cls-3" d="M9,36a1,1,0,0,1-.71-.29,1,1,0,0,1,0-1.42l6-6a1,1,0,0,1,1.42,1.42l-6,6A1,1,0,0,1,9,36Z"/><path class="cls-3" d="M15,36a1,1,0,0,1-.71-.29l-6-6a1,1,0,0,1,1.42-1.42l6,6a1,1,0,0,1,0,1.42A1,1,0,0,1,15,36Z"/><rect class="cls-2" x="30" y="34" width="30" height="26" rx="10"/><path class="cls-1" d="M50,50H40a6,6,0,0,1-6-6h0a6,6,0,0,1,6-6H50a6,6,0,0,1,6,6h0A6,6,0,0,1,50,50Z"/><path class="cls-3" d="M49,57H41a1,1,0,0,1-.71-.29l-2-2a1,1,0,0,1,1.42-1.42L41.41,55h7.18l1.7-1.71a1,1,0,0,1,1.42,1.42l-2,2A1,1,0,0,1,49,57Z"/><circle class="cls-3" cx="50" cy="44" r="2.5"/><circle class="cls-3" cx="40" cy="44" r="2.5"/></g></g></svg>