<?xml version="1.0" encoding="UTF-8"?><svg id="uuid-91bfe539-dbb3-4dd9-8a63-bcbdc5ae2e7b" xmlns="http://www.w3.org/2000/svg" xmlns:xlink="http://www.w3.org/1999/xlink" viewBox="0 0 60 60"><defs><linearGradient id="uuid-bd171c37-090b-47e1-b001-dff9f42b6e70" x1="7" y1="53" x2="13.1214" y2="46.8786" gradientUnits="userSpaceOnUse"><stop offset="0" stop-color="#a62b9f"/><stop offset="1" stop-color="#59c8fa"/></linearGradient><linearGradient id="uuid-a6db74cd-fb56-4744-8a6a-c8d290a69286" x1="7.0502" y1="16.9498" x2="16.9498" y2="7.0502" xlink:href="#uuid-bd171c37-090b-47e1-b001-dff9f42b6e70"/><linearGradient id="uuid-b9834ede-5bb2-4955-8605-1c2e83275026" x1="7.0502" y1="36.9498" x2="16.9498" y2="27.0502" xlink:href="#uuid-bd171c37-090b-47e1-b001-dff9f42b6e70"/><linearGradient id="uuid-0818e085-5230-4967-a864-91375a05cbab" x1="33.9291" y1="58.0709" x2="56.0709" y2="35.9291" xlink:href="#uuid-bd171c37-090b-47e1-b001-dff9f42b6e70"/></defs><g id="uuid-5617a2d7-7f5f-491d-a599-7e96c23521b1"><path d="M45,0H3C1.3428,0,0,1.3428,0,3v43c5.4668,5.4668,8.5322,8.5322,14,14h31c1.6572,0,3-1.3428,3-3V3c0-1.6572-1.3428-3-3-3Z" fill="#092b49"/><path d="M11,46H0c5.4668,5.4668,8.5322,8.5322,14,14h0v-11c0-1.6572-1.3428-3-3-3Z" fill="url(#uuid-bd171c37-090b-47e1-b001-dff9f42b6e70)"/><circle cx="12" cy="12" r="7" fill="url(#uuid-a6db74cd-fb56-4744-8a6a-c8d290a69286)"/><circle cx="12" cy="32" r="7" fill="url(#uuid-b9834ede-5bb2-4955-8605-1c2e83275026)"/><path d="M41,10h-18c-.5527,0-1-.4473-1-1s.4473-1,1-1h18c.5527,0,1,.4473,1,1s-.4473,1-1,1Z" fill="#fff"/><path d="M34,16h-11c-.5527,0-1-.4473-1-1s.4473-1,1-1h11c.5527,0,1,.4473,1,1s-.4473,1-1,1Z" fill="#fff"/><path d="M41,30h-18c-.5527,0-1-.4473-1-1s.4473-1,1-1h18c.5527,0,1,.4473,1,1s-.4473,1-1,1Z" fill="#fff"/><path d="M29,36h-6c-.5527,0-1-.4473-1-1s.4473-1,1-1h6c.5527,0,1,.4473,1,1s-.4473,1-1,1Z" fill="#fff"/><path d="M11.5,16c-.2559,0-.5117-.0977-.707-.293l-3-3c-.3907-.3906-.3907-1.0234,0-1.414.3906-.3907,1.0234-.3907,1.414,0l2.293,2.2929,6.293-6.2929c.3906-.3907,1.0234-.3907,1.414,0,.3907.3906.3907,1.0234,0,1.414l-7,7c-.1953.1953-.4511.293-.707.293Z" fill="#fff"/><path d="M9,36c-.2559,0-.5117-.0977-.707-.293-.3907-.3906-.3907-1.0234,0-1.414l6-6c.3906-.3907,1.0234-.3907,1.414,0,.3907.3906.3907,1.0234,0,1.414l-6,6c-.1953.1953-.4511.293-.707.293Z" fill="#fff"/><path d="M15,36c-.2559,0-.5117-.0977-.707-.293l-6-6c-.3907-.3906-.3907-1.0234,0-1.414.3906-.3907,1.0234-.3907,1.414,0l6,6c.3907.3906.3907,1.0234,0,1.414-.1953.1953-.4511.293-.707.293Z" fill="#fff"/><rect x="30" y="34" width="30" height="26" rx="10" ry="10" fill="url(#uuid-0818e085-5230-4967-a864-91375a05cbab)"/><path d="M50,50h-10c-3.3135,0-6-2.6865-6-6h0c0-3.3135,2.6865-6,6-6h10c3.3135,0,6,2.6865,6,6h0c0,3.3135-2.6865,6-6,6Z" fill="#092b49"/><path d="M49,57h-8c-.2656,0-.5195-.1055-.707-.293l-2-2c-.3907-.3906-.3907-1.0234,0-1.414.3906-.3907,1.0234-.3907,1.414,0l1.7071,1.707h7.1718l1.7071-1.707c.3906-.3907,1.0234-.3907,1.414,0,.3907.3906.3907,1.0234,0,1.414l-2,2c-.1875.1875-.4414.293-.707.293Z" fill="#fff"/><circle cx="50" cy="44" r="2.5" fill="#fff"/><circle cx="40" cy="44" r="2.5" fill="#fff"/></g></svg>