<?xml version="1.0" encoding="UTF-8"?><svg id="uuid-a5ed8fd0-a9f1-4679-9a96-e7c41f88df09" xmlns="http://www.w3.org/2000/svg" xmlns:xlink="http://www.w3.org/1999/xlink" viewBox="0 0 60 60"><defs><linearGradient id="uuid-98e716cd-1371-4e5a-ba5b-1a59a249dba5" x1="1.222" y1="35.5355" x2="14.2929" y2="22.4645" gradientUnits="userSpaceOnUse"><stop offset="0" stop-color="#a62b9f"/><stop offset="1" stop-color="#59c8fa"/></linearGradient><linearGradient id="uuid-258e9403-37d3-4695-b261-2a3c286d2f30" x1="45.7071" y1="35.5355" x2="58.778" y2="22.4645" xlink:href="#uuid-98e716cd-1371-4e5a-ba5b-1a59a249dba5"/><linearGradient id="uuid-60e65311-ad2b-4bc4-8d13-9955229a5f89" x1="25.1716" y1="60.8284" x2="34.8284" y2="51.1716" xlink:href="#uuid-98e716cd-1371-4e5a-ba5b-1a59a249dba5"/></defs><g id="uuid-96b771dc-72b6-4577-9859-315b7bf55938"><path d="M34,58h-4c-1.1045,0-2-.8955-2-2s.8955-2,2-2h4c8.8223,0,16-7.1777,16-16v-18c0-8.8223-7.1777-16-16-16h-8c-8.8223,0-16,7.1777-16,16v9c0,1.1045-.8955,2-2,2s-2-.8955-2-2v-9C6,8.9717,14.9717,0,26,0h8c11.0283,0,20,8.9717,20,20v18c0,11.0283-8.9717,20-20,20Z" fill="#002b49"/><path d="M8,19h2c1.1038,0,2,.8962,2,2v16c0,1.1038-.8962,2-2,2h-2c-4.4153,0-8-3.5847-8-8v-4c0-4.4153,3.5847-8,8-8Z" fill="url(#uuid-98e716cd-1371-4e5a-ba5b-1a59a249dba5)"/><path d="M50,19h2c4.4153,0,8,3.5847,8,8v4c0,4.4153-3.5847,8-8,8h-2c-1.1038,0-2-.8962-2-2v-16c0-1.1038.8962-2,2-2Z" fill="url(#uuid-258e9403-37d3-4695-b261-2a3c286d2f30)"/><path d="M34,60h-8c-2.209,0-4-1.791-4-4h0c0-2.209,1.791-4,4-4h8c2.209,0,4,1.791,4,4h0c0,2.209-1.791,4-4,4Z" fill="url(#uuid-60e65311-ad2b-4bc4-8d13-9955229a5f89)"/><circle cx="30" cy="29.5" r="12" fill="#002b49"/><path d="M26.2959,34.4717v-9.9434c0-.8125.8984-1.3027,1.582-.8633l7.7334,4.9717c.6289.4043.6289,1.3223,0,1.7266l-7.7334,4.9717c-.6836.4394-1.582-.0508-1.582-.8633Z" fill="#fff"/></g></svg>