<?xml version="1.0" encoding="UTF-8"?><svg id="uuid-cf1cbcc6-c013-471d-a387-3dc6cfc7efc3" xmlns="http://www.w3.org/2000/svg" xmlns:xlink="http://www.w3.org/1999/xlink" viewBox="0 0 60 60"><defs><linearGradient id="uuid-cecae423-657f-4cdd-8370-9859dbe6d01b" x1="5.5858" y1="54.4142" x2="54.4142" y2="5.5858" gradientUnits="userSpaceOnUse"><stop offset="0" stop-color="#a62b9f"/><stop offset="1" stop-color="#59c8fa"/></linearGradient></defs><g id="uuid-deb1ed92-b0ce-4fc4-b0c3-fc5a3f1272b9"><rect width="60" height="24" rx="2" ry="2" fill="#203b72"/><path d="M7,14h46c1.1045,0,2-.8955,2-2H5c0,1.1045.8955,2,2,2Z" fill="#fff"/><rect x="10" width="40" height="60" rx="2" ry="2" fill="url(#uuid-cecae423-657f-4cdd-8370-9859dbe6d01b)"/><path d="M40,4h-20c0,3.3135-2.6865,6-6,6v40c3.3135,0,6,2.6865,6,6h20c0-3.3135,2.6865-6,6-6V10c-3.3135,0-6-2.6865-6-6Z" fill="#fff"/><circle cx="30" cy="30" r="13" fill="#203b72"/><path d="M39,29h-1.4814v-1.2734c0-1.5577-1.2676-2.8252-2.8262-2.8252h-2.8662c-1.5586,0-2.8262,1.2675-2.8262,2.8252v4.5468c0,.4551-.3711.8262-.8262.8262h-2.8662c-.4551,0-.8262-.3711-.8262-.8262v-4.5468c0-.4551.3711-.8252.8262-.8252.5528,0,1-.4473,1-1s-.4472-1-1-1h-.0488c-1.5361.0263-2.7774,1.2832-2.7774,2.8252v1.2734h-1.4814c-.5527,0-1,.4473-1,1s.4473,1,1,1h1.4814v1.2734c0,1.5586,1.2676,2.8262,2.8262,2.8262h2.8662c1.5586,0,2.8262-1.2676,2.8262-2.8262v-4.5468c0-.4551.3711-.8252.8262-.8252h2.8662c.4551,0,.8262.3701.8262.8252v4.5468c0,.4551-.3711.8262-.8262.8262-.5528,0-1,.4473-1,1s.4472,1,1,1h.0488c1.5361-.0264,2.7774-1.2842,2.7774-2.8262v-1.2734h1.4814c.5527,0,1-.4473,1-1s-.4473-1-1-1Z" fill="#fff"/><rect width="60" height="12" rx="2" ry="2" fill="#203b72"/><path d="M53,10H7c-1.1045,0-2,.8955-2,2h50c0-1.1045-.8955-2-2-2Z" fill="#fff"/></g></svg>