<?xml version="1.0" encoding="UTF-8"?><svg id="uuid-a282b442-bfd5-4b64-84ab-269ca3e64e57" xmlns="http://www.w3.org/2000/svg" xmlns:xlink="http://www.w3.org/1999/xlink" viewBox="0 0 60 60"><defs><linearGradient id="uuid-520f47cb-609a-4502-a7a7-bdb7399e70e0" x1="13" y1="54" x2="47" y2="20" gradientUnits="userSpaceOnUse"><stop offset="0" stop-color="#a62b9f"/><stop offset="1" stop-color="#59c8fa"/></linearGradient></defs><g id="uuid-52f4b078-58a2-48c5-b307-35cc92d68f84"><path d="M59,56H1c-.5527,0-1,.4478-1,1v3h60v-3c0-.5522-.4473-1-1-1Z" fill="#203b72"/><path d="M55,50H5c-.5527,0-1,.4478-1,1v3h52v-3c0-.5522-.4473-1-1-1Z" fill="#203b72"/><path d="M4,23c0,.5522.4473,1,1,1h50c.5527,0,1-.4478,1-1v-3H4v3Z" fill="#203b72"/><rect x="9" y="24" width="42" height="26" fill="url(#uuid-520f47cb-609a-4502-a7a7-bdb7399e70e0)"/><path d="M21,29c-3.3135,0-6,2.6865-6,6v15h12v-15c0-3.3135-2.6865-6-6-6Z" fill="#fff"/><path d="M39,29c-3.3135,0-6,2.6865-6,6v15h12v-15c0-3.3135-2.6865-6-6-6Z" fill="#fff"/><polygon points="0 18 60 18 30 0 0 18" fill="#203b72"/><circle cx="30" cy="10" r="3.5" fill="#fff"/></g></svg>