<?xml version="1.0" encoding="UTF-8"?><svg id="uuid-6a1a66db-833d-4956-8fba-59d246ace362" xmlns="http://www.w3.org/2000/svg" xmlns:xlink="http://www.w3.org/1999/xlink" viewBox="0 0 60 60"><defs><linearGradient id="uuid-50a023a8-23b1-4498-9ccb-5881a610025b" x1="8.7868" y1="51.2131" x2="51.2131" y2="8.7869" gradientUnits="userSpaceOnUse"><stop offset="0" stop-color="#a62b9f"/><stop offset="1" stop-color="#59c8fa"/></linearGradient></defs><g id="uuid-5c744e3a-53b0-42ef-999f-b41ae059c824"><circle cx="30" cy="30" r="30" fill="url(#uuid-50a023a8-23b1-4498-9ccb-5881a610025b)"/><circle cx="30" cy="30" r="24" fill="#203b72"/><path d="M24.96,52.1904c-3.3047-.748-6.458-2.2627-9.1202-4.3828-.539-.4316-1.3252-.3418-1.7558.1992-.4307.5401-.3408,1.3262.1992,1.7559,2.9541,2.3535,6.4561,4.0361,10.126,4.8652.0928.0215.1855.0313.2763.0313.5713,0,1.087-.3936,1.2178-.9746.1524-.6729-.2695-1.3428-.9433-1.4942Z" fill="#fff"/><path d="M7.8076,20.7607c.1748.084.3584.1231.5401.1231.4658,0,.913-.2617,1.1279-.709,1.4658-3.0566,3.6435-5.7978,6.2959-7.9268.5381-.4316.625-1.2187.1924-1.7568-.4317-.5381-1.2188-.625-1.7569-.1924-2.9433,2.3614-5.3584,5.4024-6.9853,8.794-.2988.623-.0362,1.3691.5859,1.6679Z" fill="#fff"/><path d="M50.4658,20.0518c.2168.4443.6621.7021,1.125.7021.1836,0,.3701-.04.5469-.126.6201-.3027.8779-1.0508.5762-1.6718-1.6475-3.3809-4.0811-6.4073-7.0381-8.752-.5401-.4297-1.3262-.3379-1.7559.2031-.4287.541-.3379,1.3272.2031,1.7559,2.6651,2.1133,4.8584,4.8418,6.3428,7.8887Z" fill="#fff"/><path d="M7.25,30.0469c-.001-.6895-.5605-1.2471-1.25-1.2471h-.0029c-.6905.001-1.2481.5625-1.2471,1.2529.0078,3.836.8545,7.5186,2.5146,10.9453.2159.4463.6622.7051,1.126.7051.1826,0,.3682-.04.544-.125.6211-.3008.8808-1.0488.58-1.6699-1.4951-3.0859-2.2578-6.4033-2.2646-9.8613Z" fill="#fff"/><path d="M36.4873,6.8535c.1514-.6738-.2725-1.3418-.9463-1.4931-1.8076-.4053-3.6719-.6104-5.54-.6104h-.0137c-1.9131,0-3.8232.2168-5.6758.6436-.6728.1543-1.0927.8252-.9375,1.498.1328.5791.6475.9697,1.2168.9697.0928,0,.1875-.0097.2813-.0322,1.6699-.3838,3.3906-.5791,5.1162-.5791h.0117c1.6855,0,3.3662.1846,4.9941.5498.668.1494,1.3428-.2734,1.4932-.9463Z" fill="#fff"/><path d="M54,28.7012c-.6904,0-1.25.6084-1.25,1.2988,0,3.458-.7549,6.7773-2.2451,9.8662-.2998.6221-.0391,1.3692.583,1.669.1748.0839.3603.124.542.124.4648,0,.9111-.2598,1.1269-.7071,1.6543-3.4296,2.4932-7.1152,2.4932-10.9521v-.0977c0-.6904-.5596-1.2011-1.25-1.2011Z" fill="#fff"/><path d="M44.1934,47.7803c-2.6592,2.126-5.8096,3.6474-9.1104,4.3994-.6738.1533-1.0947.8232-.9414,1.4961.1318.5801.6475.9726,1.2178.9726.0918,0,.1855-.0097.2783-.0312,3.667-.8359,7.165-2.5244,10.1162-4.8838.5391-.4316.627-1.2178.1963-1.7568-.4307-.5391-1.2168-.626-1.7568-.1963Z" fill="#fff"/><path d="M34.2305,17.2119h-11.1534c-.6904,0-1.25.5596-1.25,1.25v11.5381c0,.6904.5596,1.25,1.25,1.25h11.1534c3.4463,0,6.25-2.8037,6.25-6.25v-1.5381c0-3.4463-2.8037-6.25-6.25-6.25ZM37.9805,25c0,2.0674-1.6826,3.75-3.75,3.75h-9.9034v-9.0381h9.9034c2.0674,0,3.75,1.6826,3.75,3.75v1.5381Z" fill="#fff"/><path d="M36.5381,28.75h-13.461c-.6904,0-1.25.5596-1.25,1.25v11.5381c0,.6904.5596,1.25,1.25,1.25h13.461c3.4463,0,6.25-2.8037,6.25-6.25v-1.5381c0-3.4463-2.8037-6.25-6.25-6.25ZM40.2881,36.5381c0,2.0674-1.6826,3.75-3.75,3.75h-12.211v-9.0381h12.211c2.0674,0,3.75,1.6826,3.75,3.75v1.5381Z" fill="#fff"/><path d="M23.0771,17.2119h-2.3076c-.6904,0-1.25.5596-1.25,1.25s.5596,1.25,1.25,1.25h2.3076c.6905,0,1.25-.5596,1.25-1.25s-.5595-1.25-1.25-1.25Z" fill="#fff"/><path d="M23.0771,40.2881h-2.3076c-.6904,0-1.25.5596-1.25,1.25s.5596,1.25,1.25,1.25h2.3076c.6905,0,1.25-.5596,1.25-1.25s-.5595-1.25-1.25-1.25Z" fill="#fff"/><path d="M26,40.2881c-.6904,0-1.25.5596-1.25,1.25v4.6162c0,.6904.5596,1.25,1.25,1.25s1.25-.5596,1.25-1.25v-4.6162c0-.6904-.5596-1.25-1.25-1.25Z" fill="#fff"/><path d="M34,40.2881c-.6904,0-1.25.5596-1.25,1.25v4.6162c0,.6904.5596,1.25,1.25,1.25s1.25-.5596,1.25-1.25v-4.6162c0-.6904-.5596-1.25-1.25-1.25Z" fill="#fff"/><path d="M26,12.5957c-.6904,0-1.25.5596-1.25,1.25v4.6162c0,.6904.5596,1.25,1.25,1.25s1.25-.5596,1.25-1.25v-4.6162c0-.6904-.5596-1.25-1.25-1.25Z" fill="#fff"/><path d="M34,12.5957c-.6904,0-1.25.5596-1.25,1.25v4.6162c0,.6904.5596,1.25,1.25,1.25s1.25-.5596,1.25-1.25v-4.6162c0-.6904-.5596-1.25-1.25-1.25Z" fill="#fff"/></g></svg>