<svg xmlns="http://www.w3.org/2000/svg" viewBox="0 0 60 52"><defs><style>.cls-1{fill:#1ea7d3;}.cls-2{fill:#203b72;}.cls-3{fill:#fff;}</style></defs><g id="Слой_2" data-name="Слой 2"><g id="Layer_1" data-name="Layer 1"><path class="cls-1" d="M54,18h0V17a7,7,0,0,0-7-7H46a9,9,0,0,0-9-9H34a4,4,0,0,0-4,4h0a4,4,0,0,0-4-4H22a5,5,0,0,0-5,5H15a5,5,0,0,0-5,5v1H9a8,8,0,0,0-8,8H1a8,8,0,0,0,8,8h1v1a5,5,0,0,0,5,5h9.32A4,4,0,0,1,28,36.48l5,12A4,4,0,0,0,36.68,51H41a2,2,0,0,0,1.84-2.78l-3.14-7.44A2,2,0,0,1,41.52,38H47a3,3,0,0,0,3-3V34h1a8,8,0,0,0,8-8V23A5,5,0,0,0,54,18Z"/><path class="cls-2" d="M41,52h-4.3a5,5,0,0,1-4.62-3.1l-5-12A3,3,0,0,0,24.32,35H15a6,6,0,0,1-6-6A9,9,0,0,1,9,11a6,6,0,0,1,6-6h1.08A6,6,0,0,1,22,0h4a5,5,0,0,1,4,2,5,5,0,0,1,4-2h3A10,10,0,0,1,47,9h0a8,8,0,0,1,8,8v.08A6,6,0,0,1,60,23v3a9,9,0,0,1-9,9,4,4,0,0,1-4,4H41.52a1,1,0,0,0-.92,1.39l3.15,7.44A3,3,0,0,1,41,52ZM9,13A7,7,0,0,0,9,27h1a1,1,0,0,1,1,1v1a4,4,0,0,0,4,4h9.32a5,5,0,0,1,4.62,3.1l5,12A3,3,0,0,0,36.68,50H41a1,1,0,0,0,.92-1.39l-3.15-7.44A3,3,0,0,1,41.52,37H47a2,2,0,0,0,2-2V34a1,1,0,0,1,1-1h1a7,7,0,0,0,7-7V23a4,4,0,0,0-4-4,1,1,0,0,1-1-1V17a6,6,0,0,0-6-6H46a1,1,0,0,1-1-1,8,8,0,0,0-8-8H34a3,3,0,0,0-3,3,1,1,0,0,1-2,0,3,3,0,0,0-3-3H22a4,4,0,0,0-4,4,1,1,0,0,1-1,1H15a4,4,0,0,0-4,4v1a1,1,0,0,1-1,1Z"/><path class="cls-2" d="M32,35H22.54a1,1,0,0,1,0-2H32a1,1,0,0,1,0,2Z"/><path class="cls-2" d="M46,23a1,1,0,0,1-1-1,5,5,0,0,1,5-5h4a1,1,0,0,1,0,2H50a3,3,0,0,0-3,3A1,1,0,0,1,46,23Z"/><path class="cls-2" d="M50,35a4,4,0,0,1-4-4,1,1,0,0,1,2,0,2,2,0,0,0,2,2,1,1,0,0,1,0,2Z"/><path class="cls-2" d="M44,15a1,1,0,0,1,0-2,1,1,0,0,0,1-1V10a1,1,0,0,1,2,0v2A3,3,0,0,1,44,15Z"/><path class="cls-2" d="M20,9a1,1,0,0,1-1-1,1,1,0,0,0-1-1H17a1,1,0,0,1,0-2h1a3,3,0,0,1,3,3A1,1,0,0,1,20,9Z"/><path class="cls-2" d="M15,16a1,1,0,0,1-1-1,2,2,0,0,0-2-2H10a1,1,0,0,1,0-2h2a4,4,0,0,1,4,4A1,1,0,0,1,15,16Z"/><path class="cls-2" d="M10,29H9a1,1,0,0,1,0-2h1a3,3,0,0,0,3-3,1,1,0,0,1,2,0A5,5,0,0,1,10,29Z"/><path class="cls-3" d="M40,15H38a1,1,0,0,1,0-2h2a1,1,0,0,1,0,2Z"/><path class="cls-3" d="M40,20H38a1,1,0,0,1,0-2h2a1,1,0,0,1,0,2Z"/><path class="cls-3" d="M40,25H38a1,1,0,0,1,0-2h2a1,1,0,0,1,0,2Z"/><path class="cls-3" d="M22,15H20a1,1,0,0,1,0-2h2a1,1,0,0,1,0,2Z"/><path class="cls-3" d="M22,20H20a1,1,0,0,1,0-2h2a1,1,0,0,1,0,2Z"/><path class="cls-3" d="M22,25H20a1,1,0,0,1,0-2h2a1,1,0,0,1,0,2Z"/><path class="cls-3" d="M35,30a1,1,0,0,1-1-1V27a1,1,0,0,1,2,0v2A1,1,0,0,1,35,30Z"/><path class="cls-3" d="M30,30a1,1,0,0,1-1-1V27a1,1,0,0,1,2,0v2A1,1,0,0,1,30,30Z"/><path class="cls-3" d="M25,30a1,1,0,0,1-1-1V27a1,1,0,0,1,2,0v2A1,1,0,0,1,25,30Z"/><path class="cls-3" d="M35,12a1,1,0,0,1-1-1V9a1,1,0,0,1,2,0v2A1,1,0,0,1,35,12Z"/><path class="cls-3" d="M30,12a1,1,0,0,1-1-1V9a1,1,0,0,1,2,0v2A1,1,0,0,1,30,12Z"/><path class="cls-3" d="M25,12a1,1,0,0,1-1-1V9a1,1,0,0,1,2,0v2A1,1,0,0,1,25,12Z"/><rect class="cls-2" x="22" y="11" width="16" height="16" rx="2"/><path class="cls-3" d="M31,23H27a1,1,0,0,1-1-1V16a1,1,0,0,1,1-1h6a1,1,0,0,1,1,1v4Z"/></g></g></svg>