<?xml version="1.0" encoding="UTF-8"?><svg id="uuid-93ae97ef-7b58-421e-bcb5-1cf10d7951d0" xmlns="http://www.w3.org/2000/svg" xmlns:xlink="http://www.w3.org/1999/xlink" viewBox="0 0 60 52"><defs><linearGradient id="uuid-48555d27-d598-4333-9c54-4c5eb6d5d94a" x1="16.4676" y1="38.7813" x2="47.5743" y2="7.6746" gradientUnits="userSpaceOnUse"><stop offset="0" stop-color="#a62b9f"/><stop offset="1" stop-color="#59c8fa"/></linearGradient></defs><g id="uuid-4a9a6d54-c5b8-4fee-96ef-baa872a9e92e"><path d="M54,18h0v-1c0-3.8662-3.1338-7-7-7h-1c0-4.9707-4.0293-9-9-9h-3c-2.209,0-4,1.791-4,4h0c0-2.209-1.791-4-4-4h-4c-2.7617,0-5,2.2388-5,5h-2c-2.7617,0-5,2.2388-5,5v1h-1c-4.418,0-8,3.5815-8,8h0c0,4.4185,3.582,8,8,8h1v1c0,2.7612,2.2383,5,5,5h9.3213c1.6211,0,3.081.978,3.6982,2.4771l4.961,12.0458c.6172,1.4991,2.0771,2.4771,3.6982,2.4771h4.3037c1.4317,0,2.3994-1.4604,1.8418-2.7793l-3.1484-7.4414c-.5576-1.3189.4101-2.7793,1.8418-2.7793h5.4824c1.6572,0,3-1.3433,3-3v-1h1c4.418,0,8-3.5815,8-8v-3c0-2.7612-2.2383-5-5-5Z" fill="url(#uuid-48555d27-d598-4333-9c54-4c5eb6d5d94a)"/><path d="M40.9824,52h-4.3037c-2.0342,0-3.8486-1.2153-4.623-3.0962l-4.961-12.0459c-.4648-1.1289-1.5537-1.8579-2.7734-1.8579h-9.3213c-3.3086,0-6-2.6914-6-6-4.9629,0-9-4.0376-9-9s4.0371-9,9-9c0-3.3086,2.6914-6,6-6h1.083c.4775-2.834,2.9492-5,5.917-5h4c1.6338,0,3.0869.7876,4,2.0029.9131-1.2153,2.3662-2.0029,4-2.0029h3c5.1768,0,9.4473,3.9541,9.9502,9h.0498c4.4111,0,8,3.5889,8,8v.0835c2.834.4775,5,2.9487,5,5.9165v3c0,4.9624-4.0371,9-9,9,0,2.2056-1.7939,4-4,4h-5.4824c-.3408,0-.6446.1631-.833.4473-.1885.2846-.2207.6279-.0879.9423l3.1484,7.4415c.3926.9292.2949,1.9858-.2627,2.8266-.5566.8403-1.4912,1.3423-2.5,1.3423ZM9,13c-3.8594,0-7,3.1401-7,7s3.1406,7,7,7h1c.5527,0,1,.4478,1,1v1c0,2.2056,1.7939,4,4,4h9.3213c2.0342,0,3.8486,1.2153,4.623,3.0962l4.961,12.0459c.4648,1.1289,1.5537,1.8579,2.7734,1.8579h4.3037c.3408,0,.6446-.1631.833-.4473.1885-.2846.2207-.6279.0879-.9423l-3.1484-7.4415c-.3926-.9292-.2949-1.9858.2627-2.8266.5566-.8403,1.4912-1.3423,2.5-1.3423h5.4824c1.1025,0,2-.897,2-2v-1c0-.5522.4473-1,1-1h1c3.8594,0,7-3.1401,7-7v-3c0-2.2056-1.7939-4-4-4-.5527,0-1-.4478-1-1v-1c0-3.3086-2.6914-6-6-6h-1c-.5527,0-1-.4478-1-1,0-4.4111-3.5889-8-8-8h-3c-1.6543,0-3,1.3457-3,3,0,.5522-.4473,1-1,1s-1-.4478-1-1c0-1.6543-1.3457-3-3-3h-4c-2.2061,0-4,1.7944-4,4,0,.5522-.4473,1-1,1h-2c-2.2061,0-4,1.7944-4,4v1c0,.5522-.4473,1-1,1h-1Z" fill="#092b49"/><path d="M32,35h-9.4648c-.5528,0-1-.4478-1-1s.4472-1,1-1h9.4648c.5527,0,1,.4478,1,1s-.4473,1-1,1Z" fill="#092b49"/><path d="M46,23c-.5527,0-1-.4478-1-1,0-2.7568,2.2432-5,5-5h4c.5527,0,1,.4478,1,1s-.4473,1-1,1h-4c-1.6543,0-3,1.3457-3,3,0,.5522-.4473,1-1,1Z" fill="#092b49"/><path d="M50,35c-2.2061,0-4-1.7944-4-4,0-.5522.4473-1,1-1s1,.4478,1,1c0,1.103.8975,2,2,2,.5527,0,1,.4478,1,1s-.4473,1-1,1Z" fill="#092b49"/><path d="M44,15c-.5527,0-1-.4478-1-1s.4473-1,1-1c.5518,0,1-.4487,1-1v-2c0-.5522.4473-1,1-1s1,.4478,1,1v2c0,1.6543-1.3457,3-3,3Z" fill="#092b49"/><path d="M20,9c-.5527,0-1-.4478-1-1,0-.5513-.4482-1-1-1h-1c-.5527,0-1-.4478-1-1s.4473-1,1-1h1c1.6543,0,3,1.3457,3,3,0,.5522-.4473,1-1,1Z" fill="#092b49"/><path d="M15,16c-.5527,0-1-.4478-1-1,0-1.103-.8975-2-2-2h-2c-.5527,0-1-.4478-1-1s.4473-1,1-1h2c2.2061,0,4,1.7944,4,4,0,.5522-.4473,1-1,1Z" fill="#092b49"/><path d="M10,29h-1c-.5527,0-1-.4478-1-1s.4473-1,1-1h1c1.6543,0,3-1.3457,3-3,0-.5522.4473-1,1-1s1,.4478,1,1c0,2.7568-2.2432,5-5,5Z" fill="#092b49"/><path d="M40,15h-2c-.5527,0-1-.4478-1-1s.4473-1,1-1h2c.5527,0,1,.4478,1,1s-.4473,1-1,1Z" fill="#fff"/><path d="M40,20h-2c-.5527,0-1-.4478-1-1s.4473-1,1-1h2c.5527,0,1,.4478,1,1s-.4473,1-1,1Z" fill="#fff"/><path d="M40,25h-2c-.5527,0-1-.4478-1-1s.4473-1,1-1h2c.5527,0,1,.4478,1,1s-.4473,1-1,1Z" fill="#fff"/><path d="M22,15h-2c-.5527,0-1-.4478-1-1s.4473-1,1-1h2c.5527,0,1,.4478,1,1s-.4473,1-1,1Z" fill="#fff"/><path d="M22,20h-2c-.5527,0-1-.4478-1-1s.4473-1,1-1h2c.5527,0,1,.4478,1,1s-.4473,1-1,1Z" fill="#fff"/><path d="M22,25h-2c-.5527,0-1-.4478-1-1s.4473-1,1-1h2c.5527,0,1,.4478,1,1s-.4473,1-1,1Z" fill="#fff"/><path d="M35,30c-.5527,0-1-.4478-1-1v-2c0-.5522.4473-1,1-1s1,.4478,1,1v2c0,.5522-.4473,1-1,1Z" fill="#fff"/><path d="M30,30c-.5527,0-1-.4478-1-1v-2c0-.5522.4473-1,1-1s1,.4478,1,1v2c0,.5522-.4473,1-1,1Z" fill="#fff"/><path d="M25,30c-.5527,0-1-.4478-1-1v-2c0-.5522.4473-1,1-1s1,.4478,1,1v2c0,.5522-.4473,1-1,1Z" fill="#fff"/><path d="M35,12c-.5527,0-1-.4478-1-1v-2c0-.5522.4473-1,1-1s1,.4478,1,1v2c0,.5522-.4473,1-1,1Z" fill="#fff"/><path d="M30,12c-.5527,0-1-.4478-1-1v-2c0-.5522.4473-1,1-1s1,.4478,1,1v2c0,.5522-.4473,1-1,1Z" fill="#fff"/><path d="M25,12c-.5527,0-1-.4478-1-1v-2c0-.5522.4473-1,1-1s1,.4478,1,1v2c0,.5522-.4473,1-1,1Z" fill="#fff"/><rect x="22" y="11" width="16" height="16" rx="2" ry="2" fill="#092b49"/><path d="M31,23h-4c-.5527,0-1-.4478-1-1v-6c0-.5522.4473-1,1-1h6c.5527,0,1,.4478,1,1v4c-1.1719,1.1714-1.8281,1.8286-3,3Z" fill="#fff"/></g></svg>