<?xml version="1.0" encoding="UTF-8"?><svg id="uuid-589b0fed-4f98-47aa-a593-5d09181dfa2c" xmlns="http://www.w3.org/2000/svg" xmlns:xlink="http://www.w3.org/1999/xlink" viewBox="0 0 60 52"><defs><linearGradient id="uuid-171f846b-08a9-48a8-a4eb-f7bb090039a1" x1="16.4677" y1="38.7812" x2="47.5743" y2="7.6746" gradientUnits="userSpaceOnUse"><stop offset="0" stop-color="#a62b9f"/><stop offset="1" stop-color="#59c8fa"/></linearGradient></defs><g id="uuid-66e5f2b2-a8bf-49d3-a896-1915e954b261"><path d="M54,18h0v-1c0-3.8662-3.1338-7-7-7h-1c0-4.9707-4.0293-9-9-9h-3c-2.209,0-4,1.791-4,4h0c0-2.209-1.791-4-4-4h-4c-2.7617,0-5,2.2383-5,5h-2c-2.7617,0-5,2.2383-5,5v1h-1c-4.418,0-8,3.582-8,8h0c0,4.418,3.582,8,8,8h1v1c0,2.7617,2.2383,5,5,5h9.3213c1.6211,0,3.081.9785,3.6982,2.4766l4.961,12.0468c.6172,1.4981,2.0771,2.4766,3.6982,2.4766h4.3037c1.4317,0,2.3994-1.4609,1.8418-2.7793l-3.1484-7.4414c-.5576-1.3184.4101-2.7793,1.8418-2.7793h5.4824c1.6572,0,3-1.3428,3-3v-1h1c4.418,0,8-3.582,8-8v-3c0-2.7617-2.2383-5-5-5Z" fill="url(#uuid-171f846b-08a9-48a8-a4eb-f7bb090039a1)"/><path d="M40.9824,52h-4.3037c-2.0332,0-3.8476-1.2148-4.623-3.0957l-4.961-12.0469c-.4648-1.1279-1.5537-1.8574-2.7734-1.8574h-9.3213c-3.3086,0-6-2.6914-6-6-4.9629,0-9-4.0371-9-9s4.0371-9,9-9c0-3.3086,2.6914-6,6-6h1.083c.4775-2.834,2.9492-5,5.917-5h4c1.6338,0,3.0869.7881,4,2.0029.9131-1.2148,2.3662-2.0029,4-2.0029h3c5.1768,0,9.4473,3.9541,9.9502,9h.0498c4.4111,0,8,3.5889,8,8v.083c2.834.4775,5,2.9492,5,5.917v3c0,4.9629-4.0371,9-9,9,0,2.2061-1.7939,4-4,4h-5.4824c-.3408,0-.6446.1631-.833.4473-.1885.2851-.2207.6279-.0879.9423l3.1484,7.4415c.3926.9287.2949,1.9853-.2627,2.8261-.5566.8408-1.4912,1.3428-2.5,1.3428ZM9,13c-3.8594,0-7,3.1406-7,7s3.1406,7,7,7h1c.5527,0,1,.4473,1,1v1c0,2.2061,1.7939,4,4,4h9.3213c2.0332,0,3.8476,1.2148,4.623,3.0957l4.961,12.0469c.4648,1.1279,1.5537,1.8574,2.7734,1.8574h4.3037c.3408,0,.6446-.1631.833-.4473.1885-.2851.2207-.6279.0879-.9423l-3.1484-7.4415c-.3926-.9287-.2949-1.9853.2627-2.8261.5566-.8408,1.4912-1.3428,2.5-1.3428h5.4824c1.1025,0,2-.8975,2-2v-1c0-.5527.4473-1,1-1h1c3.8594,0,7-3.1406,7-7v-3c0-2.2061-1.7939-4-4-4-.5527,0-1-.4473-1-1v-1c0-3.3086-2.6914-6-6-6h-1c-.5527,0-1-.4473-1-1,0-4.4111-3.5889-8-8-8h-3c-1.6543,0-3,1.3457-3,3,0,.5527-.4473,1-1,1s-1-.4473-1-1c0-1.6543-1.3457-3-3-3h-4c-2.2061,0-4,1.7939-4,4,0,.5527-.4473,1-1,1h-2c-2.2061,0-4,1.7939-4,4v1c0,.5527-.4473,1-1,1h-1Z" fill="#092b49"/><path d="M29,35h-10c-.5527,0-1-.4473-1-1s.4473-1,1-1h10c.5527,0,1,.4473,1,1s-.4473,1-1,1Z" fill="#092b49"/><path d="M15,29h-5c-.5527,0-1-.4473-1-1s.4473-1,1-1h5c.5527,0,1,.4473,1,1s-.4473,1-1,1Z" fill="#092b49"/><path d="M11,13h-1c-.5527,0-1-.4473-1-1s.4473-1,1-1h1c.5527,0,1,.4473,1,1s-.4473,1-1,1Z" fill="#092b49"/><path d="M20,7h-3c-.5527,0-1-.4473-1-1s.4473-1,1-1h3c.5527,0,1,.4473,1,1s-.4473,1-1,1Z" fill="#092b49"/><path d="M46,11h-4c-.5527,0-1-.4473-1-1s.4473-1,1-1h4c.5527,0,1,.4473,1,1s-.4473,1-1,1Z" fill="#092b49"/><path d="M54,19h-4c-.5527,0-1-.4473-1-1s.4473-1,1-1h4c.5527,0,1,.4473,1,1s-.4473,1-1,1Z" fill="#092b49"/><path d="M15,29c-.5527,0-1-.4473-1-1s.4473-1,1-1c2.7568,0,5-2.2432,5-5,0-.5527.4473-1,1-1s1,.4473,1,1c0,3.8594-3.1406,7-7,7Z" fill="#092b49"/><path d="M50,35c-2.7568,0-5-2.2432-5-5,0-.5527.4473-1,1-1s1,.4473,1,1c0,1.6543,1.3457,3,3,3,.5527,0,1,.4473,1,1s-.4473,1-1,1Z" fill="#092b49"/><path d="M30,29c-2.7568,0-5-2.2432-5-5,0-.5527.4473-1,1-1s1,.4473,1,1c0,1.6543,1.3457,3,3,3,.5527,0,1,.4473,1,1s-.4473,1-1,1Z" fill="#092b49"/><path d="M11,23c-.5527,0-1-.4473-1-1,0-1.6543-1.3457-3-3-3-.5527,0-1-.4473-1-1s.4473-1,1-1c2.7568,0,5,2.2432,5,5,0,.5527-.4473,1-1,1Z" fill="#092b49"/><path d="M26,19c-.5527,0-1-.4473-1-1s.4473-1,1-1c1.6543,0,3-1.3457,3-3,0-.5527.4473-1,1-1s1,.4473,1,1c0,2.7568-2.2432,5-5,5Z" fill="#092b49"/><path d="M40,29c-.5527,0-1-.4473-1-1,0-2.7568-2.2432-5-5-5-.5527,0-1-.4473-1-1s.4473-1,1-1c3.8594,0,7,3.1406,7,7,0,.5527-.4473,1-1,1Z" fill="#092b49"/><path d="M26,13c-.5527,0-1-.4473-1-1,0-2.7568-2.2432-5-5-5-.5527,0-1-.4473-1-1s.4473-1,1-1c3.8594,0,7,3.1406,7,7,0,.5527-.4473,1-1,1Z" fill="#092b49"/><path d="M34,10c-2.7568,0-5-2.2432-5-5,0-.5527.4473-1,1-1s1,.4473,1,1c0,1.6543,1.3457,3,3,3,.5527,0,1,.4473,1,1s-.4473,1-1,1Z" fill="#092b49"/><path d="M17,19.0449c-.5771,0-1.0449-.4678-1.0449-1.0449,0-2.7324-2.2227-4.9551-4.9551-4.9551-.5771,0-1.0449-.4678-1.0449-1.0449s.4678-1.0449,1.0449-1.0449c3.8848,0,7.0449,3.1601,7.0449,7.0449,0,.5771-.4678,1.0449-1.0449,1.0449Z" fill="#092b49"/><path d="M29,35c-.5527,0-1-.4473-1-1s.4473-1,1-1c2.7568,0,5-2.2432,5-5,0-.5527.4473-1,1-1s1,.4473,1,1c0,3.8594-3.1406,7-7,7Z" fill="#092b49"/><path d="M36,17c-.5527,0-1-.4473-1-1,0-3.8594,3.1406-7,7-7,.5527,0,1,.4473,1,1s-.4473,1-1,1c-2.7568,0-5,2.2432-5,5,0,.5527-.4473,1-1,1Z" fill="#092b49"/><path d="M44,25c-.5527,0-1-.4473-1-1,0-3.8594,3.1406-7,7-7,.5527,0,1,.4473,1,1s-.4473,1-1,1c-2.7568,0-5,2.2432-5,5,0,.5527-.4473,1-1,1Z" fill="#092b49"/></g></svg>