<?xml version="1.0" encoding="UTF-8"?><svg id="uuid-ff214a97-243d-47b5-b002-6549ec65caff" xmlns="http://www.w3.org/2000/svg" xmlns:xlink="http://www.w3.org/1999/xlink" viewBox="0 0 60 60"><defs><linearGradient id="uuid-5264efd7-9a7d-4a5a-b000-e93db3392b23" x1="12.9393" y1="22.9393" x2="47.0607" y2="-11.1822" gradientUnits="userSpaceOnUse"><stop offset="0" stop-color="#a62b9f"/><stop offset="1" stop-color="#59c8fa"/></linearGradient><linearGradient id="uuid-d36aec06-6500-4e4b-8b32-38078adb5e85" x1="41.4648" y1="28.5352" x2="48.5352" y2="21.4648" xlink:href="#uuid-5264efd7-9a7d-4a5a-b000-e93db3392b23"/><linearGradient id="uuid-26374de4-4547-4290-8e84-25414563b99a" x1="48.707" y1="30.1211" x2="50.1211" y2="28.707" xlink:href="#uuid-5264efd7-9a7d-4a5a-b000-e93db3392b23"/></defs><g id="uuid-13ab1daa-a4ef-4452-b415-38736d107f1f"><path d="M57,60H3c-1.6572,0-3-1.3428-3-3V12h60v45c0,1.6572-1.3428,3-3,3Z" fill="#002b49"/><rect x="5" y="17" width="50" height="18" rx="1" ry="1" fill="#fff"/><path d="M3,0h54c1.6557,0,3,1.3443,3,3v7H0V3C0,1.3443,1.3443,0,3,0Z" fill="url(#uuid-5264efd7-9a7d-4a5a-b000-e93db3392b23)"/><circle cx="5" cy="5" r="1.25" fill="#fff"/><circle cx="11" cy="5" r="1.25" fill="#fff"/><circle cx="17" cy="5" r="1.25" fill="#fff"/><path d="M45,30c-1.3359,0-2.5918-.5205-3.5352-1.4648-.9443-.9434-1.4648-2.1993-1.4648-3.5352s.5205-2.5918,1.4648-3.5352c.9434-.9443,2.1993-1.4648,3.5352-1.4648s2.5918.5205,3.5352,1.4648c.9443.9434,1.4648,2.1993,1.4648,3.5352s-.5205,2.5908-1.4648,3.5352h0c-.9444.9443-2.1993,1.4648-3.5352,1.4648ZM45,22c-.8018,0-1.5547.3125-2.1211.8789s-.8789,1.3193-.8789,2.1211.3125,1.5547.8789,2.1211c1.1328,1.1328,3.1094,1.1328,4.2422,0h0c.5664-.5664.8789-1.3193.8789-2.1211s-.3125-1.5547-.8789-2.1211-1.3193-.8789-2.1211-.8789Z" fill="url(#uuid-d36aec06-6500-4e4b-8b32-38078adb5e85)"/><path d="M51,32c-.2559,0-.5117-.0977-.707-.293l-3.1719-3.1718c-.3906-.3907-.3906-1.0235,0-1.4141s1.0234-.3906,1.4141,0l3.1718,3.1719c.3907.3906.3907,1.0234,0,1.414-.1953.1953-.4511.293-.707.293Z" fill="url(#uuid-26374de4-4547-4290-8e84-25414563b99a)"/></g></svg>