<?xml version="1.0" encoding="UTF-8"?><svg id="uuid-a0571cf6-ad6f-4420-8e75-e959d371ee1d" xmlns="http://www.w3.org/2000/svg" xmlns:xlink="http://www.w3.org/1999/xlink" viewBox="0 0 60 60"><defs><linearGradient id="uuid-47efb498-4159-4097-8b29-53dae687336e" x1="10.9393" y1="20.9393" x2="41.0607" y2="-9.1822" gradientUnits="userSpaceOnUse"><stop offset="0" stop-color="#a62b9f"/><stop offset="1" stop-color="#59c8fa"/></linearGradient><linearGradient id="uuid-114fd2b2-da2b-4a8b-ba86-bce2e59ce41a" x1="44.0283" y1="33.9717" x2="57.6553" y2="20.3447" xlink:href="#uuid-47efb498-4159-4097-8b29-53dae687336e"/><linearGradient id="uuid-4a8d1941-1129-4e7c-a859-4b70a078541c" x1="20.9145" y1="57.0854" x2="33.9717" y2="44.0283" xlink:href="#uuid-47efb498-4159-4097-8b29-53dae687336e"/><linearGradient id="uuid-9bef7191-2051-476e-ad82-321c8dc5e699" x1="19.2142" y1="30.94" x2="30.94" y2="19.2142" xlink:href="#uuid-47efb498-4159-4097-8b29-53dae687336e"/><linearGradient id="uuid-16436e14-eb12-4d95-a9d0-e5210033c297" x1="43.4028" y1="50.6313" x2="50.6318" y2="43.4023" xlink:href="#uuid-47efb498-4159-4097-8b29-53dae687336e"/></defs><g id="uuid-d17cdbb2-afa1-4b54-814a-a06a3ec12460"><path d="M49,60H3c-1.6572,0-3-1.3428-3-3V12h52v45c0,1.6572-1.3428,3-3,3Z" fill="#002b49"/><path d="M3,0h46c1.6557,0,3,1.3443,3,3v7H0V3C0,1.3443,1.3443,0,3,0Z" fill="url(#uuid-47efb498-4159-4097-8b29-53dae687336e)"/><circle cx="5" cy="5" r="1.25" fill="#fff"/><circle cx="11" cy="5" r="1.25" fill="#fff"/><circle cx="17" cy="5" r="1.25" fill="#fff"/><path d="M50.498,33.8711c2.5137.4756,5.212-.2578,7.1573-2.2031,3.126-3.127,3.126-8.1963,0-11.3233-3.127-3.1259-8.1963-3.1259-11.3233,0-1.9453,1.9453-2.6787,4.6436-2.2031,7.1573l-3.2851,3.2851,6.3691,6.3692,3.2851-3.2852Z" fill="url(#uuid-114fd2b2-da2b-4a8b-ba86-bce2e59ce41a)"/><path d="M27.4951,44.1357c-2.5137-.4755-5.2119.2579-7.1572,2.2041-2.2373,2.2364-2.8643,5.4659-1.9004,8.2686l5.8076-5.8066,3.9063,1.0468,1.0468,3.9063-5.8066,5.8076c2.8027.9639,6.0322.3369,8.2686-1.9004,1.9462-1.9453,2.6796-4.6426,2.2041-7.1572l3.292-3.292-6.3692-6.3691-3.292,3.2919Z" fill="url(#uuid-4a8d1941-1129-4e7c-a859-4b70a078541c)"/><polygon points="54.8535 23.1465 50.9473 22.0996 48.0869 24.96 49.1338 28.8662 53.04 29.9131 55.9004 27.0527 54.8535 23.1465" fill="#fff"/><path d="M34.583,26.291c0-4.5791-3.7129-8.291-8.292-8.291h-8.291v8.291c0,4.5791,3.7119,8.292,8.291,8.292s8.292-3.7129,8.292-8.292Z" fill="url(#uuid-9bef7191-2051-476e-ad82-321c8dc5e699)"/><path d="M37.6484,30.4199l-7.2285,7.2285,18.5567,18.5567c2.4297,2.4297,5.7246,3.7949,9.1611,3.7949h1.8623v-1.8623c0-3.4365-1.3652-6.7314-3.7939-9.1611l-18.5577-18.5567Z" fill="url(#uuid-16436e14-eb12-4d95-a9d0-e5210033c297)"/><rect x="27.3594" y="30.2596" width="10.2226" height="4.4221" transform="translate(-13.4498 32.4707) rotate(-45)" fill="#fff"/></g></svg>