<?xml version="1.0" encoding="UTF-8"?><svg id="uuid-698ba792-a065-4819-8b20-e0c7c5895425" xmlns="http://www.w3.org/2000/svg" xmlns:xlink="http://www.w3.org/1999/xlink" viewBox="0 0 45 60"><defs><linearGradient id="uuid-873a6326-4032-4266-841d-edaca39385ad" x1="24.4597" y1="55.5403" x2="30.5403" y2="49.4597" gradientUnits="userSpaceOnUse"><stop offset="0" stop-color="#a62b9f"/><stop offset="1" stop-color="#59c8fa"/></linearGradient><linearGradient id="uuid-e11ee597-a4d5-4d6d-8474-3aafedeff32f" x1="4.4597" x2="10.5403" y2="49.4597" xlink:href="#uuid-873a6326-4032-4266-841d-edaca39385ad"/><linearGradient id="uuid-e3eca1a8-5af7-4273-a238-6ac6333443c8" x1="14.4597" y1="55.5403" x2="20.5403" y2="49.4597" xlink:href="#uuid-873a6326-4032-4266-841d-edaca39385ad"/><linearGradient id="uuid-5720faf7-a1fd-4240-b75d-eb652cfeab97" y1="45.5403" x2="30.5403" y2="39.4597" xlink:href="#uuid-873a6326-4032-4266-841d-edaca39385ad"/><linearGradient id="uuid-ce1e26e4-b76b-4e53-94a5-65f042f931d3" x1="4.4597" y1="45.5403" x2="10.5403" y2="39.4597" xlink:href="#uuid-873a6326-4032-4266-841d-edaca39385ad"/><linearGradient id="uuid-735e0d1d-3638-4f81-b673-ee60ece369f6" x1="14.4597" y1="45.5403" x2="20.5403" y2="39.4597" xlink:href="#uuid-873a6326-4032-4266-841d-edaca39385ad"/><linearGradient id="uuid-48683224-344a-4550-a6a8-791f3a0a6f8b" x1="24.4597" y1="35.5403" x2="30.5403" y2="29.4597" xlink:href="#uuid-873a6326-4032-4266-841d-edaca39385ad"/><linearGradient id="uuid-60c68f1b-4919-4773-9e1c-e3eaaf5ed717" x1="34.4597" y1="35.5403" x2="40.5403" y2="29.4597" xlink:href="#uuid-873a6326-4032-4266-841d-edaca39385ad"/><linearGradient id="uuid-c0493176-ab86-4f9a-991a-bdf76c10f028" x1="4.4597" y1="35.5403" x2="10.5403" y2="29.4597" xlink:href="#uuid-873a6326-4032-4266-841d-edaca39385ad"/><linearGradient id="uuid-327e6a72-3155-4a68-87b6-d558db560e59" x1="14.4597" y1="35.5403" x2="20.5403" y2="29.4597" xlink:href="#uuid-873a6326-4032-4266-841d-edaca39385ad"/><linearGradient id="uuid-c88cc285-8a64-4d74-bcfd-ac224eff9d2c" y1="25.5403" x2="30.5403" y2="19.4597" xlink:href="#uuid-873a6326-4032-4266-841d-edaca39385ad"/><linearGradient id="uuid-1d397d8f-175c-47a4-80fa-ea62f2119c06" x1="34.4597" y1="25.5403" x2="40.5403" y2="19.4597" xlink:href="#uuid-873a6326-4032-4266-841d-edaca39385ad"/><linearGradient id="uuid-4fc0893d-f396-4d66-9d2c-56adbdde4c48" x1="4.4597" y1="25.5403" x2="10.5403" y2="19.4597" xlink:href="#uuid-873a6326-4032-4266-841d-edaca39385ad"/><linearGradient id="uuid-d2aa4d3e-aa1b-4647-be2a-263bbf4a4c7a" x1="14.4597" y1="25.5403" x2="20.5403" y2="19.4597" xlink:href="#uuid-873a6326-4032-4266-841d-edaca39385ad"/></defs><g id="uuid-2d9e87f6-552b-491f-801a-1c11a59d7a2e"><rect width="45" height="60" rx="3" ry="3" fill="#002b49"/><rect x="24.167" y="49.167" width="6.666" height="6.666" rx="1" ry="1" fill="url(#uuid-873a6326-4032-4266-841d-edaca39385ad)"/><rect x="34.167" y="39.167" width="6.666" height="16.666" rx="1" ry="1" fill="#fff"/><rect x="4.167" y="49.167" width="6.666" height="6.666" rx="1" ry="1" fill="url(#uuid-e11ee597-a4d5-4d6d-8474-3aafedeff32f)"/><rect x="14.167" y="49.167" width="6.666" height="6.666" rx="1" ry="1" fill="url(#uuid-e3eca1a8-5af7-4273-a238-6ac6333443c8)"/><rect x="24.167" y="39.167" width="6.666" height="6.666" rx="1" ry="1" fill="url(#uuid-5720faf7-a1fd-4240-b75d-eb652cfeab97)"/><rect x="4.167" y="39.167" width="6.666" height="6.666" rx="1" ry="1" fill="url(#uuid-ce1e26e4-b76b-4e53-94a5-65f042f931d3)"/><rect x="14.167" y="39.167" width="6.666" height="6.666" rx="1" ry="1" fill="url(#uuid-735e0d1d-3638-4f81-b673-ee60ece369f6)"/><rect x="24.167" y="29.167" width="6.666" height="6.666" rx="1" ry="1" fill="url(#uuid-48683224-344a-4550-a6a8-791f3a0a6f8b)"/><rect x="34.167" y="29.167" width="6.666" height="6.666" rx="1" ry="1" fill="url(#uuid-60c68f1b-4919-4773-9e1c-e3eaaf5ed717)"/><rect x="4.167" y="29.167" width="6.666" height="6.666" rx="1" ry="1" fill="url(#uuid-c0493176-ab86-4f9a-991a-bdf76c10f028)"/><rect x="14.167" y="29.167" width="6.666" height="6.666" rx="1" ry="1" fill="url(#uuid-327e6a72-3155-4a68-87b6-d558db560e59)"/><rect x="24.167" y="19.167" width="6.666" height="6.666" rx="1" ry="1" fill="url(#uuid-c88cc285-8a64-4d74-bcfd-ac224eff9d2c)"/><rect x="4.167" y="4.167" width="36.666" height="11.666" rx="1" ry="1" fill="#fff"/><rect x="34.167" y="19.167" width="6.666" height="6.666" rx="1" ry="1" fill="url(#uuid-1d397d8f-175c-47a4-80fa-ea62f2119c06)"/><rect x="4.167" y="19.167" width="6.666" height="6.666" rx="1" ry="1" fill="url(#uuid-4fc0893d-f396-4d66-9d2c-56adbdde4c48)"/><rect x="14.167" y="19.167" width="6.666" height="6.666" rx="1" ry="1" fill="url(#uuid-d2aa4d3e-aa1b-4647-be2a-263bbf4a4c7a)"/></g></svg>