<?xml version="1.0" encoding="UTF-8"?><svg id="uuid-eee39423-d09b-4440-a50a-d55102a1b59f" xmlns="http://www.w3.org/2000/svg" xmlns:xlink="http://www.w3.org/1999/xlink" viewBox="0 0 60 60"><defs><linearGradient id="uuid-af1336c4-2844-4c96-8f83-f1438213045f" x1="49.2927" y1="18.7073" x2="54.7073" y2="13.2927" gradientUnits="userSpaceOnUse"><stop offset="0" stop-color="#a62b9f"/><stop offset="1" stop-color="#59c8fa"/></linearGradient><linearGradient id="uuid-15b4503c-0c84-4891-b5e4-6c25997fc381" y1="26.7073" x2="54.7073" y2="21.2927" xlink:href="#uuid-af1336c4-2844-4c96-8f83-f1438213045f"/><linearGradient id="uuid-0034e630-5871-4029-8425-be5c54626d20" y1="34.7073" y2="29.2927" xlink:href="#uuid-af1336c4-2844-4c96-8f83-f1438213045f"/><linearGradient id="uuid-a7d7f62e-dc82-4781-a6c4-366bd742a9c5" x1="49.2927" y1="10.7073" x2="54.7073" y2="5.2927" xlink:href="#uuid-af1336c4-2844-4c96-8f83-f1438213045f"/><linearGradient id="uuid-28cd7893-18de-4112-a68f-6241099a4be5" x1="5.2927" x2="10.7073" y2="13.2927" xlink:href="#uuid-af1336c4-2844-4c96-8f83-f1438213045f"/><linearGradient id="uuid-8ae2ea33-b3b6-4fd7-9492-705235d58086" x1="5.2927" y1="26.7073" x2="10.7073" y2="21.2927" xlink:href="#uuid-af1336c4-2844-4c96-8f83-f1438213045f"/><linearGradient id="uuid-afc800fa-079e-4409-a8f1-c5adee56a2d7" x1="5.2927" y1="34.7073" x2="10.7073" y2="29.2927" xlink:href="#uuid-af1336c4-2844-4c96-8f83-f1438213045f"/><linearGradient id="uuid-26d8a60a-7653-4fda-945e-a1c51c414551" x1="5.2927" y1="54.7073" x2="10.7073" y2="49.2927" xlink:href="#uuid-af1336c4-2844-4c96-8f83-f1438213045f"/><linearGradient id="uuid-560c2e56-4556-476d-8d0d-89cdb890f812" x1="5.2927" y1="46.7073" x2="10.7073" y2="41.2927" xlink:href="#uuid-af1336c4-2844-4c96-8f83-f1438213045f"/><linearGradient id="uuid-3eb71111-996f-460e-b936-6bb3db248fe6" x1="13.2927" y1="54.7073" x2="18.7073" y2="49.2927" xlink:href="#uuid-af1336c4-2844-4c96-8f83-f1438213045f"/><linearGradient id="uuid-b9e92e27-bbe6-40bb-93a8-4a660410966c" x1="13.2927" y1="46.7073" x2="18.7073" y2="41.2927" xlink:href="#uuid-af1336c4-2844-4c96-8f83-f1438213045f"/><linearGradient id="uuid-b9cbaa7d-752e-46f4-914e-8627000eb738" x1="21.2927" y1="54.7073" x2="26.7073" y2="49.2927" xlink:href="#uuid-af1336c4-2844-4c96-8f83-f1438213045f"/><linearGradient id="uuid-483dfde2-d74e-42e6-944f-309f78adf9be" x1="38.2927" y1="47.7073" x2="49.7073" y2="36.2927" xlink:href="#uuid-af1336c4-2844-4c96-8f83-f1438213045f"/><linearGradient id="uuid-36c30bea-8edd-4b06-848c-3567f22bb851" x1="21.2927" y1="46.7073" x2="26.7073" y2="41.2927" xlink:href="#uuid-af1336c4-2844-4c96-8f83-f1438213045f"/><linearGradient id="uuid-3852b522-e8e7-4fb5-a276-4363725f29b1" x1="5.2927" y1="10.7073" x2="10.7073" y2="5.2927" xlink:href="#uuid-af1336c4-2844-4c96-8f83-f1438213045f"/></defs><g id="uuid-6a628949-0519-4bf1-b235-6dffbdeaa7d0"><rect width="60" height="60" rx="2" ry="2" fill="#203b72"/><rect x="13" y="5" width="34" height="30" rx="1" ry="1" fill="#fff"/><rect x="49" y="13" width="6" height="6" rx="1" ry="1" fill="url(#uuid-af1336c4-2844-4c96-8f83-f1438213045f)"/><rect x="49" y="21" width="6" height="6" rx="1" ry="1" fill="url(#uuid-15b4503c-0c84-4891-b5e4-6c25997fc381)"/><rect x="49" y="29" width="6" height="6" rx="1" ry="1" fill="url(#uuid-0034e630-5871-4029-8425-be5c54626d20)"/><rect x="49" y="5" width="6" height="6" rx="1" ry="1" fill="url(#uuid-a7d7f62e-dc82-4781-a6c4-366bd742a9c5)"/><rect x="5" y="13" width="6" height="6" rx="1" ry="1" fill="url(#uuid-28cd7893-18de-4112-a68f-6241099a4be5)"/><rect x="5" y="21" width="6" height="6" rx="1" ry="1" fill="url(#uuid-8ae2ea33-b3b6-4fd7-9492-705235d58086)"/><rect x="5" y="29" width="6" height="6" rx="1" ry="1" fill="url(#uuid-afc800fa-079e-4409-a8f1-c5adee56a2d7)"/><rect x="5" y="49" width="6" height="6" rx="1" ry="1" fill="url(#uuid-26d8a60a-7653-4fda-945e-a1c51c414551)"/><rect x="5" y="41" width="6" height="6" rx="1" ry="1" fill="url(#uuid-560c2e56-4556-476d-8d0d-89cdb890f812)"/><rect x="13" y="49" width="6" height="6" rx="1" ry="1" fill="url(#uuid-3eb71111-996f-460e-b936-6bb3db248fe6)"/><rect x="13" y="41" width="6" height="6" rx="1" ry="1" fill="url(#uuid-b9e92e27-bbe6-40bb-93a8-4a660410966c)"/><rect x="21" y="49" width="6" height="6" rx="1" ry="1" fill="url(#uuid-b9cbaa7d-752e-46f4-914e-8627000eb738)"/><path d="M54,41h-20c-.5527,0-1,.4473-1,1s.4473,1,1,1h20c.5527,0,1-.4473,1-1s-.4473-1-1-1Z" fill="url(#uuid-483dfde2-d74e-42e6-944f-309f78adf9be)"/><path d="M37,54c0,.5527.4473,1,1,1h12c.5527,0,1-.4473,1-1v-12h-14v12Z" fill="#fff"/><rect x="21" y="41" width="6" height="6" rx="1" ry="1" fill="url(#uuid-36c30bea-8edd-4b06-848c-3567f22bb851)"/><rect x="5" y="5" width="6" height="6" rx="1" ry="1" fill="url(#uuid-3852b522-e8e7-4fb5-a276-4363725f29b1)"/></g></svg>