<?xml version="1.0" encoding="UTF-8"?><svg id="uuid-4ca81b78-472a-4b56-b9fa-cdc90143f607" xmlns="http://www.w3.org/2000/svg" xmlns:xlink="http://www.w3.org/1999/xlink" viewBox="0 0 60 60"><defs><linearGradient id="uuid-82279280-de48-40f2-93d9-7c30c6e8ccee" x1="10.9393" y1="20.9393" x2="41.0607" y2="-9.182" gradientUnits="userSpaceOnUse"><stop offset="0" stop-color="#a62b9f"/><stop offset="1" stop-color="#59c8fa"/></linearGradient><linearGradient id="uuid-ffb311c9-ab91-48ce-941e-790d9e3cf5e8" x1="26.2646" y1="56.2646" x2="49.7353" y2="32.7939" xlink:href="#uuid-82279280-de48-40f2-93d9-7c30c6e8ccee"/><linearGradient id="uuid-36cb347f-d229-40cf-b535-568a931626a9" x1="45" y1="57" x2="63" y2="39" xlink:href="#uuid-82279280-de48-40f2-93d9-7c30c6e8ccee"/><linearGradient id="uuid-24efa410-f268-4741-baa5-57ff70cc4508" x1="13" y1="57" x2="31" y2="39" xlink:href="#uuid-82279280-de48-40f2-93d9-7c30c6e8ccee"/></defs><g id="uuid-485d65d5-78bd-44c9-8f63-de08861a7887"><path d="M49,60H3c-1.6572,0-3-1.3433-3-3V12h52v45c0,1.6567-1.3428,3-3,3Z" fill="#002b49"/><path d="M3,0h46c1.6557,0,3,1.3443,3,3v7H0V3C0,1.3443,1.3443,0,3,0Z" fill="url(#uuid-82279280-de48-40f2-93d9-7c30c6e8ccee)"/><circle cx="5" cy="5" r="1.25" fill="#fff"/><circle cx="11" cy="5" r="1.25" fill="#fff"/><circle cx="17" cy="5" r="1.25" fill="#fff"/><polygon points="46 60 30 60 30 29.0586 38 25.0586 46 29.0586 46 60" fill="url(#uuid-ffb311c9-ab91-48ce-941e-790d9e3cf5e8)"/><rect x="48" y="36" width="12" height="24" fill="url(#uuid-36cb347f-d229-40cf-b535-568a931626a9)"/><path d="M57.333,43.2939h-2.2217v-3.5947c0-.6133.4971-1.1108,1.1114-1.1108h0c.6132,0,1.1103.4975,1.1103,1.1108v3.5947Z" fill="#fff"/><path d="M52.8887,43.2939h-2.2217v-3.5947c0-.6133.4971-1.1108,1.1103-1.1108h0c.6143,0,1.1114.4975,1.1114,1.1108v3.5947Z" fill="#fff"/><path d="M57.333,50.353h-2.2217v-3.5947c0-.6138.4971-1.1113,1.1114-1.1113h0c.6132,0,1.1103.4975,1.1103,1.1113v3.5947Z" fill="#fff"/><path d="M52.8887,50.353h-2.2217v-3.5947c0-.6138.4971-1.1113,1.1103-1.1113h0c.6143,0,1.1114.4975,1.1114,1.1113v3.5947Z" fill="#fff"/><path d="M57.333,57.4116h-2.2217v-3.5947c0-.6138.4971-1.1108,1.1114-1.1108h0c.6132,0,1.1103.497,1.1103,1.1108v3.5947Z" fill="#fff"/><path d="M52.8887,57.4116h-2.2217v-3.5947c0-.6138.4971-1.1108,1.1103-1.1108h0c.6143,0,1.1114.497,1.1114,1.1108v3.5947Z" fill="#fff"/><path d="M43.5557,43.2939h-2.2227v-3.5947c0-.6133.4981-1.1108,1.1113-1.1108h0c.6133,0,1.1114.4975,1.1114,1.1108v3.5947Z" fill="#fff"/><path d="M39.1113,43.2939h-2.2226v-3.5947c0-.6133.498-1.1108,1.1113-1.1108h0c.6133,0,1.1113.4975,1.1113,1.1108v3.5947Z" fill="#fff"/><path d="M43.5557,50.353h-2.2227v-3.5947c0-.6138.4981-1.1113,1.1113-1.1113h0c.6133,0,1.1114.4975,1.1114,1.1113v3.5947Z" fill="#fff"/><path d="M43.5557,36.2354h-2.2227v-3.5948c0-.6137.4981-1.1113,1.1113-1.1113h0c.6133,0,1.1114.4976,1.1114,1.1113v3.5948Z" fill="#fff"/><path d="M39.1113,50.353h-2.2226v-3.5947c0-.6138.498-1.1113,1.1113-1.1113h0c.6133,0,1.1113.4975,1.1113,1.1113v3.5947Z" fill="#fff"/><path d="M41,60h-6v-4.2944c0-1.6568,1.3428-3,3-3h0c1.6572,0,3,1.3432,3,3v4.2944Z" fill="#fff"/><path d="M34.667,43.2939h-2.2227v-3.5947c0-.6133.4971-1.1108,1.1114-1.1108h0c.6132,0,1.1113.4975,1.1113,1.1108v3.5947Z" fill="#fff"/><path d="M39.1113,36.2354h-2.2226v-3.5948c0-.6137.498-1.1113,1.1113-1.1113h0c.6133,0,1.1113.4976,1.1113,1.1113v3.5948Z" fill="#fff"/><path d="M34.667,36.2354h-2.2227v-3.5948c0-.6137.4971-1.1113,1.1114-1.1113h0c.6132,0,1.1113.4976,1.1113,1.1113v3.5948Z" fill="#fff"/><path d="M34.667,50.353h-2.2227v-3.5947c0-.6138.4971-1.1113,1.1114-1.1113h0c.6132,0,1.1113.4975,1.1113,1.1113v3.5947Z" fill="#fff"/><rect x="16" y="36" width="12" height="24" fill="url(#uuid-24efa410-f268-4741-baa5-57ff70cc4508)"/><path d="M25.333,43.2939h-2.2217v-3.5947c0-.6133.4971-1.1108,1.1114-1.1108h0c.6132,0,1.1103.4975,1.1103,1.1108v3.5947Z" fill="#fff"/><path d="M20.8887,43.2939h-2.2217v-3.5947c0-.6133.4971-1.1108,1.1103-1.1108h0c.6143,0,1.1114.4975,1.1114,1.1108v3.5947Z" fill="#fff"/><path d="M25.333,50.353h-2.2217v-3.5947c0-.6138.4971-1.1113,1.1114-1.1113h0c.6132,0,1.1103.4975,1.1103,1.1113v3.5947Z" fill="#fff"/><path d="M20.8887,50.353h-2.2217v-3.5947c0-.6138.4971-1.1113,1.1103-1.1113h0c.6143,0,1.1114.4975,1.1114,1.1113v3.5947Z" fill="#fff"/><path d="M25.333,57.4116h-2.2217v-3.5947c0-.6138.4971-1.1108,1.1114-1.1108h0c.6132,0,1.1103.497,1.1103,1.1108v3.5947Z" fill="#fff"/><path d="M20.8887,57.4116h-2.2217v-3.5947c0-.6138.4971-1.1108,1.1103-1.1108h0c.6143,0,1.1114.497,1.1114,1.1108v3.5947Z" fill="#fff"/></g></svg>