<?xml version="1.0" encoding="UTF-8"?><svg id="uuid-1f8b9fc0-1d0d-4e64-9021-befb42987ca6" xmlns="http://www.w3.org/2000/svg" xmlns:xlink="http://www.w3.org/1999/xlink" viewBox="0 0 60 60"><defs><linearGradient id="uuid-befe040b-3dec-4fd9-8f8b-babd598828f6" x1="4.4393" y1="56.682" x2="55.5607" y2="5.5607" gradientUnits="userSpaceOnUse"><stop offset="0" stop-color="#a62b9f"/><stop offset="1" stop-color="#59c8fa"/></linearGradient><linearGradient id="uuid-5862b820-42eb-4b2a-9c4b-c212200f6a88" x1="37.1716" y1="46.8284" x2="42.8284" y2="41.1716" xlink:href="#uuid-befe040b-3dec-4fd9-8f8b-babd598828f6"/></defs><g id="uuid-705bfeb9-cbc2-41ec-9bc1-1cbdd59ddefe"><path d="M3,0h54c1.6557,0,3,1.3443,3,3v7H0V3C0,1.3443,1.3443,0,3,0Z" fill="#002b49"/><circle cx="5" cy="5" r="1.25" fill="#fff"/><circle cx="11" cy="5" r="1.25" fill="#fff"/><circle cx="17" cy="5" r="1.25" fill="#fff"/><path d="M0,10v41c0,1.6567,1.3428,3,3,3h54c1.6572,0,3-1.3433,3-3V10H0Z" fill="url(#uuid-befe040b-3dec-4fd9-8f8b-babd598828f6)"/><path d="M4,14h52v35c0,.5519-.4481,1-1,1H5c-.5519,0-1-.4481-1-1V14h0Z" fill="#002b49"/><polygon points="34.5 49 34.5 60 40 56.7275 45.5 60 45.5 49 34.5 49" fill="#002b49"/><circle cx="40" cy="44" r="8" fill="#fff"/><circle cx="40" cy="44" r="4" fill="url(#uuid-5862b820-42eb-4b2a-9c4b-c212200f6a88)"/><path d="M38.4004,20h-16.8008c-.5527,0-1-.4478-1-1s.4473-1,1-1h16.8008c.5527,0,1,.4478,1,1s-.4473,1-1,1Z" fill="#fff"/><path d="M48,32h-21.5996c-.5527,0-1-.4478-1-1s.4473-1,1-1h21.5996c.5527,0,1,.4478,1,1s-.4473,1-1,1Z" fill="#fff"/><path d="M20.5996,32h-8.5996c-.5527,0-1-.4478-1-1s.4473-1,1-1h8.5996c.5527,0,1,.4478,1,1s-.4473,1-1,1Z" fill="#fff"/><path d="M48,26h-11.5996c-.5527,0-1-.4478-1-1s.4473-1,1-1h11.5996c.5527,0,1,.4478,1,1s-.4473,1-1,1Z" fill="#fff"/><path d="M30.5996,26H12c-.5527,0-1-.4478-1-1s.4473-1,1-1h18.5996c.5527,0,1,.4478,1,1s-.4473,1-1,1Z" fill="#fff"/><path d="M28,38H12c-.5527,0-1-.4478-1-1s.4473-1,1-1h16c.5527,0,1,.4478,1,1s-.4473,1-1,1Z" fill="#fff"/><path d="M26,46c-1.5371,0-2.3408-.688-2.9854-1.2407-.5341-.4571-.8867-.7593-1.6835-.7593-.7979,0-1.1504.3022-1.6846.7598-.6445.5522-1.4473,1.2402-2.9844,1.2402-1.5361,0-2.3379-.688-2.9824-1.2412-.5322-.457-.8848-.7588-1.6797-.7588-.5527,0-1-.4478-1-1s.4473-1,1-1c1.5361,0,2.3379.688,2.9824,1.2412.5322.457.8848.7588,1.6797.7588.7969,0,1.1494-.3022,1.6836-.7593.6445-.5527,1.4482-1.2407,2.9854-1.2407s2.3398.688,2.9843,1.2402c.5342.4576.8867.7598,1.6846.7598.5527,0,1,.4478,1,1s-.4473,1-1,1Z" fill="#fff"/></g></svg>