<?xml version="1.0" encoding="UTF-8"?><svg id="uuid-8ac30827-270c-476c-b0a0-5daaaf072101" xmlns="http://www.w3.org/2000/svg" xmlns:xlink="http://www.w3.org/1999/xlink" viewBox="0 0 60 48"><defs><linearGradient id="uuid-bac1af44-5842-4c29-922b-1ab9d6ccd704" x1="47.046" y1="30.3598" x2="59.7657" y2="17.6402" gradientUnits="userSpaceOnUse"><stop offset="0" stop-color="#a62b9f"/><stop offset="1" stop-color="#59c8fa"/></linearGradient></defs><g id="uuid-baac0f30-7769-42e1-ac7d-d3af20b2f559"><path d="M52,0H10C4.4771,0,0,4.4771,0,10v28c0,5.5229,4.4771,10,10,10h42c2.209,0,4-1.791,4-4v-9h-4c-6.0752,0-11-4.9248-11-11s4.9248-11,11-11h4V4c0-2.209-1.791-4-4-4Z" fill="#203b72"/><path d="M56.7998,16h-4.7998c-4.4185,0-8,3.5815-8,8s3.5815,8,8,8h4.7998c1.7676,0,3.2002-1.4326,3.2002-3.2002v-9.5996c0-1.7676-1.4326-3.2002-3.2002-3.2002Z" fill="url(#uuid-bac1af44-5842-4c29-922b-1ab9d6ccd704)"/><circle cx="52" cy="24" r="3" fill="#fff"/><path d="M49,6H8c-.5522,0-1,.4478-1,1s.4478,1,1,1h41c.5522,0,1-.4478,1-1s-.4478-1-1-1Z" fill="#fff"/><path d="M49,40H8c-.5522,0-1,.4478-1,1s.4478,1,1,1h41c.5522,0,1-.4478,1-1s-.4478-1-1-1Z" fill="#fff"/></g></svg>