<?xml version="1.0" encoding="UTF-8"?><svg id="uuid-a3e634a2-53a0-4df5-8d96-edaaa5855f2e" xmlns="http://www.w3.org/2000/svg" xmlns:xlink="http://www.w3.org/1999/xlink" viewBox="0 0 60 60"><defs><linearGradient id="uuid-49f3ea72-7b28-406d-8be4-44d5b2a99ece" x1="12.0502" y1="31.9498" x2="29.9498" y2="14.0502" gradientUnits="userSpaceOnUse"><stop offset="0" stop-color="#a62b9f"/><stop offset="1" stop-color="#59c8fa"/></linearGradient><linearGradient id="uuid-5562e725-15e1-4f98-aea7-af437d122a92" x1="29.2688" y1="61.7312" x2="63.7312" y2="27.2688" xlink:href="#uuid-49f3ea72-7b28-406d-8be4-44d5b2a99ece"/><linearGradient id="uuid-d0599d2a-c041-4e01-9bb2-57056c3c3ba5" x1="26.5" y1="9" x2="31.5" y2="4" xlink:href="#uuid-49f3ea72-7b28-406d-8be4-44d5b2a99ece"/><linearGradient id="uuid-5a9a1edd-869a-4898-8734-f6f8e9050f6f" x1="26.8786" y1="5.1214" x2="31.1213" y2=".8786" xlink:href="#uuid-49f3ea72-7b28-406d-8be4-44d5b2a99ece"/><linearGradient id="uuid-91817490-8c22-4003-b457-e52cfd99eee0" x1="10.5" y1="9" x2="15.5" y2="4" xlink:href="#uuid-49f3ea72-7b28-406d-8be4-44d5b2a99ece"/><linearGradient id="uuid-c867931f-2473-44f7-bb63-d874cbc152ec" x1="10.8786" y1="5.1214" x2="15.1213" y2=".8786" xlink:href="#uuid-49f3ea72-7b28-406d-8be4-44d5b2a99ece"/></defs><g id="uuid-af46119d-4b51-4391-ba04-ad7b344934d9"><path d="M39.375,10H2.625c-1.4492,0-2.625,1.1753-2.625,2.625v37.375l9-8h30.375c1.4502,0,2.625-1.1753,2.625-2.625V12.625c0-1.4497-1.1748-2.625-2.625-2.625Z" fill="#092b49"/><path d="M29,30H13c-3.8662,0-7-3.1338-7-7h0c0-3.8662,3.1338-7,7-7h16c3.8662,0,7,3.1338,7,7h0c0,3.8662-3.1338,7-7,7Z" fill="url(#uuid-49f3ea72-7b28-406d-8be4-44d5b2a99ece)"/><path d="M57.375,22h-13.375v17.375c0,2.5503-2.0752,4.625-4.625,4.625h-21.375v5.375c0,1.4497,1.1748,2.625,2.625,2.625h30.375l9,8V24.625c0-1.4497-1.1748-2.625-2.625-2.625Z" fill="url(#uuid-5562e725-15e1-4f98-aea7-af437d122a92)"/><rect x="27.5" y="3" width="3" height="7" fill="url(#uuid-d0599d2a-c041-4e01-9bb2-57056c3c3ba5)"/><path d="M25,37.5h-8c-.8281,0-1.5-.6714-1.5-1.5s.6719-1.5,1.5-1.5h8c.8281,0,1.5.6714,1.5,1.5s-.6719,1.5-1.5,1.5Z" fill="#fff"/><circle cx="29" cy="3" r="3" fill="url(#uuid-5a9a1edd-869a-4898-8734-f6f8e9050f6f)"/><rect x="11.5" y="3" width="3" height="7" fill="url(#uuid-91817490-8c22-4003-b457-e52cfd99eee0)"/><circle cx="13" cy="3" r="3" fill="url(#uuid-c867931f-2473-44f7-bb63-d874cbc152ec)"/><circle cx="29" cy="23" r="3" fill="#fff"/><circle cx="13" cy="23" r="3" fill="#fff"/></g></svg>