<?xml version="1.0" encoding="UTF-8"?><svg id="uuid-a9a42e02-ab03-40ad-b22e-ce866ffd3ec3" xmlns="http://www.w3.org/2000/svg" xmlns:xlink="http://www.w3.org/1999/xlink" viewBox="0 0 60 56"><defs><linearGradient id="uuid-97b6a494-7cdb-4dfd-9254-84a665638c32" x1="15.1169" y1="9.7164" x2="22.8831" y2="1.9503" gradientUnits="userSpaceOnUse"><stop offset="0" stop-color="#a62b9f"/><stop offset="1" stop-color="#59c8fa"/></linearGradient><linearGradient id="uuid-8f0b244a-e900-4b7c-8fb6-03d5fd707cbd" x1="9.817" y1="31.6505" x2="28.183" y2="13.2846" xlink:href="#uuid-97b6a494-7cdb-4dfd-9254-84a665638c32"/><linearGradient id="uuid-e918c3b4-b0ec-4cec-a356-4c8fc8ef2221" x1="38.0858" y1="27.0858" x2="47.9142" y2="17.2574" xlink:href="#uuid-97b6a494-7cdb-4dfd-9254-84a665638c32"/></defs><g id="uuid-9c4e6dd4-fb16-47af-8afc-f32e38914461"><rect y="28" width="60" height="4" fill="#002b49"/><rect x="3" y="32" width="54" height="20" fill="#002b49"/><rect x="53" y="52" width="4" height="4" fill="#002b49"/><rect x="3" y="52" width="4" height="4" fill="#002b49"/><path d="M23.6665,7v-2.3335c0-2.5771-2.0894-4.6665-4.6665-4.6665s-4.6665,2.0894-4.6665,4.6665v2.3335c0,2.5776,2.0894,4.6665,4.6665,4.6665s4.6665-2.0889,4.6665-4.6665Z" fill="url(#uuid-97b6a494-7cdb-4dfd-9254-84a665638c32)"/><path d="M31.8335,19.8335c0-1.9287-.7803-3.6743-2.042-4.9404-1.2671-1.272-3.0205-2.0596-4.958-2.0596h-11.667c-1.9375,0-3.6909.7876-4.958,2.0596-1.2617,1.2661-2.042,3.0117-2.042,4.9404v8.1665h4.0835v-7.2915c0-.4834.3916-.875.875-.875s.875.3916.875.875v7.2915h14v-7.2915c0-.4834.3916-.875.875-.875s.875.3916.875.875v7.2915h4.0835v-8.1665Z" fill="url(#uuid-8f0b244a-e900-4b7c-8fb6-03d5fd707cbd)"/><rect x="30" y="6" width="26" height="18" rx="1" ry="1" fill="#002b49"/><path d="M47,28h-8v-10c0-2.209,1.791-4,4-4h0c2.209,0,4,1.791,4,4v10Z" fill="url(#uuid-e918c3b4-b0ec-4cec-a356-4c8fc8ef2221)"/></g></svg>