<svg xmlns="http://www.w3.org/2000/svg" viewBox="0 0 60 56"><defs><style>.cls-1{fill:#203b72;}.cls-2{fill:#1ea7d3;}</style></defs><g id="Слой_2" data-name="Слой 2"><g id="Layer_1" data-name="Layer 1"><path class="cls-1" d="M52.72,21.26a7.5,7.5,0,0,0,1-3.73A7.6,7.6,0,0,0,41,11.91a13.71,13.71,0,0,0-27.3,1.77,14,14,0,0,0,.24,2.52A11.53,11.53,0,1,0,11.56,39H51a8.95,8.95,0,0,0,1.7-17.74Z"/><path class="cls-2" d="M47.67,43.34,45,41.77a.66.66,0,0,1-.31-.67,14.08,14.08,0,0,0,0-4.2.66.66,0,0,1,.31-.67l2.73-1.57a.64.64,0,0,0,.28-.81l-1.32-3.2a.65.65,0,0,0-.77-.37l-3,.82a.67.67,0,0,1-.7-.25,13.49,13.49,0,0,0-3-3,.64.64,0,0,1-.25-.69l.81-3a.65.65,0,0,0-.37-.77l-3.2-1.32a.64.64,0,0,0-.81.28l-1.57,2.72a.66.66,0,0,1-.67.31,14.08,14.08,0,0,0-4.2,0,.66.66,0,0,1-.67-.31l-1.57-2.73a.64.64,0,0,0-.81-.28l-3.2,1.32a.65.65,0,0,0-.37.77l.82,3a.67.67,0,0,1-.25.7,13.49,13.49,0,0,0-3,3,.64.64,0,0,1-.69.25l-3-.81a.65.65,0,0,0-.77.37l-1.32,3.2a.64.64,0,0,0,.28.81l2.72,1.57a.66.66,0,0,1,.31.67,14.08,14.08,0,0,0,0,4.2.66.66,0,0,1-.31.67l-2.73,1.57a.64.64,0,0,0-.28.81l1.32,3.19a.64.64,0,0,0,.77.38l3-.82a.67.67,0,0,1,.7.25,13.49,13.49,0,0,0,3,3,.64.64,0,0,1,.25.69l-.81,3a.65.65,0,0,0,.37.77L25.85,56a.64.64,0,0,0,.81-.28L28.23,53a.66.66,0,0,1,.67-.31,14.08,14.08,0,0,0,4.2,0,.66.66,0,0,1,.67.31l1.57,2.73a.64.64,0,0,0,.81.28l3.2-1.32a.65.65,0,0,0,.37-.77l-.82-3a.67.67,0,0,1,.25-.7,13.49,13.49,0,0,0,3-3,.64.64,0,0,1,.69-.25l3,.81a.65.65,0,0,0,.77-.37L48,44.15A.64.64,0,0,0,47.67,43.34ZM31,46a7,7,0,1,1,7-7A7,7,0,0,1,31,46Z"/></g></g></svg>