<?xml version="1.0" encoding="UTF-8"?><svg id="uuid-0a825028-e831-46e0-9bb2-5abfaa7fbebb" xmlns="http://www.w3.org/2000/svg" xmlns:xlink="http://www.w3.org/1999/xlink" viewBox="0 0 60 55.9998"><defs><linearGradient id="uuid-c28e5814-d72d-43a7-8d9b-95f384232a5f" x1="18.979" y1="51.0208" x2="43.021" y2="26.9788" gradientUnits="userSpaceOnUse"><stop offset="0" stop-color="#a62b9f"/><stop offset="1" stop-color="#59c8fa"/></linearGradient></defs><g id="uuid-c1fc39bd-ad5f-4300-99d4-d92862153110"><path d="M52.7236,21.2598c.626-1.1026.9883-2.375.9883-3.7334,0-4.1924-3.4072-7.5918-7.6103-7.5918-1.9688,0-3.7569.7529-5.1075,1.9765-.874-6.7177-6.6171-11.9111-13.5888-11.9111-7.5752,0-13.7168,6.126-13.7168,13.6836,0,.8603.0898,1.6992.2422,2.5156-.7666-.1631-1.5596-.2558-2.375-.2558C5.1738,15.9434,0,21.1045,0,27.4717s5.1738,11.5283,11.5557,11.5283h39.4658c4.959,0,8.9785-4.0107,8.9785-8.957,0-4.3653-3.1328-7.9893-7.2764-8.7832Z" fill="#002b49"/><path d="M47.6748,43.3379l-2.7246-1.5693c-.2344-.1338-.3545-.3995-.3135-.6661.2178-1.4121.208-2.8271-.0058-4.2011-.042-.2676.0791-.5323.3134-.667l2.7305-1.5733c.2822-.1621.4004-.5088.2754-.8095l-1.3232-3.1973c-.125-.3008-.4541-.4619-.7686-.3779l-3.043.8193c-.2607.0703-.5332-.0312-.6933-.25-.8203-1.123-1.8135-2.1309-2.9658-2.9746-.2178-.1602-.3204-.4326-.25-.6934l.8173-3.0361c.084-.3145-.0771-.6436-.3779-.7676l-3.1973-1.3242c-.3007-.125-.6474-.0068-.8105.2754l-1.5684,2.7256c-.1347.2334-.4004.3535-.667.3125-1.4121-.2178-2.8271-.208-4.2011.0058-.2676.042-.5323-.0791-.667-.3134l-1.5733-2.7305c-.1621-.2822-.5088-.4004-.8095-.2754l-3.1973,1.3232c-.3008.125-.4619.4541-.3779.7686l.8193,3.043c.0703.2607-.0312.5332-.25.6933-1.123.8203-2.1309,1.8135-2.9746,2.9659-.1602.2177-.4326.3203-.6934.25l-3.0361-.8174c-.3145-.084-.6436.0771-.7676.3779l-1.3242,3.1973c-.125.3007-.0068.6474.2754.8105l2.7246,1.5684c.2344.1347.3545.4004.3135.667-.2178,1.4121-.208,2.8271.0058,4.2011.042.2676-.0791.5323-.3134.667l-2.7305,1.5733c-.2822.1621-.4004.5088-.2754.8095l1.3242,3.1963c.124.3018.4531.4629.7676.3789l3.043-.8193c.2607-.0703.5332.0312.6933.25.8203,1.123,1.8135,2.1309,2.9659,2.9746.2177.1602.3203.4326.25.6934l-.8174,3.0361c-.084.3145.0771.6436.3779.7676l3.1973,1.3242c.3007.125.6474.0068.8105-.2754l1.5693-2.7256c.1338-.2334.3995-.3535.6661-.3125,1.4121.2178,2.8271.208,4.2011-.0058.2676-.042.5323.0791.667.3134l1.5733,2.7305c.1621.2822.5088.4004.8095.2754l3.1973-1.3242c.3008-.124.4619-.4531.3779-.7676l-.8193-3.043c-.0703-.2607.0312-.5332.25-.6933,1.123-.8203,2.1309-1.8135,2.9746-2.9658.1602-.2178.4326-.3204.6934-.25l3.0361.8173c.3145.084.6436-.0771.7676-.3779l1.3242-3.1973c.125-.3007.0068-.6474-.2754-.8105ZM31,46c-3.8662,0-7-3.1338-7-7s3.1338-7,7-7,7,3.1338,7,7-3.1338,7-7,7Z" fill="url(#uuid-c28e5814-d72d-43a7-8d9b-95f384232a5f)"/></g></svg>