<?xml version="1.0" encoding="UTF-8"?><svg id="uuid-d4277ee2-ee9f-4c9c-95ca-7c258587b7e9" xmlns="http://www.w3.org/2000/svg" xmlns:xlink="http://www.w3.org/1999/xlink" viewBox="0 0 60 60"><defs><linearGradient id="uuid-838f86f5-296e-4f76-8935-12935f61cb51" x1="22.6727" y1="25.0871" x2="30.0871" y2="17.6727" gradientUnits="userSpaceOnUse"><stop offset="0" stop-color="#a62b9f"/><stop offset="1" stop-color="#59c8fa"/></linearGradient><linearGradient id="uuid-65719391-8b93-490a-a741-93df62b0a624" x1="4.7928" y1="12.2072" x2="12.2072" y2="4.7928" xlink:href="#uuid-838f86f5-296e-4f76-8935-12935f61cb51"/><linearGradient id="uuid-2a90dd0c-27a6-41d9-9586-b9ee413aa637" x1="49.2928" y1="10.7072" x2="53.7072" y2="6.2928" xlink:href="#uuid-838f86f5-296e-4f76-8935-12935f61cb51"/><linearGradient id="uuid-bd042188-fad7-417b-84eb-4649c6912db0" x1="47.7928" y1="45.2072" x2="55.2072" y2="37.7928" xlink:href="#uuid-838f86f5-296e-4f76-8935-12935f61cb51"/><linearGradient id="uuid-37c3e39d-ddfb-46e1-960e-6fc9ed4f5178" x1="6.2928" y1="43.7072" x2="10.7072" y2="39.2928" xlink:href="#uuid-838f86f5-296e-4f76-8935-12935f61cb51"/></defs><g id="uuid-ee12a9d9-35a7-4945-bee3-6e0937c06d14"><rect width="60" height="50" rx="3" ry="3" fill="#092b49"/><rect x="4" y="4" width="52" height="42" rx="1" ry="1" fill="#fff"/><rect x="22" y="50" width="16" height="6" fill="#092b49"/><path d="M46,60H14c-1.1045,0-2-.8955-2-2h0c0-1.1045.8955-2,2-2h32c1.1045,0,2,.8955,2,2h0c0,1.1045-.8955,2-2,2Z" fill="#092b49"/><path d="M53,25s-10.2979,15-23,15S7,25,7,25c0,0,10.2979-15,23-15s23,15,23,15Z" fill="#092b49"/><circle cx="30" cy="25" r="10" fill="#fff"/><path d="M24,26c-.5527,0-1-.4478-1-1,0-3.8599,3.1406-7,7-7,.5527,0,1,.4478,1,1s-.4473,1-1,1c-2.7568,0-5,2.2432-5,5,0,.5522-.4473,1-1,1Z" fill="url(#uuid-838f86f5-296e-4f76-8935-12935f61cb51)"/><path d="M7,14c-.5527,0-1-.4478-1-1v-6c0-.5522.4473-1,1-1h6c.5527,0,1,.4478,1,1s-.4473,1-1,1h-5v5c0,.5522-.4473,1-1,1Z" fill="url(#uuid-65719391-8b93-490a-a741-93df62b0a624)"/><path d="M53,14c-.5527,0-1-.4478-1-1v-5h-5c-.5527,0-1-.4478-1-1s.4473-1,1-1h6c.5527,0,1,.4478,1,1v6c0,.5522-.4473,1-1,1Z" fill="url(#uuid-2a90dd0c-27a6-41d9-9586-b9ee413aa637)"/><path d="M53,44h-6c-.5527,0-1-.4478-1-1s.4473-1,1-1h5v-5c0-.5522.4473-1,1-1s1,.4478,1,1v6c0,.5522-.4473,1-1,1Z" fill="url(#uuid-bd042188-fad7-417b-84eb-4649c6912db0)"/><path d="M13,44h-6c-.5527,0-1-.4478-1-1v-6c0-.5522.4473-1,1-1s1,.4478,1,1v5h5c.5527,0,1,.4478,1,1s-.4473,1-1,1Z" fill="url(#uuid-37c3e39d-ddfb-46e1-960e-6fc9ed4f5178)"/></g></svg>