<svg xmlns="http://www.w3.org/2000/svg" viewBox="0 0 60 60"><defs><style>.cls-1{fill:#203b72;}.cls-2{fill:#fff;}.cls-3{fill:#1ea7d3;}</style></defs><g id="Слой_2" data-name="Слой 2"><g id="Layer_1" data-name="Layer 1"><rect class="cls-1" width="60" height="50" rx="3"/><rect class="cls-2" x="4" y="4" width="52" height="42" rx="1"/><rect class="cls-1" x="22" y="50" width="16" height="6"/><path class="cls-1" d="M46,60H14a2,2,0,0,1-2-2h0a2,2,0,0,1,2-2H46a2,2,0,0,1,2,2h0A2,2,0,0,1,46,60Z"/><path class="cls-1" d="M53,25S42.7,40,30,40,7,25,7,25,17.3,10,30,10,53,25,53,25Z"/><circle class="cls-2" cx="30" cy="25" r="10"/><path class="cls-3" d="M24,26a1,1,0,0,1-1-1,7,7,0,0,1,7-7,1,1,0,0,1,0,2,5,5,0,0,0-5,5A1,1,0,0,1,24,26Z"/><path class="cls-3" d="M7,14a1,1,0,0,1-1-1V7A1,1,0,0,1,7,6h6a1,1,0,0,1,0,2H8v5A1,1,0,0,1,7,14Z"/><path class="cls-3" d="M53,14a1,1,0,0,1-1-1V8H47a1,1,0,0,1,0-2h6a1,1,0,0,1,1,1v6A1,1,0,0,1,53,14Z"/><path class="cls-3" d="M53,44H47a1,1,0,0,1,0-2h5V37a1,1,0,0,1,2,0v6A1,1,0,0,1,53,44Z"/><path class="cls-3" d="M13,44H7a1,1,0,0,1-1-1V37a1,1,0,0,1,2,0v5h5a1,1,0,0,1,0,2Z"/></g></g></svg>