<?xml version="1.0" encoding="UTF-8"?><svg id="uuid-154c0f5a-d088-4d1c-bd4f-cad4896980c1" xmlns="http://www.w3.org/2000/svg" xmlns:xlink="http://www.w3.org/1999/xlink" viewBox="0 0 60 60"><defs><linearGradient id="uuid-8a6b3e0f-bfa9-4b8d-b6b3-bfe5fb705a83" x1="5.565" y1="32.4349" x2="32.4349" y2="5.5651" gradientUnits="userSpaceOnUse"><stop offset="0" stop-color="#a62b9f"/><stop offset="1" stop-color="#59c8fa"/></linearGradient><linearGradient id="uuid-6eb43b9f-5c06-4e28-9cdb-7c34c52a5d5e" x1="7.3546" y1="53.9532" x2="15.015" y2="46.2929" xlink:href="#uuid-8a6b3e0f-bfa9-4b8d-b6b3-bfe5fb705a83"/></defs><g id="uuid-df8e5d68-1573-44ab-88a5-b24906c06649"><circle cx="19" cy="19" r="19" fill="url(#uuid-8a6b3e0f-bfa9-4b8d-b6b3-bfe5fb705a83)"/><circle cx="41" cy="41" r="19" fill="#203b72"/><path d="M56.5234,14.6006l-2.9082,2.9082v-9.124c0-1.8243-1.4834-3.3077-3.3076-3.3077h-11.5381c-.5527,0-1,.4473-1,1s.4473,1,1,1h11.5381c.7207,0,1.3076.587,1.3076,1.3077v9.124l-2.9082-2.9082c-.3906-.3906-1.0234-.3906-1.414,0-.3907.3906-.3907,1.0234,0,1.414l4.6152,4.6153c.1953.1953.4512.293.707.293s.5118-.0977.7071-.293l4.6152-4.6153c.3906-.3906.3906-1.0234,0-1.414s-1.0234-.3906-1.4141,0Z" fill="#203b72"/><path d="M21.2305,52.9229h-11.5381c-.7207,0-1.3076-.587-1.3076-1.3077v-9.124l2.9082,2.9082c.1953.1953.4511.293.707.293s.5117-.0977.707-.293c.3907-.3906.3907-1.0234,0-1.414l-4.6152-4.6153c-.3906-.3906-1.0234-.3906-1.4141,0l-4.6152,4.6153c-.3906.3906-.3906,1.0234,0,1.414s1.0234.3906,1.4141,0l2.9082-2.9082v9.124c0,1.8243,1.4834,3.3077,3.3076,3.3077h11.5381c.5527,0,1-.4473,1-1s-.4473-1-1-1Z" fill="url(#uuid-6eb43b9f-5c06-4e28-9cdb-7c34c52a5d5e)"/><path d="M37.7744,33.8193h6.1358c1.7041,0,3.0898,1.3868,3.0898,3.0909,0,.5527.4473,1,1,1s1-.4473,1-1c0-2.8067-2.2832-5.0909-5.0898-5.0909h-6.1358c-2.8066,0-5.0898,2.2842-5.0898,5.0909v.4052h-1.6846c-.5527,0-1,.4473-1,1s.4473,1,1,1h1.6846v3.3692h-1.6846c-.5527,0-1,.4472-1,1s.4473,1,1,1h1.6846v.4052c0,2.8067,2.2832,5.0909,5.0898,5.0909h6.1358c2.8066,0,5.0898-2.2842,5.0898-5.0909,0-.5527-.4473-1-1-1s-1,.4473-1,1c0,1.7041-1.3857,3.0909-3.0898,3.0909h-6.1358c-1.7041,0-3.0898-1.3868-3.0898-3.0909v-.4052h5.2627c.5527,0,1-.4473,1-1s-.4473-1-1-1h-5.2627v-3.3692h5.2627c.5527,0,1-.4472,1-1s-.4473-1-1-1h-5.2627v-.4052c0-1.7041,1.3857-3.0909,3.0898-3.0909Z" fill="#fff"/><path d="M15.6533,12.4248h6.6934c.6357,0,1.1533.5166,1.1533,1.1523,0,.5528.4473,1,1,1s1-.4472,1-1c0-1.7382-1.415-3.1523-3.1533-3.1523h-2.3467v-2.4297c0-.5527-.4473-1-1-1s-1,.4473-1,1v2.4297h-2.3467c-1.7383,0-3.1533,1.4141-3.1533,3.1523v3.2696c0,1.7383,1.415,3.1533,3.1533,3.1533h6.6934c.6357,0,1.1533.5176,1.1533,1.1533v3.2696c0,.6357-.5176,1.1523-1.1533,1.1523h-6.6934c-.6357,0-1.1533-.5166-1.1533-1.1523,0-.5528-.4473-1-1-1s-1,.4472-1,1c0,1.7382,1.415,3.1523,3.1533,3.1523h2.3467v2.4297c0,.5527.4473,1,1,1s1-.4473,1-1v-2.4297h2.3467c1.7383,0,3.1533-1.4141,3.1533-3.1523v-3.2696c0-1.7383-1.415-3.1533-3.1533-3.1533h-6.6934c-.6357,0-1.1533-.5176-1.1533-1.1533v-3.2696c0-.6357.5176-1.1523,1.1533-1.1523Z" fill="#fff"/></g></svg>