<?xml version="1.0" encoding="UTF-8"?><svg id="uuid-b19254b2-06bc-4b88-b942-d1c6e580dc8c" xmlns="http://www.w3.org/2000/svg" xmlns:xlink="http://www.w3.org/1999/xlink" viewBox="0 0 60 60"><defs><linearGradient id="uuid-56435186-617d-4cce-9d5a-2cce4b10e0f5" x1="8.7868" y1="51.2131" x2="51.2131" y2="8.7869" gradientUnits="userSpaceOnUse"><stop offset="0" stop-color="#a62b9f"/><stop offset="1" stop-color="#59c8fa"/></linearGradient></defs><g id="uuid-0179a2ad-1ae0-4f55-a5d3-d3dd6e8d7a44"><circle cx="30" cy="30" r="30" fill="url(#uuid-56435186-617d-4cce-9d5a-2cce4b10e0f5)"/><circle cx="30" cy="30" r="25" fill="#fff"/><circle cx="30" cy="30" r="22" fill="#203b72"/><path d="M33.5361,18.3604h-2.0361v-2.3604c0-.8281-.6719-1.5-1.5-1.5s-1.5.6719-1.5,1.5v2.3604h-2.0361c-2.3926,0-4.3399,1.9472-4.3399,4.3398v4.46c0,2.3925,1.9473,4.3398,4.3399,4.3398h7.0722c.7393,0,1.3399.6006,1.3399,1.3398v4.46c0,.7393-.6006,1.3398-1.3399,1.3398h-7.0722c-.7393,0-1.3399-.6005-1.3399-1.3398,0-.8281-.6719-1.5-1.5-1.5s-1.5.6719-1.5,1.5v.0303c0,.0146,0,.0293.001.0429.0391,2.3594,1.9707,4.2666,4.3389,4.2666h2.0361v2.3604c0,.8281.6719,1.5,1.5,1.5s1.5-.6719,1.5-1.5v-2.3604h2.0361c2.3926,0,4.3399-1.9472,4.3399-4.3398v-4.46c0-2.3925-1.9473-4.3398-4.3399-4.3398h-7.0722c-.7393,0-1.3399-.6006-1.3399-1.3398v-4.46c0-.7393.6006-1.3398,1.3399-1.3398h7.0722c.7393,0,1.3399.6005,1.3399,1.3398,0,.8281.6719,1.5,1.5,1.5s1.5-.6719,1.5-1.5v-.0303c0-.0146,0-.0293-.001-.0429-.0391-2.3594-1.9707-4.2666-4.3389-4.2666Z" fill="#fff"/></g></svg>