<?xml version="1.0" encoding="UTF-8"?><svg id="uuid-a232ac85-202b-4844-99fe-025f7fda495b" xmlns="http://www.w3.org/2000/svg" xmlns:xlink="http://www.w3.org/1999/xlink" viewBox="0 0 60 60"><defs><linearGradient id="uuid-6fa96657-6926-4867-9681-2a39dad0ed2f" x1="-5.0353" y1="51.4461" x2="24.4176" y2="21.9932" gradientUnits="userSpaceOnUse"><stop offset="0" stop-color="#a62b9f"/><stop offset="1" stop-color="#59c8fa"/></linearGradient><linearGradient id="uuid-19537395-a295-433e-b8bc-2f6e9e7b46ab" x1="50.888" y1="62.7025" x2="58.0075" y2="55.5831" xlink:href="#uuid-6fa96657-6926-4867-9681-2a39dad0ed2f"/><linearGradient id="uuid-739c1ada-7c98-4561-a53b-024778e4e606" x1="29.6383" y1="57.3617" x2="50.3617" y2="36.6383" xlink:href="#uuid-6fa96657-6926-4867-9681-2a39dad0ed2f"/></defs><g id="uuid-fdb24fd7-ca79-478e-a878-f1a52c4c7689"><path d="M17.5713,47l.7812-1.1343c.3907-.5664,9.6885-13.8657,21.6475-13.8657,9.1758,0,16.7783,7.8232,20,11.7236V4l-14.333,14.333-6.333-6.333-12.458,12.4585-5.6719-5.6714-13.2041,13.2041v20.0088h13.5c-1.8867-2.062-3.0166-3.6763-3.1475-3.8657l-.7812-1.1343Z" fill="#092b49"/><path d="M6,56.5713c-1.418,0-2.5713-1.1533-2.5713-2.5713V1.7144c0-.9468-.7676-1.7144-1.7148-1.7144C.7676,0,0,.7676,0,1.7144v52.2856c0,3.3086,2.6914,6,6,6h25.8174c-1.9756-.9487-3.793-2.1519-5.416-3.4287H6Z" fill="url(#uuid-6fa96657-6926-4867-9681-2a39dad0ed2f)"/><path d="M58.2852,60c.9472,0,1.7148-.7676,1.7148-1.7144s-.7676-1.7143-1.7148-1.7143h-4.6768c-1.623,1.2773-3.4463,2.4795-5.4229,3.4287h10.0997Z" fill="url(#uuid-19537395-a295-433e-b8bc-2f6e9e7b46ab)"/><path d="M40,34c-11.0459,0-20,13-20,13,0,0,8.9541,13,20,13s20-13,20-13c0,0-8.9541-13-20-13Z" fill="url(#uuid-739c1ada-7c98-4561-a53b-024778e4e606)"/><circle cx="40" cy="47" r="9.5" fill="#092b49"/><path d="M34.2998,48c-.5527,0-1-.4478-1-1,0-3.6943,3.0059-6.7002,6.7002-6.7002.5527,0,1,.4478,1,1s-.4473,1-1,1c-2.5918,0-4.7002,2.1084-4.7002,4.7002,0,.5522-.4473,1-1,1Z" fill="#fff"/></g></svg>