<?xml version="1.0" encoding="UTF-8"?><svg id="uuid-7e11be40-b056-4b2b-b49b-986ccd692a51" xmlns="http://www.w3.org/2000/svg" xmlns:xlink="http://www.w3.org/1999/xlink" viewBox="0 0 60 60"><defs><linearGradient id="uuid-eec74584-b261-473b-acd1-6b3d0650eefd" x1="13.7927" y1="27.2073" x2="46.2073" y2="-5.2073" gradientUnits="userSpaceOnUse"><stop offset="0" stop-color="#a62b9f"/><stop offset="1" stop-color="#59c8fa"/></linearGradient><linearGradient id="uuid-36bd99dc-2ba9-4d2a-8e67-abc2ca9d0969" x1="13.7927" y1="45.2073" x2="46.2073" y2="12.7927" xlink:href="#uuid-eec74584-b261-473b-acd1-6b3d0650eefd"/><linearGradient id="uuid-03564f0c-d65d-493d-bbd7-4ffe8368eb6d" x1="13.7927" y1="63.2073" x2="46.2073" y2="30.7927" xlink:href="#uuid-eec74584-b261-473b-acd1-6b3d0650eefd"/></defs><g id="uuid-f82c784c-8f26-4376-92b5-b7e41788f142"><path d="M60,60V4c0-2.209-1.791-4-4-4H4C1.791,0,0,1.791,0,4v56h60Z" fill="#092b49"/><rect x="4" y="4" width="52" height="14" rx="1" ry="1" fill="url(#uuid-eec74584-b261-473b-acd1-6b3d0650eefd)"/><rect x="7" y="12" width="3" height="3" fill="#092b49"/><rect x="12" y="7" width="3" height="3" fill="#fff"/><rect x="12" y="12" width="3" height="3" fill="#092b49"/><rect x="17" y="7" width="3" height="3" fill="#092b49"/><rect x="22" y="7" width="3" height="3" fill="#092b49"/><rect x="22" y="12" width="3" height="3" fill="#092b49"/><rect x="27" y="7" width="3" height="3" fill="#092b49"/><rect x="27" y="12" width="3" height="3" fill="#092b49"/><rect x="4" y="22" width="52" height="14" rx="1" ry="1" fill="url(#uuid-36bd99dc-2ba9-4d2a-8e67-abc2ca9d0969)"/><rect x="7" y="25" width="3" height="3" fill="#092b49"/><rect x="12" y="30" width="3" height="3" fill="#092b49"/><rect x="17" y="25" width="3" height="3" fill="#092b49"/><rect x="17" y="30" width="3" height="3" fill="#fff"/><rect x="22" y="25" width="3" height="3" fill="#092b49"/><rect x="22" y="30" width="3" height="3" fill="#092b49"/><rect x="27" y="25" width="3" height="3" fill="#092b49"/><rect x="27" y="30" width="3" height="3" fill="#fff"/><rect x="4" y="40" width="52" height="14" rx="1" ry="1" fill="url(#uuid-03564f0c-d65d-493d-bbd7-4ffe8368eb6d)"/><rect x="7" y="43" width="3" height="3" fill="#fff"/><rect x="12" y="43" width="3" height="3" fill="#092b49"/><rect x="12" y="48" width="3" height="3" fill="#092b49"/><rect x="17" y="48" width="3" height="3" fill="#092b49"/><rect x="22" y="43" width="3" height="3" fill="#092b49"/><rect x="22" y="48" width="3" height="3" fill="#fff"/><rect x="27" y="48" width="3" height="3" fill="#092b49"/></g></svg>