<svg xmlns="http://www.w3.org/2000/svg" viewBox="0 0 60 60"><defs><style>.cls-1{fill:#203b72;}.cls-2{fill:#1ea7d3;}.cls-3{fill:#fff;}</style></defs><g id="Слой_2" data-name="Слой 2"><g id="Layer_1" data-name="Layer 1"><path class="cls-1" d="M60,60V4a4,4,0,0,0-4-4H4A4,4,0,0,0,0,4V60Z"/><rect class="cls-2" x="4" y="4" width="52" height="14" rx="1"/><rect class="cls-1" x="7" y="12" width="3" height="3"/><rect class="cls-3" x="12" y="7" width="3" height="3"/><rect class="cls-1" x="12" y="12" width="3" height="3"/><rect class="cls-1" x="17" y="7" width="3" height="3"/><rect class="cls-1" x="22" y="7" width="3" height="3"/><rect class="cls-1" x="22" y="12" width="3" height="3"/><rect class="cls-1" x="27" y="7" width="3" height="3"/><rect class="cls-1" x="27" y="12" width="3" height="3"/><rect class="cls-2" x="4" y="22" width="52" height="14" rx="1"/><rect class="cls-1" x="7" y="25" width="3" height="3"/><rect class="cls-1" x="12" y="30" width="3" height="3"/><rect class="cls-1" x="17" y="25" width="3" height="3"/><rect class="cls-3" x="17" y="30" width="3" height="3"/><rect class="cls-1" x="22" y="25" width="3" height="3"/><rect class="cls-1" x="22" y="30" width="3" height="3"/><rect class="cls-1" x="27" y="25" width="3" height="3"/><rect class="cls-3" x="27" y="30" width="3" height="3"/><rect class="cls-2" x="4" y="40" width="52" height="14" rx="1"/><rect class="cls-3" x="7" y="43" width="3" height="3"/><rect class="cls-1" x="12" y="43" width="3" height="3"/><rect class="cls-1" x="12" y="48" width="3" height="3"/><rect class="cls-1" x="17" y="48" width="3" height="3"/><rect class="cls-1" x="22" y="43" width="3" height="3"/><rect class="cls-3" x="22" y="48" width="3" height="3"/><rect class="cls-1" x="27" y="48" width="3" height="3"/></g></g></svg>