<?xml version="1.0" encoding="UTF-8"?><svg id="uuid-2d4d6022-1b33-47f3-8fa4-3ba9565df2fe" xmlns="http://www.w3.org/2000/svg" xmlns:xlink="http://www.w3.org/1999/xlink" viewBox="0 0 60 60"><defs><linearGradient id="uuid-32b5bcb6-9059-4100-bbea-5f29d47db181" x1="12.9393" y1="22.9393" x2="47.0607" y2="-11.1822" gradientUnits="userSpaceOnUse"><stop offset="0" stop-color="#a62b9f"/><stop offset="1" stop-color="#59c8fa"/></linearGradient><linearGradient id="uuid-98cae04f-c1c7-46ae-bfd5-c7236cb934e5" x1="1.5" y1="37.5" x2="28.5" y2="10.5" xlink:href="#uuid-32b5bcb6-9059-4100-bbea-5f29d47db181"/><linearGradient id="uuid-acb39c8d-eff5-4fff-aac3-2fa103e5d6f8" x1="10.0502" y1="44.9498" x2="19.9498" y2="35.0502" xlink:href="#uuid-32b5bcb6-9059-4100-bbea-5f29d47db181"/></defs><g id="uuid-2d8ae710-718f-4270-baa2-52f56ac3d8f2"><path d="M3,0h54c1.6557,0,3,1.3443,3,3v7H0V3C0,1.3443,1.3443,0,3,0Z" fill="url(#uuid-32b5bcb6-9059-4100-bbea-5f29d47db181)"/><circle cx="5" cy="5" r="1.25" fill="#fff"/><circle cx="11" cy="5" r="1.25" fill="#fff"/><circle cx="17" cy="5" r="1.25" fill="#fff"/><path d="M0,36h30v24H3c-1.6557,0-3-1.3443-3-3v-21h0Z" fill="#002b49"/><rect y="12" width="30" height="24" fill="url(#uuid-98cae04f-c1c7-46ae-bfd5-c7236cb934e5)"/><circle cx="15" cy="40" r="7" fill="url(#uuid-acb39c8d-eff5-4fff-aac3-2fa103e5d6f8)"/><circle cx="34" cy="48" r="7" fill="#002b49"/><circle cx="26" cy="24" r="7" fill="#002b49"/><path d="M60,12h-30v24h9.2598c-.792-1.1348-1.2598-2.5117-1.2598-4,0-3.8662,3.1338-7,7-7s7,3.1338,7,7c0,1.4883-.4678,2.8652-1.2598,4h9.2598V12Z" fill="#002b49"/></g></svg>