<?xml version="1.0" encoding="UTF-8"?><svg id="uuid-90284eaf-cee6-4c48-92bf-b64f35296fbf" xmlns="http://www.w3.org/2000/svg" xmlns:xlink="http://www.w3.org/1999/xlink" viewBox="0 0 60 42"><defs><linearGradient id="uuid-47cbf847-e917-4ba1-bb98-430a7f91a448" x1="14.25" y1="10.25" x2="17.9572" y2="6.5428" gradientUnits="userSpaceOnUse"><stop offset="0" stop-color="#a62b9f"/><stop offset="1" stop-color="#59c8fa"/></linearGradient><linearGradient id="uuid-d2a96e14-3e5e-4071-a633-8717638e6864" x1="6.5428" y1="15.9572" x2="9.25" y2="13.25" xlink:href="#uuid-47cbf847-e917-4ba1-bb98-430a7f91a448"/><linearGradient id="uuid-e822fab2-6e84-441d-8fb0-e4db884baa2f" x1="8.75" y1="14.25" x2="15.25" y2="7.75" xlink:href="#uuid-47cbf847-e917-4ba1-bb98-430a7f91a448"/><linearGradient id="uuid-059c443f-f352-4349-8e98-2a0ee8fe7b4f" x1="6.125" y1="12.625" x2="9.375" y2="9.375" xlink:href="#uuid-47cbf847-e917-4ba1-bb98-430a7f91a448"/><linearGradient id="uuid-b281d2fa-21e9-47be-8a78-1ee10f789287" x1="6.3964" y1="8.8964" x2="9.3964" y2="5.8964" xlink:href="#uuid-47cbf847-e917-4ba1-bb98-430a7f91a448"/><linearGradient id="uuid-50975667-2dd9-491a-aa38-4019632b1595" x1="14.1036" y1="15.6036" x2="18.1036" y2="11.6036" xlink:href="#uuid-47cbf847-e917-4ba1-bb98-430a7f91a448"/><linearGradient id="uuid-cab7ae99-f4f6-4992-906a-c10d0dd77d61" x1="10.0004" y1="36.6217" x2="19.2437" y2="27.3783" xlink:href="#uuid-47cbf847-e917-4ba1-bb98-430a7f91a448"/><linearGradient id="uuid-85930a5a-f65f-47c8-8348-f2408dfa40f6" x1="28.8813" y1="34.7467" x2="34.3746" y2="29.2533" xlink:href="#uuid-47cbf847-e917-4ba1-bb98-430a7f91a448"/></defs><g id="uuid-21928be6-e70f-470a-a672-475e62ae79b8"><rect width="60" height="42" rx="3" ry="3" fill="#203b72"/><path d="M17,6h-2.5v4.5h3.5v-3.5c0-.5522-.4473-1-1-1Z" fill="url(#uuid-47cbf847-e917-4ba1-bb98-430a7f91a448)"/><path d="M6,15c0,.5522.4473,1,1,1h2.5v-2.5h-3.5v1.5Z" fill="url(#uuid-d2a96e14-3e5e-4071-a633-8717638e6864)"/><rect x="10.5" y="6" width="3" height="10" fill="url(#uuid-e822fab2-6e84-441d-8fb0-e4db884baa2f)"/><rect x="6" y="9.5" width="3.5" height="3" fill="url(#uuid-059c443f-f352-4349-8e98-2a0ee8fe7b4f)"/><path d="M6,7v1.5h3.5v-2.5h-2.5c-.5527,0-1,.4478-1,1Z" fill="url(#uuid-b281d2fa-21e9-47be-8a78-1ee10f789287)"/><path d="M14.5,16h2.5c.5527,0,1-.4478,1-1v-3.5h-3.5v4.5Z" fill="url(#uuid-50975667-2dd9-491a-aa38-4019632b1595)"/><path d="M13.8662,22.5h-6.3662c-.8281,0-1.5.6714-1.5,1.5s.6719,1.5,1.5,1.5h6.3662c.8281,0,1.5-.6714,1.5-1.5s-.6719-1.5-1.5-1.5Z" fill="#fff"/><path d="M21.7441,30.5H7.5c-.8281,0-1.5.6714-1.5,1.5s.6719,1.5,1.5,1.5h14.2441c.8282,0,1.5-.6714,1.5-1.5s-.6718-1.5-1.5-1.5Z" fill="url(#uuid-cab7ae99-f4f6-4992-906a-c10d0dd77d61)"/><path d="M35,30.5h-6.7441c-.8282,0-1.5.6714-1.5,1.5s.6718,1.5,1.5,1.5h6.7441c.8281,0,1.5-.6714,1.5-1.5s-.6719-1.5-1.5-1.5Z" fill="url(#uuid-85930a5a-f65f-47c8-8348-f2408dfa40f6)"/><path d="M26.7441,22.5h-6.3662c-.8281,0-1.5.6714-1.5,1.5s.6719,1.5,1.5,1.5h6.3662c.8282,0,1.5-.6714,1.5-1.5s-.6718-1.5-1.5-1.5Z" fill="#fff"/><path d="M39.6221,22.5h-6.3662c-.8282,0-1.5.6714-1.5,1.5s.6718,1.5,1.5,1.5h6.3662c.8281,0,1.5-.6714,1.5-1.5s-.6719-1.5-1.5-1.5Z" fill="#fff"/><path d="M52.5,22.5h-6.3662c-.8281,0-1.5.6714-1.5,1.5s.6719,1.5,1.5,1.5h6.3662c.8281,0,1.5-.6714,1.5-1.5s-.6719-1.5-1.5-1.5Z" fill="#fff"/></g></svg>