<?xml version="1.0" encoding="UTF-8"?><svg id="uuid-bc554440-9981-426f-8f52-ff439e5594aa" xmlns="http://www.w3.org/2000/svg" xmlns:xlink="http://www.w3.org/1999/xlink" viewBox="0 0 60.0001 60"><defs><linearGradient id="uuid-9a9c1949-8a5c-472e-9769-f144bc1bd69c" x1="29.8076" y1="48.1924" x2="48.1924" y2="29.8076" gradientUnits="userSpaceOnUse"><stop offset="0" stop-color="#a62b9f"/><stop offset="1" stop-color="#59c8fa"/></linearGradient><linearGradient id="uuid-34bb6777-f27f-44ae-8283-4247f401adb6" x1="51.1919" y1="56.8491" x2="56.8491" y2="51.1919" xlink:href="#uuid-9a9c1949-8a5c-472e-9769-f144bc1bd69c"/></defs><g id="uuid-3bcce826-87f3-4cde-8874-13c445450c1c"><rect y="30" width="8" height="30" rx="1" ry="1" fill="#092b49"/><rect x="13" y="10" width="8" height="50" rx="1" ry="1" fill="#092b49"/><path d="M26,46.4512v12.5488c0,.5522.4478,1,1,1h6c.5522,0,1-.4478,1-1v-5.875c-3.3945-1.2061-6.2271-3.5928-8-6.6738Z" fill="#092b49"/><path d="M34,24.875v-7.875c0-.5522-.4478-1-1-1h-6c-.5522,0-1,.4478-1,1v14.5488c1.7729-3.081,4.6055-5.4682,8-6.6738Z" fill="#092b49"/><path d="M47,1c0-.5522-.4478-1-1-1h-6c-.5522,0-1,.4478-1,1v23c2.9424,0,5.6816.8638,8,2.3335V1Z" fill="#092b49"/><path d="M39,54v5c0,.5522.4478,1,1,1h6c.5522,0,1-.4478,1-1v-3.5146l-2.5347-2.5347c-1.6943.6714-3.5341,1.0493-5.4653,1.0493Z" fill="#092b49"/><circle cx="39" cy="39" r="13" fill="url(#uuid-9a9c1949-8a5c-472e-9769-f144bc1bd69c)"/><path d="M58.8286,53.1714l-6.7876-6.7876c-1.3408,2.3584-3.2988,4.3164-5.6567,5.6572l6.7871,6.7876c.7812.7808,1.8047,1.1714,2.8286,1.1714,1.0234,0,2.0474-.3906,2.8286-1.1714,1.562-1.5625,1.562-4.0952,0-5.6572Z" fill="url(#uuid-34bb6777-f27f-44ae-8283-4247f401adb6)"/><path d="M31,40c-.5527,0-1-.4478-1-1,0-4.9624,4.0371-9,9-9,.5527,0,1,.4478,1,1s-.4473,1-1,1c-3.8594,0-7,3.1401-7,7,0,.5522-.4473,1-1,1Z" fill="#fff"/></g></svg>