<svg xmlns="http://www.w3.org/2000/svg" viewBox="0 0 60 60"><defs><style>.cls-1{fill:#203b72;}.cls-2{fill:#1ea7d3;}.cls-3{fill:#fff;}</style></defs><g id="Слой_2" data-name="Слой 2"><g id="Layer_1" data-name="Layer 1"><rect class="cls-1" y="30" width="8" height="30" rx="1"/><rect class="cls-1" x="13" y="10" width="8" height="50" rx="1"/><path class="cls-1" d="M26,46.45V59a1,1,0,0,0,1,1h6a1,1,0,0,0,1-1V53.12A15,15,0,0,1,26,46.45Z"/><path class="cls-1" d="M34,24.88V17a1,1,0,0,0-1-1H27a1,1,0,0,0-1,1V31.55A15,15,0,0,1,34,24.88Z"/><path class="cls-1" d="M47,1a1,1,0,0,0-1-1H40a1,1,0,0,0-1,1V24a14.9,14.9,0,0,1,8,2.33Z"/><path class="cls-1" d="M39,54v5a1,1,0,0,0,1,1h6a1,1,0,0,0,1-1V55.49L44.47,53A14.87,14.87,0,0,1,39,54Z"/><circle class="cls-2" cx="39" cy="39" r="13"/><path class="cls-2" d="M58.83,53.17,52,46.38A15.08,15.08,0,0,1,46.38,52l6.79,6.79a4,4,0,0,0,5.66-5.66Z"/><path class="cls-3" d="M31,40a1,1,0,0,1-1-1,9,9,0,0,1,9-9,1,1,0,0,1,0,2,7,7,0,0,0-7,7A1,1,0,0,1,31,40Z"/></g></g></svg>