<svg xmlns="http://www.w3.org/2000/svg" viewBox="0 0 60 60"><defs><style>.cls-1{fill:#203b72;}.cls-2{fill:#1ea7d3;}.cls-3{fill:#fff;}</style></defs><g id="Слой_2" data-name="Слой 2"><g id="Layer_1" data-name="Layer 1"><path class="cls-1" d="M17.57,47l.78-1.13C18.74,45.3,28,32,40,32c9.18,0,16.78,7.82,20,11.72V4L45.67,18.33,39.33,12,26.88,24.46,21.2,18.79,8,32V52H21.5a38.36,38.36,0,0,1-3.15-3.87Z"/><path class="cls-2" d="M6,56.57A2.57,2.57,0,0,1,3.43,54V1.71A1.72,1.72,0,0,0,0,1.71V54a6,6,0,0,0,6,6H31.82a29.18,29.18,0,0,1-5.42-3.43Z"/><path class="cls-2" d="M58.29,60a1.72,1.72,0,0,0,0-3.43H53.61A29.51,29.51,0,0,1,48.19,60Z"/><path class="cls-2" d="M40,34C29,34,20,47,20,47s9,13,20,13S60,47,60,47,51.05,34,40,34Z"/><circle class="cls-1" cx="40" cy="47" r="9.5"/><path class="cls-3" d="M34.3,48a1,1,0,0,1-1-1A6.71,6.71,0,0,1,40,40.3a1,1,0,0,1,0,2A4.71,4.71,0,0,0,35.3,47,1,1,0,0,1,34.3,48Z"/></g></g></svg>