<?xml version="1.0" encoding="UTF-8"?><svg id="uuid-64519e79-2394-4818-a9c8-986f252ade10" xmlns="http://www.w3.org/2000/svg" xmlns:xlink="http://www.w3.org/1999/xlink" viewBox="0 0 60 60"><defs><linearGradient id="uuid-f7e9e558-690c-4a5c-a762-1dfc87d28e6b" x1="31.2714" y1="25.4786" x2="54.7286" y2="2.0214" gradientUnits="userSpaceOnUse"><stop offset="0" stop-color="#a62b9f"/><stop offset="1" stop-color="#59c8fa"/></linearGradient><linearGradient id="uuid-98ad0caa-ffef-42b5-8b58-ae6d77f6d709" x1="41.0215" y1="48.2286" x2="44.9786" y2="44.2716" xlink:href="#uuid-f7e9e558-690c-4a5c-a762-1dfc87d28e6b"/><linearGradient id="uuid-cf75f445-aa0a-491f-9a3e-4cdde07208e1" x1="37.7716" y1="44.9785" x2="54.7285" y2="28.0215" xlink:href="#uuid-f7e9e558-690c-4a5c-a762-1dfc87d28e6b"/><linearGradient id="uuid-bb6ed7a3-4073-405d-b71e-f7e4db35f2d0" x1="37.7716" y1="57.9785" x2="54.7285" y2="41.0215" xlink:href="#uuid-f7e9e558-690c-4a5c-a762-1dfc87d28e6b"/><linearGradient id="uuid-9a1a419e-626a-4d0c-b774-c44a5043a885" x1="11.7716" y1="25.4785" x2="28.7285" y2="8.5215" xlink:href="#uuid-f7e9e558-690c-4a5c-a762-1dfc87d28e6b"/><linearGradient id="uuid-b06608c7-d0f7-45c2-9288-a5eb44f51c79" x1="37.7716" y1="18.9785" x2="54.7285" y2="2.0215" xlink:href="#uuid-f7e9e558-690c-4a5c-a762-1dfc87d28e6b"/><linearGradient id="uuid-7dfcb706-22a8-49f6-8b18-15b296d3b853" x1="11.7716" y1="38.4785" x2="28.7285" y2="21.5215" xlink:href="#uuid-f7e9e558-690c-4a5c-a762-1dfc87d28e6b"/><linearGradient id="uuid-e30fe9aa-4b7d-40e4-8844-5f8fc5969128" x1="15.0216" y1="41.7285" x2="38.4785" y2="18.2716" xlink:href="#uuid-f7e9e558-690c-4a5c-a762-1dfc87d28e6b"/><linearGradient id="uuid-2fc84e8a-05d1-461b-9871-152ada08d991" x1="11.7716" y1="51.4785" x2="28.7285" y2="34.5215" xlink:href="#uuid-f7e9e558-690c-4a5c-a762-1dfc87d28e6b"/><linearGradient id="uuid-be35a74f-2dee-443e-8171-21aa5c77bf30" x1="21.5214" y1="41.7285" x2="44.9784" y2="18.2715" xlink:href="#uuid-f7e9e558-690c-4a5c-a762-1dfc87d28e6b"/><linearGradient id="uuid-350415bf-ff1d-48bd-88d5-ae93140afabf" x1="15.0215" y1="28.7285" x2="18.9785" y2="24.7715" xlink:href="#uuid-f7e9e558-690c-4a5c-a762-1dfc87d28e6b"/><linearGradient id="uuid-cbb01821-9c3a-4360-af80-85b5b41e02b5" x1="5.2714" y1="44.9786" x2="28.7286" y2="21.5214" xlink:href="#uuid-f7e9e558-690c-4a5c-a762-1dfc87d28e6b"/><linearGradient id="uuid-0b43560a-727b-49fa-b85e-96e2c2e546a6" x1="37.7716" y1="31.9785" x2="54.7285" y2="15.0215" xlink:href="#uuid-f7e9e558-690c-4a5c-a762-1dfc87d28e6b"/><linearGradient id="uuid-e7d6f18a-9024-429b-8b65-85a9abbe333a" y1="38.4786" x2="54.7286" y2="15.0214" xlink:href="#uuid-f7e9e558-690c-4a5c-a762-1dfc87d28e6b"/><linearGradient id="uuid-e22b8487-3875-4e1b-96d8-b61e863b2bbc" x1="41.0215" y1="35.2285" x2="44.9785" y2="31.2715" xlink:href="#uuid-f7e9e558-690c-4a5c-a762-1dfc87d28e6b"/></defs><g id="uuid-4ecb7267-234f-4eab-951b-e0f3c540332a"><path d="M30.0005,24c-.1524,0-.3023-.0688-.4004-.2002-.166-.2207-.1211-.5342.1001-.6997L55.7002,3.6001c.2207-.166.5342-.1221.6997.1001.166.2207.1211.5342-.1001.6997l-26,19.5c-.0898.0674-.1948.1001-.2993.1001Z" fill="url(#uuid-f7e9e558-690c-4a5c-a762-1dfc87d28e6b)"/><path d="M55.9995,56.5c-.1045,0-.2095-.0327-.2993-.1001l-26-19.5c-.2212-.1655-.2661-.479-.1001-.6997.166-.2212.48-.2651.6997-.1001l26,19.5c.2212.1655.2661.479.1001.6997-.0981.1314-.248.2002-.4004.2002Z" fill="url(#uuid-98ad0caa-ffef-42b5-8b58-ae6d77f6d709)"/><path d="M56,43.5c-.0405,0-.0811-.0049-.1211-.0151l-26-6.5c-.2226-.0557-.3789-.2554-.3789-.4849s.1563-.4292.3789-.4849l26-6.5c.1484-.039.3071-.0039.4287.0909.1216.0947.1924.2402.1924.394v13c0,.1538-.0708.2993-.1924.394-.0888.0694-.1972.106-.3076.106ZM32.0615,36.5l23.4385,5.8594v-11.7188l-23.4385,5.8594Z" fill="url(#uuid-cf75f445-aa0a-491f-9a3e-4cdde07208e1)"/><path d="M56,56.5c-.0405,0-.0811-.0049-.1211-.0151l-26-6.5c-.2226-.0557-.3789-.2554-.3789-.4849s.1563-.4292.3789-.4849l26-6.5c.1484-.0395.3071-.0044.4287.0909.1216.0947.1924.2402.1924.394v13c0,.1538-.0708.2993-.1924.394-.0888.0694-.1972.106-.3076.106ZM32.0615,49.5l23.4385,5.8594v-11.7188l-23.4385,5.8594Z" fill="url(#uuid-bb6ed7a3-4073-405d-b71e-f7e4db35f2d0)"/><path d="M30,24c-.0405,0-.0811-.0049-.1211-.0151L3.8789,17.4849c-.2226-.0557-.3789-.2554-.3789-.4849s.1563-.4292.3789-.4849l26-6.5c.1484-.0385.3066-.0044.4287.0909.1216.0947.1924.2402.1924.394v13c0,.1538-.0708.2993-.1924.394-.0888.0694-.1972.106-.3076.106ZM6.0615,17l23.4385,5.8594v-11.7188l-23.4385,5.8594Z" fill="url(#uuid-9a1a419e-626a-4d0c-b774-c44a5043a885)"/><path d="M56,17.5c-.0405,0-.0811-.0049-.1211-.0151l-26-6.5c-.2226-.0557-.3789-.2554-.3789-.4849s.1563-.4292.3789-.4849l26-6.5c.1484-.039.3071-.0048.4287.0909.1216.0947.1924.2402.1924.394v13c0,.1538-.0708.2993-.1924.394-.0888.0694-.1972.106-.3076.106ZM32.0615,10.5l23.4385,5.8594V4.6406l-23.4385,5.8594Z" fill="url(#uuid-b06608c7-d0f7-45c2-9288-a5eb44f51c79)"/><path d="M30,37c-.0405,0-.0811-.0049-.1211-.0151L3.8789,30.4849c-.2226-.0557-.3789-.2554-.3789-.4849s.1563-.4292.3789-.4849l26-6.5c.1484-.0395.3066-.0039.4287.0909.1216.0947.1924.2402.1924.394v13c0,.1538-.0708.2993-.1924.394-.0888.0694-.1972.106-.3076.106ZM6.0615,30l23.4385,5.8594v-11.7188l-23.4385,5.8594Z" fill="url(#uuid-7dfcb706-22a8-49f6-8b18-15b296d3b853)"/><path d="M29.9995,50c-.1045,0-.2095-.0327-.2993-.1001L3.7002,30.3999c-.126-.0942-.2002-.2427-.2002-.3999s.0742-.3057.2002-.3999L29.7002,10.1001c.2202-.1655.5332-.1221.6997.1001.166.2207.1211.5342-.1001.6997L4.8335,30l25.4663,19.1001c.2212.1655.2661.479.1001.6997-.0981.1314-.248.2002-.4004.2002Z" fill="url(#uuid-e30fe9aa-4b7d-40e4-8844-5f8fc5969128)"/><path d="M30,50c-.0405,0-.0811-.0049-.1211-.0151l-26-6.5c-.2226-.0557-.3789-.2554-.3789-.4849s.1563-.4292.3789-.4849l26-6.5c.1484-.0385.3066-.0044.4287.0909.1216.0947.1924.2402.1924.394v13c0,.1538-.0708.2993-.1924.394-.0888.0694-.1972.106-.3076.106ZM6.0615,43l23.4385,5.8594v-11.7188l-23.4385,5.8594Z" fill="url(#uuid-2fc84e8a-05d1-461b-9871-152ada08d991)"/><path d="M30.0005,50c-.1524,0-.3023-.0688-.4004-.2002-.166-.2207-.1211-.5342.1001-.6997l25.4663-19.1001L29.7002,10.8999c-.2212-.1655-.2661-.479-.1001-.6997.166-.2217.48-.2647.6997-.1001l26,19.5c.126.0942.2002.2427.2002.3999s-.0742.3057-.2002.3999l-26,19.5c-.0898.0674-.1948.1001-.2993.1001Z" fill="url(#uuid-be35a74f-2dee-443e-8171-21aa5c77bf30)"/><path d="M29.9995,37c-.1045,0-.2095-.0327-.2993-.1001L3.7002,17.3999c-.2212-.1655-.2661-.479-.1001-.6997.1655-.2217.4795-.2656.6997-.1001l26,19.5c.2212.1655.2661.479.1001.6997-.0981.1314-.248.2002-.4004.2002Z" fill="url(#uuid-350415bf-ff1d-48bd-88d5-ae93140afabf)"/><path d="M4.0005,43.5c-.1524,0-.3023-.0688-.4004-.2002-.166-.2207-.1211-.5342.1001-.6997l26-19.5c.2202-.1665.5332-.1226.6997.1001.166.2207.1211.5342-.1001.6997L4.2998,43.3999c-.0898.0674-.1948.1001-.2993.1001Z" fill="url(#uuid-cbb01821-9c3a-4360-af80-85b5b41e02b5)"/><path d="M56,30.5c-.0405,0-.0811-.0049-.1211-.0151l-26-6.5c-.2226-.0557-.3789-.2554-.3789-.4849s.1563-.4292.3789-.4849l26-6.5c.1484-.04.3071-.0044.4287.0909.1216.0947.1924.2402.1924.394v13c0,.1538-.0708.2993-.1924.394-.0888.0694-.1972.106-.3076.106ZM32.0615,23.5l23.4385,5.8594v-11.7188l-23.4385,5.8594Z" fill="url(#uuid-0b43560a-727b-49fa-b85e-96e2c2e546a6)"/><path d="M30.0005,37c-.1524,0-.3023-.0688-.4004-.2002-.166-.2207-.1211-.5342.1001-.6997l26-19.5c.2207-.167.5342-.1221.6997.1001.166.2207.1211.5342-.1001.6997l-26,19.5c-.0898.0674-.1948.1001-.2993.1001Z" fill="url(#uuid-e7d6f18a-9024-429b-8b65-85a9abbe333a)"/><path d="M55.9995,43.5c-.1045,0-.2095-.0327-.2993-.1001l-26-19.5c-.2212-.1655-.2661-.479-.1001-.6997.166-.2217.48-.2656.6997-.1001l26,19.5c.2212.1655.2661.479.1001.6997-.0981.1314-.248.2002-.4004.2002Z" fill="url(#uuid-e22b8487-3875-4e1b-96d8-b61e863b2bbc)"/><circle cx="4" cy="30" r="4" fill="#092b49"/><circle cx="4" cy="43" r="4" fill="#092b49"/><circle cx="56" cy="43" r="4" fill="#092b49"/><circle cx="4" cy="17" r="4" fill="#092b49"/><circle cx="56" cy="30" r="4" fill="#092b49"/><circle cx="56" cy="56" r="4" fill="#092b49"/><circle cx="56" cy="17" r="4" fill="#092b49"/><circle cx="30" cy="36.5" r="4" fill="#092b49"/><circle cx="30" cy="49.5" r="4" fill="#092b49"/><circle cx="30" cy="23.5" r="4" fill="#092b49"/><circle cx="30" cy="10.5" r="4" fill="#092b49"/><circle cx="56" cy="4" r="4" fill="#092b49"/><circle cx="4" cy="30" r="1.5" fill="#fff"/><circle cx="4" cy="43" r="1.5" fill="#fff"/><circle cx="56" cy="43" r="1.5" fill="#fff"/><circle cx="4" cy="17" r="1.5" fill="#fff"/><circle cx="56" cy="30" r="1.5" fill="#fff"/><circle cx="56" cy="56" r="1.5" fill="#fff"/><circle cx="56" cy="17" r="1.5" fill="#fff"/><circle cx="30" cy="36.5" r="1.5" fill="#fff"/><circle cx="30" cy="49.5" r="1.5" fill="#fff"/><circle cx="30" cy="23.5" r="1.5" fill="#fff"/><circle cx="30" cy="10.5" r="1.5" fill="#fff"/><circle cx="56" cy="4" r="1.5" fill="#fff"/></g></svg>