<svg xmlns="http://www.w3.org/2000/svg" viewBox="0 0 60 60"><defs><style>.cls-1{fill:#1ea7d3;}.cls-2{fill:#203b72;}.cls-3{fill:#fff;}</style></defs><g id="Слой_2" data-name="Слой 2"><g id="Layer_1" data-name="Layer 1"><path class="cls-1" d="M30,24a.51.51,0,0,1-.4-.2.5.5,0,0,1,.1-.7l26-19.5a.5.5,0,1,1,.6.8l-26,19.5A.49.49,0,0,1,30,24Z"/><path class="cls-1" d="M56,56.5a.49.49,0,0,1-.3-.1l-26-19.5a.5.5,0,0,1-.1-.7.51.51,0,0,1,.7-.1l26,19.5a.5.5,0,0,1,.1.7A.51.51,0,0,1,56,56.5Z"/><path class="cls-1" d="M56,43.5a.25.25,0,0,1-.12,0l-26-6.5a.49.49,0,0,1,0-1l26-6.5a.48.48,0,0,1,.43.09.49.49,0,0,1,.19.39V43a.49.49,0,0,1-.19.39A.51.51,0,0,1,56,43.5Zm-23.94-7L55.5,42.36V30.64Z"/><path class="cls-1" d="M56,56.5a.25.25,0,0,1-.12,0l-26-6.5a.49.49,0,0,1,0-1l26-6.5a.48.48,0,0,1,.43.09.49.49,0,0,1,.19.39V56a.49.49,0,0,1-.19.39A.51.51,0,0,1,56,56.5Zm-23.94-7L55.5,55.36V43.64Z"/><path class="cls-1" d="M30,24a.25.25,0,0,1-.12,0l-26-6.5a.49.49,0,0,1,0-1l26-6.5a.48.48,0,0,1,.43.09.49.49,0,0,1,.19.39v13a.49.49,0,0,1-.19.39A.51.51,0,0,1,30,24ZM6.06,17,29.5,22.86V11.14Z"/><path class="cls-1" d="M56,17.5a.25.25,0,0,1-.12,0l-26-6.5a.49.49,0,0,1,0-1l26-6.5a.48.48,0,0,1,.43.09A.49.49,0,0,1,56.5,4V17a.49.49,0,0,1-.19.39A.51.51,0,0,1,56,17.5Zm-23.94-7L55.5,16.36V4.64Z"/><path class="cls-1" d="M30,37a.25.25,0,0,1-.12,0l-26-6.5a.49.49,0,0,1,0-1l26-6.5a.48.48,0,0,1,.43.09.49.49,0,0,1,.19.39v13a.49.49,0,0,1-.19.39A.51.51,0,0,1,30,37ZM6.06,30,29.5,35.86V24.14Z"/><path class="cls-1" d="M30,50a.49.49,0,0,1-.3-.1L3.7,30.4a.5.5,0,0,1,0-.8l26-19.5a.5.5,0,0,1,.6.8L4.83,30,30.3,49.1a.5.5,0,0,1,.1.7A.51.51,0,0,1,30,50Z"/><path class="cls-1" d="M30,50a.25.25,0,0,1-.12,0l-26-6.5a.49.49,0,0,1,0-1l26-6.5a.48.48,0,0,1,.43.09.49.49,0,0,1,.19.39v13a.49.49,0,0,1-.19.39A.51.51,0,0,1,30,50ZM6.06,43,29.5,48.86V37.14Z"/><path class="cls-1" d="M30,50a.51.51,0,0,1-.4-.2.5.5,0,0,1,.1-.7L55.17,30,29.7,10.9a.5.5,0,0,1-.1-.7.51.51,0,0,1,.7-.1l26,19.5a.5.5,0,0,1,0,.8l-26,19.5A.49.49,0,0,1,30,50Z"/><path class="cls-1" d="M30,37a.49.49,0,0,1-.3-.1L3.7,17.4a.5.5,0,1,1,.6-.8l26,19.5a.5.5,0,0,1,.1.7A.51.51,0,0,1,30,37Z"/><path class="cls-1" d="M4,43.5a.51.51,0,0,1-.4-.2.5.5,0,0,1,.1-.7l26-19.5a.5.5,0,1,1,.6.8L4.3,43.4A.49.49,0,0,1,4,43.5Z"/><path class="cls-1" d="M56,30.5a.25.25,0,0,1-.12,0l-26-6.5a.49.49,0,0,1,0-1l26-6.5a.48.48,0,0,1,.43.09.49.49,0,0,1,.19.39V30a.49.49,0,0,1-.19.39A.51.51,0,0,1,56,30.5Zm-23.94-7L55.5,29.36V17.64Z"/><path class="cls-1" d="M30,37a.51.51,0,0,1-.4-.2.5.5,0,0,1,.1-.7l26-19.5a.5.5,0,0,1,.6.8l-26,19.5A.49.49,0,0,1,30,37Z"/><path class="cls-1" d="M56,43.5a.49.49,0,0,1-.3-.1l-26-19.5a.5.5,0,0,1,.6-.8l26,19.5a.5.5,0,0,1,.1.7A.51.51,0,0,1,56,43.5Z"/><circle class="cls-2" cx="4" cy="30" r="4"/><circle class="cls-2" cx="4" cy="43" r="4"/><circle class="cls-2" cx="56" cy="43" r="4"/><circle class="cls-2" cx="4" cy="17" r="4"/><circle class="cls-2" cx="56" cy="30" r="4"/><circle class="cls-2" cx="56" cy="56" r="4"/><circle class="cls-2" cx="56" cy="17" r="4"/><circle class="cls-2" cx="30" cy="36.5" r="4"/><circle class="cls-2" cx="30" cy="49.5" r="4"/><circle class="cls-2" cx="30" cy="23.5" r="4"/><circle class="cls-2" cx="30" cy="10.5" r="4"/><circle class="cls-2" cx="56" cy="4" r="4"/><circle class="cls-3" cx="4" cy="30" r="1.5"/><circle class="cls-3" cx="4" cy="43" r="1.5"/><circle class="cls-3" cx="56" cy="43" r="1.5"/><circle class="cls-3" cx="4" cy="17" r="1.5"/><circle class="cls-3" cx="56" cy="30" r="1.5"/><circle class="cls-3" cx="56" cy="56" r="1.5"/><circle class="cls-3" cx="56" cy="17" r="1.5"/><circle class="cls-3" cx="30" cy="36.5" r="1.5"/><circle class="cls-3" cx="30" cy="49.5" r="1.5"/><circle class="cls-3" cx="30" cy="23.5" r="1.5"/><circle class="cls-3" cx="30" cy="10.5" r="1.5"/><circle class="cls-3" cx="56" cy="4" r="1.5"/></g></g></svg>