<?xml version="1.0" encoding="UTF-8"?><svg id="uuid-616939d5-0848-461b-a523-d6edc0f2440c" xmlns="http://www.w3.org/2000/svg" xmlns:xlink="http://www.w3.org/1999/xlink" viewBox="0 0 60 60"><defs><linearGradient id="uuid-b8c411d8-6325-4ea7-87d5-cd4d4fde21c1" x1="10" y1="46" x2="50" y2="6" gradientUnits="userSpaceOnUse"><stop offset="0" stop-color="#a62b9f"/><stop offset="1" stop-color="#59c8fa"/></linearGradient></defs><g id="uuid-27c82225-6503-40b0-a390-5676a78dcd02"><rect y="10" width="60" height="40" rx="3" ry="3" fill="#002b49"/><rect x="4" y="14" width="52" height="32" rx="1" ry="1" fill="#fff"/><rect x="10" y="6" width="40" height="40" fill="url(#uuid-b8c411d8-6325-4ea7-87d5-cd4d4fde21c1)"/><polygon points="25 18 20 15 15 18 15 6 25 6 25 18" fill="#fff"/><path d="M50,6H10V1c0-.5527.4473-1,1-1h38c.5527,0,1,.4473,1,1v5Z" fill="#002b49"/><rect x="22" y="50" width="16" height="6" fill="#002b49"/><path d="M46,60H14c-1.1045,0-2-.8955-2-2h0c0-1.1045.8955-2,2-2h32c1.1045,0,2,.8955,2,2h0c0,1.1045-.8955,2-2,2Z" fill="#002b49"/><circle cx="13.25" cy="3" r=".75" fill="#fff"/><circle cx="17.25" cy="3" r=".75" fill="#fff"/><circle cx="21.25" cy="3" r=".75" fill="#fff"/><path d="M39,23.75H15c-.4141,0-.75-.3359-.75-.75s.3359-.75.75-.75h24c.4141,0,.75.3359.75.75s-.3359.75-.75.75Z" fill="#fff"/><path d="M45,29.75h-14c-.4141,0-.75-.3359-.75-.75s.3359-.75.75-.75h14c.4141,0,.75.3359.75.75s-.3359.75-.75.75Z" fill="#fff"/><path d="M26,29.75h-11c-.4141,0-.75-.3359-.75-.75s.3359-.75.75-.75h11c.4141,0,.75.3359.75.75s-.3359.75-.75.75Z" fill="#fff"/><path d="M45,11.75h-15c-.4141,0-.75-.3359-.75-.75s.3359-.75.75-.75h15c.4141,0,.75.3359.75.75s-.3359.75-.75.75Z" fill="#fff"/><path d="M45,17.75h-15c-.4141,0-.75-.3359-.75-.75s.3359-.75.75-.75h15c.4141,0,.75.3359.75.75s-.3359.75-.75.75Z" fill="#fff"/><path d="M45,35.75h-19c-.4141,0-.75-.3359-.75-.75s.3359-.75.75-.75h19c.4141,0,.75.3359.75.75s-.3359.75-.75.75Z" fill="#fff"/><path d="M21,35.75h-6c-.4141,0-.75-.3359-.75-.75s.3359-.75.75-.75h6c.4141,0,.75.3359.75.75s-.3359.75-.75.75Z" fill="#fff"/><path d="M33,41.75H15c-.4141,0-.75-.3359-.75-.75s.3359-.75.75-.75h18c.4141,0,.75.3359.75.75s-.3359.75-.75.75Z" fill="#fff"/></g></svg>