<?xml version="1.0" encoding="UTF-8"?><svg id="uuid-8c895a79-0c5b-4e3d-a4ed-259638d06e59" xmlns="http://www.w3.org/2000/svg" xmlns:xlink="http://www.w3.org/1999/xlink" viewBox="0 0 59.4604 57.4784"><defs><linearGradient id="uuid-fba6cd8a-a02f-46fe-986a-f42d9fc8770b" x1="8.3533" y1="54.0802" x2="51.1072" y2="11.3263" gradientUnits="userSpaceOnUse"><stop offset="0" stop-color="#59c8fa"/><stop offset="1" stop-color="#a62b9f"/></linearGradient></defs><g id="uuid-586dbab1-4d19-4589-af06-80e15fbfb251"><path d="M19.8202.991c0,1.6423-1.3308,2.9731-2.9731,2.9731s-2.973-1.3308-2.973-2.9731" fill="#092b49"/><polyline points="18.3337 0 18.3337 19.8202 15.3606 19.8202 15.3606 0" fill="#092b49"/><path d="M45.5863.991c0,1.6423-1.3307,2.9731-2.973,2.9731s-2.973-1.3308-2.973-2.9731" fill="#092b49"/><polyline points="44.0998 0 44.0998 19.8202 41.1268 19.8202 41.1268 0" fill="#092b49"/><rect x="5.9461" y="7.9281" width="47.5683" height="49.5503" rx="9.91" ry="9.91" fill="url(#uuid-fba6cd8a-a02f-46fe-986a-f42d9fc8770b)"/><rect x="10.9011" y="17.8382" width="37.6583" height="19.8201" rx="5.946" ry="5.946" fill="#092b49"/><path d="M33.6943,50.5414h-7.9281c-3.2837,0-5.946-2.6624-5.946-5.9461h19.8201c0,3.2837-2.6624,5.9461-5.946,5.9461Z" fill="#fff"/><path d="M53.5144,35.6763h0v-15.8561h0c3.2837,0,5.946,2.6623,5.946,5.946v3.964c0,3.2837-2.6623,5.9461-5.946,5.9461Z" fill="#092b49"/><path d="M5.9461,35.6763h0c-3.2838,0-5.9461-2.6624-5.9461-5.9461v-3.964c0-3.2837,2.6623-5.946,5.9461-5.946h0v15.8561Z" fill="#092b49"/><path d="M42.6133,27.7482c0,2.1892-1.7749,3.9641-3.964,3.9641s-3.964-1.7749-3.964-3.9641,1.7749-3.964,3.964-3.964,3.964,1.7749,3.964,3.964Z" fill="#fff"/><path d="M24.7752,27.7482c0,2.1892-1.7749,3.9641-3.964,3.9641s-3.9641-1.7749-3.9641-3.9641,1.7749-3.964,3.9641-3.964,3.964,1.7749,3.964,3.964Z" fill="#fff"/></g></svg>