<svg xmlns="http://www.w3.org/2000/svg" viewBox="0 0 60 60"><defs><style>.cls-1{fill:#1ea7d3;}.cls-2{fill:#203b72;}.cls-3{fill:#fff;}</style></defs><g id="Слой_2" data-name="Слой 2"><g id="Layer_1" data-name="Layer 1"><rect class="cls-1" x="16" y="8" width="4" height="4"/><polygon class="cls-1" points="20 20 20 16 16 16 16 12 12 12 12 20 16 20 20 20"/><rect class="cls-1" x="8" y="20" width="4" height="8"/><rect class="cls-1" x="28" y="8" width="4" height="4"/><path class="cls-1" d="M36,8v4H32v4H28V12H20v4h4v4h4v4H24V20H20v4H16v4h4v4H16V28H12v4H8v4h4v4H8V60H60V8Zm0,20H32v4H28V28h4V24h4Zm4-8H36V16h4Z"/><rect class="cls-1" width="4" height="4"/><rect class="cls-1" x="4" y="4" width="8" height="4"/><rect class="cls-1" x="4" y="12" width="4" height="4"/><polygon class="cls-2" points="8 55.24 8 60 34.03 60 25.51 45.83 13.65 45.83 8 55.24"/><polygon class="cls-2" points="60 45.35 54.35 35.97 37.36 35.97 30.24 47.8 37.58 60 60 60 60 45.35"/><path class="cls-3" d="M48.08,25.54,54.35,36h-17l6.27-10.43A2.59,2.59,0,0,1,48.08,25.54Z"/><path class="cls-3" d="M21.8,39.67l3.71,6.16H13.65l3.7-6.16A2.59,2.59,0,0,1,21.8,39.67Z"/></g></g></svg>