<?xml version="1.0" encoding="UTF-8"?><svg id="uuid-bf629741-d0b6-4421-8f20-19fda60f0f23" xmlns="http://www.w3.org/2000/svg" xmlns:xlink="http://www.w3.org/1999/xlink" viewBox="0 0 60 60"><defs><linearGradient id="uuid-98212573-6c63-488b-868f-c27eb3947be9" x1="16" y1="12" x2="20" y2="8" gradientUnits="userSpaceOnUse"><stop offset="0" stop-color="#a62b9f"/><stop offset="1" stop-color="#59c8fa"/></linearGradient><linearGradient id="uuid-26afd2a7-88c0-4cdc-884c-7359fed4f671" x1="12" y1="20" x2="18" y2="14" xlink:href="#uuid-98212573-6c63-488b-868f-c27eb3947be9"/><linearGradient id="uuid-38a5b837-fcde-4435-b641-7924036c784a" x1="7" y1="27" x2="13" y2="21" xlink:href="#uuid-98212573-6c63-488b-868f-c27eb3947be9"/><linearGradient id="uuid-f9ccad96-65c6-4114-b8d1-b5d9089d6c8a" x1="28" x2="32" xlink:href="#uuid-98212573-6c63-488b-868f-c27eb3947be9"/><linearGradient id="uuid-e57b8f52-48f0-47ea-bfb1-6ffb9de37ddb" x1="12" y1="64" x2="64" y2="12" xlink:href="#uuid-98212573-6c63-488b-868f-c27eb3947be9"/><linearGradient id="uuid-d556ee01-089b-4c5f-953a-fa80a70eee3b" x1="0" y1="4" x2="4" y2="0" xlink:href="#uuid-98212573-6c63-488b-868f-c27eb3947be9"/><linearGradient id="uuid-de51aac3-7af1-4c25-ab99-c5c8d3c32f38" x1="5" y1="9" x2="11" y2="3" xlink:href="#uuid-98212573-6c63-488b-868f-c27eb3947be9"/><linearGradient id="uuid-33bb5358-1fc8-4b18-87a6-737f625b064e" x1="4" y1="16" x2="8" y2="12" xlink:href="#uuid-98212573-6c63-488b-868f-c27eb3947be9"/></defs><g id="uuid-3ecebdab-85ca-4831-af42-2f0df7b8c223"><rect x="16" y="8" width="4" height="4" fill="url(#uuid-98212573-6c63-488b-868f-c27eb3947be9)"/><polygon points="20 20 20 16 16 16 16 12 12 12 12 20 16 20 20 20" fill="url(#uuid-26afd2a7-88c0-4cdc-884c-7359fed4f671)"/><rect x="8" y="20" width="4" height="8" fill="url(#uuid-38a5b837-fcde-4435-b641-7924036c784a)"/><rect x="28" y="8" width="4" height="4" fill="url(#uuid-f9ccad96-65c6-4114-b8d1-b5d9089d6c8a)"/><path d="M36,8v4h-4v4h-4v-4h-8v4h4v4h4v4h-4v-4h-4v4h-4v4h4v4h-4v-4h-4v4h-4v4h4v4h-4v20h52V8h-24ZM36,28h-4v4h-4v-4h4v-4h4v4ZM40,20h-4v-4h4v4Z" fill="url(#uuid-e57b8f52-48f0-47ea-bfb1-6ffb9de37ddb)"/><rect width="4" height="4" fill="url(#uuid-d556ee01-089b-4c5f-953a-fa80a70eee3b)"/><rect x="4" y="4" width="8" height="4" fill="url(#uuid-de51aac3-7af1-4c25-ab99-c5c8d3c32f38)"/><rect x="4" y="12" width="4" height="4" fill="url(#uuid-33bb5358-1fc8-4b18-87a6-737f625b064e)"/><polygon points="8 55.2363 8 60 34.0322 60 25.5063 45.8262 13.6523 45.8291 8 55.2363" fill="#092b49"/><polygon points="60 45.3545 54.354 35.9678 37.3564 35.9678 30.2383 47.8018 37.5757 60 60 60 60 45.3545" fill="#092b49"/><path d="M48.0835,25.543l6.2705,10.4248h-16.9976l6.271-10.4248c1.0103-1.6797,3.4454-1.6797,4.4561,0Z" fill="#fff"/><path d="M21.8047,39.6719l3.7016,6.1543h-11.8593l3.7016-6.1543c1.0108-1.6797,3.4458-1.6797,4.4561,0Z" fill="#fff"/></g></svg>