<?xml version="1.0" encoding="UTF-8"?><svg id="uuid-e952a3f8-51ed-4c2d-9d31-5ff699aa16b5" xmlns="http://www.w3.org/2000/svg" xmlns:xlink="http://www.w3.org/1999/xlink" viewBox="0 0 58.9997 58.9997"><defs><linearGradient id="uuid-fc454fcf-9e6d-4f99-aacf-9d35f71011d9" x1="15.846" y1="32.0344" x2="31.9147" y2="15.9656" gradientUnits="userSpaceOnUse"><stop offset="0" stop-color="#a62b9f"/><stop offset="1" stop-color="#59c8fa"/></linearGradient></defs><g id="uuid-cacf2fe4-1494-4a7d-8593-9a2fbac54cff"><path d="M45.7822,38.1895c-1.9775,3.0293-4.5683,5.6201-7.5986,7.5966l11.5576,11.6309c2.1182,2.1103,5.5518,2.1103,7.6699,0,2.1182-2.1104,2.1182-5.5313,0-7.6416l-11.6289-11.5859Z" fill="#203b72"/><circle cx="24" cy="24" r="24" fill="#203b72"/><circle cx="24" cy="24" r="18" fill="#fff"/><path d="M19.5576,16.3809h8.6455c.7901,0,1.4336.6425,1.4336,1.4326,0,.6904.5596,1.25,1.25,1.25s1.25-.5596,1.25-1.25c0-2.168-1.7646-3.9326-3.9336-3.9326h-3.0722v-1.8809c0-.6904-.5596-1.25-1.25-1.25s-1.25.5596-1.25,1.25v1.8809h-3.0733c-2.1689,0-3.9336,1.7646-3.9336,3.9326v3.5029c0,2.169,1.7647,3.9336,3.9336,3.9336h8.6455c.7901,0,1.4336.6436,1.4336,1.4336v3.5029c0,.7901-.6435,1.4326-1.4336,1.4326h-8.6455c-.79,0-1.4336-.6425-1.4336-1.4326,0-.6904-.5595-1.25-1.25-1.25s-1.25.5596-1.25,1.25c0,2.168,1.7647,3.9326,3.9336,3.9326h3.0733v1.8809c0,.6904.5595,1.25,1.25,1.25s1.25-.5596,1.25-1.25v-1.8809h3.0722c2.169,0,3.9336-1.7646,3.9336-3.9326v-3.5029c0-2.169-1.7646-3.9336-3.9336-3.9336h-8.6455c-.79,0-1.4336-.6436-1.4336-1.4336v-3.5029c0-.7901.6436-1.4326,1.4336-1.4326Z" fill="url(#uuid-fc454fcf-9e6d-4f99-aacf-9d35f71011d9)"/></g></svg>