<?xml version="1.0" encoding="UTF-8"?><svg id="uuid-43c6ce2c-81ca-4298-8f0e-6d0c3222f2a6" xmlns="http://www.w3.org/2000/svg" xmlns:xlink="http://www.w3.org/1999/xlink" viewBox="0 0 60 52.0001"><defs><linearGradient id="uuid-c5504e89-8650-49ab-a973-1f15b56751ce" x1="21.4417" y1="46.4417" x2="50.5583" y2="17.3252" gradientUnits="userSpaceOnUse"><stop offset="0" stop-color="#a62b9f"/><stop offset="1" stop-color="#59c8fa"/></linearGradient><linearGradient id="uuid-4a278bd6-79f4-465e-87dc-bf55ff2316a2" x1="29.7826" y1="8.1523" x2="42.2174" y2="-4.2826" xlink:href="#uuid-c5504e89-8650-49ab-a973-1f15b56751ce"/><linearGradient id="uuid-6b88e649-0892-4dcb-b292-61eb69492793" x1="-1.2153" y1="46.7153" x2="12.2153" y2="33.2847" xlink:href="#uuid-c5504e89-8650-49ab-a973-1f15b56751ce"/></defs><g id="uuid-a2e02be5-59e9-419d-bdb1-ed8820671842"><path d="M42.2998,10h-12.5996c-7.5898,4.8896-14.7002,14.5947-14.7002,30l21,8,21-8c0-15.4053-7.1104-25.1104-14.7002-30Z" fill="url(#uuid-c5504e89-8650-49ab-a973-1f15b56751ce)"/><path d="M29.7002,8h12.5996c4.0386-3.3604,4.2002-8,4.2002-8h-21s.1616,4.6396,4.2002,8Z" fill="url(#uuid-4a278bd6-79f4-465e-87dc-bf55ff2316a2)"/><path d="M42.4502,7.75h-12.9004c-.6904,0-1.25.5596-1.25,1.25s.5596,1.25,1.25,1.25h12.9004c.6904,0,1.25-.5596,1.25-1.25s-.5596-1.25-1.25-1.25Z" fill="#203b72"/><path d="M56.0986,36.6426l-16.3593,5.6553c-.7696,1.8212-2.5245,2.996-4.5098,2.996-.6172,0-1.2251-.1152-1.8042-.3447l-11.8242-4.6846c-.5025-.2001-.7481-.7695-.5493-1.2714.2002-.5039.7705-.7471,1.2729-.5498l7.022,2.7832,4.8003,1.9013c.1767.0703.3564.1221.5366.1563.1797.0342.3618.0517.5459.0517.1475,0,.293-.0117.4355-.0332.7134-.1074,1.3736-.4756,1.8394-1.0429.001-.001.0024-.002.0039-.0039.0752-.0928.1416-.1934.2065-.2959.0157-.0254.0347-.0469.0494-.0723.0756-.1289.1425-.2647.1992-.4082.4863-1.2256.0762-2.5772-.9024-3.3633-.2236-.1797-.4668-.3389-.7475-.4502l-12.5186-4.9599c-.1377-.0547-.2817-.0899-.4253-.1231-.2158-.0498-.435-.083-.6582-.083h-11.7114v15l21.0898,4.2656c2.3028.4844,4.7002.2139,6.8379-.7695l19.3335-8.8965c1.4356-.6435,2.1114-2.3017,1.5313-3.7627-.5801-1.4629-2.2095-2.207-3.6939-1.6943Z" fill="#203b72"/><rect y="31.5" width="11" height="17" rx=".9717" ry=".9717" fill="url(#uuid-6b88e649-0892-4dcb-b292-61eb69492793)"/><circle cx="5.5" cy="37" r="1.5" fill="#fff"/><path d="M38.147,15.8438h-1.147v-1.3438c0-.5527-.4478-1-1-1s-1,.4473-1,1v1.3438h-1.147c-1.5024,0-2.7246,1.2226-2.7246,2.7246v2.707c0,1.5019,1.2222,2.7246,2.7246,2.7246h4.294c.3994,0,.7246.3252.7246.7246v2.707c0,.3995-.3252.7247-.7246.7247h-4.294c-.3994,0-.7246-.3252-.7246-.7247,0-.5527-.4477-1-1-1s-1,.4473-1,1v.0186c0,.0098,0,.0195.0005.0283.0254,1.4815,1.2373,2.6778,2.7241,2.6778h1.147v1.3437c0,.5527.4478,1,1,1s1-.4473,1-1v-1.3437h1.147c1.5024,0,2.7246-1.2227,2.7246-2.7247v-2.707c0-1.5019-1.2222-2.7246-2.7246-2.7246h-4.294c-.3994,0-.7246-.3252-.7246-.7246v-2.707c0-.3995.3252-.7246.7246-.7246h4.294c.3994,0,.7246.3251.7246.7246v.0019c.001.5508.4482.9981,1,.9981.5522,0,1-.4473,1-1v-.0186c0-.0098,0-.0195-.0005-.0283-.0254-1.4815-1.2373-2.6777-2.7241-2.6777Z" fill="#fff"/></g></svg>