<svg xmlns="http://www.w3.org/2000/svg" viewBox="0 0 60 60"><defs><style>.cls-1{fill:#203b72;}.cls-2{fill:#1ea7d3;}</style></defs><g id="Слой_2" data-name="Слой 2"><g id="Layer_1" data-name="Layer 1"><path class="cls-1" d="M2,13a2,2,0,0,1-2-2V2A2,2,0,0,1,2,0h9a2,2,0,0,1,0,4H4v7A2,2,0,0,1,2,13Z"/><path class="cls-1" d="M58,13a2,2,0,0,1-2-2V4H49a2,2,0,0,1,0-4h9a2,2,0,0,1,2,2v9A2,2,0,0,1,58,13Z"/><path class="cls-1" d="M58,60H49a2,2,0,0,1,0-4h7V49a2,2,0,0,1,4,0v9A2,2,0,0,1,58,60Z"/><path class="cls-1" d="M11,60H2a2,2,0,0,1-2-2V49a2,2,0,0,1,4,0v7h7a2,2,0,0,1,0,4Z"/><path class="cls-2" d="M24,33H36A14,14,0,0,1,50,47v1a2,2,0,0,1-2,2H12a2,2,0,0,1-2-2V47A14,14,0,0,1,24,33Z"/><circle class="cls-2" cx="30" cy="20" r="10"/></g></g></svg>