<?xml version="1.0" encoding="UTF-8"?><svg id="uuid-6a084484-15c5-456d-93ba-7dd9e46394d6" xmlns="http://www.w3.org/2000/svg" xmlns:xlink="http://www.w3.org/1999/xlink" viewBox="0 0 60 60"><defs><linearGradient id="uuid-33a9bc60-c5a8-4fd9-9466-8b8c3fd37899" x1="18.0931" y1="56.9215" x2="41.9069" y2="33.1076" gradientUnits="userSpaceOnUse"><stop offset="0" stop-color="#a62b9f"/><stop offset="1" stop-color="#59c8fa"/></linearGradient><linearGradient id="uuid-4881d43b-8a73-4300-8d40-fae39b403acf" x1="22.9291" y1="27.0709" x2="37.0709" y2="12.9291" xlink:href="#uuid-33a9bc60-c5a8-4fd9-9466-8b8c3fd37899"/></defs><g id="uuid-321e6fb5-c252-4839-a843-743c06f585b9"><path d="M2,13c-1.1045,0-2-.8955-2-2V2C0,.8955.8955,0,2,0h9c1.1045,0,2,.8955,2,2s-.8955,2-2,2h-7v7c0,1.1045-.8955,2-2,2Z" fill="#092b49"/><path d="M58,13c-1.1045,0-2-.8955-2-2v-7h-7c-1.1045,0-2-.8955-2-2s.8955-2,2-2h9c1.1045,0,2,.8955,2,2v9c0,1.1045-.8955,2-2,2Z" fill="#092b49"/><path d="M58,60h-9c-1.1045,0-2-.8955-2-2s.8955-2,2-2h7v-7c0-1.1045.8955-2,2-2s2,.8955,2,2v9c0,1.1045-.8955,2-2,2Z" fill="#092b49"/><path d="M11,60H2c-1.1045,0-2-.8955-2-2v-9c0-1.1045.8955-2,2-2s2,.8955,2,2v7h7c1.1045,0,2,.8955,2,2s-.8955,2-2,2Z" fill="#092b49"/><path d="M24,33h12c7.7268,0,14,6.2732,14,14v1c0,1.1038-.8962,2-2,2H12c-1.1038,0-2-.8962-2-2v-1c0-7.7268,6.2732-14,14-14Z" fill="url(#uuid-33a9bc60-c5a8-4fd9-9466-8b8c3fd37899)"/><circle cx="30" cy="20" r="10" fill="url(#uuid-4881d43b-8a73-4300-8d40-fae39b403acf)"/></g></svg>