<?xml version="1.0" encoding="UTF-8"?><svg id="uuid-18554fed-db4c-4bc6-9bf5-5bbdaf97a5f3" xmlns="http://www.w3.org/2000/svg" xmlns:xlink="http://www.w3.org/1999/xlink" viewBox="0 0 60 60"><defs><linearGradient id="uuid-0e379915-aec8-46eb-852e-ff72c2863f51" x1="27.2689" y1="59.7311" x2="67.7313" y2="19.2687" gradientUnits="userSpaceOnUse"><stop offset="0" stop-color="#a62b9f"/><stop offset="1" stop-color="#59c8fa"/></linearGradient></defs><g id="uuid-c397cb2f-67d5-4d1d-88d0-ad57720e5346"><path d="M39.375,0H2.625C1.1748,0,0,1.1748,0,2.625v47.375l9-8h30.375c1.4502,0,2.625-1.1758,2.625-2.625V2.625c0-1.4502-1.1748-2.625-2.625-2.625Z" fill="#002b49"/><path d="M57.375,10h-13.375v29.375c0,2.5498-2.0752,4.625-4.625,4.625h-21.375v5.375c0,1.4492,1.1748,2.625,2.625,2.625h30.375l9,8V12.625c0-1.4502-1.1748-2.625-2.625-2.625Z" fill="url(#uuid-0e379915-aec8-46eb-852e-ff72c2863f51)"/><path d="M23.0322,26.8975h-4.0644v-1.7452c0-2.4599,1.5342-4.7089,3.8183-5.5966,1.9131-.7432,3.1494-2.5498,3.1494-4.6026h4.0645c0,3.7422-2.2539,7.0362-5.7422,8.3916-.7334.2842-1.2256,1.0108-1.2256,1.8076v1.7452Z" fill="#fff"/><path d="M30,14.9531h-4.0645c0-2.7217-2.2138-4.9355-4.9355-4.9355s-4.9355,2.2138-4.9355,4.9355h-4.0645c0-4.9629,4.0371-9,9-9s9,4.0371,9,9Z" fill="#fff"/><path d="M23.0322,26.8975c0,1.122-.9101,2.0322-2.0322,2.0322s-2.0322-.9102-2.0322-2.0322.9101-2.0323,2.0322-2.0323,2.0322.9102,2.0322,2.0323Z" fill="#fff"/><path d="M23.0322,34.0146c0,1.1231-.9101,2.0323-2.0322,2.0323s-2.0322-.9092-2.0322-2.0323c0-1.122.9101-2.0322,2.0322-2.0322s2.0322.9102,2.0322,2.0322Z" fill="#fff"/><path d="M16.0645,14.9531c0,1.1221-.9102,2.0323-2.0323,2.0323s-2.0322-.9102-2.0322-2.0323c0-1.123.9102-2.0322,2.0322-2.0322s2.0323.9092,2.0323,2.0322Z" fill="#fff"/></g></svg>