<?xml version="1.0" encoding="UTF-8"?><svg id="uuid-85c42a34-08ef-47a9-bcbc-228a4925c26c" xmlns="http://www.w3.org/2000/svg" xmlns:xlink="http://www.w3.org/1999/xlink" viewBox="0 0 60 60"><defs><linearGradient id="uuid-187bbcd6-2214-4bb0-bfc3-e484520d97af" x1="7.2929" y1="66.1213" x2="52.7071" y2="20.7071" gradientUnits="userSpaceOnUse"><stop offset="0" stop-color="#a62b9f"/><stop offset="1" stop-color="#59c8fa"/></linearGradient><linearGradient id="uuid-4df66c70-3b65-43bb-b2e8-2dbb79c0ae0c" x1="12.3762" y1="34.0432" x2="47.6238" y2="-1.2045" xlink:href="#uuid-187bbcd6-2214-4bb0-bfc3-e484520d97af"/></defs><g id="uuid-e90bbc85-c69f-4f6e-9747-09ce20560e3a"><path d="M0,28v26c0,1.1045.8955,2,2,2h56c1.1045,0,2-.8955,2-2v-26L30,5,0,28Z" fill="#203b72"/><path d="M0,28v30c0,1.1045.8955,2,2,2h56c1.1045,0,2-.8955,2-2v-30l-30,23L0,28Z" fill="url(#uuid-187bbcd6-2214-4bb0-bfc3-e484520d97af)"/><path d="M40,4h-20c0,3.3135-2.6865,6-6,6v24.7334l16,12.2666,16-12.2666V10c-3.3135,0-6-2.6865-6-6Z" fill="#fff"/><circle cx="30" cy="25" r="13" fill="#203b72"/><path d="M39,24h-1.4814v-1.2734c0-1.5586-1.2676-2.8262-2.8262-2.8262h-2.8662c-1.5586,0-2.8262,1.2676-2.8262,2.8262v4.5468c0,.4551-.3711.8252-.8262.8252h-2.8662c-.4551,0-.8262-.3701-.8262-.8252v-4.5468c0-.4551.3711-.8262.8262-.8262h.002c.5508-.001.998-.4483.998-1,0-.5527-.4472-1-1-1h-.0117c-.0137.001-.0244,0-.0371,0-1.5361.0264-2.7774,1.2842-2.7774,2.8262v1.2734h-1.4814c-.5527,0-1,.4473-1,1s.4473,1,1,1h1.4814v1.2734c0,1.5577,1.2676,2.8252,2.8262,2.8252h2.8662c1.5586,0,2.8262-1.2675,2.8262-2.8252v-4.5468c0-.4551.3711-.8262.8262-.8262h2.8662c.4551,0,.8262.3711.8262.8262v4.5468c0,.4551-.3711.8252-.8262.8252-.5528,0-1,.4473-1,1s.4472,1,1,1h.0488c1.5361-.0263,2.7774-1.2832,2.7774-2.8252v-1.2734h1.4814c.5527,0,1-.4473,1-1s-.4473-1-1-1Z" fill="#fff"/><path d="M48,0H12c-1.1045,0-2,.8955-2,2v29.667l4,3.0664V10c3.3135,0,6-2.6865,6-6h20c0,3.3135,2.6865,6,6,6v24.7334l4-3.0664V2c0-1.1045-.8955-2-2-2Z" fill="url(#uuid-4df66c70-3b65-43bb-b2e8-2dbb79c0ae0c)"/></g></svg>