<?xml version="1.0" encoding="UTF-8"?><svg id="uuid-3a2e8bb1-831a-48d9-b133-03b8b6bd15de" xmlns="http://www.w3.org/2000/svg" xmlns:xlink="http://www.w3.org/1999/xlink" viewBox="0 0 26 26"><defs><linearGradient id="uuid-11d4f5e7-220c-432a-9e23-f8bcbef520b9" x1="3.8076" y1="22.1924" x2="22.1924" y2="3.8076" gradientUnits="userSpaceOnUse"><stop offset="0" stop-color="#a62b9f"/><stop offset="1" stop-color="#59c8fa"/></linearGradient></defs><g id="uuid-644413c7-6603-4b3e-8d7c-3f5778de338d"><circle cx="13" cy="13" r="13" fill="url(#uuid-11d4f5e7-220c-432a-9e23-f8bcbef520b9)"/><path d="M15.2734,5.4819h-4.5468c-1.5581,0-2.8257,1.2676-2.8257,2.8257v2.8667c0,1.5581,1.2676,2.8257,2.8257,2.8257h4.5468c.4551,0,.8257.3706.8257.8257v2.8667c0,.4551-.3706.8257-.8257.8257h-4.5468c-.4551,0-.8257-.3706-.8257-.8257,0-.5523-.4478-1-1-1s-1,.4477-1,1v.02c0,.0098,0,.0195.0005.0293.0263,1.5356,1.2837,2.7764,2.8252,2.7764h4.5468c1.5581,0,2.8257-1.2676,2.8257-2.8257v-2.8667c0-1.5581-1.2676-2.8257-2.8257-2.8257h-4.5468c-.4551,0-.8257-.3706-.8257-.8257v-2.8667c0-.4551.3706-.8257.8257-.8257h4.5468c.4551,0,.8257.3706.8257.8257v.0015c.001.5517.4483.9985,1,.9985.5523,0,1-.4477,1-1v-.02c0-.0098,0-.0195-.0005-.0293-.0263-1.5356-1.2837-2.7764-2.8252-2.7764Z" fill="#fff"/><path d="M13,3c-.5522,0-1,.4478-1,1v2.4819c0,.5523.4478,1,1,1s1-.4477,1-1v-2.4819c0-.5522-.4478-1-1-1Z" fill="#fff"/><path d="M13,18.5181c-.5522,0-1,.4477-1,1v2.4819c0,.5522.4478,1,1,1s1-.4478,1-1v-2.4819c0-.5523-.4478-1-1-1Z" fill="#fff"/></g></svg>