<?xml version="1.0" encoding="UTF-8"?><svg id="uuid-7b29adbe-43e8-492e-808a-fff9346c1849" xmlns="http://www.w3.org/2000/svg" xmlns:xlink="http://www.w3.org/1999/xlink" viewBox="0 0 60 60"><defs><linearGradient id="uuid-3ad93f23-ffb4-414b-b7e4-dcd7523ea82c" x1="20.8076" y1="39.1924" x2="39.1924" y2="20.8076" gradientUnits="userSpaceOnUse"><stop offset="0" stop-color="#a62b9f"/><stop offset="1" stop-color="#59c8fa"/></linearGradient></defs><g id="uuid-9d92bc26-ee3d-4675-a1fc-125c0c69e4ec"><path d="M31,15.0508c3.3838.2236,6.4551,1.5625,8.8564,3.6611l10.6329-10.6377C45.3535,3.2666,38.5293.2471,31,0v15.0508Z" fill="#203b72"/><path d="M0,29.9873c0,7.9277,3.0781,15.1328,8.0967,20.4981l10.6191-10.6241c-2.3066-2.6377-3.7158-6.081-3.7158-9.8613,0-7.9463,6.1836-14.4326,14-14.9492V0C12.8955.5283,0,13.7471,0,29.9873Z" fill="#203b72"/><path d="M41.2715,20.125c2.3144,2.6396,3.7285,6.0889,3.7285,9.875,0,3.7803-1.4092,7.2236-3.7158,9.8613l10.6191,10.6241c5.0186-5.3653,8.0967-12.5704,8.0967-20.4981s-3.0781-15.1328-8.0967-20.498l-10.6318,10.6357Z" fill="#203b72"/><path d="M30,45c-3.7842,0-7.2305-1.4121-9.8701-3.7236l-10.6192,10.624c5.3633,5.0205,12.5645,8.0996,20.4893,8.0996s15.126-3.0791,20.4893-8.0996l-10.6192-10.624c-2.6387,2.3115-6.0859,3.7236-9.8701,3.7236Z" fill="#203b72"/><circle cx="30" cy="30" r="13" fill="url(#uuid-3ad93f23-ffb4-414b-b7e4-dcd7523ea82c)"/><path d="M32.3994,22.1191h-1.3994v-1.6191c0-.5527-.4473-1-1-1s-1,.4473-1,1v1.6191h-1.3994c-1.6143,0-2.9277,1.3135-2.9277,2.9278v3.0263c0,1.6143,1.3134,2.9268,2.9277,2.9268h4.7988c.5117,0,.9277.416.9277.9268v3.0263c0,.5117-.416.9278-.9277.9278h-4.7988c-.5117,0-.9277-.4161-.9277-.9278,0-.5527-.4473-1-1-1s-1,.4473-1,1v.0518c.0283,1.5908,1.331,2.876,2.9277,2.876h1.3994v1.6191c0,.5527.4473,1,1,1s1-.4473,1-1v-1.6191h1.3994c1.6143,0,2.9277-1.3135,2.9277-2.9278v-3.0263c0-1.6143-1.3134-2.9268-2.9277-2.9268h-4.7988c-.5117,0-.9277-.416-.9277-.9268v-3.0263c0-.5117.416-.9278.9277-.9278h4.7988c.5117,0,.9277.4161.9277.9278v.0019c.001.5508.4483.9981,1,.9981.5528,0,1-.4473,1-1v-.0518c-.0283-1.5908-1.331-2.876-2.9277-2.876Z" fill="#fff"/></g></svg>