<?xml version="1.0" encoding="UTF-8"?><svg id="uuid-8fa6ebb7-d54d-47ee-9a4e-f1de897df708" xmlns="http://www.w3.org/2000/svg" xmlns:xlink="http://www.w3.org/1999/xlink" viewBox="0 0 60 60"><defs><linearGradient id="uuid-38f4c68b-4bd6-41cd-80c3-e737b73cd04b" x1="24.0858" y1="19.9142" x2="35.9142" y2="8.0858" gradientUnits="userSpaceOnUse"><stop offset="0" stop-color="#a62b9f"/><stop offset="1" stop-color="#59c8fa"/></linearGradient></defs><g id="uuid-d22f91b2-0815-4167-b42d-b32f42bec8c9"><path d="M39,16h-18C10.1582,23.1719,0,37.4053,0,60h60c0-22.5947-10.1582-36.8281-21-44Z" fill="#203b72"/><path d="M21,12h18c5.7695-5.04,6-12,6-12H15s.2305,6.96,6,12Z" fill="#203b72"/><path d="M26.6963,30.5508h6.6074c.5752,0,1.043.4682,1.043,1.0434,0,.8287.6719,1.5,1.5,1.5s1.5-.6713,1.5-1.5c0-2.2295-1.8135-4.0434-4.043-4.0434h-6.6074c-2.2295,0-4.043,1.8139-4.043,4.0434v3.8623c0,2.2295,1.8135,4.0435,4.043,4.0435h6.6074c.5752,0,1.043.4683,1.043,1.0435v3.8623c0,.5752-.4678,1.0434-1.043,1.0434h-6.6074c-.5752,0-1.043-.4682-1.043-1.0434,0-.8287-.6719-1.5-1.5-1.5s-1.5.6713-1.5,1.5c0,2.2295,1.8135,4.0434,4.043,4.0434h6.6074c2.2295,0,4.043-1.8139,4.043-4.0434v-3.8623c0-2.2295-1.8135-4.0435-4.043-4.0435h-6.6074c-.5752,0-1.043-.4683-1.043-1.0435v-3.8623c0-.5752.4678-1.0434,1.043-1.0434Z" fill="#fff"/><path d="M30,23.5c-.8281,0-1.5.6714-1.5,1.5v4.0508c0,.8286.6719,1.5,1.5,1.5s1.5-.6714,1.5-1.5v-4.0508c0-.8286-.6719-1.5-1.5-1.5Z" fill="#fff"/><path d="M30,45.4492c-.8281,0-1.5.6714-1.5,1.5v4.0508c0,.8286.6719,1.5,1.5,1.5s1.5-.6714,1.5-1.5v-4.0508c0-.8286-.6719-1.5-1.5-1.5Z" fill="#fff"/><path d="M39,12h-18c-1.1045,0-2,.8955-2,2s.8955,2,2,2h18c1.1045,0,2-.8955,2-2s-.8955-2-2-2Z" fill="url(#uuid-38f4c68b-4bd6-41cd-80c3-e737b73cd04b)"/></g></svg>