<?xml version="1.0" encoding="UTF-8"?><svg id="uuid-0314857a-9a8e-4097-8bc2-3d59dfe927f1" xmlns="http://www.w3.org/2000/svg" xmlns:xlink="http://www.w3.org/1999/xlink" viewBox="0 0 48.5 60"><defs><linearGradient id="uuid-7610882e-4895-4659-bc98-d16a32e28789" x1="22.9765" y1="64.4765" x2="44.0235" y2="43.4295" gradientUnits="userSpaceOnUse"><stop offset="0" stop-color="#a62b9f"/><stop offset="1" stop-color="#59c8fa"/></linearGradient><linearGradient id="uuid-9ad395d2-f1f2-4f58-b916-82d3eb1e42a2" x1="28.9931" y1="36.0207" x2="38.0069" y2="27.0069" xlink:href="#uuid-7610882e-4895-4659-bc98-d16a32e28789"/></defs><g id="uuid-61772ea6-46f5-46d2-900a-0270e339077d"><path d="M11,0c-2.209,0-4,1.791-4,4v2c0,2.209,1.791,4,4,4s4-1.791,4-4v-2c0-2.209-1.791-4-4-4Z" fill="#203b72"/><path d="M16,11H6c-3.3135,0-6,2.6865-6,6v16.1563c0,.8715.5957,1.6796,1.4561,1.8198,1.0966.1782,2.0439-.6631,2.0439-1.7261v-15.5c0-.4141.3359-.75.75-.75s.75.3359.75.75v39.6074c0,1.3076.9404,2.499,2.2422,2.6294,1.4961.1499,2.7578-1.021,2.7578-2.4868v-22.5c0-.5522.4473-1,1-1s1,.4478,1,1v22.3574c0,1.3076.9414,2.4995,2.2422,2.6294,1.4961.1499,2.7578-1.021,2.7578-2.4868V17.75c0-.4141.3359-.75.75-.75s.75.3359.75.75v15.4063c0,.872.5957,1.6796,1.4561,1.8198,1.0966.1782,2.0439-.6631,2.0439-1.7261v-16.25c0-3.3135-2.6865-6-6-6Z" fill="#203b72"/><path d="M38,38h-9c-5.4209,3.5859-10.5,10.7026-10.5,22h30c0-11.2974-5.0791-18.4141-10.5-22Z" fill="url(#uuid-7610882e-4895-4659-bc98-d16a32e28789)"/><path d="M29,36h9c2.8848-2.52,3-6,3-6h-15s.1152,3.48,3,6Z" fill="url(#uuid-9ad395d2-f1f2-4f58-b916-82d3eb1e42a2)"/><path d="M38,36h-9c-.5527,0-1,.4478-1,1s.4473,1,1,1h9c.5527,0,1-.4478,1-1s-.4473-1-1-1Z" fill="#203b72"/><path d="M36.6875,50.75c-1.4814,0-2.6875,1.2056-2.6875,2.6875s1.2061,2.6875,2.6875,2.6875,2.6875-1.2056,2.6875-2.6875-1.2061-2.6875-2.6875-2.6875ZM36.6875,54.875c-.793,0-1.4375-.645-1.4375-1.4375s.6445-1.4375,1.4375-1.4375,1.4375.645,1.4375,1.4375-.6445,1.4375-1.4375,1.4375Z" fill="#fff"/><path d="M29.8125,43.875c-1.4814,0-2.6875,1.2056-2.6875,2.6875s1.2061,2.6875,2.6875,2.6875,2.6875-1.2056,2.6875-2.6875-1.2061-2.6875-2.6875-2.6875ZM29.8125,48c-.793,0-1.4375-.645-1.4375-1.4375s.6445-1.4375,1.4375-1.4375,1.4375.645,1.4375,1.4375-.6445,1.4375-1.4375,1.4375Z" fill="#fff"/><path d="M37.9639,44.4019l-10.3125,10.3125c-.2432.2441-.2432.6396,0,.8837.122.1221.2822.1832.4424.1832.1601,0,.3203-.0611.4423-.1832l10.3125-10.3125c.2432-.2441.2432-.6396,0-.8837-.2441-.2442-.6406-.2442-.8847,0Z" fill="#fff"/></g></svg>