<?xml version="1.0" encoding="UTF-8"?><svg id="uuid-f0d27a20-dc86-488e-9e73-f324a2765c0c" xmlns="http://www.w3.org/2000/svg" xmlns:xlink="http://www.w3.org/1999/xlink" viewBox="0 0 60.0001 50.0001"><defs><linearGradient id="uuid-30e13259-29fc-4f11-a7be-6c367219a3f6" x1="22.565" y1="32.4349" x2="49.4349" y2="5.5651" gradientUnits="userSpaceOnUse"><stop offset="0" stop-color="#a62b9f"/><stop offset="1" stop-color="#59c8fa"/></linearGradient><linearGradient id="uuid-5b920da5-d2a2-4304-a505-922a8cc790e2" x1="-1.2152" y1="44.7152" x2="12.2152" y2="31.2848" xlink:href="#uuid-30e13259-29fc-4f11-a7be-6c367219a3f6"/></defs><g id="uuid-43b1729c-38d5-47e4-a306-fd83d9deed3d"><circle cx="36" cy="19" r="19" fill="url(#uuid-30e13259-29fc-4f11-a7be-6c367219a3f6)"/><path d="M38.9053,9.4209h-1.6553v-1.9209c0-.6904-.5596-1.25-1.25-1.25s-1.25.5596-1.25,1.25v1.9209h-1.6553c-1.9756,0-3.582,1.6074-3.582,3.583v3.6631c0,1.9756,1.6064,3.583,3.582,3.583h5.8106c.5967,0,1.082.4863,1.082,1.083v3.6631c0,.5977-.4853,1.083-1.082,1.083h-5.8106c-.5967,0-1.082-.4853-1.082-1.083,0-.6904-.5596-1.25-1.25-1.25s-1.25.5596-1.25,1.25v.0254c0,.0127,0,.0244.001.0371.0332,1.9473,1.6269,3.5205,3.581,3.5205h1.6553v1.9209c0,.6904.5596,1.25,1.25,1.25s1.25-.5596,1.25-1.25v-1.9209h1.6553c1.9756,0,3.582-1.6074,3.582-3.583v-3.6631c0-1.9756-1.6064-3.583-3.582-3.583h-5.8106c-.5967,0-1.082-.4863-1.082-1.083v-3.6631c0-.5976.4853-1.083,1.082-1.083h5.8106c.5967,0,1.082.4854,1.082,1.083,0,.6904.5596,1.25,1.25,1.25s1.25-.5596,1.25-1.25v-.0254c0-.0127,0-.0244-.001-.0371-.0332-1.9473-1.6269-3.5205-3.581-3.5205Z" fill="#fff"/><path d="M56.0986,34.6426l-16.3593,5.6553c-.7696,1.8212-2.5245,2.996-4.5098,2.996-.6172,0-1.2256-.1152-1.8037-.3447l-11.8242-4.6846c-.503-.2001-.7491-.7695-.5498-1.2714.2002-.5039.7705-.7471,1.2734-.5498l7.0215,2.7832,4.8008,1.9013c.1757.0703.3554.1221.5361.1563.1797.0342.3623.0517.5459.0517.1475,0,.293-.0117.4355-.0332.7139-.1074,1.3741-.4756,1.8389-1.0429.002-.001.0029-.002.0039-.0039.0762-.0928.1426-.1934.207-.2959.0157-.0254.0352-.0469.0498-.0723.0752-.1289.1426-.2647.1993-.4082.4863-1.2256.0761-2.5772-.9034-3.3633-.2226-.1797-.4667-.3389-.747-.4502l-12.5186-4.9599c-.1377-.0547-.2812-.0899-.4258-.1231-.2158-.0498-.4345-.083-.6572-.083h-11.7119v15l21.0898,4.2656c2.3028.4844,4.7002.2139,6.8379-.7695l19.334-8.8965c1.4356-.6435,2.1104-2.3017,1.5313-3.7627-.5801-1.4629-2.21-2.207-3.6944-1.6943Z" fill="#203b72"/><rect y="29.5" width="11" height="17" rx=".9717" ry=".9717" fill="url(#uuid-5b920da5-d2a2-4304-a505-922a8cc790e2)"/><circle cx="5.5" cy="35" r="1.5" fill="#fff"/></g></svg>