<?xml version="1.0" encoding="UTF-8"?><svg id="uuid-d6a4996d-0fde-45e4-8c42-2aa1cc37c5f1" xmlns="http://www.w3.org/2000/svg" xmlns:xlink="http://www.w3.org/1999/xlink" viewBox="0 0 60 60"><defs><linearGradient id="uuid-70d41cb7-7f39-485e-a5f9-0ed1dc2fbea0" x1="39.5148" y1="56.4852" x2="56.4852" y2="39.5148" gradientUnits="userSpaceOnUse"><stop offset="0" stop-color="#a62b9f"/><stop offset="1" stop-color="#59c8fa"/></linearGradient></defs><g id="uuid-4e0d0843-7ecb-4466-ad6a-f9f96ef2790f"><path d="M26.7793,55.7051v-12.2334h-9.9434c2.3106,6.9775,6.0122,11.5293,9.9434,12.2334Z" fill="#203b72"/><path d="M14.4814,26.7588h12.2979v-12.3389h-10.5977c-1.0293,3.8008-1.6167,8.0615-1.7002,12.3389Z" fill="#203b72"/><path d="M41.8784,14.4199c.9614,3.8272,1.4878,7.9766,1.565,12.3389h12.2978c-.1684-4.3711-1.3159-8.5215-3.4121-12.3389h-10.4507Z" fill="#203b72"/><path d="M16.8359,12.2334h9.9434V0c-3.9312.7041-7.6328,5.2559-9.9434,12.2334Z" fill="#203b72"/><path d="M0,26.7588h12.2979c.0771-4.3623.6035-8.5117,1.5649-12.3389H3.4121C1.3159,18.2373.1685,22.3877,0,26.7588Z" fill="#203b72"/><path d="M4.7471,43.4717c3.8408,5.6943,9.5527,9.7412,16.1494,11.4463-2.6846-2.5332-4.8999-6.4756-6.4263-11.4463H4.7471Z" fill="#203b72"/><path d="M4.7471,12.2334h9.7231c1.5264-4.9707,3.7417-8.9131,6.4263-11.4463-6.5967,1.7051-12.3086,5.752-16.1494,11.4463Z" fill="#203b72"/><path d="M0,28.9463c.1685,4.3711,1.3159,8.5215,3.4121,12.3389h10.4507c-.9614-3.8272-1.4878-7.9766-1.5649-12.3389H0Z" fill="#203b72"/><path d="M16.1816,41.2852h10.5977v-12.3389h-12.2979c.0835,4.2773.6709,8.5381,1.7002,12.3389Z" fill="#203b72"/><path d="M34.8447.7871c2.6846,2.5332,4.8999,6.4756,6.4263,11.4463h9.7231c-3.8408-5.6943-9.5527-9.7412-16.1494-11.4463Z" fill="#203b72"/><path d="M28.9619,43.4717v12.2334c1.9478-.3487,3.8389-1.6446,5.5327-3.71-.4048-1.3096-.624-2.7002-.624-4.1426,0-1.5312.2544-3.0019.709-4.3808h-5.6177Z" fill="#203b72"/><path d="M43.0508,34.7227c1.5049-.5528,3.1235-.8702,4.8198-.8702,2.4678,0,4.7832.6436,6.7969,1.7647.6216-2.1533.9853-4.3809,1.0737-6.6709h-12.2978c-.0352,1.9746-.1748,3.8984-.3926,5.7764Z" fill="#203b72"/><path d="M28.9619,0v12.2334h9.9434c-2.3106-6.9775-6.0122-11.5293-9.9434-12.2334Z" fill="#203b72"/><path d="M28.9619,14.4199v12.3389h12.2979c-.0835-4.2774-.6709-8.5381-1.7002-12.3389h-10.5977Z" fill="#203b72"/><path d="M28.9619,41.2852h6.5474c1.1948-2.2442,2.9873-4.1143,5.1592-5.4219.3364-2.2549.5454-4.5791.5913-6.917h-12.2979v12.3389Z" fill="#203b72"/><circle cx="48" cy="48" r="12" fill="url(#uuid-70d41cb7-7f39-485e-a5f9-0ed1dc2fbea0)"/><path d="M50.021,41.2061h-1.021v-1.2061c0-.5527-.4478-1-1-1s-1,.4473-1,1v1.2061h-1.021c-1.4463,0-2.6226,1.1767-2.6226,2.623v2.5479c0,1.4462,1.1763,2.623,2.6226,2.623h4.042c.3433,0,.6226.2793.6226.623v2.5479c0,.3437-.2793.623-.6226.623h-4.042c-.3433,0-.6226-.2793-.6226-.623,0-.5527-.4477-1-1-1s-1,.4473-1,1v.0176c0,.0097,0,.0185.0005.0283.0244,1.4258,1.1914,2.5771,2.6221,2.5771h1.021v1.2061c0,.5527.4478,1,1,1s1-.4473,1-1v-1.2061h1.021c1.4463,0,2.6226-1.1767,2.6226-2.623v-2.5479c0-1.4462-1.1763-2.623-2.6226-2.623h-4.042c-.3433,0-.6226-.2793-.6226-.623v-2.5479c0-.3437.2793-.623.6226-.623h4.042c.3433,0,.6226.2793.6226.623,0,.5527.4477,1,1,1s1-.4473,1-1v-.0176c0-.0097,0-.0185-.0005-.0283-.0244-1.4258-1.1914-2.5771-2.6221-2.5771Z" fill="#fff"/></g></svg>