<?xml version="1.0" encoding="UTF-8"?><svg id="uuid-3f74702d-b268-4dd6-9b9d-73f53b49de6f" xmlns="http://www.w3.org/2000/svg" xmlns:xlink="http://www.w3.org/1999/xlink" viewBox="0 0 60 60"><defs><linearGradient id="uuid-15c46c3f-10b3-4a61-ba4a-7125c8471c3c" x1="24.0924" y1="24.9669" x2="35.9076" y2="13.1517" gradientUnits="userSpaceOnUse"><stop offset="0" stop-color="#a62b9f"/><stop offset="1" stop-color="#59c8fa"/></linearGradient><linearGradient id="uuid-7040c0a2-6a2f-4385-9efb-6791ea499f30" x1="21.4707" y1="22.5293" x2="38.5293" y2="5.4707" xlink:href="#uuid-15c46c3f-10b3-4a61-ba4a-7125c8471c3c"/><linearGradient id="uuid-d189d7af-fcbe-41d0-9dfd-0d1dbbda418e" x1="14.75" y1="21.75" x2="20.25" y2="16.25" xlink:href="#uuid-15c46c3f-10b3-4a61-ba4a-7125c8471c3c"/></defs><g id="uuid-c082ce9d-18d4-4c1d-88f7-63cc1fd8537d"><circle cx="30" cy="30" r="30" fill="#002b49"/><path d="M30,36h0c-4.418,0-8-3.5815-8-8v-2c0-4.4185,3.582-8,8-8h0c4.418,0,8,3.5815,8,8v2c0,4.4185-3.582,8-8,8Z" fill="#fff"/><path d="M37.3359,39h-14.6728c-5.6367,0-10.207,4.5698-10.207,10.2075v3.7925l17.5439,4,17.5439-4v-3.7925c0-5.6377-4.5703-10.2075-10.208-10.2075Z" fill="#fff"/><path d="M30,0C13.4316,0,0,13.4316,0,30s13.4316,30,30,30,30-13.4316,30-30S46.5684,0,30,0ZM30,56c-14.3359,0-26-11.6636-26-26S15.6641,4,30,4s26,11.6636,26,26-11.6641,26-26,26Z" fill="#002b49"/><polygon points="22 15.2441 22 22.8745 30 26.0049 38 22.8745 38 15.2441 22 15.2441" fill="url(#uuid-15c46c3f-10b3-4a61-ba4a-7125c8471c3c)"/><polygon points="12.9414 14 30 7.3252 47.0586 14 30 20.6748 12.9414 14" fill="url(#uuid-7040c0a2-6a2f-4385-9efb-6791ea499f30)"/><path d="M45.5469,12.603l-15-5.8696-.5469-.2139-.5469.2139-15,5.8696-3.5693,1.397,3.5693,1.397,15,5.8696.5469.2139.5469-.2139,15-5.8696,3.5693-1.397-3.5693-1.397ZM30,19.8696l-15-5.8696,15-5.8696,15,5.8696-15,5.8696Z" fill="#002b49"/><rect x="17" y="14" width="1" height="10" fill="url(#uuid-d189d7af-fcbe-41d0-9dfd-0d1dbbda418e)"/></g></svg>