<?xml version="1.0" encoding="UTF-8"?><svg id="uuid-ce0d1583-2f96-4847-ba11-f2deec964494" xmlns="http://www.w3.org/2000/svg" xmlns:xlink="http://www.w3.org/1999/xlink" viewBox="0 0 60 60"><defs><linearGradient id="uuid-51503d38-7303-4354-89dc-ac76db51d52c" x1=".6464" y1="60.0608" x2="7.3536" y2="53.3536" gradientUnits="userSpaceOnUse"><stop offset="0" stop-color="#a62b9f"/><stop offset="1" stop-color="#59c8fa"/></linearGradient><linearGradient id="uuid-1b703b6d-c306-4839-a207-436405342af0" x1="10.6464" y1="58.0608" x2="21.3536" y2="47.3536" xlink:href="#uuid-51503d38-7303-4354-89dc-ac76db51d52c"/><linearGradient id="uuid-e4392551-63ad-439c-8810-98a0e8cef9f5" x1="20.6464" y1="56.0608" x2="35.3536" y2="41.3536" xlink:href="#uuid-51503d38-7303-4354-89dc-ac76db51d52c"/><linearGradient id="uuid-91b617d9-106b-425b-adae-9b9a56fea1d4" x1="30.6464" y1="54.0608" x2="49.3536" y2="35.3536" xlink:href="#uuid-51503d38-7303-4354-89dc-ac76db51d52c"/><linearGradient id="uuid-2da44c23-5328-4321-a8a6-4876dec37437" x1="41.6464" y1="53.0608" x2="62.3536" y2="32.3536" xlink:href="#uuid-51503d38-7303-4354-89dc-ac76db51d52c"/></defs><g id="uuid-2b6d565a-8f53-4e97-a1dc-920c54fe0467"><path d="M7,48H1c-.5527,0-1,.4478-1,1v5h8v-5c0-.5522-.4473-1-1-1Z" fill="#203b72"/><path d="M19,38h-6c-.5527,0-1,.4478-1,1v7h8v-7c0-.5522-.4473-1-1-1Z" fill="#203b72"/><path d="M31,28h-6c-.5527,0-1,.4478-1,1v9h8v-9c0-.5522-.4473-1-1-1Z" fill="#203b72"/><path d="M43,18h-6c-.5527,0-1,.4478-1,1v11h8v-11c0-.5522-.4473-1-1-1Z" fill="#203b72"/><rect x="48" y="12" width="8" height="14" fill="#203b72"/><path d="M0,59c0,.5522.4473,1,1,1h6c.5527,0,1-.4478,1-1v-5H0v5Z" fill="url(#uuid-51503d38-7303-4354-89dc-ac76db51d52c)"/><path d="M12,59c0,.5522.4473,1,1,1h6c.5527,0,1-.4478,1-1v-13h-8v13Z" fill="url(#uuid-1b703b6d-c306-4839-a207-436405342af0)"/><path d="M24,59c0,.5522.4473,1,1,1h6c.5527,0,1-.4478,1-1v-21h-8v21Z" fill="url(#uuid-e4392551-63ad-439c-8810-98a0e8cef9f5)"/><path d="M36,59c0,.5522.4473,1,1,1h6c.5527,0,1-.4478,1-1v-29h-8v29Z" fill="url(#uuid-91b617d9-106b-425b-adae-9b9a56fea1d4)"/><path d="M48,59c0,.5522.4473,1,1,1h6c.5527,0,1-.4478,1-1V26h-8v33Z" fill="url(#uuid-2da44c23-5328-4321-a8a6-4876dec37437)"/><polygon points="44 12 60 12 52 0 44 12" fill="#203b72"/></g></svg>