<svg xmlns="http://www.w3.org/2000/svg" viewBox="0 0 60 60"><defs><style>.cls-1{fill:#203b72;}.cls-2{fill:#1ea7d3;}.cls-3{fill:#fff;}</style></defs><g id="Слой_2" data-name="Слой 2"><g id="Layer_1" data-name="Layer 1"><path class="cls-1" d="M2,13a2,2,0,0,1-2-2V2A2,2,0,0,1,2,0h9a2,2,0,0,1,0,4H4v7A2,2,0,0,1,2,13Z"/><path class="cls-1" d="M58,13a2,2,0,0,1-2-2V4H49a2,2,0,0,1,0-4h9a2,2,0,0,1,2,2v9A2,2,0,0,1,58,13Z"/><path class="cls-1" d="M58,60H49a2,2,0,0,1,0-4h7V49a2,2,0,0,1,4,0v9A2,2,0,0,1,58,60Z"/><path class="cls-1" d="M11,60H2a2,2,0,0,1-2-2V49a2,2,0,0,1,4,0v7h7a2,2,0,0,1,0,4Z"/><rect class="cls-2" x="10" y="10" width="40" height="40" rx="2"/><path class="cls-1" d="M10,46.34V48a2,2,0,0,0,2,2H30L23.47,39.1H14.35Z"/><path class="cls-1" d="M50,38.73l-4.34-7.22H32.58l-5.47,9.11L32.75,50H48a2,2,0,0,0,2-2Z"/><path class="cls-3" d="M40.83,23.49l4.83,8H32.58l4.83-8A2,2,0,0,1,40.83,23.49Z"/><path class="cls-3" d="M32.51,16.11a2.72,2.72,0,0,0-1,.19,3.52,3.52,0,0,0-6.4.75,2,2,0,0,0-.66-.12,2,2,0,0,0-2,2H35.32A2.81,2.81,0,0,0,32.51,16.11Z"/><path class="cls-3" d="M23.65,25.87a2.31,2.31,0,0,0-.79.15,2.84,2.84,0,0,0-5.16.61,1.59,1.59,0,0,0-2.15,1.51H25.92A2.27,2.27,0,0,0,23.65,25.87Z"/><path class="cls-3" d="M20.62,34.36l2.85,4.74H14.34l2.85-4.74A2,2,0,0,1,20.62,34.36Z"/></g></g></svg>