<?xml version="1.0" encoding="UTF-8"?><svg id="uuid-d85c116b-d1c2-441d-813c-bae50c106800" xmlns="http://www.w3.org/2000/svg" xmlns:xlink="http://www.w3.org/1999/xlink" viewBox="0 0 60 60"><defs><linearGradient id="uuid-347bb485-490e-414d-89c7-7113513e2670" x1="10.5858" y1="49.4142" x2="49.4142" y2="10.5858" gradientUnits="userSpaceOnUse"><stop offset="0" stop-color="#a62b9f"/><stop offset="1" stop-color="#59c8fa"/></linearGradient></defs><g id="uuid-2c037dbf-9a02-4f6e-afd1-20b6be060171"><path d="M2,13c-1.1045,0-2-.8955-2-2V2C0,.8955.8955,0,2,0h9c1.1045,0,2,.8955,2,2s-.8955,2-2,2h-7v7c0,1.1045-.8955,2-2,2Z" fill="#092b49"/><path d="M58,13c-1.1045,0-2-.8955-2-2v-7h-7c-1.1045,0-2-.8955-2-2s.8955-2,2-2h9c1.1045,0,2,.8955,2,2v9c0,1.1045-.8955,2-2,2Z" fill="#092b49"/><path d="M58,60h-9c-1.1045,0-2-.8955-2-2s.8955-2,2-2h7v-7c0-1.1045.8955-2,2-2s2,.8955,2,2v9c0,1.1045-.8955,2-2,2Z" fill="#092b49"/><path d="M11,60H2c-1.1045,0-2-.8955-2-2v-9c0-1.1045.8955-2,2-2s2,.8955,2,2v7h7c1.1045,0,2,.8955,2,2s-.8955,2-2,2Z" fill="#092b49"/><rect x="10" y="10" width="40" height="40" rx="2" ry="2" fill="url(#uuid-347bb485-490e-414d-89c7-7113513e2670)"/><path d="M10,46.3359v1.6641c0,1.1045.8955,2,2,2h18.0244l-6.5576-10.9033-9.1191.0019-4.3477,7.2373Z" fill="#092b49"/><path d="M50,38.7344l-4.3428-7.2207h-13.0752l-5.4756,9.1035,5.6446,9.3828h15.249c1.1045,0,2-.8955,2-2v-9.2656Z" fill="#092b49"/><path d="M40.833,23.4941l4.8242,8.0196h-13.0752l4.8233-8.0196c.7773-1.292,2.6504-1.292,3.4277,0Z" fill="#fff"/><path d="M32.5088,16.1113c-.3486,0-.6777.0713-.9854.1875-.6181-1.0371-1.7392-1.7383-3.0332-1.7383-1.5879,0-2.915,1.0508-3.3662,2.4893-.209-.0742-.4297-.1221-.664-.1221-1.1006,0-1.9922.8916-1.9922,1.9922h12.8486c0-1.5517-1.2568-2.8086-2.8076-2.8086Z" fill="#fff"/><path d="M23.6533,25.8711c-.2812,0-.5469.0586-.7949.1514-.499-.836-1.4033-1.4024-2.4473-1.4024-1.2812,0-2.3525.8477-2.7158,2.0088-.1689-.0605-.3476-.0986-.5371-.0986-.8877,0-1.6074.7197-1.6074,1.6074h10.3681c0-1.252-1.0146-2.2666-2.2656-2.2666Z" fill="#fff"/><path d="M20.6191,34.3633l2.8477,4.7334h-9.123l2.8476-4.7334c.7774-1.293,2.6504-1.293,3.4277,0Z" fill="#fff"/></g></svg>