<svg xmlns="http://www.w3.org/2000/svg" viewBox="0 0 60 46"><defs><style>.cls-1{fill:#203b72;}.cls-2{fill:#1ea7d3;}.cls-3{fill:#fff;}</style></defs><g id="Слой_2" data-name="Слой 2"><g id="Layer_1" data-name="Layer 1"><path class="cls-1" d="M2,38H58a2,2,0,0,1,2,2v2a4,4,0,0,1-4,4H4a4,4,0,0,1-4-4V40A2,2,0,0,1,2,38Z"/><path class="cls-2" d="M38,38H22a3,3,0,0,0,3,3H35a3,3,0,0,0,3-3Z"/><path class="cls-1" d="M7,0H53a4,4,0,0,1,4,4V36a0,0,0,0,1,0,0H3a0,0,0,0,1,0,0V4A4,4,0,0,1,7,0Z"/><rect class="cls-3" x="7" y="4" width="46" height="28" rx="1"/><path class="cls-2" d="M30,1a1,1,0,1,0,1,1,1,1,0,0,0-1-1Z"/><path class="cls-2" d="M15,28a1,1,0,0,1-.71-.29,1,1,0,0,1,0-1.42l18-18a1,1,0,0,1,1.42,1.42l-18,18A1,1,0,0,1,15,28Z"/><path class="cls-2" d="M17,18a1,1,0,0,1-.71-.29,1,1,0,0,1,0-1.42l8-8a1,1,0,0,1,1.42,1.42l-8,8A1,1,0,0,1,17,18Z"/><path class="cls-2" d="M32,28a1,1,0,0,1-.71-.29,1,1,0,0,1,0-1.42l12-12a1,1,0,0,1,1.42,1.42l-12,12A1,1,0,0,1,32,28Z"/></g></g></svg>