<?xml version="1.0" encoding="UTF-8"?><svg id="uuid-1e1a95b9-34c5-41ae-aa8a-0e1e1b740acd" xmlns="http://www.w3.org/2000/svg" xmlns:xlink="http://www.w3.org/1999/xlink" viewBox="0 0 60 46"><defs><linearGradient id="uuid-969727b5-38fa-488c-a831-1f012873b55c" x1="25.6893" y1="42.9322" x2="34.3107" y2="34.3107" gradientUnits="userSpaceOnUse"><stop offset="0" stop-color="#a62b9f"/><stop offset="1" stop-color="#59c8fa"/></linearGradient><linearGradient id="uuid-ebb63cc3-da5e-46e0-b148-4ccc38eb2777" x1="29.2927" y1="2.7073" x2="30.7073" y2="1.2927" xlink:href="#uuid-969727b5-38fa-488c-a831-1f012873b55c"/><linearGradient id="uuid-cf65df55-8e76-4679-a8c8-c196af47e0da" x1="14.293" y1="27.707" x2="33.707" y2="8.293" xlink:href="#uuid-969727b5-38fa-488c-a831-1f012873b55c"/><linearGradient id="uuid-b667e78c-94dc-4e91-89c2-a6b02ca60428" x1="16.293" y1="17.707" x2="25.707" y2="8.293" xlink:href="#uuid-969727b5-38fa-488c-a831-1f012873b55c"/><linearGradient id="uuid-a7efaffc-4cb2-4e08-a613-94b267196294" x1="31.293" y1="27.707" x2="44.707" y2="14.293" xlink:href="#uuid-969727b5-38fa-488c-a831-1f012873b55c"/></defs><g id="uuid-cd5dcc12-6c60-4683-b1ab-f178091dd8b2"><path d="M2,38h56c1.1038,0,2,.8962,2,2v2c0,2.2077-1.7923,4-4,4H4c-2.2077,0-4-1.7923-4-4v-2c0-1.1038.8962-2,2-2Z" fill="#092b49"/><path d="M38,38h-16c0,1.6572,1.3428,3,3,3h10c1.6572,0,3-1.3428,3-3h0Z" fill="url(#uuid-969727b5-38fa-488c-a831-1f012873b55c)"/><path d="M7,0h46c2.2077,0,4,1.7923,4,4v32H3V4C3,1.7923,4.7923,0,7,0Z" fill="#092b49"/><rect x="7" y="4" width="46" height="28" rx="1" ry="1" fill="#fff"/><path d="M30,1c-.5527,0-1,.4473-1,1s.4473,1,1,1,1-.4473,1-1-.4473-1-1-1h0Z" fill="url(#uuid-ebb63cc3-da5e-46e0-b148-4ccc38eb2777)"/><path d="M15,28c-.2559,0-.5117-.0977-.707-.293-.3907-.3906-.3907-1.0234,0-1.414l18-18c.3906-.3907,1.0234-.3907,1.414,0,.3907.3906.3907,1.0234,0,1.414L15.707,27.707c-.1953.1953-.4511.293-.707.293Z" fill="url(#uuid-cf65df55-8e76-4679-a8c8-c196af47e0da)"/><path d="M17,18c-.2559,0-.5117-.0977-.707-.293-.3907-.3906-.3907-1.0234,0-1.414l8-8c.3906-.3907,1.0234-.3907,1.414,0,.3907.3906.3907,1.0234,0,1.414l-8,8c-.1953.1953-.4511.293-.707.293Z" fill="url(#uuid-b667e78c-94dc-4e91-89c2-a6b02ca60428)"/><path d="M32,28c-.2559,0-.5117-.0977-.707-.293-.3907-.3906-.3907-1.0234,0-1.414l12-12c.3906-.3907,1.0234-.3907,1.414,0,.3907.3906.3907,1.0234,0,1.414l-12,12c-.1953.1953-.4511.293-.707.293Z" fill="url(#uuid-a7efaffc-4cb2-4e08-a613-94b267196294)"/></g></svg>