<?xml version="1.0" encoding="UTF-8"?>
<svg id="Layer_1" xmlns="http://www.w3.org/2000/svg" version="1.1" viewBox="0 0 1104 219.17">
  <!-- Generator: Adobe Illustrator 29.5.0, SVG Export Plug-In . SVG Version: 2.1.0 Build 137)  -->
  <defs>
    <style>
      .st0 {
        fill: none;
      }

      .st1 {
        fill: #cdde00;
      }

      .st2 {
        fill: #002b49;
      }
    </style>
  </defs>
  <g>
    <path class="st2" d="M325.39,172.67h-21.86v-13.8h-.38c-3.2,5.37-7.64,9.46-13.32,12.27-5.69,2.81-11.79,4.22-18.31,4.22-7.03,0-13.33-1.31-18.89-3.93-5.56-2.62-10.29-6.14-14.19-10.55-3.9-4.41-6.9-9.59-9.01-15.53s-3.16-12.3-3.16-19.08,1.08-13.1,3.26-18.98c2.17-5.88,5.24-10.99,9.2-15.34,3.96-4.34,8.69-7.77,14.19-10.26,5.49-2.49,11.51-3.74,18.02-3.74,4.22,0,7.99.48,11.31,1.44s6.23,2.14,8.73,3.55c2.49,1.41,4.63,2.94,6.42,4.6,1.79,1.66,3.26,3.26,4.41,4.79h.58V27.72h23.01v144.95h-.01ZM249.66,126.27c0,3.58.54,7.16,1.63,10.74,1.08,3.58,2.72,6.78,4.89,9.59s4.92,5.11,8.25,6.9c3.32,1.79,7.22,2.68,11.7,2.68,4.22,0,7.99-.86,11.31-2.59,3.32-1.72,6.17-3.99,8.53-6.81,2.36-2.81,4.15-5.97,5.37-9.49,1.21-3.52,1.82-7.06,1.82-10.64s-.61-7.16-1.82-10.74c-1.22-3.58-3-6.77-5.37-9.59-2.37-2.81-5.21-5.11-8.53-6.9-3.33-1.79-7.09-2.68-11.31-2.68-4.48,0-8.37.86-11.7,2.59-3.33,1.73-6.07,4-8.25,6.81-2.17,2.81-3.8,5.98-4.89,9.49-1.09,3.52-1.63,7.06-1.63,10.64Z"/>
    <path class="st2" d="M353.77,80.64h23.01v92.03h-23.01v-92.03Z"/>
    <path class="st2" d="M404.77,80.64h22.05v15.34h.38c2.56-5.37,6.13-9.71,10.74-13.04,4.6-3.32,9.97-4.98,16.11-4.98.89,0,1.85.03,2.88.1,1.02.07,1.92.22,2.68.48v21.09c-1.53-.38-2.85-.64-3.93-.77-1.09-.13-2.14-.19-3.16-.19-5.24,0-9.46.96-12.65,2.88-3.2,1.92-5.69,4.22-7.48,6.9s-3,5.43-3.64,8.24-.96,5.05-.96,6.71v49.28h-23.01v-92.04h0Z"/>
    <path class="st2" d="M558.92,127.8v3.07c0,1.02-.07,2.05-.19,3.07h-69.98c.26,3.32,1.12,6.36,2.59,9.11s3.42,5.11,5.85,7.09,5.18,3.55,8.25,4.7,6.26,1.73,9.59,1.73c5.75,0,10.61-1.05,14.57-3.16s7.22-5.02,9.78-8.72l15.34,12.27c-9.08,12.27-22.24,18.41-39.5,18.41-7.16,0-13.74-1.12-19.75-3.36s-11.22-5.4-15.63-9.49c-4.41-4.09-7.86-9.11-10.35-15.05-2.49-5.94-3.74-12.68-3.74-20.23s1.25-14.16,3.74-20.23c2.49-6.07,5.91-11.25,10.26-15.53,4.34-4.28,9.49-7.6,15.43-9.97,5.94-2.36,12.37-3.55,19.27-3.55,6.39,0,12.3,1.05,17.74,3.16,5.43,2.11,10.13,5.24,14.09,9.4,3.96,4.16,7.06,9.33,9.3,15.53,2.22,6.19,3.34,13.45,3.34,21.75ZM535.92,117.45c0-2.94-.42-5.75-1.25-8.44-.83-2.68-2.14-5.05-3.93-7.09-1.79-2.04-4.06-3.67-6.81-4.89-2.75-1.21-5.98-1.82-9.68-1.82-6.9,0-12.75,2.08-17.54,6.23-4.79,4.16-7.45,9.49-7.96,16.01,0,0,47.17,0,47.17,0Z"/>
    <path class="st2" d="M644.05,106.14c-1.79-2.56-4.48-4.7-8.05-6.42-3.58-1.72-7.22-2.59-10.93-2.59-4.22,0-7.93.86-11.12,2.59-3.2,1.73-5.85,4-7.96,6.81-2.11,2.81-3.68,5.98-4.7,9.49-1.02,3.52-1.53,7.06-1.53,10.64s.54,7.13,1.63,10.64c1.08,3.52,2.71,6.68,4.89,9.49,2.17,2.81,4.89,5.08,8.15,6.81s7.06,2.59,11.41,2.59c3.58,0,7.16-.7,10.74-2.11s6.45-3.45,8.63-6.14l14.38,14.57c-3.84,4.09-8.72,7.26-14.67,9.49-5.94,2.24-12.37,3.36-19.27,3.36s-13.2-1.09-19.27-3.26-11.38-5.37-15.91-9.59c-4.54-4.22-8.12-9.33-10.74-15.34s-3.93-12.85-3.93-20.52,1.31-14.12,3.93-20.13c2.62-6.01,6.17-11.12,10.64-15.34,4.47-4.22,9.68-7.48,15.63-9.78,5.94-2.3,12.3-3.45,19.08-3.45s13.32,1.28,19.65,3.84,11.34,6.07,15.05,10.55l-15.73,13.8Z"/>
    <path class="st2" d="M671.09,99.04v-18.4h16.11v-26.65h22.62v26.65h23.01v18.41h-23.01v42.76c0,4.09.73,7.48,2.21,10.16,1.47,2.68,4.76,4.03,9.87,4.03,1.53,0,3.19-.16,4.98-.48,1.79-.32,3.39-.8,4.79-1.44l.77,18.02c-2.05.77-4.48,1.37-7.29,1.82-2.81.45-5.5.67-8.05.67-6.14,0-11.12-.86-14.96-2.59s-6.87-4.09-9.11-7.09-3.77-6.45-4.6-10.35c-.83-3.9-1.25-8.08-1.25-12.56v-42.96h-16.09Z"/>
    <path class="st1" d="M759.48,27.72h23.01v144.95h-23.01V27.72Z"/>
    <path class="st1" d="M810.86,80.64h23.01v92.03h-23.01v-92.03Z"/>
    <path class="st1" d="M861.86,80.64h21.86v14.76h.38c2.04-4.6,5.59-8.66,10.64-12.18,5.05-3.51,11.02-5.27,17.93-5.27,6.01,0,11.15,1.05,15.44,3.16,4.28,2.11,7.79,4.89,10.54,8.34,2.75,3.45,4.77,7.41,6.04,11.89,1.28,4.48,1.92,9.08,1.92,13.8v57.52h-23.01v-51c0-2.68-.19-5.49-.58-8.44-.38-2.94-1.21-5.59-2.49-7.96-1.28-2.36-3.04-4.31-5.27-5.85-2.24-1.54-5.21-2.3-8.92-2.3s-6.9.74-9.58,2.2c-2.69,1.47-4.89,3.36-6.62,5.66-1.72,2.3-3.04,4.96-3.93,7.96-.9,3-1.34,6.04-1.34,9.11v50.62h-23.01v-92.02h0Z"/>
    <path class="st1" d="M973.84,27.72h23.01v91.65h.58l34.9-38.73h29.53l-39.88,41.61,42.37,50.43h-30.49l-36.43-47.17h-.58v47.17h-23.01V27.72h0Z"/>
  </g>
  <circle class="st1" cx="821.99" cy="50.87" r="11.82"/>
  <circle class="st1" cx="365.27" cy="50.87" r="11.82"/>
  <g>
    <path class="st0" d="M153.65,85.98l-43.13,19.66,43.13,19.66c10.88,4.96,23.71.16,28.67-10.71,1.08-2.38,1.7-4.85,1.89-7.31h0c.02-.29.03-.56.04-.84,0-.09,0-.17,0-.26v-1.08c0-.09,0-.17,0-.26,0-.28-.02-.55-.04-.83h0c-.19-2.47-.81-4.94-1.89-7.32-4.96-10.87-17.79-15.67-28.67-10.71Z"/>
    <path class="st2" d="M171.61,85.92l-31.43-14.32-52.17,23.78,22.51,10.26,43.13-19.66c10.07-5.28,17.96-.06,17.96-.06"/>
    <path class="st2" d="M145.91,142.3l-5.73-2.61-51.23,23.35c-10.88,4.96-23.71.16-28.67-10.71-4.96-10.88-.16-23.71,10.71-28.67l17.01-7.75-22.5-10.27-2.25,1.02c-20.23,9.22-29.18,33.18-19.96,53.4,9.22,20.23,33.18,29.18,53.4,19.96l82.65-37.68"/>
    <path class="st1" d="M71,87.63c-10.88-4.96-15.67-17.79-10.71-28.67,4.96-10.88,17.79-15.67,28.67-10.71l51.23,23.35,5.73-2.61c19.57-8.92,42.62-.83,52.45,18.02-4.01-7.71-10.51-14.2-19.01-18.07L96.7,31.25c-20.23-9.22-44.18-.27-53.4,19.96-9.22,20.23-.27,44.18,19.96,53.4l2.25,1.02,22.51-10.26-17.02-7.74Z"/>
    <path class="st1" d="M153.65,125.3l-43.13-19.66-22.51,10.26,52.17,23.78,31.42-14.32c7.44-3.39,12.03-10.47,12.61-18.08-.19,2.46-.81,4.93-1.89,7.31-4.96,10.87-17.79,15.67-28.67,10.71Z"/>
    <polygon class="st2" points="110.52 105.64 88.01 95.38 65.5 105.64 88.01 115.9 110.52 105.64"/>
    <path class="st1" d="M200.23,120.13c.12-.32.24-.64.35-.97.12-.34.24-.68.35-1.02.07-.21.13-.42.2-.64.14-.44.27-.89.39-1.34.03-.11.05-.22.08-.32.14-.54.28-1.08.4-1.63,0-.02,0-.04,0-.06.4-1.87.68-3.76.81-5.68,0-.12,0-.24.02-.36.03-.51.06-1.02.07-1.54,0-.32,0-.63,0-.94v-.94c0-.51-.04-1.03-.07-1.54,0-.12,0-.23-.02-.35-.14-1.92-.41-3.81-.82-5.68,0-.02,0-.04,0-.06-.12-.55-.25-1.09-.4-1.63-.03-.11-.05-.21-.08-.32-.12-.45-.26-.89-.39-1.34-.07-.21-.13-.42-.2-.64-.11-.34-.23-.68-.35-1.02-.12-.32-.23-.65-.36-.97-.09-.24-.19-.47-.28-.71-.18-.43-.36-.86-.55-1.29-.06-.14-.13-.28-.19-.42-.24-.52-.49-1.04-.75-1.55-.03-.06-.06-.12-.09-.17-9.83-18.85-32.89-26.94-52.45-18.02l-5.73,2.61,31.42,14.32c7.44,3.39,12.03,10.47,12.61,18.08h0c.02.29.03.56.04.84,0,.09,0,.17,0,.26v1.08c0,.09,0,.17,0,.26,0,.28-.02.55-.04.83h0c-.58,7.62-5.17,14.7-12.61,18.09l-31.42,14.32,5.73,2.61c19.57,8.92,42.62.83,52.45-18.01.03-.06.06-.12.09-.18.26-.51.51-1.02.75-1.54.07-.14.13-.28.2-.43.19-.43.37-.86.55-1.29.1-.22.2-.46.29-.7Z"/>
  </g>
</svg>