<?xml version="1.0" encoding="UTF-8"?><svg id="uuid-195f5dd4-0137-40a4-86e0-a36b58eee101" xmlns="http://www.w3.org/2000/svg" xmlns:xlink="http://www.w3.org/1999/xlink" viewBox="0 0 60 60"><defs><linearGradient id="uuid-83c1d176-3e1b-4092-a111-02e573acdcc4" x1="17.0858" y1="48.9142" x2="54.9142" y2="11.0858" gradientUnits="userSpaceOnUse"><stop offset="0" stop-color="#a62b9f"/><stop offset="1" stop-color="#59c8fa"/></linearGradient><linearGradient id="uuid-3dd2fc51-aec2-49b8-8aa9-32178c6bbd02" x1="29.636" y1="36.364" x2="42.364" y2="23.636" xlink:href="#uuid-83c1d176-3e1b-4092-a111-02e573acdcc4"/></defs><g id="uuid-204b6a35-b830-4848-bece-f74e8f8d4941"><rect width="42" height="60" rx="4" ry="4" fill="#203b72"/><rect x="3" y="3" width="36" height="54" rx="2" ry="2" fill="#fff"/><circle cx="21" cy="6.5" r="1.5" fill="#203b72"/><path d="M27,53h-12c-.5527,0-1,.4473-1,1s.4473,1,1,1h12c.5527,0,1-.4473,1-1s-.4473-1-1-1Z" fill="#203b72"/><rect x="12" y="15" width="48" height="30" rx="2" ry="2" fill="url(#uuid-83c1d176-3e1b-4092-a111-02e573acdcc4)"/><path d="M53,18H19c0,2.209-1.791,4-4,4v16c2.209,0,4,1.791,4,4h34c0-2.209,1.791-4,4-4v-16c-2.209,0-4-1.791-4-4Z" fill="#fff"/><circle cx="36" cy="30" r="9" fill="url(#uuid-3dd2fc51-aec2-49b8-8aa9-32178c6bbd02)"/></g></svg>