<?xml version="1.0" encoding="UTF-8"?><svg id="uuid-9bb1f9a9-f048-490f-a728-cb465c28dbc1" xmlns="http://www.w3.org/2000/svg" xmlns:xlink="http://www.w3.org/1999/xlink" viewBox="0 0 60 60"><defs><linearGradient id="uuid-07e9d4d0-8370-4140-8810-4f997c963e57" x1="25.5" y1="35.5" x2="48.5" y2="12.5" gradientUnits="userSpaceOnUse"><stop offset="0" stop-color="#a62b9f"/><stop offset="1" stop-color="#59c8fa"/></linearGradient><linearGradient id="uuid-64b7b654-041e-44fc-8d51-7f8d79a364b9" x1="27.1443" y1="43.8455" x2="46.8557" y2="24.134" xlink:href="#uuid-07e9d4d0-8370-4140-8810-4f997c963e57"/><linearGradient id="uuid-d0186607-19a9-4dd5-8ef5-30e6e7cdc57e" x1="9.75" y1="38.75" x2="20.25" y2="28.25" xlink:href="#uuid-07e9d4d0-8370-4140-8810-4f997c963e57"/><linearGradient id="uuid-68932cc4-30e0-4c09-bd50-7730c11f2f38" x1="13.5858" y1="44.4142" x2="16.4142" y2="41.5858" xlink:href="#uuid-07e9d4d0-8370-4140-8810-4f997c963e57"/></defs><g id="uuid-c391577f-c26a-44fc-b222-7e62c30bf86d"><rect width="42" height="60" rx="4" ry="4" fill="#002b49"/><rect x="3" y="3" width="36" height="54" rx="2" ry="2" fill="#fff"/><circle cx="21" cy="6.5" r="1.5" fill="#002b49"/><path d="M27,53h-12c-.5527,0-1,.4473-1,1h0c0,.5527.4473,1,1,1h12c.5527,0,1-.4473,1-1h0c0-.5527-.4473-1-1-1Z" fill="#002b49"/><polygon points="37.7285 30.8623 37 31.1475 36.2715 30.8623 22 25.2783 22 34.7012 37 40.5703 42 38.6143 42 29.1914 37.7285 30.8623" fill="#fff"/><polygon points="37 15 14 24 37 33 60 24 37 15" fill="url(#uuid-07e9d4d0-8370-4140-8810-4f997c963e57)"/><polygon points="37 35.1475 36.2715 34.8623 22 29.2783 22 38.7012 37 44.5703 52 38.7012 52 29.2783 37.7285 34.8623 37 35.1475" fill="url(#uuid-64b7b654-041e-44fc-8d51-7f8d79a364b9)"/><rect x="14" y="24" width="2" height="19" fill="url(#uuid-d0186607-19a9-4dd5-8ef5-30e6e7cdc57e)"/><circle cx="15" cy="43" r="2" fill="url(#uuid-68932cc4-30e0-4c09-bd50-7730c11f2f38)"/></g></svg>