<?xml version="1.0" encoding="UTF-8"?><svg id="uuid-c00c462e-6c5d-4963-9e05-9b85cc6dda5a" xmlns="http://www.w3.org/2000/svg" xmlns:xlink="http://www.w3.org/1999/xlink" viewBox="0 0 60 60"><defs><linearGradient id="uuid-51199091-7c1f-4ab3-8759-85491ac1320f" x1="49.2742" y1="33.7134" x2="56.7009" y2="26.2866" gradientUnits="userSpaceOnUse"><stop offset="0" stop-color="#a62b9f"/><stop offset="1" stop-color="#59c8fa"/></linearGradient><linearGradient id="uuid-11d71bff-549a-4f25-98e6-051fb1915e1e" x1="3.2928" y1="33.7072" x2="10.7072" y2="26.2928" xlink:href="#uuid-51199091-7c1f-4ab3-8759-85491ac1320f"/><linearGradient id="uuid-e1d70060-4cbb-42d0-bc56-fd9c88c15aec" x1="26.2867" y1="10.7255" x2="33.7133" y2="3.2989" xlink:href="#uuid-51199091-7c1f-4ab3-8759-85491ac1320f"/><linearGradient id="uuid-c164ef1e-5970-4c9a-81f2-c82a99b0f995" x1="26.2928" y1="56.7072" x2="33.7072" y2="49.2928" xlink:href="#uuid-51199091-7c1f-4ab3-8759-85491ac1320f"/><linearGradient id="uuid-785c1681-0f02-4e33-b187-6f65102baa0b" x1="25.0502" y1="34.9498" x2="34.9498" y2="25.0502" xlink:href="#uuid-51199091-7c1f-4ab3-8759-85491ac1320f"/></defs><g id="uuid-5f61c493-ab21-405b-a159-6eb31c1004a1"><circle cx="30" cy="30" r="29" fill="#203b72"/><circle cx="30" cy="30" r="23" fill="#fff"/><circle cx="30" cy="30" r="17" fill="#203b72"/><circle cx="30" cy="30" r="11" fill="#fff"/><path d="M59,29h-12.0249c-.5522,0-1,.4473-1,1s.4478,1,1,1h12.0249c.5522,0,1-.4473,1-1s-.4478-1-1-1Z" fill="url(#uuid-51199091-7c1f-4ab3-8759-85491ac1320f)"/><path d="M13,29H1c-.5522,0-1,.4473-1,1s.4478,1,1,1h12c.5522,0,1-.4473,1-1s-.4478-1-1-1Z" fill="url(#uuid-11d71bff-549a-4f25-98e6-051fb1915e1e)"/><path d="M30,0c-.5522,0-1,.4473-1,1v12.0244c0,.5527.4478,1,1,1s1-.4473,1-1V1c0-.5527-.4478-1-1-1Z" fill="url(#uuid-e1d70060-4cbb-42d0-bc56-fd9c88c15aec)"/><path d="M30,46c-.5522,0-1,.4473-1,1v12c0,.5527.4478,1,1,1s1-.4473,1-1v-12c0-.5527-.4478-1-1-1Z" fill="url(#uuid-c164ef1e-5970-4c9a-81f2-c82a99b0f995)"/><path d="M32.021,23.2061h-1.021v-1.2061c0-.5527-.4478-1-1-1s-1,.4473-1,1v1.2061h-1.021c-1.4463,0-2.6226,1.1767-2.6226,2.623v2.5479c0,1.4462,1.1763,2.623,2.6226,2.623h4.042c.3433,0,.6226.2793.6226.623v2.5479c0,.3437-.2793.623-.6226.623h-4.042c-.3433,0-.6226-.2793-.6226-.623,0-.5527-.4477-1-1-1s-1,.4473-1,1v.0176c0,.0097,0,.0185.0005.0283.0244,1.4258,1.1914,2.5771,2.6221,2.5771h1.021v1.2061c0,.5527.4478,1,1,1s1-.4473,1-1v-1.2061h1.021c1.4463,0,2.6226-1.1767,2.6226-2.623v-2.5479c0-1.4462-1.1763-2.623-2.6226-2.623h-4.042c-.3433,0-.6226-.2793-.6226-.623v-2.5479c0-.3437.2793-.623.6226-.623h4.042c.3433,0,.6226.2793.6226.623,0,.5527.4477,1,1,1s1-.4473,1-1v-.0176c0-.0097,0-.0185-.0005-.0283-.0244-1.4258-1.1914-2.5771-2.6221-2.5771Z" fill="url(#uuid-785c1681-0f02-4e33-b187-6f65102baa0b)"/></g></svg>