<?xml version="1.0" encoding="UTF-8"?><svg id="uuid-2d7236d6-c01f-4407-bd2f-1c38fad0338d" xmlns="http://www.w3.org/2000/svg" xmlns:xlink="http://www.w3.org/1999/xlink" viewBox="0 0 60 60"><defs><linearGradient id="uuid-59a915cc-edbb-4ca8-8d92-899366e84997" x1="1.4644" y1="8.5356" x2="8.5356" y2="1.4644" gradientUnits="userSpaceOnUse"><stop offset="0" stop-color="#a62b9f"/><stop offset="1" stop-color="#59c8fa"/></linearGradient><linearGradient id="uuid-1e2b3ed0-a4d7-43ff-9c77-b5dd0b0dda18" x1="1.4644" y1="33.5356" x2="8.5356" y2="26.4644" xlink:href="#uuid-59a915cc-edbb-4ca8-8d92-899366e84997"/><linearGradient id="uuid-21bee227-ac7c-4730-a4d1-f559b66073e0" x1="1.4644" y1="58.5356" x2="8.5356" y2="51.4644" xlink:href="#uuid-59a915cc-edbb-4ca8-8d92-899366e84997"/><linearGradient id="uuid-a67423ce-3ca3-425b-a053-f9305db6d55f" x1="51.4644" y1="8.5356" x2="58.5356" y2="1.4644" xlink:href="#uuid-59a915cc-edbb-4ca8-8d92-899366e84997"/><linearGradient id="uuid-173ec983-4014-4ffd-b22d-acb3a2dc5725" x1="51.4644" y1="33.5356" x2="58.5356" y2="26.4644" xlink:href="#uuid-59a915cc-edbb-4ca8-8d92-899366e84997"/><linearGradient id="uuid-5e050a55-01f1-43ff-a7bb-968d05ea9b86" x1="51.4644" y1="58.5356" x2="58.5356" y2="51.4644" xlink:href="#uuid-59a915cc-edbb-4ca8-8d92-899366e84997"/></defs><g id="uuid-01f7e870-048d-44e8-ae3d-04ae07c06b8f"><path d="M5,56.5c-.3838,0-.7676-.1465-1.0605-.4395-.586-.5859-.586-1.5351,0-2.121L53.9395,3.9395c.5859-.586,1.5351-.586,2.121,0,.586.5859.586,1.5351,0,2.121L6.0605,56.0605c-.2929.293-.6767.4395-1.0605.4395Z" fill="#092b49"/><path d="M55,56.5c-.3838,0-.7676-.1465-1.0605-.4395L3.9395,6.0605c-.586-.5859-.586-1.5351,0-2.121.5859-.586,1.5351-.586,2.121,0l50,50c.586.5859.586,1.5351,0,2.121-.2929.293-.6767.4395-1.0605.4395Z" fill="#092b49"/><path d="M54.999,31.5c-.2256,0-.4541-.0508-.6699-.1582L4.3291,6.3418c-.7412-.3711-1.041-1.2715-.6709-2.0127.3711-.7402,1.2715-1.0391,2.0127-.6709l50,25c.7412.3711,1.041,1.2715.6709,2.0127-.2627.5254-.793.8291-1.3428.8291Z" fill="#092b49"/><path d="M5.001,31.5c-.5498,0-1.0801-.3037-1.3428-.8291-.3701-.7412-.0703-1.6416.6709-2.0127L54.3291,3.6582c.7422-.3682,1.6426-.0693,2.0127.6709.3701.7412.0703,1.6416-.6709,2.0127L5.6709,31.3418c-.2158.1074-.4443.1582-.6699.1582Z" fill="#092b49"/><path d="M54.999,56.5c-.2256,0-.4541-.0508-.6699-.1582L4.3291,31.3418c-.7412-.3711-1.041-1.2715-.6709-2.0127.3711-.7402,1.2715-1.04,2.0127-.6709l50,25c.7412.3711,1.041,1.2715.6709,2.0127-.2627.5254-.793.8291-1.3428.8291Z" fill="#092b49"/><path d="M5.001,56.5c-.5498,0-1.0801-.3037-1.3428-.8291-.3701-.7412-.0703-1.6416.6709-2.0127l50-25c.7422-.3691,1.6426-.0693,2.0127.6709.3701.7412.0703,1.6416-.6709,2.0127L5.6709,56.3418c-.2158.1074-.4443.1582-.6699.1582Z" fill="#092b49"/><path d="M55,6.5H5c-.8281,0-1.5-.6719-1.5-1.5s.6719-1.5,1.5-1.5h50c.8281,0,1.5.6719,1.5,1.5s-.6719,1.5-1.5,1.5Z" fill="#092b49"/><path d="M55,31.5H5c-.8281,0-1.5-.6719-1.5-1.5s.6719-1.5,1.5-1.5h50c.8281,0,1.5.6719,1.5,1.5s-.6719,1.5-1.5,1.5Z" fill="#092b49"/><path d="M55,56.5H5c-.8281,0-1.5-.6719-1.5-1.5s.6719-1.5,1.5-1.5h50c.8281,0,1.5.6719,1.5,1.5s-.6719,1.5-1.5,1.5Z" fill="#092b49"/><circle cx="5" cy="5" r="5" fill="url(#uuid-59a915cc-edbb-4ca8-8d92-899366e84997)"/><circle cx="5" cy="30" r="5" fill="url(#uuid-1e2b3ed0-a4d7-43ff-9c77-b5dd0b0dda18)"/><circle cx="5" cy="55" r="5" fill="url(#uuid-21bee227-ac7c-4730-a4d1-f559b66073e0)"/><circle cx="55" cy="5" r="5" fill="url(#uuid-a67423ce-3ca3-425b-a053-f9305db6d55f)"/><circle cx="55" cy="5" r="2" fill="#fff"/><circle cx="5" cy="5" r="2" fill="#fff"/><circle cx="55" cy="30" r="5" fill="url(#uuid-173ec983-4014-4ffd-b22d-acb3a2dc5725)"/><circle cx="55" cy="30" r="2" fill="#fff"/><circle cx="5" cy="30" r="2" fill="#fff"/><circle cx="55" cy="55" r="5" fill="url(#uuid-5e050a55-01f1-43ff-a7bb-968d05ea9b86)"/><circle cx="55" cy="55" r="2" fill="#fff"/><circle cx="5" cy="55" r="2" fill="#fff"/></g></svg>