<svg xmlns="http://www.w3.org/2000/svg" viewBox="0 0 60 60"><defs><style>.cls-1{fill:#203b72;}.cls-2{fill:#1ea7d3;}.cls-3{fill:#fff;}</style></defs><g id="Слой_2" data-name="Слой 2"><g id="Layer_1" data-name="Layer 1"><path class="cls-1" d="M30,58.5a1,1,0,0,1-1-1v-12a1,1,0,0,1,2,0v12A1,1,0,0,1,30,58.5Z"/><path class="cls-1" d="M29.92,57.5a.08.08,0,1,0,.08-.08A.09.09,0,0,0,29.92,57.5Z"/><path class="cls-1" d="M18,55.5a1,1,0,0,1-.78-.38,1,1,0,0,1,.16-1.4L22,50V43.5a1,1,0,0,1,2,0v7a1,1,0,0,1-.38.78l-5,4A1,1,0,0,1,18,55.5Z"/><path class="cls-1" d="M18,54.44a.08.08,0,1,0,.11,0A.09.09,0,0,0,18,54.44Z"/><path class="cls-1" d="M30,15.5a1,1,0,0,1-1-1V2.5a1,1,0,0,1,2,0v12A1,1,0,0,1,30,15.5Z"/><path class="cls-1" d="M30.08,2.5a.08.08,0,1,0-.08.08A.09.09,0,0,0,30.08,2.5Z"/><path class="cls-1" d="M23,17.5a1,1,0,0,1-1-1V10l-4.62-3.7a1,1,0,0,1,1.24-1.56l5,4A1,1,0,0,1,24,9.5v7A1,1,0,0,1,23,17.5Z"/><path class="cls-1" d="M18.05,5.44a.08.08,0,1,0,0,.11A.09.09,0,0,0,18.05,5.44Z"/><circle class="cls-1" cx="30" cy="57" r="3"/><circle class="cls-1" cx="17.5" cy="55" r="3"/><circle class="cls-1" cx="17.5" cy="5" r="3"/><path class="cls-1" d="M37,17.5a1,1,0,0,1-1-1v-7a1,1,0,0,1,.38-.78l5-4a1,1,0,0,1,1.24,1.56L38,10V16.5A1,1,0,0,1,37,17.5Z"/><path class="cls-1" d="M42.05,5.56a.08.08,0,1,0-.11,0A.09.09,0,0,0,42.05,5.56Z"/><path class="cls-1" d="M42,55.5a1,1,0,0,1-.62-.22l-5-4A1,1,0,0,1,36,50.5v-7a1,1,0,0,1,2,0V50l4.62,3.7a1,1,0,0,1,.16,1.4A1,1,0,0,1,42,55.5Z"/><path class="cls-1" d="M42,54.56a.08.08,0,1,0,0-.11A.09.09,0,0,0,42,54.56Z"/><circle class="cls-1" cx="42.5" cy="5" r="3"/><circle class="cls-1" cx="42.5" cy="55" r="3"/><circle class="cls-1" cx="30" cy="3" r="3"/><path class="cls-1" d="M14.5,31H2.5a1,1,0,0,1,0-2h12a1,1,0,0,1,0,2Z"/><path class="cls-1" d="M2.5,29.92a.08.08,0,1,0,.08.08A.09.09,0,0,0,2.5,29.92Z"/><path class="cls-1" d="M16.5,24h-7a1,1,0,0,1-.78-.38l-4-5a1,1,0,0,1,1.56-1.24L10,22H16.5a1,1,0,0,1,0,2Z"/><path class="cls-1" d="M5.56,18a.08.08,0,1,0,0,.11A.09.09,0,0,0,5.56,18Z"/><path class="cls-1" d="M57.5,31h-12a1,1,0,0,1,0-2h12a1,1,0,0,1,0,2Z"/><path class="cls-1" d="M57.5,30.08a.08.08,0,1,0-.08-.08A.09.09,0,0,0,57.5,30.08Z"/><path class="cls-1" d="M50.5,24h-7a1,1,0,0,1,0-2H50l3.7-4.62a1,1,0,0,1,1.56,1.24l-4,5A1,1,0,0,1,50.5,24Z"/><path class="cls-1" d="M54.56,18.05a.08.08,0,1,0-.11,0A.09.09,0,0,0,54.56,18.05Z"/><circle class="cls-1" cx="3" cy="30" r="3"/><circle class="cls-1" cx="5" cy="17.5" r="3"/><circle class="cls-1" cx="55" cy="17.5" r="3"/><path class="cls-1" d="M54.5,43a1,1,0,0,1-.78-.38L50,38H43.5a1,1,0,0,1,0-2h7a1,1,0,0,1,.78.38l4,5a1,1,0,0,1-.16,1.4A1,1,0,0,1,54.5,43Z"/><path class="cls-1" d="M54.44,42.05a.08.08,0,1,0,0-.11A.09.09,0,0,0,54.44,42.05Z"/><path class="cls-1" d="M5.5,43a1,1,0,0,1-.62-.22,1,1,0,0,1-.16-1.4l4-5A1,1,0,0,1,9.5,36h7a1,1,0,0,1,0,2H10l-3.7,4.62A1,1,0,0,1,5.5,43Z"/><path class="cls-1" d="M5.44,42a.08.08,0,1,0,.11,0A.09.09,0,0,0,5.44,42Z"/><circle class="cls-1" cx="55" cy="42.5" r="3"/><circle class="cls-1" cx="5" cy="42.5" r="3"/><circle class="cls-1" cx="57" cy="30" r="3"/><circle class="cls-2" cx="30" cy="30" r="12"/><path class="cls-3" d="M23,31a1,1,0,0,1-1-1,8,8,0,0,1,8-8,1,1,0,0,1,0,2,6,6,0,0,0-6,6A1,1,0,0,1,23,31Z"/></g></g></svg>