<?xml version="1.0" encoding="UTF-8"?><svg id="uuid-0dc8dc15-a3b4-4d17-a623-72ad12396d8a" xmlns="http://www.w3.org/2000/svg" xmlns:xlink="http://www.w3.org/1999/xlink" viewBox="0 0 60 60"><defs><linearGradient id="uuid-7956b9d0-82f4-4826-ac7e-829c939d0860" x1="21.5149" y1="38.4851" x2="38.4851" y2="21.5149" gradientUnits="userSpaceOnUse"><stop offset="0" stop-color="#a62b9f"/><stop offset="1" stop-color="#59c8fa"/></linearGradient></defs><g id="uuid-737b4ed7-536e-4250-ad92-280981e89f18"><path d="M30,58.5c-.5527,0-1-.4473-1-1v-12c0-.5527.4473-1,1-1s1,.4473,1,1v12c0,.5527-.4473,1-1,1Z" fill="#092b49"/><path d="M29.9248,57.5c0,.041.0342.0752.0752.0752s.0752-.0342.0752-.0752-.0342-.0752-.0752-.0752-.0752.0342-.0752.0752Z" fill="#092b49"/><path d="M18.001,55.5c-.294,0-.584-.1279-.7822-.375-.3448-.4316-.2745-1.0605.1562-1.4062l4.625-3.6993v-6.5195c0-.5527.4473-1,1-1s1,.4473,1,1v7c0,.3037-.1377.5908-.375.7813l-5,4c-.1846.1474-.4053.2187-.624.2187Z" fill="#092b49"/><path d="M17.9531,54.4414c-.0322.0254-.0381.0732-.0117.1055.0254.0322.0732.0381.1055.0117.0322-.0254.0381-.0732.0117-.1055-.0254-.0322-.0732-.0381-.1055-.0117Z" fill="#092b49"/><path d="M30,15.5c-.5527,0-1-.4473-1-1V2.5c0-.5527.4473-1,1-1s1,.4473,1,1v12c0,.5527-.4473,1-1,1Z" fill="#092b49"/><path d="M30.0752,2.5c0-.041-.0342-.0752-.0752-.0752s-.0752.0342-.0752.0752.0342.0752.0752.0752.0752-.0342.0752-.0752Z" fill="#092b49"/><path d="M23,17.5c-.5527,0-1-.4473-1-1v-6.5195l-4.625-3.6992c-.4307-.3458-.501-.9747-.1562-1.4063.3457-.4287.9736-.501,1.4062-.1562l5,4c.2373.1904.375.4775.375.7812v7c0,.5527-.4473,1-1,1Z" fill="#092b49"/><path d="M18.0469,5.4414c-.0323-.0264-.0801-.0205-.1055.0117-.0264.0323-.0205.0801.0117.1055.0323.0264.0801.0205.1055-.0117.0264-.0323.0205-.0801-.0117-.1055Z" fill="#092b49"/><circle cx="30" cy="57" r="3" fill="#092b49"/><circle cx="17.5" cy="55" r="3" fill="#092b49"/><circle cx="17.5" cy="5" r="3" fill="#092b49"/><path d="M37,17.5c-.5527,0-1-.4473-1-1v-7c0-.3037.1377-.5908.375-.7812l5-4c.4316-.3458,1.0605-.2745,1.4063.1562.3447.4316.2744,1.0605-.1563,1.4063l-4.625,3.6992v6.5195c0,.5527-.4473,1-1,1Z" fill="#092b49"/><path d="M42.0469,5.5586c.0322-.0254.0381-.0732.0117-.1055-.0254-.0322-.0732-.0381-.1055-.0117-.0322.0254-.0381.0732-.0117.1055.0254.0322.0732.0381.1055.0117Z" fill="#092b49"/><path d="M41.999,55.5c-.2187,0-.4394-.0713-.624-.2187l-5-4c-.2373-.1905-.375-.4776-.375-.7813v-7c0-.5527.4473-1,1-1s1,.4473,1,1v6.5195l4.625,3.6993c.4307.3457.501.9746.1563,1.4062-.1983.2461-.4883.375-.7823.375Z" fill="#092b49"/><path d="M41.9531,54.5586c.0323.0264.0801.0205.1055-.0117.0264-.0323.0205-.0801-.0117-.1055-.0323-.0264-.0801-.0205-.1055.0117-.0264.0323-.0205.0801.0117.1055Z" fill="#092b49"/><circle cx="42.5" cy="5" r="3" fill="#092b49"/><circle cx="42.5" cy="55" r="3" fill="#092b49"/><circle cx="30" cy="3" r="3" fill="#092b49"/><path d="M14.5,31H2.5c-.5527,0-1-.4473-1-1s.4473-1,1-1h12c.5527,0,1,.4473,1,1s-.4473,1-1,1Z" fill="#092b49"/><path d="M2.5,29.9248c-.041,0-.0752.0342-.0752.0752s.0342.0752.0752.0752.0752-.0342.0752-.0752-.0342-.0752-.0752-.0752Z" fill="#092b49"/><path d="M16.5,24h-7c-.3037,0-.5908-.1377-.7812-.375l-4-5c-.3448-.4316-.2745-1.0605.1562-1.4062.4326-.3458,1.0605-.2754,1.4063.1562l3.6992,4.625h6.5195c.5527,0,1,.4473,1,1s-.4473,1-1,1Z" fill="#092b49"/><path d="M5.5586,17.9531c-.0254-.0322-.0732-.0381-.1055-.0117-.0322.0254-.0381.0732-.0117.1055.0254.0322.0732.0381.1055.0117.0322-.0254.0381-.0732.0117-.1055Z" fill="#092b49"/><path d="M57.5,31h-12c-.5527,0-1-.4473-1-1s.4473-1,1-1h12c.5527,0,1,.4473,1,1s-.4473,1-1,1Z" fill="#092b49"/><path d="M57.5,30.0752c.041,0,.0752-.0342.0752-.0752s-.0342-.0752-.0752-.0752-.0752.0342-.0752.0752.0342.0752.0752.0752Z" fill="#092b49"/><path d="M50.5,24h-7c-.5527,0-1-.4473-1-1s.4473-1,1-1h6.5195l3.6993-4.625c.3466-.4287.9736-.501,1.4062-.1562.4307.3457.501.9746.1563,1.4062l-4,5c-.1905.2373-.4776.375-.7813.375Z" fill="#092b49"/><path d="M54.5586,18.0469c.0264-.0323.0205-.0801-.0117-.1055-.0323-.0264-.0801-.0205-.1055.0117-.0264.0323-.0205.0801.0117.1055.0323.0264.0801.0205.1055-.0117Z" fill="#092b49"/><circle cx="3" cy="30" r="3" fill="#092b49"/><circle cx="5" cy="17.5" r="3" fill="#092b49"/><circle cx="55" cy="17.5" r="3" fill="#092b49"/><path d="M54.501,43c-.294,0-.584-.1279-.7822-.375l-3.6993-4.625h-6.5195c-.5527,0-1-.4473-1-1s.4473-1,1-1h7c.3037,0,.5908.1377.7813.375l4,5c.3447.4316.2744,1.0605-.1563,1.4063-.1846.1474-.4053.2187-.624.2187Z" fill="#092b49"/><path d="M54.4414,42.0469c.0254.0322.0732.0381.1055.0117.0322-.0254.0381-.0732.0117-.1055-.0254-.0322-.0732-.0381-.1055-.0117-.0322.0254-.0381.0732-.0117.1055Z" fill="#092b49"/><path d="M5.499,43c-.2187,0-.4394-.0713-.624-.2187-.4307-.3458-.501-.9747-.1562-1.4063l4-5c.1904-.2373.4775-.375.7812-.375h7c.5527,0,1,.4473,1,1s-.4473,1-1,1h-6.5195l-3.6992,4.625c-.1983.2461-.4883.375-.7823.375Z" fill="#092b49"/><path d="M5.4414,41.9531c-.0264.0323-.0205.0801.0117.1055.0323.0264.0801.0205.1055-.0117.0264-.0323.0205-.0801-.0117-.1055-.0323-.0264-.0801-.0205-.1055.0117Z" fill="#092b49"/><circle cx="55" cy="42.5" r="3" fill="#092b49"/><circle cx="5" cy="42.5" r="3" fill="#092b49"/><circle cx="57" cy="30" r="3" fill="#092b49"/><circle cx="30" cy="30" r="12" fill="url(#uuid-7956b9d0-82f4-4826-ac7e-829c939d0860)"/><path d="M23,31c-.5527,0-1-.4473-1-1,0-4.4111,3.5889-8,8-8,.5527,0,1,.4473,1,1s-.4473,1-1,1c-3.3086,0-6,2.6914-6,6,0,.5527-.4473,1-1,1Z" fill="#fff"/></g></svg>