<svg xmlns="http://www.w3.org/2000/svg" viewBox="0 0 60 60"><defs><style>.cls-1{fill:#203b72;}.cls-2{fill:#1ea7d3;}.cls-3{fill:#fff;}</style></defs><g id="Слой_2" data-name="Слой 2"><g id="Layer_1" data-name="Layer 1"><path class="cls-1" d="M5,56.5a1.51,1.51,0,0,1-1.06-.44,1.49,1.49,0,0,1,0-2.12l50-50a1.5,1.5,0,0,1,2.12,2.12l-50,50A1.51,1.51,0,0,1,5,56.5Z"/><path class="cls-1" d="M55,56.5a1.51,1.51,0,0,1-1.06-.44l-50-50A1.5,1.5,0,0,1,6.06,3.94l50,50a1.49,1.49,0,0,1,0,2.12A1.51,1.51,0,0,1,55,56.5Z"/><path class="cls-1" d="M55,31.5a1.44,1.44,0,0,1-.67-.16l-50-25A1.5,1.5,0,0,1,5.67,3.66l50,25A1.5,1.5,0,0,1,55,31.5Z"/><path class="cls-1" d="M5,31.5a1.5,1.5,0,0,1-.67-2.84l50-25a1.5,1.5,0,1,1,1.34,2.68l-50,25A1.44,1.44,0,0,1,5,31.5Z"/><path class="cls-1" d="M55,56.5a1.44,1.44,0,0,1-.67-.16l-50-25a1.5,1.5,0,0,1,1.34-2.68l50,25A1.5,1.5,0,0,1,55,56.5Z"/><path class="cls-1" d="M5,56.5a1.5,1.5,0,0,1-.67-2.84l50-25a1.5,1.5,0,0,1,1.34,2.68l-50,25A1.44,1.44,0,0,1,5,56.5Z"/><path class="cls-1" d="M55,6.5H5a1.5,1.5,0,0,1,0-3H55a1.5,1.5,0,0,1,0,3Z"/><path class="cls-1" d="M55,31.5H5a1.5,1.5,0,0,1,0-3H55a1.5,1.5,0,0,1,0,3Z"/><path class="cls-1" d="M55,56.5H5a1.5,1.5,0,0,1,0-3H55a1.5,1.5,0,0,1,0,3Z"/><circle class="cls-2" cx="5" cy="5" r="5"/><circle class="cls-2" cx="5" cy="30" r="5"/><circle class="cls-2" cx="5" cy="55" r="5"/><circle class="cls-2" cx="55" cy="5" r="5"/><circle class="cls-3" cx="55" cy="5" r="2"/><circle class="cls-3" cx="5" cy="5" r="2"/><circle class="cls-2" cx="55" cy="30" r="5"/><circle class="cls-3" cx="55" cy="30" r="2"/><circle class="cls-3" cx="5" cy="30" r="2"/><circle class="cls-2" cx="55" cy="55" r="5"/><circle class="cls-3" cx="55" cy="55" r="2"/><circle class="cls-3" cx="5" cy="55" r="2"/></g></g></svg>