<?xml version="1.0" encoding="UTF-8"?><svg id="uuid-c1ee09b4-7e5a-46fa-a84f-8b2c68678110" xmlns="http://www.w3.org/2000/svg" xmlns:xlink="http://www.w3.org/1999/xlink" viewBox="0 0 60 60"><defs><linearGradient id="uuid-37c611ec-6848-4bd7-a66a-97989bfa3ae4" x1="5.3964" y1="26.3964" x2="28.8964" y2="2.8964" gradientUnits="userSpaceOnUse"><stop offset="0" stop-color="#a62b9f"/><stop offset="1" stop-color="#59c8fa"/></linearGradient><linearGradient id="uuid-28e4feb0-c776-4dd5-a52f-00d230cb9414" x1="31.1036" y1="47.1036" x2="54.6036" y2="23.6036" gradientTransform="translate(86 71) rotate(-180)" xlink:href="#uuid-37c611ec-6848-4bd7-a66a-97989bfa3ae4"/><linearGradient id="uuid-d06685ad-928b-4e6a-a5a4-1311b4667b06" x1="14.5794" y1="33.057" x2="19.4206" y2="28.2158" xlink:href="#uuid-37c611ec-6848-4bd7-a66a-97989bfa3ae4"/><linearGradient id="uuid-39b493f7-8372-449c-8696-2adf7a92293a" x1="11.6392" y1="45.6392" x2="22.3608" y2="34.9175" xlink:href="#uuid-37c611ec-6848-4bd7-a66a-97989bfa3ae4"/><linearGradient id="uuid-f32d88a5-3e46-42f7-839f-cf046b993f57" x1="40.0794" y1="13.057" x2="44.9206" y2="8.2158" xlink:href="#uuid-37c611ec-6848-4bd7-a66a-97989bfa3ae4"/><linearGradient id="uuid-253adc4d-aa12-4312-929e-84d01df3a74f" x1="37.1392" y1="25.6392" x2="47.8608" y2="14.9175" xlink:href="#uuid-37c611ec-6848-4bd7-a66a-97989bfa3ae4"/></defs><g id="uuid-d683d109-adf1-4fba-be0c-85f0b84fc51c"><rect width="60" height="50" rx="3" ry="3" fill="#002b49"/><rect x="4" y="4" width="52" height="42" rx="1" ry="1" fill="#fff"/><path d="M5,4h25v21H4V5c0-.5519.4481-1,1-1Z" fill="url(#uuid-37c611ec-6848-4bd7-a66a-97989bfa3ae4)"/><path d="M31,25h25v21h-26v-20c0-.5519.4481-1,1-1Z" transform="translate(86 71) rotate(180)" fill="url(#uuid-28e4feb0-c776-4dd5-a52f-00d230cb9414)"/><rect x="22" y="50" width="16" height="6" fill="#002b49"/><path d="M46,60H14c-1.1045,0-2-.8955-2-2h0c0-1.1045.8955-2,2-2h32c1.1045,0,2,.8955,2,2h0c0,1.1045-.8955,2-2,2Z" fill="#002b49"/><path d="M19.9092,31.3633v-1.4541c0-1.6065-1.3028-2.9092-2.9092-2.9092s-2.9092,1.3027-2.9092,2.9092v1.4541c0,1.6074,1.3028,2.9092,2.9092,2.9092s2.9092-1.3018,2.9092-2.9092Z" fill="url(#uuid-d06685ad-928b-4e6a-a5a4-1311b4667b06)"/><path d="M25,39.3633c0-1.2022-.4863-2.2901-1.2725-3.0791-.79-.793-1.8837-1.2842-3.0908-1.2842h-7.2734c-1.207,0-2.3008.4912-3.0908,1.2842-.7862.789-1.2725,1.8769-1.2725,3.0791v3.6367h2.5459v-3.0908c0-.3018.2441-.5459.5449-.5459.3018,0,.5459.2441.5459.5459v3.0908h8.7266v-3.0908c0-.3018.2441-.5459.5459-.5459.3008,0,.5449.2441.5449.5459v3.0908h2.5459v-3.6367Z" fill="url(#uuid-39b493f7-8372-449c-8696-2adf7a92293a)"/><path d="M45.4092,31.3633v-1.4541c0-1.6065-1.3028-2.9092-2.9092-2.9092s-2.9092,1.3027-2.9092,2.9092v1.4541c0,1.6074,1.3028,2.9092,2.9092,2.9092s2.9092-1.3018,2.9092-2.9092Z" fill="#fff"/><path d="M50.5,39.3633c0-1.2022-.4863-2.2901-1.2725-3.0791-.79-.793-1.8837-1.2842-3.0908-1.2842h-7.2734c-1.207,0-2.3008.4912-3.0908,1.2842-.7862.789-1.2725,1.8769-1.2725,3.0791v3.6367h2.5459v-3.0908c0-.3018.2441-.5459.5449-.5459.3018,0,.5459.2441.5459.5459v3.0908h8.7266v-3.0908c0-.3018.2441-.5459.5459-.5459.3008,0,.5449.2441.5449.5459v3.0908h2.5459v-3.6367Z" fill="#fff"/><path d="M19.9092,11.3633v-1.4541c0-1.6065-1.3028-2.9092-2.9092-2.9092s-2.9092,1.3027-2.9092,2.9092v1.4541c0,1.6074,1.3028,2.9092,2.9092,2.9092s2.9092-1.3018,2.9092-2.9092Z" fill="#fff"/><path d="M25,19.3633c0-1.2022-.4863-2.2901-1.2725-3.0791-.79-.793-1.8837-1.2842-3.0908-1.2842h-7.2734c-1.207,0-2.3008.4912-3.0908,1.2842-.7862.789-1.2725,1.8769-1.2725,3.0791v3.6367h2.5459v-3.0908c0-.3018.2441-.5459.5449-.5459.3018,0,.5459.2441.5459.5459v3.0908h8.7266v-3.0908c0-.3018.2441-.5459.5459-.5459.3008,0,.5449.2441.5449.5459v3.0908h2.5459v-3.6367Z" fill="#fff"/><path d="M45.4092,11.3633v-1.4541c0-1.6065-1.3028-2.9092-2.9092-2.9092s-2.9092,1.3027-2.9092,2.9092v1.4541c0,1.6074,1.3028,2.9092,2.9092,2.9092s2.9092-1.3018,2.9092-2.9092Z" fill="url(#uuid-f32d88a5-3e46-42f7-839f-cf046b993f57)"/><path d="M50.5,19.3633c0-1.2022-.4863-2.2901-1.2725-3.0791-.79-.793-1.8837-1.2842-3.0908-1.2842h-7.2734c-1.207,0-2.3008.4912-3.0908,1.2842-.7862.789-1.2725,1.8769-1.2725,3.0791v3.6367h2.5459v-3.0908c0-.3018.2441-.5459.5449-.5459.3018,0,.5459.2441.5459.5459v3.0908h8.7266v-3.0908c0-.3018.2441-.5459.5459-.5459.3008,0,.5449.2441.5449.5459v3.0908h2.5459v-3.6367Z" fill="url(#uuid-253adc4d-aa12-4312-929e-84d01df3a74f)"/></g></svg>