<?xml version="1.0" encoding="UTF-8"?><svg id="uuid-f8d62abf-8877-44bd-a101-f82f6d5796dd" xmlns="http://www.w3.org/2000/svg" xmlns:xlink="http://www.w3.org/1999/xlink" viewBox="0 0 60 60"><defs><linearGradient id="uuid-fb70c976-2f9f-42ec-a0f2-55c4ab4b8f35" x1="22" y1="40" x2="38" y2="24" gradientUnits="userSpaceOnUse"><stop offset="0" stop-color="#a62b9f"/><stop offset="1" stop-color="#59c8fa"/></linearGradient><linearGradient id="uuid-51cfa92f-9a9e-432f-ab18-2f3920fc26df" y1="47" x2="38" y2="31" xlink:href="#uuid-fb70c976-2f9f-42ec-a0f2-55c4ab4b8f35"/></defs><g id="uuid-a1a5b5f6-1663-4be9-ad5e-7a996ce11ef0"><rect width="60" height="50" rx="3" ry="3" fill="#002b49"/><rect x="4" y="4" width="52" height="42" rx="1" ry="1" fill="#fff"/><rect x="22" y="50" width="16" height="6" fill="#002b49"/><path d="M46,60H14c-1.1045,0-2-.8955-2-2h0c0-1.1045.8955-2,2-2h32c1.1045,0,2,.8955,2,2h0c0,1.1045-.8955,2-2,2Z" fill="#002b49"/><path d="M34,14v-2c0-2.209-1.791-4-4-4s-4,1.791-4,4v2c0,2.209,1.791,4,4,4s4-1.791,4-4Z" fill="#002b49"/><path d="M41,25c0-1.6528-.6689-3.1494-1.75-4.2344-1.0859-1.0903-2.5889-1.7656-4.25-1.7656h-10c-1.6611,0-3.1641.6753-4.25,1.7656-1.0811,1.085-1.75,2.5816-1.75,4.2344v5h3.5v-4.25c0-.4141.3359-.75.75-.75s.75.3359.75.75v4.25h12v-4.25c0-.4141.3359-.75.75-.75s.75.3359.75.75v4.25h3.5v-5Z" fill="#002b49"/><rect x="16" y="30" width="28" height="4" fill="url(#uuid-fb70c976-2f9f-42ec-a0f2-55c4ab4b8f35)"/><polygon points="40 45 20 45 18 35 42 35 40 45" fill="url(#uuid-51cfa92f-9a9e-432f-ab18-2f3920fc26df)"/></g></svg>