<?xml version="1.0" encoding="UTF-8"?><svg id="uuid-8198d40f-2894-4355-b8b7-34b1d7473733" xmlns="http://www.w3.org/2000/svg" xmlns:xlink="http://www.w3.org/1999/xlink" viewBox="0 0 60 60"><defs><linearGradient id="uuid-4a2cf777-8e32-41c4-bf0c-b3912c0e770a" x1=".6892" y1="52.1036" x2="32.0178" y2="20.7751" gradientUnits="userSpaceOnUse"><stop offset="0" stop-color="#a62b9f"/><stop offset="1" stop-color="#59c8fa"/></linearGradient><linearGradient id="uuid-a9cad852-46d3-4a4a-beb3-0677cabac212" x1="27.5429" y1="52.5429" x2="59.7501" y2="20.3357" xlink:href="#uuid-4a2cf777-8e32-41c4-bf0c-b3912c0e770a"/><linearGradient id="uuid-bab2b360-1465-44c2-b8ee-27184502fba8" x1="12.9393" y1="22.9393" x2="47.0607" y2="-11.182" xlink:href="#uuid-4a2cf777-8e32-41c4-bf0c-b3912c0e770a"/></defs><g id="uuid-e6227aa2-4ce7-4147-a35f-b1268759b785"><path d="M57,60H3c-1.6572,0-3-1.3433-3-3V12h60v45c0,1.6567-1.3428,3-3,3Z" fill="#002b49"/><path d="M29,56H5c-.5527,0-1-.4478-1-1V17c0-.5522.4473-1,1-1h21c1.6572,0,3,1.3433,3,3v37Z" fill="url(#uuid-4a2cf777-8e32-41c4-bf0c-b3912c0e770a)"/><path d="M31,56h24c.5527,0,1-.4478,1-1V17c0-.5522-.4473-1-1-1h-21c-1.6572,0-3,1.3433-3,3v37Z" fill="url(#uuid-a9cad852-46d3-4a4a-beb3-0677cabac212)"/><path d="M3,0h54c1.6557,0,3,1.3443,3,3v7H0V3C0,1.3443,1.3443,0,3,0Z" fill="url(#uuid-bab2b360-1465-44c2-b8ee-27184502fba8)"/><circle cx="5" cy="5" r="1.25" fill="#fff"/><circle cx="11" cy="5" r="1.25" fill="#fff"/><circle cx="17" cy="5" r="1.25" fill="#fff"/><path d="M24,39.75h-15c-.4141,0-.75-.3359-.75-.75s.3359-.75.75-.75h15c.4141,0,.75.3359.75.75s-.3359.75-.75.75Z" fill="#fff"/><path d="M24,45.75h-15c-.4141,0-.75-.3359-.75-.75s.3359-.75.75-.75h15c.4141,0,.75.3359.75.75s-.3359.75-.75.75Z" fill="#fff"/><path d="M15,51.75h-6c-.4141,0-.75-.3359-.75-.75s.3359-.75.75-.75h6c.4141,0,.75.3359.75.75s-.3359.75-.75.75Z" fill="#fff"/><path d="M20,33.75h-11c-.4141,0-.75-.3359-.75-.75s.3359-.75.75-.75h11c.4141,0,.75.3359.75.75s-.3359.75-.75.75Z" fill="#fff"/><path d="M24,27.75h-15c-.4141,0-.75-.3359-.75-.75s.3359-.75.75-.75h15c.4141,0,.75.3359.75.75s-.3359.75-.75.75Z" fill="#fff"/><path d="M24,21.75h-15c-.4141,0-.75-.3359-.75-.75s.3359-.75.75-.75h15c.4141,0,.75.3359.75.75s-.3359.75-.75.75Z" fill="#fff"/><path d="M44,39.75h-8c-.4141,0-.75-.3359-.75-.75s.3359-.75.75-.75h8c.4141,0,.75.3359.75.75s-.3359.75-.75.75Z" fill="#fff"/><path d="M51,45.75h-15c-.4141,0-.75-.3359-.75-.75s.3359-.75.75-.75h15c.4141,0,.75.3359.75.75s-.3359.75-.75.75Z" fill="#fff"/><path d="M47,51.75h-11c-.4141,0-.75-.3359-.75-.75s.3359-.75.75-.75h11c.4141,0,.75.3359.75.75s-.3359.75-.75.75Z" fill="#fff"/><path d="M51,33.75h-15c-.4141,0-.75-.3359-.75-.75s.3359-.75.75-.75h15c.4141,0,.75.3359.75.75s-.3359.75-.75.75Z" fill="#fff"/><path d="M48,27.75h-12c-.4141,0-.75-.3359-.75-.75s.3359-.75.75-.75h12c.4141,0,.75.3359.75.75s-.3359.75-.75.75Z" fill="#fff"/><path d="M51,21.75h-15c-.4141,0-.75-.3359-.75-.75s.3359-.75.75-.75h15c.4141,0,.75.3359.75.75s-.3359.75-.75.75Z" fill="#fff"/></g></svg>