<?xml version="1.0" encoding="UTF-8"?><svg id="uuid-b7862534-18a5-490b-89df-20d0309c5b41" xmlns="http://www.w3.org/2000/svg" xmlns:xlink="http://www.w3.org/1999/xlink" viewBox="0 0 60 60"><defs><linearGradient id="uuid-831e1988-0d85-446d-9ba3-852fa0ded67f" x1="10.4393" y1="20.4393" x2="39.5607" y2="-8.682" gradientUnits="userSpaceOnUse"><stop offset="0" stop-color="#a62b9f"/><stop offset="1" stop-color="#59c8fa"/></linearGradient><linearGradient id="uuid-06b8c9ec-2236-49b1-938d-66afa07fa5f2" x1="26.1464" y1="70.1464" x2="49.8536" y2="46.4392" xlink:href="#uuid-831e1988-0d85-446d-9ba3-852fa0ded67f"/><linearGradient id="uuid-729cfc8d-5c8e-41ff-9d32-4f7e9a1f5c10" x1="26.1464" y1="41.5608" x2="49.8536" y2="17.8536" xlink:href="#uuid-831e1988-0d85-446d-9ba3-852fa0ded67f"/><linearGradient id="uuid-92dfaf75-11f6-4f9f-8e32-963772a4686d" x1="32.2928" y1="49.7072" x2="43.7072" y2="38.2928" xlink:href="#uuid-831e1988-0d85-446d-9ba3-852fa0ded67f"/><linearGradient id="uuid-5b663b8e-db59-4a76-bccf-f99629821204" x1="40.2928" y1="49.7072" x2="51.7072" y2="38.2928" xlink:href="#uuid-831e1988-0d85-446d-9ba3-852fa0ded67f"/><linearGradient id="uuid-4d1817eb-8ada-41f6-80b6-37337b973953" x1="48.2928" y1="49.7072" x2="59.7072" y2="38.2928" xlink:href="#uuid-831e1988-0d85-446d-9ba3-852fa0ded67f"/><linearGradient id="uuid-389806f3-b923-4ef1-97d6-771ad0cf00b2" x1="24.2928" y1="49.7072" x2="35.7072" y2="38.2928" xlink:href="#uuid-831e1988-0d85-446d-9ba3-852fa0ded67f"/><linearGradient id="uuid-67fa507e-f5ed-4307-af14-91b223c27cae" x1="16.2928" y1="49.7072" x2="27.7072" y2="38.2928" xlink:href="#uuid-831e1988-0d85-446d-9ba3-852fa0ded67f"/></defs><g id="uuid-cc44c9a0-c6b5-445a-a946-785671076263"><path d="M47,60H3c-1.6567,0-3-1.3428-3-3V12h50v45c0,1.6572-1.3433,3-3,3Z" fill="#002b49"/><path d="M3,0h44c1.6557,0,3,1.3443,3,3v7H0V3C0,1.3443,1.3443,0,3,0Z" fill="url(#uuid-831e1988-0d85-446d-9ba3-852fa0ded67f)"/><circle cx="5" cy="5" r="1.25" fill="#fff"/><circle cx="11" cy="5" r="1.25" fill="#fff"/><circle cx="17" cy="5" r="1.25" fill="#fff"/><path d="M17,56h42c.5519,0,1,.4481,1,1v3H16v-3c0-.5519.4481-1,1-1Z" fill="url(#uuid-06b8c9ec-2236-49b1-938d-66afa07fa5f2)"/><path d="M16,28l22-9,22,9v3c0,.5527-.4478,1-1,1H17c-.5522,0-1-.4473-1-1v-3Z" fill="url(#uuid-729cfc8d-5c8e-41ff-9d32-4f7e9a1f5c10)"/><circle cx="38" cy="26" r="3" fill="#fff"/><rect x="36" y="34" width="4" height="20" rx="1" ry="1" fill="url(#uuid-92dfaf75-11f6-4f9f-8e32-963772a4686d)"/><rect x="44" y="34" width="4" height="20" rx="1" ry="1" fill="url(#uuid-5b663b8e-db59-4a76-bccf-f99629821204)"/><rect x="52" y="34" width="4" height="20" rx="1" ry="1" fill="url(#uuid-4d1817eb-8ada-41f6-80b6-37337b973953)"/><rect x="28" y="34" width="4" height="20" rx="1" ry="1" fill="url(#uuid-389806f3-b923-4ef1-97d6-771ad0cf00b2)"/><rect x="20" y="34" width="4" height="20" rx="1" ry="1" fill="url(#uuid-67fa507e-f5ed-4307-af14-91b223c27cae)"/></g></svg>