<?xml version="1.0" encoding="UTF-8"?><svg id="uuid-6e5358ba-f1d9-489f-ac48-d149d60eae71" xmlns="http://www.w3.org/2000/svg" xmlns:xlink="http://www.w3.org/1999/xlink" viewBox="0 0 60 60"><defs><linearGradient id="uuid-8f6b2d35-d68d-4085-97a2-ff396efaf231" x1="15.6716" y1="26.3284" x2="22.3284" y2="19.6716" gradientUnits="userSpaceOnUse"><stop offset="0" stop-color="#a62b9f"/><stop offset="1" stop-color="#59c8fa"/></linearGradient><linearGradient id="uuid-183021aa-10f2-408c-ae63-3a80bc32be98" x1="11.1289" y1="45.1289" x2="26.8711" y2="29.3867" xlink:href="#uuid-8f6b2d35-d68d-4085-97a2-ff396efaf231"/></defs><g id="uuid-7c79ab97-8af9-44bb-bb2f-af8a512d3376"><rect width="60" height="50" rx="3" ry="3" fill="#002b49"/><rect x="4" y="4" width="52" height="42" rx="1" ry="1" fill="#fff"/><path d="M51,22h-10l-9,5,1-5h-4c-.5522,0-1-.4478-1-1v-12c0-.5522.4478-1,1-1h22c.5522,0,1,.4478,1,1v12c0,.5522-.4478,1-1,1Z" fill="#002b49"/><rect x="22" y="50" width="16" height="6" fill="#002b49"/><path d="M46,60H14c-1.1045,0-2-.8955-2-2h0c0-1.1045.8955-2,2-2h32c1.1045,0,2,.8955,2,2h0c0,1.1045-.8955,2-2,2Z" fill="#002b49"/><path d="M23,24v-2c0-2.209-1.791-4-4-4s-4,1.791-4,4v2c0,2.209,1.791,4,4,4s4-1.791,4-4Z" fill="url(#uuid-8f6b2d35-d68d-4085-97a2-ff396efaf231)"/><path d="M30,35c0-1.6528-.6689-3.1494-1.75-4.2344-1.0864-1.0903-2.5894-1.7656-4.25-1.7656h-10c-1.6606,0-3.1636.6753-4.25,1.7656-1.0811,1.085-1.75,2.5816-1.75,4.2344v7h3.5v-6.25c0-.4141.3359-.75.75-.75s.75.3359.75.75v6.25h12v-6.25c0-.4141.3359-.75.75-.75s.75.3359.75.75v6.25h3.5v-7Z" fill="url(#uuid-183021aa-10f2-408c-ae63-3a80bc32be98)"/></g></svg>