<?xml version="1.0" encoding="UTF-8"?><svg id="uuid-8f28b2e8-2ecc-4bb2-b314-f7ce14b0a5cb" xmlns="http://www.w3.org/2000/svg" xmlns:xlink="http://www.w3.org/1999/xlink" viewBox="0 0 60 60"><defs><linearGradient id="uuid-873ab973-fd33-41d4-87b5-95e0ecbf81e2" x1="10.9394" y1="20.9394" x2="41.0606" y2="-9.1819" gradientUnits="userSpaceOnUse"><stop offset="0" stop-color="#a62b9f"/><stop offset="1" stop-color="#59c8fa"/></linearGradient><linearGradient id="uuid-fe55dc54-7642-47dd-895d-af936db19d1d" x1="25.5" y1="39.5" x2="48.5" y2="16.5" xlink:href="#uuid-873ab973-fd33-41d4-87b5-95e0ecbf81e2"/><linearGradient id="uuid-712e010e-eaff-474d-b24c-612e05e5c25a" x1="27.1444" y1="47.8451" x2="46.8556" y2="28.1339" xlink:href="#uuid-873ab973-fd33-41d4-87b5-95e0ecbf81e2"/><linearGradient id="uuid-27bb5db2-f853-4ccd-8a3f-0874248cc8dc" x1="9.75" y1="42.75" x2="20.25" y2="32.25" xlink:href="#uuid-873ab973-fd33-41d4-87b5-95e0ecbf81e2"/><linearGradient id="uuid-01f70c22-8145-4630-80e1-3a90588c05b6" x1="13.5858" y1="48.4142" x2="16.4142" y2="45.5858" xlink:href="#uuid-873ab973-fd33-41d4-87b5-95e0ecbf81e2"/></defs><g id="uuid-dfe7e931-de8a-4bf4-8ca6-482c87416f11"><path d="M49,60H3c-1.6567,0-3-1.3433-3-3V12h52v45c0,1.6567-1.3433,3-3,3Z" fill="#002b49"/><path d="M3,0h46c1.6557,0,3,1.3443,3,3v7H0V3C0,1.3443,1.3443,0,3,0Z" fill="url(#uuid-873ab973-fd33-41d4-87b5-95e0ecbf81e2)"/><circle cx="5" cy="5" r="1.25" fill="#fff"/><circle cx="11" cy="5" r="1.25" fill="#fff"/><circle cx="17" cy="5" r="1.25" fill="#fff"/><polygon points="37 19 14 28 37 37 60 28 37 19" fill="url(#uuid-fe55dc54-7642-47dd-895d-af936db19d1d)"/><polygon points="37 39.1475 36.271 38.8623 22 33.2783 22 42.7007 37 48.5703 52 42.7007 52 33.2783 37.729 38.8623 37 39.1475" fill="url(#uuid-712e010e-eaff-474d-b24c-612e05e5c25a)"/><rect x="14" y="28" width="2" height="19" fill="url(#uuid-27bb5db2-f853-4ccd-8a3f-0874248cc8dc)"/><circle cx="15" cy="47" r="2" fill="url(#uuid-01f70c22-8145-4630-80e1-3a90588c05b6)"/></g></svg>