<?xml version="1.0" encoding="UTF-8"?><svg id="uuid-1f38f631-7a96-42a0-8085-6bcab6527c35" xmlns="http://www.w3.org/2000/svg" xmlns:xlink="http://www.w3.org/1999/xlink" viewBox="0 0 60 60"><defs><linearGradient id="uuid-27a5499b-120f-4296-b467-5a64609bedaf" x1="24.0858" y1="19.9142" x2="35.9142" y2="8.0858" gradientUnits="userSpaceOnUse"><stop offset="0" stop-color="#a62b9f"/><stop offset="1" stop-color="#59c8fa"/></linearGradient><linearGradient id="uuid-6f9db4d9-a34e-48c7-9100-3712e73aadda" x1="32.6829" y1="55.3104" x2="55.3018" y2="32.6916" xlink:href="#uuid-27a5499b-120f-4296-b467-5a64609bedaf"/></defs><g id="uuid-36cc3b24-d9e4-4544-b025-2188848c8614"><path d="M21,12h18c5.7695-5.04,6-12,6-12H15s.2305,6.96,6,12Z" fill="#203b72"/><path d="M39,12h-18c-1.1045,0-2,.8955-2,2s.8955,2,2,2h18c1.1045,0,2-.8955,2-2s-.8955-2-2-2Z" fill="url(#uuid-27a5499b-120f-4296-b467-5a64609bedaf)"/><path d="M52.209,60h7.791c0-2.4766-.1289-4.8462-.3604-7.1235-1.7304,3.0371-4.3164,5.519-7.4306,7.1235Z" fill="#203b72"/><path d="M39,16h-18C10.1582,23.1719,0,37.4053,0,60h35.791c-5.8047-2.9907-9.791-9.0327-9.791-16,0-9.9253,8.0752-18,18-18,2.2891,0,4.4707.4463,6.4863,1.2285-3.3906-4.7973-7.3886-8.5181-11.4863-11.2285Z" fill="#203b72"/><path d="M52.6152,30.5317c-2.4882-1.5952-5.4394-2.5317-8.6152-2.5317-8.8369,0-16,7.1636-16,16s7.1631,16,16,16c7.043,0,13.0088-4.5562,15.1475-10.877.5439-1.6103.8525-3.3291.8525-5.123,0-5.6611-2.9482-10.624-7.3848-13.4683Z" fill="url(#uuid-6f9db4d9-a34e-48c7-9100-3712e73aadda)"/><path d="M49,45c-2.2061,0-4,1.7944-4,4s1.7939,4,4,4,4-1.7944,4-4-1.7939-4-4-4ZM49,51c-1.1025,0-2-.897-2-2s.8975-2,2-2,2,.897,2,2-.8975,2-2,2Z" fill="#fff"/><path d="M39,35c-2.2061,0-4,1.7944-4,4s1.7939,4,4,4,4-1.7944,4-4-1.7939-4-4-4ZM39,41c-1.1025,0-2-.897-2-2s.8975-2,2-2,2,.897,2,2-.8975,2-2,2Z" fill="#fff"/><path d="M50.793,35.793l-15,15c-.3907.3906-.3907,1.0234,0,1.414.1953.1953.4511.293.707.293s.5117-.0977.707-.293l15-15c.3907-.3906.3907-1.0234,0-1.414-.3906-.3907-1.0234-.3907-1.414,0Z" fill="#fff"/></g></svg>