<?xml version="1.0" encoding="UTF-8"?><svg id="uuid-7fb3bc70-b830-4eeb-b99a-e5eda7d8f58f" xmlns="http://www.w3.org/2000/svg" xmlns:xlink="http://www.w3.org/1999/xlink" viewBox="0 0 60 60"><defs><linearGradient id="uuid-ff3267f0-3ba8-4c9b-aebb-aac90d19eff6" x1="22.5148" y1="38.4852" x2="39.4852" y2="21.5148" gradientUnits="userSpaceOnUse"><stop offset="0" stop-color="#a62b9f"/><stop offset="1" stop-color="#59c8fa"/></linearGradient></defs><g id="uuid-e58c5c64-13fe-4ade-99f9-1e8e45789070"><path d="M15,0v16h10v-6C25,4.4775,20.5229,0,15,0Z" fill="#203b72"/><rect y="22" width="10" height="16" rx="2" ry="2" fill="#203b72"/><path d="M13.4287,46.3408c1.7012,1.8272,2.5713,4.2783,2.5713,6.7754v4.8838c0,1.1045.8955,2,2,2h6c1.1045,0,2-.8955,2-2v-4.5254c1.6133.3418,3.2852.5254,5,.5254s3.3867-.1836,5-.5254v4.5254c0,1.1045.8955,2,2,2h6c1.1045,0,2-.8955,2-2v-4.8838c0-2.4971.8701-4.9482,2.5713-6.7754,3.9873-4.2842,6.4287-10.0263,6.4287-16.3408H7c0,6.3145,2.4414,12.0566,6.4287,16.3408Z" fill="#203b72"/><path d="M31,6c-13.2549,0-24,10.7451-24,24h48c0-13.2549-10.7451-24-24-24Z" fill="#203b72"/><circle cx="15" cy="20" r="1.5" fill="#fff"/><path d="M55,29c-.5522,0-1,.4473-1,1s.4478,1,1,1c1.6543,0,3,1.3457,3,3,0,.5527.4478,1,1,1s1-.4473,1-1c0-2.7568-2.2432-5-5-5Z" fill="#203b72"/><circle cx="31" cy="30" r="14" fill="#fff"/><circle cx="31" cy="30" r="12" fill="url(#uuid-ff3267f0-3ba8-4c9b-aebb-aac90d19eff6)"/><path d="M33.021,23.2061h-1.021v-1.2061c0-.5527-.4478-1-1-1s-1,.4473-1,1v1.2061h-1.021c-1.4463,0-2.6226,1.1767-2.6226,2.623v2.5479c0,1.4462,1.1763,2.623,2.6226,2.623h4.042c.3433,0,.6226.2793.6226.623v2.5479c0,.3437-.2793.623-.6226.623h-4.042c-.3433,0-.6226-.2793-.6226-.623,0-.5527-.4477-1-1-1s-1,.4473-1,1v.0176c0,.0097,0,.0185.0005.0283.0244,1.4258,1.1914,2.5771,2.6221,2.5771h1.021v1.2061c0,.5527.4478,1,1,1s1-.4473,1-1v-1.2061h1.021c1.4463,0,2.6226-1.1767,2.6226-2.623v-2.5479c0-1.4462-1.1763-2.623-2.6226-2.623h-4.042c-.3433,0-.6226-.2793-.6226-.623v-2.5479c0-.3437.2793-.623.6226-.623h4.042c.3433,0,.6226.2793.6226.623,0,.5527.4477,1,1,1s1-.4473,1-1v-.0176c0-.0097,0-.0185-.0005-.0283-.0244-1.4258-1.1914-2.5771-2.6221-2.5771Z" fill="#fff"/></g></svg>