<?xml version="1.0" encoding="UTF-8"?><svg id="uuid-817da370-5862-42da-88a8-66a88b39eca7" xmlns="http://www.w3.org/2000/svg" xmlns:xlink="http://www.w3.org/1999/xlink" viewBox="0 0 60 60"><defs><linearGradient id="uuid-621933a9-86a0-4e34-9097-d6b42aea8ac5" x1="20.1003" y1="55.8996" x2="39.8996" y2="36.1004" gradientUnits="userSpaceOnUse"><stop offset="0" stop-color="#a62b9f"/><stop offset="1" stop-color="#59c8fa"/></linearGradient></defs><g id="uuid-9f130296-46a1-4276-95bf-94c90f9967d3"><polygon points="0 24 24 24 12 6 0 24" fill="#203b72"/><polygon points="36 18 60 18 48 0 36 18" fill="#203b72"/><path d="M6,60h12v-1.96c-3.0879-3.0781-5-7.3359-5-12.04s1.9121-8.9619,5-12.04v-9.96H6v36Z" fill="#203b72"/><path d="M42,33.96c3.0879,3.0781,5,7.3359,5,12.04s-1.9121,8.9619-5,12.04v1.96h12V18h-12v15.96Z" fill="#203b72"/><circle cx="30" cy="46" r="14" fill="url(#uuid-621933a9-86a0-4e34-9097-d6b42aea8ac5)"/><path d="M32.3994,38.1191h-1.3994v-1.6191c0-.5527-.4473-1-1-1s-1,.4473-1,1v1.6191h-1.3994c-1.6143,0-2.9277,1.3135-2.9277,2.9278v3.0263c0,1.6143,1.3134,2.9268,2.9277,2.9268h4.7988c.5117,0,.9277.416.9277.9268v3.0263c0,.5117-.416.9278-.9277.9278h-4.7988c-.5117,0-.9277-.4161-.9277-.9278,0-.5527-.4473-1-1-1s-1,.4473-1,1v.0518c.0283,1.5908,1.331,2.876,2.9277,2.876h1.3994v1.6191c0,.5527.4473,1,1,1s1-.4473,1-1v-1.6191h1.3994c1.6143,0,2.9277-1.3135,2.9277-2.9278v-3.0263c0-1.6143-1.3134-2.9268-2.9277-2.9268h-4.7988c-.5117,0-.9277-.416-.9277-.9268v-3.0263c0-.5117.416-.9278.9277-.9278h4.7988c.5117,0,.9277.4161.9277.9278v.0019c.001.5508.4483.9981,1,.9981.5528,0,1-.4473,1-1v-.0518c-.0283-1.5908-1.331-2.876-2.9277-2.876Z" fill="#fff"/></g></svg>