<svg xmlns="http://www.w3.org/2000/svg" viewBox="0 0 60 60"><defs><style>.cls-1{fill:#203b72;}.cls-2{fill:#1ea7d3;}.cls-3{fill:#fff;}</style></defs><g id="Слой_2" data-name="Слой 2"><g id="Layer_1" data-name="Layer 1"><circle class="cls-1" cx="17" cy="3" r="3"/><rect class="cls-1" x="15.5" y="2" width="3" height="20"/><circle class="cls-1" cx="43" cy="3" r="3"/><rect class="cls-1" x="41.5" y="2" width="3" height="20"/><rect class="cls-2" x="6" y="10" width="48" height="50" rx="10"/><rect class="cls-1" x="11" y="20" width="38" height="20" rx="6"/><path class="cls-3" d="M34,53H26a6,6,0,0,1-6-6H40A6,6,0,0,1,34,53Z"/><path class="cls-1" d="M54,38h0V22h0a6,6,0,0,1,6,6v4A6,6,0,0,1,54,38Z"/><path class="cls-1" d="M6,38H6a6,6,0,0,1-6-6V28a6,6,0,0,1,6-6H6Z"/><circle class="cls-3" cx="39" cy="30" r="4"/><circle class="cls-3" cx="21" cy="30" r="4"/></g></g></svg>