<?xml version="1.0" encoding="UTF-8"?><svg id="uuid-d0d97385-6c4a-47b9-ab49-5249de1f29fc" xmlns="http://www.w3.org/2000/svg" xmlns:xlink="http://www.w3.org/1999/xlink" viewBox="0 0 60 60"><defs><linearGradient id="uuid-69119fb4-68ad-4fc3-af94-352f8755cd6d" x1="8.4291" y1="56.5709" x2="51.5709" y2="13.4291" gradientUnits="userSpaceOnUse"><stop offset="0" stop-color="#a62b9f"/><stop offset="1" stop-color="#59c8fa"/></linearGradient></defs><g id="uuid-5f8a17ed-6e26-49a1-bf4c-a518a10cf8a4"><circle cx="17" cy="3" r="3" fill="#092b49"/><rect x="15.5" y="2" width="3" height="20" fill="#092b49"/><circle cx="43" cy="3" r="3" fill="#092b49"/><rect x="41.5" y="2" width="3" height="20" fill="#092b49"/><rect x="6" y="10" width="48" height="50" rx="10" ry="10" fill="url(#uuid-69119fb4-68ad-4fc3-af94-352f8755cd6d)"/><rect x="11" y="20" width="38" height="20" rx="6" ry="6" fill="#092b49"/><path d="M34,53h-8c-3.3135,0-6-2.6865-6-6h20c0,3.3135-2.6865,6-6,6Z" fill="#fff"/><path d="M54,38h0v-16h0c3.3135,0,6,2.6865,6,6v4c0,3.3135-2.6865,6-6,6Z" fill="#092b49"/><path d="M6,38h0c-3.3135,0-6-2.6865-6-6v-4c0-3.3135,2.6865-6,6-6h0v16Z" fill="#092b49"/><circle cx="39" cy="30" r="4" fill="#fff"/><circle cx="21" cy="30" r="4" fill="#fff"/></g></svg>