<svg xmlns="http://www.w3.org/2000/svg" viewBox="0 0 46 60"><defs><style>.cls-1{fill:#203b72;}.cls-2{fill:#1ea7d3;}.cls-3{fill:#fff;}</style></defs><g id="Слой_2" data-name="Слой 2"><g id="Layer_1" data-name="Layer 1"><circle class="cls-1" cx="23" cy="23" r="23"/><path class="cls-2" d="M34,60H12a2,2,0,0,1-2-2h0a2,2,0,0,1,2-2H34a2,2,0,0,1,2,2h0A2,2,0,0,1,34,60Z"/><path class="cls-2" d="M34,54H12a2,2,0,0,1-2-2h0a2,2,0,0,1,2-2H34a2,2,0,0,1,2,2h0A2,2,0,0,1,34,54Z"/><rect class="cls-1" x="10" y="26.26" width="26" height="21.74" rx="2"/><path class="cls-3" d="M37,21.5H34a1,1,0,0,1,0-2h3a1,1,0,0,1,0,2Z"/><path class="cls-3" d="M37,26.5H34a1,1,0,0,1,0-2h3a1,1,0,0,1,0,2Z"/><path class="cls-3" d="M37,31.5H34a1,1,0,0,1,0-2h3a1,1,0,0,1,0,2Z"/><path class="cls-3" d="M37,16.5H34a1,1,0,0,1,0-2h3a1,1,0,0,1,0,2Z"/><path class="cls-3" d="M12,21.5H9a1,1,0,0,1,0-2h3a1,1,0,0,1,0,2Z"/><path class="cls-3" d="M12,26.5H9a1,1,0,0,1,0-2h3a1,1,0,0,1,0,2Z"/><path class="cls-3" d="M12,31.5H9a1,1,0,0,1,0-2h3a1,1,0,0,1,0,2Z"/><path class="cls-3" d="M12,16.5H9a1,1,0,0,1,0-2h3a1,1,0,0,1,0,2Z"/><path class="cls-3" d="M20.5,13a1,1,0,0,1-1-1V9a1,1,0,0,1,2,0v3A1,1,0,0,1,20.5,13Z"/><path class="cls-3" d="M25.5,13a1,1,0,0,1-1-1V9a1,1,0,0,1,2,0v3A1,1,0,0,1,25.5,13Z"/><path class="cls-3" d="M30.5,13a1,1,0,0,1-1-1V9a1,1,0,0,1,2,0v3A1,1,0,0,1,30.5,13Z"/><path class="cls-3" d="M15.5,13a1,1,0,0,1-1-1V9a1,1,0,0,1,2,0v3A1,1,0,0,1,15.5,13Z"/><path class="cls-3" d="M20.5,38a1,1,0,0,1-1-1V34a1,1,0,0,1,2,0v3A1,1,0,0,1,20.5,38Z"/><path class="cls-3" d="M25.5,38a1,1,0,0,1-1-1V34a1,1,0,0,1,2,0v3A1,1,0,0,1,25.5,38Z"/><path class="cls-3" d="M30.5,38a1,1,0,0,1-1-1V34a1,1,0,0,1,2,0v3A1,1,0,0,1,30.5,38Z"/><path class="cls-3" d="M15.5,38a1,1,0,0,1-1-1V34a1,1,0,0,1,2,0v3A1,1,0,0,1,15.5,38Z"/><rect class="cls-2" x="12" y="12" width="22" height="22" rx="2"/><path class="cls-3" d="M26,30H17a1,1,0,0,1-1-1V17a1,1,0,0,1,1-1H29a1,1,0,0,1,1,1v9Z"/></g></g></svg>