<?xml version="1.0" encoding="UTF-8"?><svg id="uuid-c6c4ec31-23fb-4f14-bf1b-1c6217881cb5" xmlns="http://www.w3.org/2000/svg" xmlns:xlink="http://www.w3.org/1999/xlink" viewBox="0 0 46 60"><defs><linearGradient id="uuid-98d6fff3-ffc1-41aa-bcc7-57e9cedf67d8" x1="16.0858" y1="64.9142" x2="29.9142" y2="51.0858" gradientUnits="userSpaceOnUse"><stop offset="0" stop-color="#a62b9f"/><stop offset="1" stop-color="#59c8fa"/></linearGradient><linearGradient id="uuid-b523aa9f-b835-441a-95d3-22dccaf06353" y1="58.9142" y2="45.0858" xlink:href="#uuid-98d6fff3-ffc1-41aa-bcc7-57e9cedf67d8"/><linearGradient id="uuid-1156dd88-951a-4355-aaa7-a0e22ee8eebd" x1="12.5858" y1="33.4142" x2="33.4142" y2="12.5858" xlink:href="#uuid-98d6fff3-ffc1-41aa-bcc7-57e9cedf67d8"/></defs><g id="uuid-1987e9b5-1245-4223-bcc2-8baea2bc6d08"><circle cx="23" cy="23" r="23" fill="#092b49"/><path d="M34,60H12c-1.1045,0-2-.8955-2-2h0c0-1.1045.8955-2,2-2h22c1.1045,0,2,.8955,2,2h0c0,1.1045-.8955,2-2,2Z" fill="url(#uuid-98d6fff3-ffc1-41aa-bcc7-57e9cedf67d8)"/><path d="M34,54H12c-1.1045,0-2-.8955-2-2h0c0-1.1045.8955-2,2-2h22c1.1045,0,2,.8955,2,2h0c0,1.1045-.8955,2-2,2Z" fill="url(#uuid-b523aa9f-b835-441a-95d3-22dccaf06353)"/><rect x="10" y="26.2578" width="26" height="21.7422" rx="2" ry="2" fill="#092b49"/><path d="M37,21.5h-3c-.5527,0-1-.4473-1-1s.4473-1,1-1h3c.5527,0,1,.4473,1,1s-.4473,1-1,1Z" fill="#fff"/><path d="M37,26.5h-3c-.5527,0-1-.4473-1-1s.4473-1,1-1h3c.5527,0,1,.4473,1,1s-.4473,1-1,1Z" fill="#fff"/><path d="M37,31.5h-3c-.5527,0-1-.4473-1-1s.4473-1,1-1h3c.5527,0,1,.4473,1,1s-.4473,1-1,1Z" fill="#fff"/><path d="M37,16.5h-3c-.5527,0-1-.4473-1-1s.4473-1,1-1h3c.5527,0,1,.4473,1,1s-.4473,1-1,1Z" fill="#fff"/><path d="M12,21.5h-3c-.5527,0-1-.4473-1-1s.4473-1,1-1h3c.5527,0,1,.4473,1,1s-.4473,1-1,1Z" fill="#fff"/><path d="M12,26.5h-3c-.5527,0-1-.4473-1-1s.4473-1,1-1h3c.5527,0,1,.4473,1,1s-.4473,1-1,1Z" fill="#fff"/><path d="M12,31.5h-3c-.5527,0-1-.4473-1-1s.4473-1,1-1h3c.5527,0,1,.4473,1,1s-.4473,1-1,1Z" fill="#fff"/><path d="M12,16.5h-3c-.5527,0-1-.4473-1-1s.4473-1,1-1h3c.5527,0,1,.4473,1,1s-.4473,1-1,1Z" fill="#fff"/><path d="M20.5,13c-.5527,0-1-.4473-1-1v-3c0-.5527.4473-1,1-1s1,.4473,1,1v3c0,.5527-.4473,1-1,1Z" fill="#fff"/><path d="M25.5,13c-.5527,0-1-.4473-1-1v-3c0-.5527.4473-1,1-1s1,.4473,1,1v3c0,.5527-.4473,1-1,1Z" fill="#fff"/><path d="M30.5,13c-.5527,0-1-.4473-1-1v-3c0-.5527.4473-1,1-1s1,.4473,1,1v3c0,.5527-.4473,1-1,1Z" fill="#fff"/><path d="M15.5,13c-.5527,0-1-.4473-1-1v-3c0-.5527.4473-1,1-1s1,.4473,1,1v3c0,.5527-.4473,1-1,1Z" fill="#fff"/><path d="M20.5,38c-.5527,0-1-.4473-1-1v-3c0-.5527.4473-1,1-1s1,.4473,1,1v3c0,.5527-.4473,1-1,1Z" fill="#fff"/><path d="M25.5,38c-.5527,0-1-.4473-1-1v-3c0-.5527.4473-1,1-1s1,.4473,1,1v3c0,.5527-.4473,1-1,1Z" fill="#fff"/><path d="M30.5,38c-.5527,0-1-.4473-1-1v-3c0-.5527.4473-1,1-1s1,.4473,1,1v3c0,.5527-.4473,1-1,1Z" fill="#fff"/><path d="M15.5,38c-.5527,0-1-.4473-1-1v-3c0-.5527.4473-1,1-1s1,.4473,1,1v3c0,.5527-.4473,1-1,1Z" fill="#fff"/><rect x="12" y="12" width="22" height="22" rx="2" ry="2" fill="url(#uuid-1156dd88-951a-4355-aaa7-a0e22ee8eebd)"/><path d="M26,30h-9c-.5527,0-1-.4473-1-1v-12c0-.5527.4473-1,1-1h12c.5527,0,1,.4473,1,1v9c-1.5625,1.5625-2.4375,2.4375-4,4Z" fill="#fff"/></g></svg>