<?xml version="1.0" encoding="UTF-8"?><svg id="uuid-aabab7a2-7fb7-4902-93d8-a635bda203df" xmlns="http://www.w3.org/2000/svg" xmlns:xlink="http://www.w3.org/1999/xlink" viewBox="0 0 60.1367 60"><defs><linearGradient id="uuid-139a6dd4-b611-4789-a859-2bd8bd2139b5" x1="13.076" y1="22.9394" x2="47.1975" y2="-11.1821" gradientUnits="userSpaceOnUse"><stop offset="0" stop-color="#a62b9f"/><stop offset="1" stop-color="#59c8fa"/></linearGradient></defs><g id="uuid-6bf57ec9-f485-4bed-8ae4-9977f8c38e53"><path d="M0,12h60v45c0,1.6557-1.3443,3-3,3H3c-1.6557,0-3-1.3443-3-3V12h0Z" fill="#002b49"/><rect x="4.5" y="27" width="7" height="7" rx="1" ry="1" fill="#fff"/><rect x="4.5" y="38" width="7" height="7" rx="1" ry="1" fill="#fff"/><rect x="4.5" y="49" width="7" height="7" rx="1" ry="1" fill="#fff"/><rect x="15.5" y="27" width="7" height="7" rx="1" ry="1" fill="#fff"/><rect x="15.5" y="38" width="7" height="7" rx="1" ry="1" fill="#fff"/><rect x="15.5" y="49" width="7" height="7" rx="1" ry="1" fill="#fff"/><rect x="26.5" y="27" width="7" height="7" rx="1" ry="1" fill="#fff"/><rect x="26.5" y="38" width="7" height="7" rx="1" ry="1" fill="#fff"/><rect x="26.5" y="49" width="7" height="7" rx="1" ry="1" fill="#fff"/><rect x="37.5" y="16" width="7" height="7" rx="1" ry="1" fill="#fff"/><rect x="37.5" y="27" width="7" height="7" rx="1" ry="1" fill="#fff"/><rect x="37.5" y="38" width="7" height="7" rx="1" ry="1" fill="#fff"/><rect x="48.5" y="16" width="7" height="7" rx="1" ry="1" fill="#fff"/><rect x="48.5" y="27" width="7" height="7" rx="1" ry="1" fill="#fff"/><rect x="48.5" y="38" width="7" height="7" rx="1" ry="1" fill="#fff"/><path d="M3.1367,0h54c1.6557,0,3,1.3443,3,3v7H.1367V3C.1367,1.3443,1.4809,0,3.1367,0Z" fill="url(#uuid-139a6dd4-b611-4789-a859-2bd8bd2139b5)"/><circle cx="5.1367" cy="5" r="1.25" fill="#fff"/><circle cx="11.1367" cy="5" r="1.25" fill="#fff"/><circle cx="17.1367" cy="5" r="1.25" fill="#fff"/></g></svg>