<?xml version="1.0" encoding="UTF-8"?><svg id="uuid-947a9e99-e0e3-4e35-83df-43caae3eab4d" xmlns="http://www.w3.org/2000/svg" xmlns:xlink="http://www.w3.org/1999/xlink" viewBox="0 0 60.0001 50"><defs><linearGradient id="uuid-f5560897-3613-4bc3-b522-4579bdae4e32" x1="22.565" y1="32.4349" x2="49.4349" y2="5.5651" gradientUnits="userSpaceOnUse"><stop offset="0" stop-color="#a62b9f"/><stop offset="1" stop-color="#59c8fa"/></linearGradient><linearGradient id="uuid-b8a01883-1c27-4147-93ea-069c076c62c3" x1="-1.2153" y1="44.7153" x2="12.2153" y2="31.2847" xlink:href="#uuid-f5560897-3613-4bc3-b522-4579bdae4e32"/></defs><g id="uuid-9f3bae07-93db-4a8d-a3f6-afc354223510"><circle cx="36" cy="19" r="19" fill="url(#uuid-f5560897-3613-4bc3-b522-4579bdae4e32)"/><path d="M38.9053,28.5791h-5.8106c-1.9541,0-3.5478-1.5737-3.581-3.521-.001-.0122-.001-.0244-.001-.0366v-.0254c0-.6904.5596-1.25,1.25-1.25s1.25.5596,1.25,1.25c0,.5972.4853,1.083,1.082,1.083h5.8106c.5967,0,1.082-.4858,1.082-1.083v-3.6631c0-.5972-.4853-1.083-1.082-1.083h-5.8106c-1.9756,0-3.582-1.6074-3.582-3.583v-3.6631c0-1.9756,1.6064-3.583,3.582-3.583h5.8106c1.9541,0,3.5478,1.5737,3.581,3.521.001.0122.001.0244.001.0366v.0254c0,.6904-.5596,1.25-1.25,1.25s-1.25-.5596-1.25-1.25c0-.5972-.4853-1.083-1.082-1.083h-5.8106c-.5967,0-1.082.4858-1.082,1.083v3.6631c0,.5972.4853,1.083,1.082,1.083h5.8106c1.9756,0,3.582,1.6074,3.582,3.583v3.6631c0,1.9756-1.6064,3.583-3.582,3.583Z" fill="#fff"/><path d="M36,11.9209c-.6904,0-1.25-.5596-1.25-1.25v-3.1709c0-.6904.5596-1.25,1.25-1.25s1.25.5596,1.25,1.25v3.1709c0,.6904-.5596,1.25-1.25,1.25Z" fill="#fff"/><path d="M36,31.75c-.6904,0-1.25-.5596-1.25-1.25v-3.1709c0-.6904.5596-1.25,1.25-1.25s1.25.5596,1.25,1.25v3.1709c0,.6904-.5596,1.25-1.25,1.25Z" fill="#fff"/><path d="M59.793,36.3364c-.5801-1.4629-2.21-2.2065-3.6944-1.6943l-16.3593,5.6553c-.7696,1.8222-2.5245,2.9965-4.5098,2.9965-.6172,0-1.2256-.1157-1.8037-.3452l-11.8242-4.6845c-.503-.1997-.7491-.7686-.5498-1.2705.2002-.504.7705-.7481,1.2734-.5499l7.0215,2.7823,4.8008,1.9023c.1757.0698.3554.1211.5361.1553.1797.0342.3623.0517.5459.0517.1475,0,.293-.0112.4355-.0322.7139-.1074,1.3741-.4756,1.8389-1.0429.002-.0015.0029-.003.0039-.0044.0762-.0923.1426-.1939.207-.2964.0157-.0249.0352-.0469.0498-.0718.0752-.1289.1426-.2651.1993-.4082.4863-1.2251.0761-2.5776-.9034-3.3633-.2226-.1792-.4667-.3389-.747-.4497l-12.5186-4.96c-.1377-.0546-.2812-.0903-.4258-.1235-.2158-.0498-.4345-.083-.6572-.083h-11.7119v15l21.0898,4.2656c2.3028.4839,4.7002.2144,6.8379-.7695l19.334-8.897c1.4356-.6435,2.1104-2.3012,1.5313-3.7627Z" fill="#002b49"/><rect y="29.5" width="11" height="17" rx=".9717" ry=".9717" fill="url(#uuid-b8a01883-1c27-4147-93ea-069c076c62c3)"/><circle cx="5.5" cy="35" r="1.5" fill="#fff"/></g></svg>