<?xml version="1.0" encoding="UTF-8"?><svg id="uuid-d4d5cd48-1ae1-4079-86e0-3fb8c8c8c681" xmlns="http://www.w3.org/2000/svg" xmlns:xlink="http://www.w3.org/1999/xlink" viewBox="0 0 55.0001 60.0003"><defs><linearGradient id="uuid-3ed25e16-ec8f-460b-9f9f-8a16cfe695e0" x1="17.7218" y1="26.7785" x2="33.2783" y2="11.222" gradientUnits="userSpaceOnUse"><stop offset="0" stop-color="#a62b9f"/><stop offset="1" stop-color="#59c8fa"/></linearGradient></defs><g id="uuid-808ec80f-09e3-4e2a-af1b-3d1f9f1b35be"><path d="M49.1836,7.8714c-3.3731-3.8262-7.8682-6.377-12.8701-7.3809C22.0498-2.3708,9.4297,7.6526,7.9941,21.0237c-.1933,1.793-.6816,3.545-1.5449,5.128L0,37.9759l5.7236,2.289c.4981.2002.8243.6807.8243,1.2168v7.0899c0,1.3808,1.1191,2.5,2.5,2.5h6.7851c1.3809,0,2.5,1.1191,2.5,2.5v3.9287c0,1.3809,1.1191,2.5,2.5,2.5h25.1191c1.3809,0,2.5-1.1191,2.5-2.5v-4.7461c0-6.1484,1.2042-12.2969,3.9874-17.7803,1.7402-3.4248,2.5683-7.3662,2.5605-11.4023-.0107-5.4004-1.6445-10.9697-5.8164-15.7002Z" fill="#002b49"/><path d="M36.29,21.8069l-1.7636-1.0146c-.1514-.0879-.2295-.2588-.2022-.4316.1406-.9131.1338-1.8291-.0049-2.7188-.0263-.1728.0518-.3437.2032-.4316l1.7675-1.0176c.1827-.1045.2588-.3291.1778-.5235l-.8565-2.0693c-.081-.1943-.2929-.2988-.497-.2441l-1.9688.5302c-.1689.045-.3457-.0205-.4482-.1621-.5313-.7265-1.1739-1.3789-1.92-1.9248-.1406-.1035-.207-.2793-.1621-.4482l.5293-1.9649c.0547-.2031-.0498-.416-.2441-.497l-2.0693-.8565c-.1944-.081-.419-.0049-.5245.1778l-1.0146,1.7636c-.0869.1514-.2588.2295-.4316.2022-.9131-.1406-1.8291-.1338-2.7188.0049-.1728.0263-.3437-.0518-.4316-.2032l-1.0176-1.7675c-.1045-.1827-.3291-.2588-.5235-.1778l-2.0683.8565c-.1953.081-.2998.2929-.2451.497l.5302,1.9688c.045.1689-.0205.3457-.1621.4482-.7265.5313-1.3789,1.1739-1.9248,1.92-.1035.1406-.2793.207-.4482.1621l-1.9649-.5293c-.2031-.0547-.416.0498-.497.2441l-.8565,2.0693c-.081.1944-.0049.419.1778.5245l1.7636,1.0146c.1514.0869.2295.2588.2022.4316-.1406.9131-.1338,1.8292.0039,2.7188.0273.1729-.0508.3437-.2022.4316l-1.7675,1.0176c-.1827.1045-.2588.3291-.1778.5235l.8565,2.0683c.081.1953.2929.2998.497.2451l1.9688-.5302c.1689-.045.3457.0205.4482.1621.5313.7265,1.1739,1.3789,1.92,1.9248.1406.1035.207.2793.1621.4482l-.5293,1.9649c-.0547.2031.0498.416.2441.497l2.0693.8565c.1944.081.419.0049.5245-.1778l1.0146-1.7636c.0879-.1514.2588-.2295.4316-.2022.9141.1406,1.8292.1338,2.7188-.0049.1729-.0263.3437.0518.4316.2032l1.0176,1.7675c.1045.1827.3291.2588.5235.1778l2.0693-.8565c.1943-.081.2988-.2929.2441-.497l-.5302-1.9688c-.045-.1689.0205-.3457.1621-.4482.7265-.5313,1.3789-1.1739,1.9248-1.92.1035-.1406.2793-.207.4482-.1621l1.9649.5293c.2031.0547.416-.0498.497-.2441l.8565-2.0693c.081-.1944.0049-.419-.1778-.5245ZM25.5,23.4007c-2.4297,0-4.4004-1.9707-4.4004-4.4004s1.9707-4.4004,4.4004-4.4004,4.4004,1.9707,4.4004,4.4004-1.9707,4.4004-4.4004,4.4004Z" fill="url(#uuid-3ed25e16-ec8f-460b-9f9f-8a16cfe695e0)"/><path d="M47.5,32.2151c0-.1474-.1094-.2724-.2559-.2919l-1.415-.1846c-.1221-.0156-.2178-.1065-.2471-.2246-.1543-.6299-.4043-1.2217-.7324-1.7608-.0635-.1045-.0596-.2363.0156-.334l.8721-1.1337c.0898-.1172.0791-.2823-.0254-.3868l-1.1103-1.1103c-.1045-.1045-.2705-.1152-.3868-.0254l-1.1337.8721c-.0977.0742-.2295.0791-.334.0156-.5391-.3281-1.1309-.5781-1.7608-.7324-.1191-.0293-.209-.125-.2246-.2471l-.1846-1.415c-.0195-.1465-.1445-.2559-.2919-.2559h-1.5704c-.1474,0-.2724.1094-.2919.2559l-.1846,1.415c-.0156.1221-.1055.2178-.2246.2471-.6299.1543-1.2217.4043-1.7608.7324-.1045.0635-.2363.0586-.334-.0156l-1.1337-.8721c-.1163-.0898-.2823-.0791-.3868.0254l-1.1103,1.1103c-.1045.1045-.1152.2705-.0254.3868l.8721,1.1337c.0752.0977.0791.2295.0156.334-.3281.5391-.5781,1.1309-.7324,1.7608-.0293.1181-.125.209-.2471.2246l-1.415.1846c-.1465.0195-.2559.1445-.2559.2919v1.5704c0,.1474.1094.2724.2559.2919l1.415.1846c.1221.0156.2178.1055.2471.2246.1543.6299.4043,1.2217.7324,1.7608.0635.1045.0586.2363-.0156.334l-.8721,1.1337c-.0898.1163-.0791.2823.0254.3868l1.1103,1.1103c.1045.1045.2705.1152.3868.0254l1.1337-.8721c.0977-.0752.2295-.0791.334-.0156.5391.3281,1.1309.5781,1.7608.7324.1181.0293.209.125.2246.2471l.1846,1.415c.0195.1465.1445.2559.2919.2559h1.5704c.1474,0,.2724-.1094.2919-.2559l.1846-1.415c.0156-.1221.1055-.2178.2246-.2471.6299-.1543,1.2217-.4043,1.7608-.7324.1045-.0635.2363-.0596.334.0156l1.1337.8721c.1163.0898.2823.0791.3868-.0254l1.1103-1.1103c.1045-.1045.1152-.2705.0254-.3877l-.8721-1.1328c-.0752-.0977-.0791-.2295-.0156-.334.3281-.5391.5781-1.1309.7324-1.7608.0293-.1191.125-.209.2471-.2246l1.415-.1846c.1465-.0195.2559-.1445.2559-.2919v-1.5704ZM40.6221,35.7093c-1.4961.6201-3.2119-.0908-3.8311-1.5869-.6201-1.4961.0908-3.2119,1.5869-3.8311,1.4961-.6201,3.2119.0908,3.8311,1.5869.6201,1.4961-.0908,3.2119-1.5869,3.8311Z" fill="#fff"/></g></svg>