<?xml version="1.0" encoding="UTF-8"?><svg id="uuid-8976a7e6-ce5d-4c0b-947c-8e66297efbf4" xmlns="http://www.w3.org/2000/svg" xmlns:xlink="http://www.w3.org/1999/xlink" viewBox="0 0 48 60"><defs><linearGradient id="uuid-0b4223e2-d04d-4a0e-bcf9-252d127c583f" x1="8.1733" y1="42.2033" x2="39.8269" y2="10.5496" gradientUnits="userSpaceOnUse"><stop offset="0" stop-color="#a62b9f"/><stop offset="1" stop-color="#59c8fa"/></linearGradient></defs><g id="uuid-8e11e234-802c-44e6-b274-88d04c623656"><path d="M0,8.3965v27.2305c0,14.999,24,24.373,24,24.373,0,0,24-9.374,24-24.375V8.3965L24,0,0,8.3965Z" fill="#203b72"/><path d="M6,12.7227v23.0097c0,6.8897,9.4648,13.8604,17.5693,17.7373l.4317.2061.4316-.2061c8.1035-3.8759,17.5674-10.8476,17.5674-17.7392V12.7227l-18-6.3506L6,12.7227Z" fill="url(#uuid-0b4223e2-d04d-4a0e-bcf9-252d127c583f)"/><path d="M24.665,5.5469l-.665-.2354-.665.2354L6.335,11.5439l-1.335.4707v23.7178c0,9.4824,15.1084,17.1905,18.1377,18.6387l.8623.4131.8633-.4121c3.0293-1.4492,18.1367-9.1543,18.1367-18.6416V12.0146l-1.335-.4707-17-5.997ZM41,35.7305c0,6.7978-10.2422,13.6054-16.999,16.8369-6.7647-3.2354-17.001-10.041-17.001-16.835V13.4307l17-5.9981,17,5.9981v22.2998Z" fill="#fff"/><rect x="23" y="5.8945" width="2" height="48" fill="#fff"/><rect x="5" y="28" width="38" height="2" fill="#fff"/></g></svg>