<?xml version="1.0" encoding="UTF-8"?><svg id="uuid-8f36e761-5b46-42f2-b6cc-b8e0969d2cc3" xmlns="http://www.w3.org/2000/svg" xmlns:xlink="http://www.w3.org/1999/xlink" viewBox="0 0 44 60"><defs><linearGradient id="uuid-a4997880-22d6-4105-bdfc-d5abf39de405" x1="34" y1="10" x2="39" y2="5" gradientUnits="userSpaceOnUse"><stop offset="0" stop-color="#a62b9f"/><stop offset="1" stop-color="#59c8fa"/></linearGradient></defs><g id="uuid-5a4735d6-7dca-4d3f-bca6-0a86700203ec"><path d="M34,0H0v60h44V10c-3.9053-3.9053-6.0947-6.0947-10-10Z" fill="#203b72"/><polygon points="34 10 44 10 34 0 34 10" fill="url(#uuid-a4997880-22d6-4105-bdfc-d5abf39de405)"/><path d="M24.2734,7.4819h-1.2734v-1.4819c0-.5522-.4473-1-1-1s-1,.4478-1,1v1.4819h-1.2734c-1.5577,0-2.8252,1.2676-2.8252,2.8257v2.8667c0,1.5581,1.2675,2.8257,2.8252,2.8257h4.5468c.4551,0,.8252.3706.8252.8257v2.8667c0,.4551-.3701.8257-.8252.8257h-4.5468c-.4551,0-.8252-.3706-.8252-.8257,0-.5523-.4473-1-1-1s-1,.4477-1,1v.0493c.0273,1.5356,1.2841,2.7764,2.8252,2.7764h1.2734v1.4819c0,.5522.4473,1,1,1s1-.4478,1-1v-1.4819h1.2734c1.5577,0,2.8252-1.2676,2.8252-2.8257v-2.8667c0-1.5581-1.2675-2.8257-2.8252-2.8257h-4.5468c-.4551,0-.8252-.3706-.8252-.8257v-2.8667c0-.4551.3701-.8257.8252-.8257h4.5468c.4551,0,.8252.3706.8252.8257v.0015c.001.5517.4483.9985,1,.9985.5528,0,1-.4477,1-1v-.0493c-.0273-1.5356-1.2841-2.7764-2.8252-2.7764Z" fill="#fff"/><path d="M37,30h-9c-.5527,0-1,.4478-1,1s.4473,1,1,1h9c.5527,0,1-.4478,1-1s-.4473-1-1-1Z" fill="#fff"/><path d="M22,30H7c-.5527,0-1,.4478-1,1s.4473,1,1,1h15c.5527,0,1-.4478,1-1s-.4473-1-1-1Z" fill="#fff"/><path d="M37,36h-15c-.5527,0-1,.4478-1,1s.4473,1,1,1h15c.5527,0,1-.4478,1-1s-.4473-1-1-1Z" fill="#fff"/><path d="M16,36H7c-.5527,0-1,.4478-1,1s.4473,1,1,1h9c.5527,0,1-.4478,1-1s-.4473-1-1-1Z" fill="#fff"/><path d="M37.4043,42.0854c-.5078-.2226-1.0957.0059-1.3193.5108-1.9082,4.3198-5.6807,10.4038-8.0928,10.4038-1.4277,0-2.25-1.0317-3.2022-2.2261-1.0351-1.3003-2.2089-2.7739-4.3105-2.7739-2.0713,0-3.251,1.4712-4.291,2.7695-.959,1.1968-1.7881,2.2305-3.1905,2.2305-1.0839,0-3.8144-1.6416-5.4072-2.8071-.4443-.3242-1.0722-.23-1.3974.2163-.3262.4458-.2295,1.0713.2158,1.3974.7285.5332,4.4678,3.1934,6.5888,3.1934,2.3633,0,3.6875-1.6523,4.751-2.9795,1.0039-1.2529,1.6729-2.0205,2.7305-2.0205,1.082,0,1.749.7676,2.7461,2.02,1.0586,1.3277,2.375,2.98,4.7666,2.98,4.5732,0,9.0683-9.6597,9.9228-11.5962.2227-.5054-.0058-1.0957-.5107-1.3184Z" fill="#fff"/><path d="M27,42H7c-.5527,0-1,.4478-1,1s.4473,1,1,1h20c.5527,0,1-.4478,1-1s-.4473-1-1-1Z" fill="#fff"/></g></svg>