<?xml version="1.0" encoding="UTF-8"?><svg id="uuid-24c68b63-ba9a-4034-829f-88263850ed2f" xmlns="http://www.w3.org/2000/svg" xmlns:xlink="http://www.w3.org/1999/xlink" viewBox="0 0 58.0002 59.9995"><defs><linearGradient id="uuid-5939ecd3-a625-4c0b-bffd-2edfa67a951d" x1="7.0001" y1="62.4995" x2="51.0001" y2="18.4995" gradientUnits="userSpaceOnUse"><stop offset="0" stop-color="#a62b9f"/><stop offset="1" stop-color="#59c8fa"/></linearGradient></defs><g id="uuid-596fd002-b853-4421-a341-69ce98fedf07"><polygon points="55.0001 58.4995 3.0001 58.4995 3.0001 22.4995 29.0001 2.4995 55.0001 22.4995 55.0001 58.4995" fill="url(#uuid-5939ecd3-a625-4c0b-bffd-2edfa67a951d)"/><path d="M57.0001,59.9995H1.0001v-2c0-1.1045.8955-2,2-2h52c1.1045,0,2,.8955,2,2v2Z" fill="#092b49"/><path d="M55.9991,24.9995c-.4297,0-.8623-.1377-1.2265-.4209L29.0001,4.5337,3.2276,24.5786c-.8701.6758-2.1279.5195-2.8066-.3516-.6777-.8711-.5205-2.1279.3516-2.8066L27.7726.4204c.7207-.5605,1.7343-.5605,2.455,0l27,21c.8721.6787,1.0293,1.9355.3516,2.8066-.3945.5069-.9844.7725-1.5801.7725Z" fill="#092b49"/><path d="M44.0001,33.4995h-3c-.5527,0-1-.4473-1-1s.4473-1,1-1h3c.5527,0,1,.4473,1,1s-.4473,1-1,1Z" fill="#fff"/><path d="M44.0001,38.4995h-3c-.5527,0-1-.4473-1-1s.4473-1,1-1h3c.5527,0,1,.4473,1,1s-.4473,1-1,1Z" fill="#fff"/><path d="M44.0001,43.4995h-3c-.5527,0-1-.4473-1-1s.4473-1,1-1h3c.5527,0,1,.4473,1,1s-.4473,1-1,1Z" fill="#fff"/><path d="M44.0001,28.4995h-3c-.5527,0-1-.4473-1-1s.4473-1,1-1h3c.5527,0,1,.4473,1,1s-.4473,1-1,1Z" fill="#fff"/><path d="M17.0001,33.4995h-3c-.5527,0-1-.4473-1-1s.4473-1,1-1h3c.5527,0,1,.4473,1,1s-.4473,1-1,1Z" fill="#fff"/><path d="M17.0001,38.4995h-3c-.5527,0-1-.4473-1-1s.4473-1,1-1h3c.5527,0,1,.4473,1,1s-.4473,1-1,1Z" fill="#fff"/><path d="M17.0001,43.4995h-3c-.5527,0-1-.4473-1-1s.4473-1,1-1h3c.5527,0,1,.4473,1,1s-.4473,1-1,1Z" fill="#fff"/><path d="M17.0001,28.4995h-3c-.5527,0-1-.4473-1-1s.4473-1,1-1h3c.5527,0,1,.4473,1,1s-.4473,1-1,1Z" fill="#fff"/><path d="M26.5001,23.9995c-.5527,0-1-.4473-1-1v-3c0-.5527.4473-1,1-1s1,.4473,1,1v3c0,.5527-.4473,1-1,1Z" fill="#fff"/><path d="M31.5001,23.9995c-.5527,0-1-.4473-1-1v-3c0-.5527.4473-1,1-1s1,.4473,1,1v3c0,.5527-.4473,1-1,1Z" fill="#fff"/><path d="M36.5001,23.9995c-.5527,0-1-.4473-1-1v-3c0-.5527.4473-1,1-1s1,.4473,1,1v3c0,.5527-.4473,1-1,1Z" fill="#fff"/><path d="M21.5001,23.9995c-.5527,0-1-.4473-1-1v-3c0-.5527.4473-1,1-1s1,.4473,1,1v3c0,.5527-.4473,1-1,1Z" fill="#fff"/><path d="M26.5001,50.9995c-.5527,0-1-.4473-1-1v-3c0-.5527.4473-1,1-1s1,.4473,1,1v3c0,.5527-.4473,1-1,1Z" fill="#fff"/><path d="M31.5001,50.9995c-.5527,0-1-.4473-1-1v-3c0-.5527.4473-1,1-1s1,.4473,1,1v3c0,.5527-.4473,1-1,1Z" fill="#fff"/><path d="M36.5001,50.9995c-.5527,0-1-.4473-1-1v-3c0-.5527.4473-1,1-1s1,.4473,1,1v3c0,.5527-.4473,1-1,1Z" fill="#fff"/><path d="M21.5001,50.9995c-.5527,0-1-.4473-1-1v-3c0-.5527.4473-1,1-1s1,.4473,1,1v3c0,.5527-.4473,1-1,1Z" fill="#fff"/><rect x="17.0001" y="22.9995" width="24" height="24" rx="2" ry="2" fill="#092b49"/><path d="M31.0001,41.9995c-.4189,0-.8086-.2646-.9482-.6836l-3.0518-9.1543-3.0518,9.1543c-.1738.5234-.7353.8076-1.2646.6318-.5234-.1738-.8066-.7402-.6318-1.2646l4-12c.1357-.4082.5175-.6836.9482-.6836s.8125.2754.9482.6836l4,12c.1748.5244-.1084,1.0908-.6318,1.2646-.1055.0352-.2119.0518-.3164.0518Z" fill="#fff"/><path d="M35.0001,41.9995c-.5527,0-1-.4473-1-1v-12c0-.5527.4473-1,1-1s1,.4473,1,1v12c0,.5527-.4473,1-1,1Z" fill="#fff"/><path d="M30.0001,38.9995h-6c-.5527,0-1-.4473-1-1s.4473-1,1-1h6c.5527,0,1,.4473,1,1s-.4473,1-1,1Z" fill="#fff"/></g></svg>