<?xml version="1.0" encoding="UTF-8"?><svg id="uuid-57232893-325f-487a-b7d8-2e746553390e" xmlns="http://www.w3.org/2000/svg" xmlns:xlink="http://www.w3.org/1999/xlink" viewBox="0 0 38 60"><defs><linearGradient id="uuid-49a8d285-3aea-4912-a761-079db8b36fa4" x1="10.5148" y1="20.4852" x2="27.4852" y2="3.5148" gradientUnits="userSpaceOnUse"><stop offset="0" stop-color="#a62b9f"/><stop offset="1" stop-color="#59c8fa"/></linearGradient></defs><g id="uuid-01d082c6-83f5-42fe-a39a-943781c94fb5"><path d="M17,25.8408v34.1592h4V25.8408c-.6548.0938-1.3193.1592-2,.1592s-1.3452-.0654-2-.1592Z" fill="#203b72"/><circle cx="19" cy="12" r="12" fill="url(#uuid-49a8d285-3aea-4912-a761-079db8b36fa4)"/><path d="M21.021,5.2061h-1.021v-1.2061c0-.5527-.4478-1-1-1s-1,.4473-1,1v1.2061h-1.021c-1.4463,0-2.6226,1.1767-2.6226,2.623v2.5479c0,1.4462,1.1763,2.623,2.6226,2.623h4.042c.3433,0,.6226.2793.6226.623v2.5479c0,.3437-.2793.623-.6226.623h-4.042c-.3433,0-.6226-.2793-.6226-.623,0-.5527-.4477-1-1-1s-1,.4473-1,1v.0176c0,.0097,0,.0185.0005.0283.0244,1.4258,1.1914,2.5771,2.6221,2.5771h1.021v1.2061c0,.5527.4478,1,1,1s1-.4473,1-1v-1.2061h1.021c1.4463,0,2.6226-1.1767,2.6226-2.623v-2.5479c0-1.4462-1.1763-2.623-2.6226-2.623h-4.042c-.3433,0-.6226-.2793-.6226-.623v-2.5479c0-.3437.2793-.623.6226-.623h4.042c.3433,0,.6226.2793.6226.623,0,.5527.4477,1,1,1s1-.4473,1-1v-.0176c0-.0097,0-.0185-.0005-.0283-.0244-1.4258-1.1914-2.5771-2.6221-2.5771Z" fill="#fff"/><path d="M22,44h6c5.5229,0,10-4.4775,10-10h-6c-5.5229,0-10,4.4775-10,10Z" fill="#203b72"/><path d="M22,60h6c5.5229,0,10-4.4775,10-10h-6c-5.5229,0-10,4.4775-10,10Z" fill="#203b72"/><path d="M6,28H0c0,5.5225,4.4771,10,10,10h6c0-5.5225-4.4771-10-10-10Z" fill="#203b72"/><path d="M6,44H0c0,5.5225,4.4771,10,10,10h6c0-5.5225-4.4771-10-10-10Z" fill="#203b72"/></g></svg>