<svg xmlns="http://www.w3.org/2000/svg" viewBox="0 0 58 60"><defs><style>.cls-1{fill:#1ea7d3;}.cls-2{fill:#203b72;}.cls-3{fill:#fff;}</style></defs><g id="Слой_2" data-name="Слой 2"><g id="Layer_1" data-name="Layer 1"><polygon class="cls-1" points="55 58.5 3 58.5 3 22.5 29 2.5 55 22.5 55 58.5"/><path class="cls-2" d="M57,60H1V58a2,2,0,0,1,2-2H55a2,2,0,0,1,2,2Z"/><path class="cls-2" d="M56,25a2,2,0,0,1-1.23-.42L29,4.53l-25.77,20A2,2,0,1,1,.77,21.42l27-21a2,2,0,0,1,2.46,0l27,21a2,2,0,0,1,.35,2.81A2,2,0,0,1,56,25Z"/><path class="cls-3" d="M44,33.5H41a1,1,0,0,1,0-2h3a1,1,0,0,1,0,2Z"/><path class="cls-3" d="M44,38.5H41a1,1,0,0,1,0-2h3a1,1,0,0,1,0,2Z"/><path class="cls-3" d="M44,43.5H41a1,1,0,0,1,0-2h3a1,1,0,0,1,0,2Z"/><path class="cls-3" d="M44,28.5H41a1,1,0,0,1,0-2h3a1,1,0,0,1,0,2Z"/><path class="cls-3" d="M17,33.5H14a1,1,0,0,1,0-2h3a1,1,0,0,1,0,2Z"/><path class="cls-3" d="M17,38.5H14a1,1,0,0,1,0-2h3a1,1,0,0,1,0,2Z"/><path class="cls-3" d="M17,43.5H14a1,1,0,0,1,0-2h3a1,1,0,0,1,0,2Z"/><path class="cls-3" d="M17,28.5H14a1,1,0,0,1,0-2h3a1,1,0,0,1,0,2Z"/><path class="cls-3" d="M26.5,24a1,1,0,0,1-1-1V20a1,1,0,0,1,2,0v3A1,1,0,0,1,26.5,24Z"/><path class="cls-3" d="M31.5,24a1,1,0,0,1-1-1V20a1,1,0,0,1,2,0v3A1,1,0,0,1,31.5,24Z"/><path class="cls-3" d="M36.5,24a1,1,0,0,1-1-1V20a1,1,0,0,1,2,0v3A1,1,0,0,1,36.5,24Z"/><path class="cls-3" d="M21.5,24a1,1,0,0,1-1-1V20a1,1,0,0,1,2,0v3A1,1,0,0,1,21.5,24Z"/><path class="cls-3" d="M26.5,51a1,1,0,0,1-1-1V47a1,1,0,0,1,2,0v3A1,1,0,0,1,26.5,51Z"/><path class="cls-3" d="M31.5,51a1,1,0,0,1-1-1V47a1,1,0,0,1,2,0v3A1,1,0,0,1,31.5,51Z"/><path class="cls-3" d="M36.5,51a1,1,0,0,1-1-1V47a1,1,0,0,1,2,0v3A1,1,0,0,1,36.5,51Z"/><path class="cls-3" d="M21.5,51a1,1,0,0,1-1-1V47a1,1,0,0,1,2,0v3A1,1,0,0,1,21.5,51Z"/><rect class="cls-2" x="17" y="23" width="24" height="24" rx="2"/><path class="cls-3" d="M31,42a1,1,0,0,1-.95-.68L27,32.16,24,41.32a1,1,0,0,1-1.9-.64l4-12a1,1,0,0,1,1.9,0l4,12A1,1,0,0,1,31.32,42,1.25,1.25,0,0,1,31,42Z"/><path class="cls-3" d="M35,42a1,1,0,0,1-1-1V29a1,1,0,0,1,2,0V41A1,1,0,0,1,35,42Z"/><path class="cls-3" d="M30,39H24a1,1,0,0,1,0-2h6a1,1,0,0,1,0,2Z"/></g></g></svg>