<?xml version="1.0" encoding="UTF-8"?><svg id="uuid-e72e35cf-6a1e-4640-a651-012019679b09" xmlns="http://www.w3.org/2000/svg" xmlns:xlink="http://www.w3.org/1999/xlink" viewBox="0 0 55.0001 60.0003"><defs><linearGradient id="uuid-de350b66-2b95-43a7-adca-a95cca47d69e" x1="21.0858" y1="34.4145" x2="41.9142" y2="13.5861" gradientUnits="userSpaceOnUse"><stop offset="0" stop-color="#a62b9f"/><stop offset="1" stop-color="#59c8fa"/></linearGradient></defs><g id="uuid-4dc02f6f-0bd7-4bba-a3aa-19d321477f82"><path d="M49.1836,7.8714c-3.3735-3.8262-7.8682-6.377-12.8701-7.3809C22.0498-2.3708,9.4302,7.6526,7.9941,21.0237c-.1933,1.793-.6816,3.545-1.5449,5.128L0,37.9759l5.7241,2.289c.4976.2002.8233.6807.8233,1.2168v7.0899c0,1.3808,1.1196,2.5,2.5,2.5h6.7861c1.3804,0,2.5,1.1191,2.5,2.5v3.9287c0,1.3809,1.1191,2.5,2.5,2.5h25.1186c1.3809,0,2.5-1.1191,2.5-2.5v-4.7461c0-6.1484,1.2037-12.2969,3.9874-17.7803,1.7407-3.4248,2.5683-7.3662,2.5605-11.4023-.0103-5.4004-1.6445-10.9697-5.8164-15.7002Z" fill="#002b49"/><path d="M45.5,22.5003h-3c-.5522,0-1-.4473-1-1s.4478-1,1-1h3c.5522,0,1,.4473,1,1s-.4478,1-1,1Z" fill="#fff"/><path d="M45.5,27.5003h-3c-.5522,0-1-.4473-1-1s.4478-1,1-1h3c.5522,0,1,.4473,1,1s-.4478,1-1,1Z" fill="#fff"/><path d="M45.5,32.5003h-3c-.5522,0-1-.4473-1-1s.4478-1,1-1h3c.5522,0,1,.4473,1,1s-.4478,1-1,1Z" fill="#fff"/><path d="M45.5,17.5003h-3c-.5522,0-1-.4473-1-1s.4478-1,1-1h3c.5522,0,1,.4473,1,1s-.4478,1-1,1Z" fill="#fff"/><path d="M20.5,22.5003h-3c-.5522,0-1-.4473-1-1s.4478-1,1-1h3c.5522,0,1,.4473,1,1s-.4478,1-1,1Z" fill="#fff"/><path d="M20.5,27.5003h-3c-.5522,0-1-.4473-1-1s.4478-1,1-1h3c.5522,0,1,.4473,1,1s-.4478,1-1,1Z" fill="#fff"/><path d="M20.5,32.5003h-3c-.5522,0-1-.4473-1-1s.4478-1,1-1h3c.5522,0,1,.4473,1,1s-.4478,1-1,1Z" fill="#fff"/><path d="M20.5,17.5003h-3c-.5522,0-1-.4473-1-1s.4478-1,1-1h3c.5522,0,1,.4473,1,1s-.4478,1-1,1Z" fill="#fff"/><path d="M29,14.0003c-.5522,0-1-.4473-1-1v-3c0-.5527.4478-1,1-1s1,.4473,1,1v3c0,.5527-.4478,1-1,1Z" fill="#fff"/><path d="M34,14.0003c-.5522,0-1-.4473-1-1v-3c0-.5527.4478-1,1-1s1,.4473,1,1v3c0,.5527-.4478,1-1,1Z" fill="#fff"/><path d="M39,14.0003c-.5522,0-1-.4473-1-1v-3c0-.5527.4478-1,1-1s1,.4473,1,1v3c0,.5527-.4478,1-1,1Z" fill="#fff"/><path d="M24,14.0003c-.5522,0-1-.4473-1-1v-3c0-.5527.4478-1,1-1s1,.4473,1,1v3c0,.5527-.4478,1-1,1Z" fill="#fff"/><path d="M29,39.0003c-.5522,0-1-.4473-1-1v-3c0-.5527.4478-1,1-1s1,.4473,1,1v3c0,.5527-.4478,1-1,1Z" fill="#fff"/><path d="M34,39.0003c-.5522,0-1-.4473-1-1v-3c0-.5527.4478-1,1-1s1,.4473,1,1v3c0,.5527-.4478,1-1,1Z" fill="#fff"/><path d="M39,39.0003c-.5522,0-1-.4473-1-1v-3c0-.5527.4478-1,1-1s1,.4473,1,1v3c0,.5527-.4478,1-1,1Z" fill="#fff"/><path d="M24,39.0003c-.5522,0-1-.4473-1-1v-3c0-.5527.4478-1,1-1s1,.4473,1,1v3c0,.5527-.4478,1-1,1Z" fill="#fff"/><rect x="20.5" y="13.0003" width="22" height="22" rx="2" ry="2" fill="url(#uuid-de350b66-2b95-43a7-adca-a95cca47d69e)"/><path d="M34.5,31.0003h-9c-.5522,0-1-.4473-1-1v-12c0-.5527.4478-1,1-1h12c.5522,0,1,.4473,1,1v9c-1.562,1.5625-2.438,2.4375-4,4Z" fill="#fff"/></g></svg>