<?xml version="1.0" encoding="UTF-8"?><svg id="uuid-987a2158-c480-40b7-b7a5-c9dd4a2a666f" xmlns="http://www.w3.org/2000/svg" xmlns:xlink="http://www.w3.org/1999/xlink" viewBox="0 0 60 60"><defs><linearGradient id="uuid-b517bc44-79df-40c6-8028-cea83a817405" x1="14.0859" y1="39.9141" x2="43.9141" y2="10.0859" gradientUnits="userSpaceOnUse"><stop offset="0" stop-color="#a62b9f"/><stop offset="1" stop-color="#59c8fa"/></linearGradient><linearGradient id="uuid-26f3a485-e43d-48f0-bf3e-9029a3ce0191" x1="47.0097" y1="17.9903" x2="52.8711" y2="12.1289" xlink:href="#uuid-b517bc44-79df-40c6-8028-cea83a817405"/><linearGradient id="uuid-ed81a32a-7624-46ac-89cb-1c76b68c61f9" x1="30.4644" y1="34.5356" x2="37.5356" y2="27.4644" xlink:href="#uuid-b517bc44-79df-40c6-8028-cea83a817405"/><linearGradient id="uuid-3c923737-b3d3-4e57-888f-b4215f4ba944" x1="19.4644" y1="23.5356" x2="26.5356" y2="16.4644" xlink:href="#uuid-b517bc44-79df-40c6-8028-cea83a817405"/></defs><g id="uuid-4dbf2b51-cf06-4a0a-a76c-045a219d96d3"><rect width="60" height="50" rx="3" ry="3" fill="#203b72"/><rect x="4" y="4" width="52" height="42" rx="1" ry="1" fill="#fff"/><rect x="22" y="50" width="16" height="6" fill="#203b72"/><path d="M46,56H14c-1.1045,0-2,.8955-2,2s.8955,2,2,2h32c1.1045,0,2-.8955,2-2s-.8955-2-2-2Z" fill="#203b72"/><path d="M46.5859,15.5859l-12.5859,12.586-9.5859-9.586c-.7813-.7812-2.0469-.7812-2.8282,0l-13,13c-.7812.7813-.7812,2.0469,0,2.8282.3907.3906.9024.5859,1.4141.5859s1.0234-.1953,1.4141-.5859l11.5859-11.586,9.5859,9.586c.7813.7812,2.0469.7812,2.8282,0l14-14c.7812-.7813.7812-2.0469,0-2.8282-.7813-.7812-2.0469-.7812-2.8282,0Z" fill="url(#uuid-b517bc44-79df-40c6-8028-cea83a817405)"/><polygon points="50.3945 21.375 52.8711 12.1289 43.625 14.6055 50.3945 21.375" fill="url(#uuid-26f3a485-e43d-48f0-bf3e-9029a3ce0191)"/><circle cx="34" cy="31" r="5" fill="url(#uuid-ed81a32a-7624-46ac-89cb-1c76b68c61f9)"/><circle cx="34" cy="31" r="2" fill="#fff"/><circle cx="23" cy="20" r="5" fill="url(#uuid-3c923737-b3d3-4e57-888f-b4215f4ba944)"/><circle cx="23" cy="20" r="2" fill="#fff"/></g></svg>