<?xml version="1.0" encoding="UTF-8"?><svg id="uuid-e119b1f6-b890-436b-b1d0-449e69f7e7ce" xmlns="http://www.w3.org/2000/svg" xmlns:xlink="http://www.w3.org/1999/xlink" viewBox="0 0 46 60"><defs><linearGradient id="uuid-d37e3ee2-462f-4187-8bc2-7c0160f3fd12" x1="20.8786" y1="56.1214" x2="25.1214" y2="51.8786" gradientUnits="userSpaceOnUse"><stop offset="0" stop-color="#a62b9f"/><stop offset="1" stop-color="#59c8fa"/></linearGradient><linearGradient id="uuid-c456e88d-111e-4d85-b010-ce4550fff2dc" x1="30.0858" y1="55.4142" x2="32.9142" y2="52.5858" xlink:href="#uuid-d37e3ee2-462f-4187-8bc2-7c0160f3fd12"/><linearGradient id="uuid-d27ee96c-12d9-4a30-9c10-3d61b3d5c209" x1="13.5858" y1="55.4142" x2="16.4142" y2="52.5858" xlink:href="#uuid-d37e3ee2-462f-4187-8bc2-7c0160f3fd12"/><linearGradient id="uuid-819e3606-b1ca-4f90-a3b9-3106ad973a1b" x1="37.5858" y1="55.4142" x2="40.4142" y2="52.5858" xlink:href="#uuid-d37e3ee2-462f-4187-8bc2-7c0160f3fd12"/><linearGradient id="uuid-20ddb695-4c63-4e5b-92fc-addf57414c7b" x1="6.5858" y1="55.4142" x2="9.4142" y2="52.5858" xlink:href="#uuid-d37e3ee2-462f-4187-8bc2-7c0160f3fd12"/><linearGradient id="uuid-99f6ae87-101d-4309-9fe9-27da25654521" x1="27.7932" y1="32.7071" x2="33.2073" y2="27.2929" xlink:href="#uuid-d37e3ee2-462f-4187-8bc2-7c0160f3fd12"/><linearGradient id="uuid-414b18a2-5d6a-4afc-a0ec-21de7803387e" x1="13.293" y1="33.2073" x2="19.7075" y2="26.7927" xlink:href="#uuid-d37e3ee2-462f-4187-8bc2-7c0160f3fd12"/><linearGradient id="uuid-70de8ad7-c35a-4ac9-b4bc-7e96cc601cd2" x1="16.5428" y1="42.4572" x2="29.4572" y2="29.5428" xlink:href="#uuid-d37e3ee2-462f-4187-8bc2-7c0160f3fd12"/><linearGradient id="uuid-f1d5094b-41a0-45a3-a60d-81f4ff35e194" x1="13.7928" y1="45.7072" x2="21.2072" y2="38.2928" xlink:href="#uuid-d37e3ee2-462f-4187-8bc2-7c0160f3fd12"/><linearGradient id="uuid-83694a91-27be-4f33-afca-43146666e835" x1="15.043" y1="28.9573" x2="24.9575" y2="19.0427" xlink:href="#uuid-d37e3ee2-462f-4187-8bc2-7c0160f3fd12"/><linearGradient id="uuid-0ee4034c-01fe-4be9-98f9-e9672fdc76e8" x1="24.7932" y1="21.7071" x2="32.2073" y2="14.2929" xlink:href="#uuid-d37e3ee2-462f-4187-8bc2-7c0160f3fd12"/><linearGradient id="uuid-e507c58b-1cd6-4c4b-b0ba-7ab6b6be9dcd" x1="12.293" y1="20.2073" x2="16.7075" y2="15.7927" xlink:href="#uuid-d37e3ee2-462f-4187-8bc2-7c0160f3fd12"/><linearGradient id="uuid-f870864e-2074-49a1-84e7-686252f0e6a7" x1="16.5428" y1="18.4572" x2="29.4572" y2="5.5428" xlink:href="#uuid-d37e3ee2-462f-4187-8bc2-7c0160f3fd12"/></defs><g id="uuid-c9d91993-f9af-4d76-8d32-bc2406538e66"><rect width="46" height="60" rx="3" ry="3" fill="#002b49"/><rect x="6" y="6" width="34" height="42" rx="1" ry="1" fill="#fff"/><circle cx="23" cy="54" r="3" fill="url(#uuid-d37e3ee2-462f-4187-8bc2-7c0160f3fd12)"/><circle cx="23" cy="54" r="1" fill="#fff"/><circle cx="31.5" cy="54" r="2" fill="url(#uuid-c456e88d-111e-4d85-b010-ce4550fff2dc)"/><circle cx="15" cy="54" r="2" fill="url(#uuid-d27ee96c-12d9-4a30-9c10-3d61b3d5c209)"/><circle cx="39" cy="54" r="2" fill="url(#uuid-819e3606-b1ca-4f90-a3b9-3106ad973a1b)"/><circle cx="8" cy="54" r="2" fill="url(#uuid-20ddb695-4c63-4e5b-92fc-addf57414c7b)"/><path d="M34.5,31h-7.9995c-.5523,0-1-.4473-1-1s.4477-1,1-1h7.9995c.5522,0,1,.4473,1,1s-.4478,1-1,1Z" fill="url(#uuid-99f6ae87-101d-4309-9fe9-27da25654521)"/><path d="M21.5005,31h-10.0005c-.5522,0-1-.4473-1-1s.4478-1,1-1h10.0005c.5522,0,1,.4473,1,1s-.4478,1-1,1Z" fill="url(#uuid-414b18a2-5d6a-4afc-a0ec-21de7803387e)"/><path d="M34.5,37H11.5c-.5522,0-1-.4473-1-1s.4478-1,1-1h23c.5522,0,1,.4473,1,1s-.4478,1-1,1Z" fill="url(#uuid-70de8ad7-c35a-4ac9-b4bc-7e96cc601cd2)"/><path d="M23.5,43h-12c-.5522,0-1-.4473-1-1s.4478-1,1-1h12c.5522,0,1,.4473,1,1s-.4478,1-1,1Z" fill="url(#uuid-f1d5094b-41a0-45a3-a60d-81f4ff35e194)"/><path d="M28.5005,25H11.5c-.5522,0-1-.4473-1-1s.4478-1,1-1h17.0005c.5522,0,1,.4473,1,1s-.4478,1-1,1Z" fill="url(#uuid-83694a91-27be-4f33-afca-43146666e835)"/><path d="M34.5,19h-11.9995c-.5523,0-1-.4473-1-1s.4477-1,1-1h11.9995c.5522,0,1,.4473,1,1s-.4478,1-1,1Z" fill="url(#uuid-0ee4034c-01fe-4be9-98f9-e9672fdc76e8)"/><path d="M17.5005,19h-6.0005c-.5522,0-1-.4473-1-1s.4478-1,1-1h6.0005c.5522,0,1,.4473,1,1s-.4478,1-1,1Z" fill="url(#uuid-e507c58b-1cd6-4c4b-b0ba-7ab6b6be9dcd)"/><path d="M34.5,13H11.5c-.5522,0-1-.4473-1-1s.4478-1,1-1h23c.5522,0,1,.4473,1,1s-.4478,1-1,1Z" fill="url(#uuid-f870864e-2074-49a1-84e7-686252f0e6a7)"/></g></svg>