<?xml version="1.0" encoding="UTF-8"?><svg id="uuid-dc782b0c-4d20-4104-b0ff-fc2c74cab337" xmlns="http://www.w3.org/2000/svg" xmlns:xlink="http://www.w3.org/1999/xlink" viewBox="0 0 60 60"><defs><linearGradient id="uuid-86ce12d6-89c9-42bb-bedc-6336b605c103" x1="12.9393" y1="22.9393" x2="47.0607" y2="-11.182" gradientUnits="userSpaceOnUse"><stop offset="0" stop-color="#a62b9f"/><stop offset="1" stop-color="#59c8fa"/></linearGradient><linearGradient id="uuid-9ba7cefd-3abc-4d1c-83b9-7ff18f2a6839" x1="7.1716" y1="24.8284" x2="12.8284" y2="19.1716" xlink:href="#uuid-86ce12d6-89c9-42bb-bedc-6336b605c103"/><linearGradient id="uuid-61b1638a-e95b-42e6-919a-b7fcf0ef34fd" x1="7.1716" y1="38.8284" x2="12.8284" y2="33.1716" xlink:href="#uuid-86ce12d6-89c9-42bb-bedc-6336b605c103"/><linearGradient id="uuid-3e4d98ba-bbb0-42d9-9abc-4d886e953f31" x1="7.1716" y1="52.8284" x2="12.8284" y2="47.1716" xlink:href="#uuid-86ce12d6-89c9-42bb-bedc-6336b605c103"/></defs><g id="uuid-cef34c6e-2976-4571-9b8f-87656e0f3303"><path d="M57,60H3c-1.6567,0-3-1.3428-3-3V12h60v45c0,1.6572-1.3433,3-3,3Z" fill="#002b49"/><path d="M3,0h54c1.6557,0,3,1.3443,3,3v7H0V3C0,1.3443,1.3443,0,3,0Z" fill="url(#uuid-86ce12d6-89c9-42bb-bedc-6336b605c103)"/><circle cx="5" cy="5" r="1.25" fill="#fff"/><circle cx="11" cy="5" r="1.25" fill="#fff"/><circle cx="17" cy="5" r="1.25" fill="#fff"/><circle cx="10" cy="22" r="4" fill="url(#uuid-9ba7cefd-3abc-4d1c-83b9-7ff18f2a6839)"/><circle cx="10" cy="36" r="4" fill="url(#uuid-61b1638a-e95b-42e6-919a-b7fcf0ef34fd)"/><circle cx="10" cy="50" r="4" fill="url(#uuid-3e4d98ba-bbb0-42d9-9abc-4d886e953f31)"/><path d="M52,20.25h-11c-.4141,0-.75-.3359-.75-.75s.3359-.75.75-.75h11c.4141,0,.75.3359.75.75s-.3359.75-.75.75Z" fill="#fff"/><path d="M36,20.25h-15c-.4141,0-.75-.3359-.75-.75s.3359-.75.75-.75h15c.4141,0,.75.3359.75.75s-.3359.75-.75.75Z" fill="#fff"/><path d="M44,25.25h-23c-.4141,0-.75-.3359-.75-.75s.3359-.75.75-.75h23c.4141,0,.75.3359.75.75s-.3359.75-.75.75Z" fill="#fff"/><path d="M52,34.25h-16c-.4141,0-.75-.3359-.75-.75s.3359-.75.75-.75h16c.4141,0,.75.3359.75.75s-.3359.75-.75.75Z" fill="#fff"/><path d="M31,34.25h-10c-.4141,0-.75-.3359-.75-.75s.3359-.75.75-.75h10c.4141,0,.75.3359.75.75s-.3359.75-.75.75Z" fill="#fff"/><path d="M52,39.25h-7c-.4141,0-.75-.3359-.75-.75s.3359-.75.75-.75h7c.4141,0,.75.3359.75.75s-.3359.75-.75.75Z" fill="#fff"/><path d="M40,39.25h-19c-.4141,0-.75-.3359-.75-.75s.3359-.75.75-.75h19c.4141,0,.75.3359.75.75s-.3359.75-.75.75Z" fill="#fff"/><path d="M52,48.25h-18c-.4141,0-.75-.3359-.75-.75s.3359-.75.75-.75h18c.4141,0,.75.3359.75.75s-.3359.75-.75.75Z" fill="#fff"/><path d="M29,48.25h-8c-.4141,0-.75-.3359-.75-.75s.3359-.75.75-.75h8c.4141,0,.75.3359.75.75s-.3359.75-.75.75Z" fill="#fff"/><path d="M38,53.25h-17c-.4141,0-.75-.3359-.75-.75s.3359-.75.75-.75h17c.4141,0,.75.3359.75.75s-.3359.75-.75.75Z" fill="#fff"/><path d="M10.5,38.25c-.1919,0-.3838-.0732-.5303-.2197l-2-2c-.2929-.293-.2929-.7676,0-1.0606.293-.2929.7676-.2929,1.0606,0l1.4697,1.4698,4.4697-4.4698c.293-.2929.7676-.2929,1.0606,0,.2929.293.2929.7676,0,1.0606l-5,5c-.1465.1465-.3384.2197-.5303.2197Z" fill="#fff"/></g></svg>