<?xml version="1.0" encoding="UTF-8"?><svg id="uuid-ecc732c4-6f06-4155-bac3-1bafdf7e1534" xmlns="http://www.w3.org/2000/svg" xmlns:xlink="http://www.w3.org/1999/xlink" viewBox="0 0 60 56"><defs><linearGradient id="uuid-4fa1a553-ceea-4b7e-b3be-132fcfe68c86" x1="15.5521" y1="23.6002" x2="44.4479" y2="-5.2955" gradientUnits="userSpaceOnUse"><stop offset="0" stop-color="#a62b9f"/><stop offset="1" stop-color="#59c8fa"/></linearGradient></defs><g id="uuid-e2752952-4e11-4978-b346-3ec300bb33ea"><path d="M11.1865,26.5088c-2.247,0-4.0683,1.8213-4.0683,4.0674v2.0342c0,2.246,1.8213,4.0673,4.0683,4.0673s4.0674-1.8213,4.0674-4.0673v-2.0342c0-2.2461-1.8213-4.0674-4.0674-4.0674Z" fill="#203b72"/><path d="M48.8135,26.5088c-2.2461,0-4.0674,1.8213-4.0674,4.0674v2.0342c0,2.246,1.8213,4.0673,4.0674,4.0673s4.0674-1.8213,4.0674-4.0673v-2.0342c0-2.2461-1.8204-4.0674-4.0674-4.0674Z" fill="#203b72"/><path d="M30,26.5088c-2.2461,0-4.0674,1.8213-4.0674,4.0674v2.0342c0,2.246,1.8213,4.0673,4.0674,4.0673s4.0674-1.8213,4.0674-4.0673v-2.0342c0-2.2461-1.8213-4.0674-4.0674-4.0674Z" fill="#203b72"/><path d="M49.3223,0H10.6777c-.5615,0-1.0166.4551-1.0166,1.0166v16.2715c0,.5615.4551,1.0166,1.0166,1.0166h6.1016l4.0684,4.0683,4.0673-4.0683h10.17l4.0673,4.0683,4.0684-4.0683h6.1016c.5615,0,1.0166-.4551,1.0166-1.0166V1.0166c0-.5615-.4551-1.0166-1.0166-1.0166Z" fill="url(#uuid-4fa1a553-ceea-4b7e-b3be-132fcfe68c86)"/><path d="M30,7.627c-.8428,0-1.5254.6835-1.5254,1.5253,0,.8428.6826,1.5254,1.5254,1.5254s1.5254-.6826,1.5254-1.5254c0-.8418-.6826-1.5253-1.5254-1.5253Z" fill="#fff"/><path d="M20.8477,7.627c-.8428,0-1.5254.6835-1.5254,1.5253,0,.8428.6826,1.5254,1.5254,1.5254.8418,0,1.5253-.6826,1.5253-1.5254,0-.8418-.6835-1.5253-1.5253-1.5253Z" fill="#fff"/><path d="M39.1523,7.627c-.8418,0-1.5253.6835-1.5253,1.5253,0,.8428.6835,1.5254,1.5253,1.5254.8428,0,1.5254-.6826,1.5254-1.5254,0-.8418-.6826-1.5253-1.5254-1.5253Z" fill="#fff"/><path d="M6.1016,37.6953c-3.3702,0-6.1016,2.7315-6.1016,6.1016v12.2031h3.5596v-11.4404c0-.4219.3408-.7627.7627-.7627.4209,0,.7627.3408.7627.7627v11.4404h12.2031v-12.2031c0-2.0293.8017-3.8721,2.0986-5.2393-.9131-.5439-1.9756-.8623-3.1152-.8623H6.1016Z" fill="#203b72"/><path d="M53.8984,37.6953h-10.1699c-1.1396,0-2.2031.3184-3.1152.8623,1.2969,1.3672,2.0986,3.21,2.0986,5.2393v12.2031h12.2031v-11.4404c0-.4219.3418-.7627.7627-.7627.4219,0,.7627.3408.7627.7627v11.4404h3.5596v-12.2031c0-3.3701-2.7314-6.1016-6.1016-6.1016Z" fill="#203b72"/><path d="M35.085,37.6953h-10.17c-1.6884,0-3.2168.6865-4.3222,1.7949-1.0987,1.1036-1.7793,2.625-1.7793,4.3067v12.2031h3.5595v-11.4404c0-.4219.3418-.7627.7627-.7627s.7627.3408.7627.7627v11.4404h12.2032v-11.4404c0-.4219.3418-.7627.7627-.7627s.7627.3408.7627.7627v11.4404h3.5595v-12.2031c0-1.6817-.6806-3.2031-1.7802-4.3067-1.1045-1.1084-2.6329-1.7949-4.3213-1.7949Z" fill="#203b72"/></g></svg>