<svg viewBox="0 0 60 60" fill="none" xmlns="http://www.w3.org/2000/svg">
    <path d="M45 0H3a3 3 0 00-3 3v43l14 14h31a3 3 0 003-3V3a3 3 0 00-3-3z" fill="#203b72"/>
    <path d="M11 46H0l14 14V49a3 3 0 00-3-3z" fill="#1ea7d3"/>
    <circle cx="12" cy="12" r="7" fill="#1ea7d3"/>
    <circle cx="12" cy="32" r="7" fill="#1ea7d3"/>
    <rect x="23" y="8" width="18" height="2" rx="1" fill="#fff"/>
    <rect x="23" y="14" width="11" height="2" rx="1" fill="#fff"/>
    <rect x="23" y="28" width="18" height="2" rx="1" fill="#fff"/>
    <rect x="23" y="34" width="6" height="2" rx="1" fill="#fff"/>
    <path d="M11.5 16l-3-3 1.41-1.41L11.5 13.17l6.29-6.29 1.42 1.41-7 7z" fill="#fff"/>
    <path d="M9 36l6-6 1.41 1.41-6 6L9 36zm6 0l-6-6 1.41-1.41 6 6L15 36z" fill="#fff"/>
</svg>