<svg viewBox="0 0 52 60" fill="none" xmlns="http://www.w3.org/2000/svg">
    <path d="M18 37.6V24l17.2-8 16.8 8v13.6C52 52.6 36 60 36 60s-16-7.4-16-22.4z" fill="#1ea7d3"/>
    <path d="M36 57.7c-3.1-1.7-14-8.5-14-20.1V27l14-6.5 14 6.5v10.9c0 11.6-10.9 18.4-14 20.1z" fill="#203b72"/>
    <circle cx="36" cy="36" r="4" fill="#fff"/>
    <path d="M38.6 44h-5.2l1.6-4.7h4l1.6 4.7z" fill="#fff"/>
    <path d="M18 37.6V24l1.2-.5L0 10V3a3 3 0 013-3h43v20.4l-10-4.6L18 24v13.6c0 11.9 9 19.2 13.9 22.4H3a3 3 0 01-3-3V10l18 13.5z" fill="#203b72"/>
</svg>