<?xml version="1.0" encoding="UTF-8"?><svg id="uuid-7585b98c-c699-4760-b91f-e06e1c92b038" xmlns="http://www.w3.org/2000/svg" xmlns:xlink="http://www.w3.org/1999/xlink" viewBox="0 0 60 60"><defs><linearGradient id="uuid-3559adbf-6ed2-4b04-b587-34be386db0c4" x1="22.2218" y1="37.7782" x2="37.7782" y2="22.2218" gradientUnits="userSpaceOnUse"><stop offset="0" stop-color="#a62b9f"/><stop offset="1" stop-color="#59c8fa"/></linearGradient></defs><g id="uuid-4d479f77-fa89-47f5-9dd7-64e7dc8ab6d8"><rect width="60" height="60" rx="3" ry="3" fill="#203b72"/><rect x="6" y="6" width="48" height="48" fill="#fff"/><rect x="8" y="8" width="44" height="44" fill="#203b72"/><rect x="4" y="39" width="6" height="8" rx="1" ry="1" fill="#fff"/><rect x="4" y="13" width="6" height="8" rx="1" ry="1" fill="#fff"/><circle cx="30" cy="30" r="13" fill="#fff"/><circle cx="30" cy="30" r="11" fill="url(#uuid-3559adbf-6ed2-4b04-b587-34be386db0c4)"/><circle cx="30" cy="30" r="5" fill="#fff"/><rect x="29" y="34" width="2" height="8" fill="#fff"/><rect x="29" y="18" width="2" height="8" fill="#fff"/><rect x="34" y="29" width="8" height="2" fill="#fff"/><rect x="18" y="29" width="8" height="2" fill="#fff"/><rect x="34.3641" y="31.3637" width="1.9998" height="8.0002" transform="translate(-14.6481 35.3622) rotate(-44.998)" fill="#fff"/><rect x="23.6361" y="20.6361" width="1.9998" height="8.0002" transform="translate(-10.2047 24.6342) rotate(-44.997)" fill="#fff"/><rect x="31.3639" y="23.6363" width="8.0002" height="1.9998" transform="translate(-7.0626 32.2219) rotate(-45)" fill="#fff"/><rect x="20.6359" y="34.3639" width="8.0002" height="1.9998" transform="translate(-17.7903 27.7781) rotate(-45)" fill="#fff"/></g></svg>