<?xml version="1.0" encoding="UTF-8"?><svg id="uuid-b0dfd89d-4374-4ce8-aa01-57b20f08dc23" xmlns="http://www.w3.org/2000/svg" xmlns:xlink="http://www.w3.org/1999/xlink" viewBox="0 0 60 60"><defs><linearGradient id="uuid-780d1fbe-e23c-45dd-942a-de50362c5610" x1="-2.3108" y1="49.1036" x2="35.0178" y2="11.7751" gradientUnits="userSpaceOnUse"><stop offset="0" stop-color="#a62b9f"/><stop offset="1" stop-color="#59c8fa"/></linearGradient><linearGradient id="uuid-d29db927-5d3f-45df-9666-f2a69535d473" x1="24.5429" y1="49.5429" x2="62.7501" y2="11.3357" xlink:href="#uuid-780d1fbe-e23c-45dd-942a-de50362c5610"/></defs><g id="uuid-8e652496-20a1-470b-871f-5f41b2441047"><rect width="60" height="60" rx="3" ry="3" fill="#002b49"/><path d="M29,56H5c-.5522,0-1-.4473-1-1V5c0-.5527.4478-1,1-1h21c1.6567,0,3,1.3428,3,3v49Z" fill="url(#uuid-780d1fbe-e23c-45dd-942a-de50362c5610)"/><path d="M31,56h24c.5522,0,1-.4473,1-1V5c0-.5527-.4478-1-1-1h-21c-1.6567,0-3,1.3428-3,3v49Z" fill="url(#uuid-d29db927-5d3f-45df-9666-f2a69535d473)"/><path d="M19,39.75h-10c-.4141,0-.75-.3359-.75-.75s.3359-.75.75-.75h10c.4141,0,.75.3359.75.75s-.3359.75-.75.75Z" fill="#fff"/><path d="M24,45.75h-15c-.4141,0-.75-.3359-.75-.75s.3359-.75.75-.75h15c.4141,0,.75.3359.75.75s-.3359.75-.75.75Z" fill="#fff"/><path d="M15,51.75h-6c-.4141,0-.75-.3359-.75-.75s.3359-.75.75-.75h6c.4141,0,.75.3359.75.75s-.3359.75-.75.75Z" fill="#fff"/><path d="M16.0005,33.75h-7.0005c-.4141,0-.75-.3359-.75-.75s.3359-.75.75-.75h7.0005c.4141,0,.75.3359.75.75s-.3359.75-.75.75Z" fill="#fff"/><path d="M16,27.75h-7c-.4141,0-.75-.3359-.75-.75s.3359-.75.75-.75h7c.4141,0,.75.3359.75.75s-.3359.75-.75.75Z" fill="#fff"/><path d="M24,9.75h-15c-.4141,0-.75-.3359-.75-.75s.3359-.75.75-.75h15c.4141,0,.75.3359.75.75s-.3359.75-.75.75Z" fill="#fff"/><path d="M45,39.75h-4c-.4141,0-.75-.3359-.75-.75s.3359-.75.75-.75h4c.4141,0,.75.3359.75.75s-.3359.75-.75.75Z" fill="#fff"/><path d="M51,45.75h-15c-.4141,0-.75-.3359-.75-.75s.3359-.75.75-.75h15c.4141,0,.75.3359.75.75s-.3359.75-.75.75Z" fill="#fff"/><path d="M47,51.75h-11c-.4141,0-.75-.3359-.75-.75s.3359-.75.75-.75h11c.4141,0,.75.3359.75.75s-.3359.75-.75.75Z" fill="#fff"/><path d="M51.0005,33.75h-7.0005c-.4141,0-.75-.3359-.75-.75s.3359-.75.75-.75h7.0005c.4141,0,.75.3359.75.75s-.3359.75-.75.75Z" fill="#fff"/><path d="M48,27.75h-4c-.4141,0-.75-.3359-.75-.75s.3359-.75.75-.75h4c.4141,0,.75.3359.75.75s-.3359.75-.75.75Z" fill="#fff"/><path d="M51,21.75h-10c-.4141,0-.75-.3359-.75-.75s.3359-.75.75-.75h10c.4141,0,.75.3359.75.75s-.3359.75-.75.75Z" fill="#fff"/><path d="M19,21.75h-10c-.4141,0-.75-.3359-.75-.75s.3359-.75.75-.75h10c.4141,0,.75.3359.75.75s-.3359.75-.75.75Z" fill="#fff"/><path d="M51,15.75h-15c-.4141,0-.75-.3359-.75-.75s.3359-.75.75-.75h15c.4141,0,.75.3359.75.75s-.3359.75-.75.75Z" fill="#fff"/><path d="M18,15.75h-9c-.4141,0-.75-.3359-.75-.75s.3359-.75.75-.75h9c.4141,0,.75.3359.75.75s-.3359.75-.75.75Z" fill="#fff"/><path d="M51,9.75h-15c-.4141,0-.75-.3359-.75-.75s.3359-.75.75-.75h15c.4141,0,.75.3359.75.75s-.3359.75-.75.75Z" fill="#fff"/><circle cx="30" cy="30" r="12" fill="#002b49"/><path d="M26.2959,34.9717v-9.9434c0-.8125.8984-1.3027,1.582-.8633l7.7339,4.9717c.6284.4043.6284,1.3223,0,1.7266l-7.7339,4.9717c-.6836.4394-1.582-.0508-1.582-.8633Z" fill="#fff"/></g></svg>