<?xml version="1.0" encoding="UTF-8"?><svg id="uuid-45fd63e9-ebd4-45e0-a063-2ed1b0714ad4" xmlns="http://www.w3.org/2000/svg" xmlns:xlink="http://www.w3.org/1999/xlink" viewBox="0 0 60 60"><defs><linearGradient id="uuid-acf53c34-20c9-44e0-a075-54fcf78b4f12" x1="10.4393" y1="20.4393" x2="39.5607" y2="-8.6822" gradientUnits="userSpaceOnUse"><stop offset="0" stop-color="#a62b9f"/><stop offset="1" stop-color="#59c8fa"/></linearGradient><linearGradient id="uuid-0e12389f-df88-49cc-8647-d0d8eaceb358" x1="29.272" y1="54.728" x2="54.728" y2="29.272" xlink:href="#uuid-acf53c34-20c9-44e0-a075-54fcf78b4f12"/></defs><g id="uuid-f18d6acf-e591-4a5c-9ced-5c6e76c375dc"><path d="M3,0h44c1.6557,0,3,1.3443,3,3v7H0V3C0,1.3443,1.3443,0,3,0Z" fill="url(#uuid-acf53c34-20c9-44e0-a075-54fcf78b4f12)"/><circle cx="5" cy="5" r="1.25" fill="#fff"/><circle cx="11" cy="5" r="1.25" fill="#fff"/><circle cx="17" cy="5" r="1.25" fill="#fff"/><path d="M22,42c0-11.0283,8.9717-20,20-20,2.8447,0,5.5479.6064,8,1.6816v-11.6816H0v45c0,1.6572,1.3428,3,3,3h30.3398c-6.6972-3.2363-11.3398-10.0771-11.3398-18Z" fill="#002b49"/><path d="M24,42c0-9.9414,8.0586-18,18-18,2.8779,0,5.5879.6924,8,1.8936v-2.212c-2.4521-1.0752-5.1553-1.6816-8-1.6816-11.0283,0-20,8.9717-20,20,0,7.9229,4.6426,14.7637,11.3398,18h8.6602c-9.9414,0-18-8.0586-18-18Z" fill="#fff"/><circle cx="42" cy="42" r="18" fill="url(#uuid-0e12389f-df88-49cc-8647-d0d8eaceb358)"/><path d="M36.0723,48.4238v-12.8476c0-1.585,1.7539-2.543,3.0869-1.6856l9.9931,6.4239c1.2266.789,1.2266,2.582,0,3.371l-9.9931,6.4239c-1.333.8574-3.0869-.1006-3.0869-1.6856Z" fill="#fff"/></g></svg>