<?xml version="1.0" encoding="UTF-8"?><svg id="uuid-61867e3a-d006-4f5b-b6af-5a2cbd82944e" xmlns="http://www.w3.org/2000/svg" xmlns:xlink="http://www.w3.org/1999/xlink" viewBox="0 0 60 60"><defs><linearGradient id="uuid-a1a01c56-181a-4f2e-b2f0-1e6861f225a6" x1="37" y1="23" x2="55.7072" y2="4.2928" gradientTransform="translate(93 27) rotate(-180)" gradientUnits="userSpaceOnUse"><stop offset="0" stop-color="#a62b9f"/><stop offset="1" stop-color="#59c8fa"/></linearGradient><linearGradient id="uuid-f0aa94a0-c9bf-49c6-8de8-e314610b4aa7" x1="19.1585" y1="23.1143" x2="28.8415" y2="13.4313" gradientTransform="matrix(1,0,0,1,0,0)" xlink:href="#uuid-a1a01c56-181a-4f2e-b2f0-1e6861f225a6"/><linearGradient id="uuid-f395dff5-7faf-4404-b040-9360d41e2d03" x1="13.2784" y1="48.2784" x2="34.7215" y2="26.8353" gradientTransform="matrix(1,0,0,1,0,0)" xlink:href="#uuid-a1a01c56-181a-4f2e-b2f0-1e6861f225a6"/></defs><g id="uuid-a0b751a4-c4fe-4b78-95b0-7610e85a374b"><rect width="60" height="50" rx="3" ry="3" fill="#002b49"/><rect x="4" y="4" width="52" height="42" rx="1" ry="1" transform="translate(60 50) rotate(180)" fill="#fff"/><path d="M37,4h19v19h-18c-.5519,0-1-.4481-1-1V4h0Z" transform="translate(93 27) rotate(180)" fill="url(#uuid-a1a01c56-181a-4f2e-b2f0-1e6861f225a6)"/><rect x="22" y="50" width="16" height="6" fill="#002b49"/><path d="M46,60H14c-1.1045,0-2-.8955-2-2h0c0-1.1045.8955-2,2-2h32c1.1045,0,2,.8955,2,2h0c0,1.1045-.8955,2-2,2Z" fill="#002b49"/><path d="M18.1816,19.7275v-2.9091c0-3.2139,2.605-5.8184,5.8184-5.8184s5.8184,2.6045,5.8184,5.8184v2.9091c0,3.2129-2.605,5.8184-5.8184,5.8184s-5.8184-2.6055-5.8184-5.8184Z" fill="url(#uuid-f0aa94a0-c9bf-49c6-8de8-e314610b4aa7)"/><path d="M8,35.7275c0-2.4043.9727-4.581,2.5454-6.1591,1.5801-1.586,3.7661-2.5684,6.1821-2.5684h14.545c2.416,0,4.602.9824,6.1821,2.5684,1.5727,1.5781,2.5454,3.7548,2.5454,6.1591v7.2725h-5.0908v-6.1816c0-.6026-.4888-1.0909-1.0908-1.0909-.6026,0-1.0909.4883-1.0909,1.0909v6.1816H15.2725v-6.1816c0-.6026-.4883-1.0909-1.0909-1.0909-.602,0-1.0908.4883-1.0908,1.0909v6.1816h-5.0908v-7.2725Z" fill="url(#uuid-f395dff5-7faf-4404-b040-9360d41e2d03)"/><path d="M43.9546,10.3184v-1.2725c0-1.4063,1.1396-2.5459,2.5454-2.5459s2.5454,1.1396,2.5454,2.5459v1.2725c0,1.4052-1.1396,2.5449-2.5454,2.5449s-2.5454-1.1397-2.5454-2.5449Z" fill="#fff"/><path d="M39.5,17.3184c0-1.0518.4253-2.0039,1.1138-2.6954.6914-.6933,1.6474-1.123,2.7046-1.123h6.3632c1.0572,0,2.0132.4297,2.7046,1.123.688.6915,1.1138,1.6436,1.1138,2.6954v3.1816h-2.2275v-2.7041c0-.2637-.2134-.4775-.4771-.4775s-.477.2138-.477.4775v2.7041h-7.6368v-2.7041c0-.2637-.2133-.4775-.477-.4775s-.4771.2138-.4771.4775v2.7041h-2.2275v-3.1816Z" fill="#fff"/></g></svg>