<?xml version="1.0" encoding="UTF-8"?><svg id="uuid-34102d4c-da4c-4d1b-9791-72e76a08f6ff" xmlns="http://www.w3.org/2000/svg" xmlns:xlink="http://www.w3.org/1999/xlink" viewBox="0 0 60 60"><defs><linearGradient id="uuid-a64214ae-d060-4328-815f-16d11d5f8985" x1="15.7251" y1="43.9963" x2="44.2749" y2="15.4465" gradientUnits="userSpaceOnUse"><stop offset="0" stop-color="#a62b9f"/><stop offset="1" stop-color="#59c8fa"/></linearGradient><linearGradient id="uuid-a8b75f22-17ce-40fd-bfd0-84e848c548f6" x1="26.5" y1="56.5" x2="33.5" y2="49.5" xlink:href="#uuid-a64214ae-d060-4328-815f-16d11d5f8985"/><linearGradient id="uuid-9692f398-9830-4591-9c7e-227413d28b0f" x1="24.0858" y1="63.9142" x2="35.9142" y2="52.0858" xlink:href="#uuid-a64214ae-d060-4328-815f-16d11d5f8985"/></defs><g id="uuid-959aa4b5-9f49-4a83-9759-9a3a3aef1b49"><path d="M2,13c-1.1045,0-2-.8955-2-2V2C0,.8955.8955,0,2,0h9c1.1045,0,2,.8955,2,2s-.8955,2-2,2h-7v7c0,1.1045-.8955,2-2,2Z" fill="#092b49"/><path d="M58,13c-1.1045,0-2-.8955-2-2v-7h-7c-1.1045,0-2-.8955-2-2s.8955-2,2-2h9c1.1045,0,2,.8955,2,2v9c0,1.1045-.8955,2-2,2Z" fill="#092b49"/><path d="M58,60h-9c-1.1045,0-2-.8955-2-2s.8955-2,2-2h7v-7c0-1.1045.8955-2,2-2s2,.8955,2,2v9c0,1.1045-.8955,2-2,2Z" fill="#092b49"/><path d="M11,60H2c-1.1045,0-2-.8955-2-2v-9c0-1.1045.8955-2,2-2s2,.8955,2,2v7h7c1.1045,0,2,.8955,2,2s-.8955,2-2,2Z" fill="#092b49"/><path d="M30,50c-11.0283,0-20-8.9717-20-20v-8c0-1.1045.8955-2,2-2h36c1.1045,0,2,.8955,2,2v8c0,11.0283-8.9717,20-20,20ZM14,24v6c0,8.8223,7.1777,16,16,16s16-7.1777,16-16v-6H14Z" fill="url(#uuid-a64214ae-d060-4328-815f-16d11d5f8985)"/><path d="M30,42h0c-6.627,0-12-5.373-12-12V14c0-6.627,5.373-12,12-12h0c6.627,0,12,5.373,12,12v16c0,6.627-5.373,12-12,12Z" fill="#092b49"/><rect x="28" y="48" width="4" height="10" fill="url(#uuid-a8b75f22-17ce-40fd-bfd0-84e848c548f6)"/><path d="M39,60h-18c-1.1045,0-2-.8955-2-2h0c0-1.1045.8955-2,2-2h18c1.1045,0,2,.8955,2,2h0c0,1.1045-.8955,2-2,2Z" fill="url(#uuid-9692f398-9830-4591-9c7e-227413d28b0f)"/><circle cx="30" cy="10" r="1" fill="#fff"/><circle cx="30" cy="18" r="1" fill="#fff"/><circle cx="34" cy="14" r="1" fill="#fff"/><circle cx="22" cy="18" r="1" fill="#fff"/><circle cx="26" cy="14" r="1" fill="#fff"/><circle cx="34" cy="6" r="1" fill="#fff"/><circle cx="26" cy="6" r="1" fill="#fff"/><circle cx="38" cy="18" r="1" fill="#fff"/><circle cx="22" cy="10" r="1" fill="#fff"/><circle cx="38" cy="10" r="1" fill="#fff"/><circle cx="30" cy="26" r="1" fill="#fff"/><circle cx="30" cy="34" r="1" fill="#fff"/><circle cx="34" cy="22" r="1" fill="#fff"/><circle cx="26" cy="22" r="1" fill="#fff"/><circle cx="34" cy="30" r="1" fill="#fff"/><circle cx="22" cy="26" r="1" fill="#fff"/><circle cx="26" cy="30" r="1" fill="#fff"/><circle cx="34" cy="38" r="1" fill="#fff"/><circle cx="26" cy="38" r="1" fill="#fff"/><circle cx="38" cy="26" r="1" fill="#fff"/><circle cx="22" cy="34" r="1" fill="#fff"/><circle cx="38" cy="34" r="1" fill="#fff"/></g></svg>