<svg xmlns="http://www.w3.org/2000/svg" viewBox="0 0 60 60"><defs><style>.cls-1{fill:#203b72;}.cls-2{fill:#1ea7d3;}.cls-3{fill:#fff;}</style></defs><g id="Слой_2" data-name="Слой 2"><g id="Layer_1" data-name="Layer 1"><path class="cls-1" d="M2,13a2,2,0,0,1-2-2V2A2,2,0,0,1,2,0h9a2,2,0,0,1,0,4H4v7A2,2,0,0,1,2,13Z"/><path class="cls-1" d="M58,13a2,2,0,0,1-2-2V4H49a2,2,0,0,1,0-4h9a2,2,0,0,1,2,2v9A2,2,0,0,1,58,13Z"/><path class="cls-1" d="M58,60H49a2,2,0,0,1,0-4h7V49a2,2,0,0,1,4,0v9A2,2,0,0,1,58,60Z"/><path class="cls-1" d="M11,60H2a2,2,0,0,1-2-2V49a2,2,0,0,1,4,0v7h7a2,2,0,0,1,0,4Z"/><path class="cls-2" d="M30,50A20,20,0,0,1,10,30V22a2,2,0,0,1,2-2H48a2,2,0,0,1,2,2v8A20,20,0,0,1,30,50ZM14,24v6a16,16,0,0,0,32,0V24Z"/><path class="cls-1" d="M30,42h0A12,12,0,0,1,18,30V14A12,12,0,0,1,30,2h0A12,12,0,0,1,42,14V30A12,12,0,0,1,30,42Z"/><rect class="cls-2" x="28" y="48" width="4" height="10"/><path class="cls-2" d="M39,60H21a2,2,0,0,1-2-2h0a2,2,0,0,1,2-2H39a2,2,0,0,1,2,2h0A2,2,0,0,1,39,60Z"/><circle class="cls-3" cx="30" cy="10" r="1"/><circle class="cls-3" cx="30" cy="18" r="1"/><circle class="cls-3" cx="34" cy="14" r="1"/><circle class="cls-3" cx="22" cy="18" r="1"/><circle class="cls-3" cx="26" cy="14" r="1"/><circle class="cls-3" cx="34" cy="6" r="1"/><circle class="cls-3" cx="26" cy="6" r="1"/><circle class="cls-3" cx="38" cy="18" r="1"/><circle class="cls-3" cx="22" cy="10" r="1"/><circle class="cls-3" cx="38" cy="10" r="1"/><circle class="cls-3" cx="30" cy="26" r="1"/><circle class="cls-3" cx="30" cy="34" r="1"/><circle class="cls-3" cx="34" cy="22" r="1"/><circle class="cls-3" cx="26" cy="22" r="1"/><circle class="cls-3" cx="34" cy="30" r="1"/><circle class="cls-3" cx="22" cy="26" r="1"/><circle class="cls-3" cx="26" cy="30" r="1"/><circle class="cls-3" cx="34" cy="38" r="1"/><circle class="cls-3" cx="26" cy="38" r="1"/><circle class="cls-3" cx="38" cy="26" r="1"/><circle class="cls-3" cx="22" cy="34" r="1"/><circle class="cls-3" cx="38" cy="34" r="1"/></g></g></svg>