<?xml version="1.0" encoding="UTF-8"?><svg id="uuid-11a7dca2-09a3-42e9-81ef-67a2510bb5e1" xmlns="http://www.w3.org/2000/svg" xmlns:xlink="http://www.w3.org/1999/xlink" viewBox="0 0 60 60"><defs><linearGradient id="uuid-0d1d274b-4f0f-4271-8870-053f75e3ec12" x1="10" y1="46" x2="50" y2="6" gradientUnits="userSpaceOnUse"><stop offset="0" stop-color="#a62b9f"/><stop offset="1" stop-color="#59c8fa"/></linearGradient></defs><g id="uuid-d5654779-c24a-408c-a308-ee7f782d2dc8"><rect y="10" width="60" height="40" rx="3" ry="3" fill="#002b49"/><rect x="4" y="14" width="52" height="32" rx="1" ry="1" fill="#fff"/><rect x="10" y="6" width="40" height="40" fill="url(#uuid-0d1d274b-4f0f-4271-8870-053f75e3ec12)"/><rect x="14" y="10" width="10" height="10" rx="1" ry="1" fill="#fff"/><rect x="14" y="24" width="10" height="10" rx="1" ry="1" fill="#fff"/><path d="M15,38h8c.5519,0,1,.4481,1,1v7h-10v-7c0-.5519.4481-1,1-1Z" fill="#fff"/><path d="M50,6H10V1c0-.5522.4473-1,1-1h38c.5527,0,1,.4478,1,1v5Z" fill="#002b49"/><rect x="22" y="50" width="16" height="6" fill="#002b49"/><path d="M46,60H14c-1.1045,0-2-.8955-2-2h0c0-1.1045.8955-2,2-2h32c1.1045,0,2,.8955,2,2h0c0,1.1045-.8955,2-2,2Z" fill="#002b49"/><circle cx="13.25" cy="3" r=".75" fill="#fff"/><circle cx="17.25" cy="3" r=".75" fill="#fff"/><circle cx="21.25" cy="3" r=".75" fill="#fff"/><path d="M46,13.5h-10c-.4141,0-.75-.3359-.75-.75s.3359-.75.75-.75h10c.4141,0,.75.3359.75.75s-.3359.75-.75.75Z" fill="#fff"/><path d="M32,13.5h-4c-.4141,0-.75-.3359-.75-.75s.3359-.75.75-.75h4c.4141,0,.75.3359.75.75s-.3359.75-.75.75Z" fill="#fff"/><path d="M38,18h-10c-.4141,0-.75-.3359-.75-.75s.3359-.75.75-.75h10c.4141,0,.75.3359.75.75s-.3359.75-.75.75Z" fill="#fff"/><path d="M46,27.5h-9c-.4141,0-.75-.3359-.75-.75s.3359-.75.75-.75h9c.4141,0,.75.3359.75.75s-.3359.75-.75.75Z" fill="#fff"/><path d="M33,27.5h-5c-.4141,0-.75-.3359-.75-.75s.3359-.75.75-.75h5c.4141,0,.75.3359.75.75s-.3359.75-.75.75Z" fill="#fff"/><path d="M46,32h-4c-.4141,0-.75-.3359-.75-.75s.3359-.75.75-.75h4c.4141,0,.75.3359.75.75s-.3359.75-.75.75Z" fill="#fff"/><path d="M38,32h-10c-.4141,0-.75-.3359-.75-.75s.3359-.75.75-.75h10c.4141,0,.75.3359.75.75s-.3359.75-.75.75Z" fill="#fff"/><path d="M46,41.5h-9c-.4141,0-.75-.3359-.75-.75s.3359-.75.75-.75h9c.4141,0,.75.3359.75.75s-.3359.75-.75.75Z" fill="#fff"/><path d="M33,41.5h-5c-.4141,0-.75-.3359-.75-.75s.3359-.75.75-.75h5c.4141,0,.75.3359.75.75s-.3359.75-.75.75Z" fill="#fff"/><path d="M42,46h-14c-.4141,0-.75-.3359-.75-.75s.3359-.75.75-.75h14c.4141,0,.75.3359.75.75s-.3359.75-.75.75Z" fill="#fff"/></g></svg>