<svg xmlns="http://www.w3.org/2000/svg" viewBox="0 0 60 58"><defs><style>.cls-1{fill:#203b72;}.cls-2{fill:#1ea7d3;}</style></defs><g id="Слой_2" data-name="Слой 2"><g id="Layer_1" data-name="Layer 1"><rect class="cls-1" x="19" y="16" width="22" height="10" rx="3"/><rect class="cls-1" x="19" y="32" width="22" height="10" rx="3"/><rect class="cls-1" width="41" height="10" rx="3"/><rect class="cls-1" x="19" y="48" width="22" height="10" rx="3"/><path class="cls-2" d="M50.5,22.5H41v-3h9.5a6.5,6.5,0,0,0,0-13H41v-3h9.5a9.5,9.5,0,0,1,0,19Z"/><path class="cls-2" d="M19,38.5H9.5a9.5,9.5,0,0,1,0-19H19v3H9.5a6.5,6.5,0,0,0,0,13H19Z"/><path class="cls-2" d="M50.5,54.5H41v-3h9.5a6.5,6.5,0,0,0,0-13H41v-3h9.5a9.5,9.5,0,0,1,0,19Z"/></g></g></svg>