<?xml version="1.0" encoding="UTF-8"?><svg id="uuid-5f6dfb7a-dd5b-411f-9cdd-032af609eeab" xmlns="http://www.w3.org/2000/svg" xmlns:xlink="http://www.w3.org/1999/xlink" viewBox="0 0 60 58"><defs><linearGradient id="uuid-d74a5f30-0277-4ab9-b273-051458d76728" x1="39.6072" y1="21.1072" x2="55.8215" y2="4.8928" gradientUnits="userSpaceOnUse"><stop offset="0" stop-color="#a62b9f"/><stop offset="1" stop-color="#59c8fa"/></linearGradient><linearGradient id="uuid-5c6242dd-3554-42bf-a583-7b62de8a3cde" x1="4.1785" y1="37.1072" x2="20.3928" y2="20.8928" xlink:href="#uuid-d74a5f30-0277-4ab9-b273-051458d76728"/><linearGradient id="uuid-1e2d2ea9-2ea3-44d9-9596-87ac59591579" x1="39.6072" y1="53.1072" x2="55.8215" y2="36.8928" xlink:href="#uuid-d74a5f30-0277-4ab9-b273-051458d76728"/></defs><g id="uuid-42a8c794-78a0-446e-8e17-651259ec890d"><rect x="19" y="16" width="22" height="10" rx="3" ry="3" fill="#092b49"/><rect x="19" y="32" width="22" height="10" rx="3" ry="3" fill="#092b49"/><rect width="41" height="10" rx="3" ry="3" fill="#092b49"/><rect x="19" y="48" width="22" height="10" rx="3" ry="3" fill="#092b49"/><path d="M50.5,22.5h-9.5v-3h9.5c3.584,0,6.5-2.916,6.5-6.5s-2.916-6.5-6.5-6.5h-9.5v-3h9.5c5.2383,0,9.5,4.2617,9.5,9.5s-4.2617,9.5-9.5,9.5Z" fill="url(#uuid-d74a5f30-0277-4ab9-b273-051458d76728)"/><path d="M19,38.5h-9.5c-5.2383,0-9.5-4.2617-9.5-9.5s4.2617-9.5,9.5-9.5h9.5v3h-9.5c-3.584,0-6.5,2.916-6.5,6.5s2.916,6.5,6.5,6.5h9.5v3Z" fill="url(#uuid-5c6242dd-3554-42bf-a583-7b62de8a3cde)"/><path d="M50.5,54.5h-9.5v-3h9.5c3.584,0,6.5-2.916,6.5-6.5s-2.916-6.5-6.5-6.5h-9.5v-3h9.5c5.2383,0,9.5,4.2617,9.5,9.5s-4.2617,9.5-9.5,9.5Z" fill="url(#uuid-1e2d2ea9-2ea3-44d9-9596-87ac59591579)"/></g></svg>